<?xml version="1.0" encoding="UTF-8"?>
<svg id="Layer_1" data-name="Layer 1" xmlns="http://www.w3.org/2000/svg" xmlns:xlink="http://www.w3.org/1999/xlink" version="1.1" viewBox="0 0 568.6 413.3">
  <defs>
    <style>
      .cls-1, .cls-2, .cls-3, .cls-4, .cls-5 {
        stroke: #1f4788;
      }

      .cls-1, .cls-5 {
        fill: #1f4788;
      }

      .cls-6, .cls-7, .cls-8, .cls-9, .cls-10 {
        stroke: #9e778a;
      }

      .cls-6, .cls-8 {
        fill: #9e778a;
      }

      .cls-11 {
        clip-path: url(#clippath);
      }

      .cls-12, .cls-7, .cls-2, .cls-9, .cls-13, .cls-10, .cls-3, .cls-4, .cls-14 {
        fill: none;
      }

      .cls-12, .cls-15, .cls-16 {
        stroke-width: 0px;
      }

      .cls-7, .cls-8, .cls-2, .cls-9, .cls-13, .cls-10, .cls-3, .cls-4, .cls-17, .cls-5 {
        stroke-linejoin: round;
      }

      .cls-7, .cls-2, .cls-9, .cls-10, .cls-3, .cls-4 {
        stroke-width: 3px;
      }

      .cls-7, .cls-3, .cls-14 {
        stroke-linecap: square;
      }

      .cls-18 {
        clip-path: url(#clippath-1);
      }

      .cls-19 {
        clip-path: url(#clippath-4);
      }

      .cls-20 {
        clip-path: url(#clippath-3);
      }

      .cls-21 {
        clip-path: url(#clippath-2);
      }

      .cls-22 {
        clip-path: url(#clippath-7);
      }

      .cls-23 {
        clip-path: url(#clippath-8);
      }

      .cls-24 {
        clip-path: url(#clippath-6);
      }

      .cls-25 {
        clip-path: url(#clippath-5);
      }

      .cls-26 {
        clip-path: url(#clippath-9);
      }

      .cls-2, .cls-9 {
        stroke-dasharray: 0 0 11.1 4.8;
      }

      .cls-15, .cls-17 {
        fill: #000;
      }

      .cls-27 {
        clip-path: url(#clippath-20);
      }

      .cls-28 {
        clip-path: url(#clippath-21);
      }

      .cls-29 {
        clip-path: url(#clippath-24);
      }

      .cls-30 {
        clip-path: url(#clippath-23);
      }

      .cls-31 {
        clip-path: url(#clippath-22);
      }

      .cls-32 {
        clip-path: url(#clippath-25);
      }

      .cls-33 {
        clip-path: url(#clippath-27);
      }

      .cls-34 {
        clip-path: url(#clippath-28);
      }

      .cls-35 {
        clip-path: url(#clippath-26);
      }

      .cls-36 {
        clip-path: url(#clippath-29);
      }

      .cls-37 {
        clip-path: url(#clippath-34);
      }

      .cls-38 {
        clip-path: url(#clippath-35);
      }

      .cls-39 {
        clip-path: url(#clippath-36);
      }

      .cls-40 {
        clip-path: url(#clippath-37);
      }

      .cls-41 {
        clip-path: url(#clippath-33);
      }

      .cls-42 {
        clip-path: url(#clippath-32);
      }

      .cls-43 {
        clip-path: url(#clippath-30);
      }

      .cls-44 {
        clip-path: url(#clippath-38);
      }

      .cls-45 {
        clip-path: url(#clippath-31);
      }

      .cls-46 {
        clip-path: url(#clippath-14);
      }

      .cls-47 {
        clip-path: url(#clippath-13);
      }

      .cls-48 {
        clip-path: url(#clippath-12);
      }

      .cls-49 {
        clip-path: url(#clippath-10);
      }

      .cls-50 {
        clip-path: url(#clippath-15);
      }

      .cls-51 {
        clip-path: url(#clippath-17);
      }

      .cls-52 {
        clip-path: url(#clippath-16);
      }

      .cls-53 {
        clip-path: url(#clippath-19);
      }

      .cls-54 {
        clip-path: url(#clippath-11);
      }

      .cls-55 {
        clip-path: url(#clippath-18);
      }

      .cls-13 {
        stroke: #b0b0b0;
        stroke-dasharray: 0 0 3 1.3;
        stroke-opacity: .3;
      }

      .cls-13, .cls-17, .cls-14 {
        stroke-width: .8px;
      }

      .cls-17, .cls-14 {
        stroke: #000;
      }

      .cls-56 {
        isolation: isolate;
        opacity: .9;
        stroke: #ccc;
      }

      .cls-56, .cls-16 {
        fill: #fff;
      }
    </style>
    <clipPath id="clippath">
      <rect class="cls-12" x="35.2" y="11" width="526.2" height="363.8"/>
    </clipPath>
    <clipPath id="clippath-1">
      <rect class="cls-12" x="35.2" y="11" width="526.2" height="363.8"/>
    </clipPath>
    <clipPath id="clippath-2">
      <rect class="cls-12" x="35.2" y="11" width="526.2" height="363.8"/>
    </clipPath>
    <clipPath id="clippath-3">
      <rect class="cls-12" x="35.2" y="11" width="526.2" height="363.8"/>
    </clipPath>
    <clipPath id="clippath-4">
      <rect class="cls-12" x="35.2" y="11" width="526.2" height="363.8"/>
    </clipPath>
    <clipPath id="clippath-5">
      <rect class="cls-12" x="35.2" y="11" width="526.2" height="363.8"/>
    </clipPath>
    <clipPath id="clippath-6">
      <rect class="cls-12" x="35.2" y="11" width="526.2" height="363.8"/>
    </clipPath>
    <clipPath id="clippath-7">
      <rect class="cls-12" x="35.2" y="11" width="526.2" height="363.8"/>
    </clipPath>
    <clipPath id="clippath-8">
      <rect class="cls-12" x="35.2" y="11" width="526.2" height="363.8"/>
    </clipPath>
    <clipPath id="clippath-9">
      <rect class="cls-12" x="35.2" y="11" width="526.2" height="363.8"/>
    </clipPath>
    <clipPath id="clippath-10">
      <rect class="cls-12" x="35.2" y="11" width="526.2" height="363.8"/>
    </clipPath>
    <clipPath id="clippath-11">
      <rect class="cls-12" x="35.2" y="11" width="526.2" height="363.8"/>
    </clipPath>
    <clipPath id="clippath-12">
      <rect class="cls-12" x="35.2" y="11" width="526.2" height="363.8"/>
    </clipPath>
    <clipPath id="clippath-13">
      <rect class="cls-12" x="35.2" y="11" width="526.2" height="363.8"/>
    </clipPath>
    <clipPath id="clippath-14">
      <rect class="cls-12" x="35.2" y="11" width="526.2" height="363.8"/>
    </clipPath>
    <clipPath id="clippath-15">
      <rect class="cls-12" x="35.2" y="11" width="526.2" height="363.8"/>
    </clipPath>
    <clipPath id="clippath-16">
      <rect class="cls-12" x="35.2" y="11" width="526.2" height="363.8"/>
    </clipPath>
    <clipPath id="clippath-17">
      <rect class="cls-12" x="35.2" y="11" width="526.2" height="363.8"/>
    </clipPath>
    <clipPath id="clippath-18">
      <rect class="cls-12" x="35.2" y="11" width="526.2" height="363.8"/>
    </clipPath>
    <clipPath id="clippath-19">
      <rect class="cls-12" x="35.2" y="11" width="526.2" height="363.8"/>
    </clipPath>
    <clipPath id="clippath-20">
      <rect class="cls-12" x="35.2" y="11" width="526.2" height="363.8"/>
    </clipPath>
    <clipPath id="clippath-21">
      <rect class="cls-12" x="35.2" y="11" width="526.2" height="363.8"/>
    </clipPath>
    <clipPath id="clippath-22">
      <rect class="cls-12" x="35.2" y="11" width="526.2" height="363.8"/>
    </clipPath>
    <clipPath id="clippath-23">
      <rect class="cls-12" x="35.2" y="11" width="526.2" height="363.8"/>
    </clipPath>
    <clipPath id="clippath-24">
      <rect class="cls-12" x="35.2" y="11" width="526.2" height="363.8"/>
    </clipPath>
    <clipPath id="clippath-25">
      <rect class="cls-12" x="35.2" y="11" width="526.2" height="363.8"/>
    </clipPath>
    <clipPath id="clippath-26">
      <rect class="cls-12" x="35.2" y="11" width="526.2" height="363.8"/>
    </clipPath>
    <clipPath id="clippath-27">
      <rect class="cls-12" x="35.2" y="11" width="526.2" height="363.8"/>
    </clipPath>
    <clipPath id="clippath-28">
      <rect class="cls-12" x="35.2" y="11" width="526.2" height="363.8"/>
    </clipPath>
    <clipPath id="clippath-29">
      <rect class="cls-12" x="35.2" y="11" width="526.2" height="363.8"/>
    </clipPath>
    <clipPath id="clippath-30">
      <rect class="cls-12" x="35.2" y="11" width="526.2" height="363.8"/>
    </clipPath>
    <clipPath id="clippath-31">
      <rect class="cls-12" x="35.2" y="11" width="526.2" height="363.8"/>
    </clipPath>
    <clipPath id="clippath-32">
      <rect class="cls-12" x="35.2" y="11" width="526.2" height="363.8"/>
    </clipPath>
    <clipPath id="clippath-33">
      <rect class="cls-12" x="35.2" y="11" width="526.2" height="363.8"/>
    </clipPath>
    <clipPath id="clippath-34">
      <rect class="cls-12" x="35.2" y="11" width="526.2" height="363.8"/>
    </clipPath>
    <clipPath id="clippath-35">
      <rect class="cls-12" x="35.2" y="11" width="526.2" height="363.8"/>
    </clipPath>
    <clipPath id="clippath-36">
      <rect class="cls-12" x="35.2" y="11" width="526.2" height="363.8"/>
    </clipPath>
    <clipPath id="clippath-37">
      <rect class="cls-12" x="35.2" y="11" width="526.2" height="363.8"/>
    </clipPath>
    <clipPath id="clippath-38">
      <rect class="cls-12" x="35.2" y="11" width="526.2" height="363.8"/>
    </clipPath>
  </defs>
  <path class="cls-16" d="M0,413.3h568.6V0H0v413.3Z"/>
  <path class="cls-16" d="M35.2,374.8h526.2V11H35.2v363.8Z"/>
  <path id="mce5a8bb564" class="cls-17" d="M66.8,374.8v3.5"/>
  <path id="DejaVuSans-44" class="cls-15" d="M54.2,382.9v5.7h1.2c1,0,1.7-.2,2.2-.7.5-.5.7-1.2.7-2.2s-.2-1.7-.7-2.1-1.2-.7-2.2-.7h-1.2ZM53.2,382.1h2c1.4,0,2.4.3,3.1.9.7.6,1,1.5,1,2.8s-.3,2.2-1,2.8c-.7.6-1.7.9-3.1.9h-2v-7.3Z"/>
  <path id="DejaVuSans-61" class="cls-15" d="M63.3,386.6c-.7,0-1.2,0-1.5.2s-.4.4-.4.9.1.6.3.8c.2.2.5.3.9.3s.9-.2,1.2-.5.5-.8.5-1.4v-.2h-.9ZM65.1,386.2v3.1h-.9v-.8c-.2.3-.5.6-.8.7-.3.2-.7.2-1.1.2s-1-.2-1.3-.5c-.3-.3-.5-.7-.5-1.3s.2-1.1.6-1.4c.4-.3,1-.5,1.8-.5h1.3c0-.5-.1-.8-.4-1s-.7-.3-1.1-.3-.6,0-.9.1c-.3,0-.6.2-.9.3v-.8c.3-.1.6-.2,1-.3.3,0,.6,0,.9,0,.8,0,1.4.2,1.8.6.4.4.6,1,.6,1.9Z"/>
  <path id="DejaVuSans-79" class="cls-15" d="M69.2,389.9c-.3.7-.5,1.1-.7,1.3-.2.2-.6.3-1,.3h-.7v-.8h.5c.2,0,.4,0,.6-.2.1-.1.3-.4.5-.8l.2-.4-2.2-5.4h1l1.7,4.3,1.7-4.3h1l-2.4,6Z"/>
  <path id="DejaVuSans-20" class="cls-15" d="M71.9,389.4"/>
  <path id="DejaVuSans-31" class="cls-15" d="M76.4,388.5h1.6v-5.6l-1.8.4v-.9l1.7-.4h1v6.5h1.6v.8h-4.2v-.8Z"/>
  <path id="mce5a8bb564-2" data-name="mce5a8bb564" class="cls-17" d="M221.2,374.8v3.5"/>
  <path id="DejaVuSans-44-2" data-name="DejaVuSans-44" class="cls-15" d="M208.5,382.9v5.7h1.2c1,0,1.7-.2,2.2-.7.5-.5.7-1.2.7-2.2s-.2-1.7-.7-2.1-1.2-.7-2.2-.7h-1.2ZM207.5,382.1h2c1.4,0,2.4.3,3.1.9.7.6,1,1.5,1,2.8s-.3,2.2-1,2.8c-.7.6-1.7.9-3.1.9h-2v-7.3Z"/>
  <path id="DejaVuSans-61-2" data-name="DejaVuSans-61" class="cls-15" d="M217.6,386.6c-.7,0-1.2,0-1.5.2s-.4.4-.4.9.1.6.3.8c.2.2.5.3.9.3s.9-.2,1.2-.5.5-.8.5-1.4v-.2h-.9ZM219.4,386.2v3.1h-.9v-.8c-.2.3-.5.6-.8.7-.3.2-.7.2-1.1.2s-1-.2-1.3-.5c-.3-.3-.5-.7-.5-1.3s.2-1.1.6-1.4c.4-.3,1-.5,1.8-.5h1.3c0-.5-.1-.8-.4-1s-.7-.3-1.1-.3-.6,0-.9.1c-.3,0-.6.2-.9.3v-.8c.3-.1.6-.2,1-.3.3,0,.6,0,.9,0,.8,0,1.4.2,1.8.6.4.4.6,1,.6,1.9Z"/>
  <path id="DejaVuSans-79-2" data-name="DejaVuSans-79" class="cls-15" d="M223.6,389.9c-.3.7-.5,1.1-.7,1.3-.2.2-.6.3-1,.3h-.7v-.8h.5c.2,0,.4,0,.6-.2.1-.1.3-.4.5-.8l.2-.4-2.2-5.4h1l1.7,4.3,1.7-4.3h1l-2.4,6Z"/>
  <path id="DejaVuSans-20-2" data-name="DejaVuSans-20" class="cls-15" d="M226.3,389.4"/>
  <path id="DejaVuSans-32" class="cls-15" d="M231.4,388.5h3.4v.8h-4.6v-.8c.4-.4.9-.9,1.5-1.6.6-.7,1.1-1.1,1.2-1.3.3-.4.5-.7.7-.9.1-.2.2-.5.2-.7,0-.4-.1-.7-.4-.9-.3-.2-.6-.4-1.1-.4s-.6,0-1,.2c-.3.1-.7.3-1.1.5v-1c.4-.2.8-.3,1.1-.4.3,0,.7-.1.9-.1.8,0,1.4.2,1.8.6.4.4.7.9.7,1.5s0,.6-.2.9c-.1.3-.3.6-.6.9,0,0-.3.4-.8.8-.4.5-1.1,1.1-1.8,1.9Z"/>
  <path id="mce5a8bb564-3" data-name="mce5a8bb564" class="cls-17" d="M375.5,374.8v3.5"/>
  <path id="DejaVuSans-44-3" data-name="DejaVuSans-44" class="cls-15" d="M362.8,382.9v5.7h1.2c1,0,1.7-.2,2.2-.7.5-.5.7-1.2.7-2.2s-.2-1.7-.7-2.1-1.2-.7-2.2-.7h-1.2ZM361.8,382.1h2c1.4,0,2.4.3,3.1.9.7.6,1,1.5,1,2.8s-.3,2.2-1,2.8c-.7.6-1.7.9-3.1.9h-2v-7.3Z"/>
  <path id="DejaVuSans-61-3" data-name="DejaVuSans-61" class="cls-15" d="M372,386.6c-.7,0-1.2,0-1.5.2s-.4.4-.4.9.1.6.3.8c.2.2.5.3.9.3s.9-.2,1.2-.5.5-.8.5-1.4v-.2h-.9ZM373.7,386.2v3.1h-.9v-.8c-.2.3-.5.6-.8.7-.3.2-.7.2-1.1.2s-1-.2-1.3-.5c-.3-.3-.5-.7-.5-1.3s.2-1.1.6-1.4c.4-.3,1-.5,1.8-.5h1.3c0-.5-.1-.8-.4-1s-.7-.3-1.1-.3-.6,0-.9.1c-.3,0-.6.2-.9.3v-.8c.3-.1.6-.2,1-.3.3,0,.6,0,.9,0,.8,0,1.4.2,1.8.6.4.4.6,1,.6,1.9Z"/>
  <path id="DejaVuSans-79-3" data-name="DejaVuSans-79" class="cls-15" d="M377.9,389.9c-.3.7-.5,1.1-.7,1.3-.2.2-.6.3-1,.3h-.7v-.8h.5c.2,0,.4,0,.6-.2.1-.1.3-.4.5-.8l.2-.4-2.2-5.4h1l1.7,4.3,1.7-4.3h1l-2.4,6Z"/>
  <path id="DejaVuSans-20-3" data-name="DejaVuSans-20" class="cls-15" d="M380.6,389.4"/>
  <path id="DejaVuSans-33" class="cls-15" d="M387.8,385.4c.5.1.8.3,1.1.6.3.3.4.7.4,1.2,0,.7-.2,1.3-.7,1.7-.5.4-1.2.6-2.1.6s-.6,0-.9,0c-.3,0-.7-.2-1-.3v-1c.3.2.6.3.9.4.3,0,.7.1,1,.1.6,0,1.1-.1,1.4-.4s.5-.6.5-1.1-.2-.8-.5-1c-.3-.2-.7-.4-1.3-.4h-.9v-.8h.9c.5,0,.9,0,1.1-.3s.4-.5.4-.8-.1-.7-.4-.9c-.3-.2-.6-.3-1.1-.3s-.6,0-.9,0c-.3,0-.6.1-1,.3v-.9c.4-.1.7-.2,1.1-.2s.6,0,.9,0c.7,0,1.3.2,1.8.5.4.3.7.8.7,1.4s-.1.7-.3,1-.6.5-1,.6Z"/>
  <path id="mce5a8bb564-4" data-name="mce5a8bb564" class="cls-17" d="M529.8,374.8v3.5"/>
  <path id="DejaVuSans-44-4" data-name="DejaVuSans-44" class="cls-15" d="M517.1,382.9v5.7h1.2c1,0,1.7-.2,2.2-.7.5-.5.7-1.2.7-2.2s-.2-1.7-.7-2.1-1.2-.7-2.2-.7h-1.2ZM516.1,382.1h2c1.4,0,2.4.3,3.1.9.7.6,1,1.5,1,2.8s-.3,2.2-1,2.8c-.7.6-1.7.9-3.1.9h-2v-7.3Z"/>
  <path id="DejaVuSans-61-4" data-name="DejaVuSans-61" class="cls-15" d="M526.3,386.6c-.7,0-1.2,0-1.5.2s-.4.4-.4.9.1.6.3.8c.2.2.5.3.9.3s.9-.2,1.2-.5.5-.8.5-1.4v-.2h-.9ZM528.1,386.2v3.1h-.9v-.8c-.2.3-.5.6-.8.7-.3.2-.7.2-1.1.2s-1-.2-1.3-.5c-.3-.3-.5-.7-.5-1.3s.2-1.1.6-1.4c.4-.3,1-.5,1.8-.5h1.3c0-.5-.1-.8-.4-1s-.7-.3-1.1-.3-.6,0-.9.1c-.3,0-.6.2-.9.3v-.8c.3-.1.6-.2,1-.3.3,0,.6,0,.9,0,.8,0,1.4.2,1.8.6.4.4.6,1,.6,1.9Z"/>
  <path id="DejaVuSans-79-4" data-name="DejaVuSans-79" class="cls-15" d="M532.2,389.9c-.3.7-.5,1.1-.7,1.3-.2.2-.6.3-1,.3h-.7v-.8h.5c.2,0,.4,0,.6-.2.1-.1.3-.4.5-.8l.2-.4-2.2-5.4h1l1.7,4.3,1.7-4.3h1l-2.4,6Z"/>
  <path id="DejaVuSans-20-4" data-name="DejaVuSans-20" class="cls-15" d="M534.9,389.4"/>
  <path id="DejaVuSans-34" class="cls-15" d="M541.8,382.9l-2.5,3.9h2.5v-3.9ZM541.6,382.1h1.2v4.8h1v.8h-1v1.7h-1v-1.7h-3.3v-1l3-4.6Z"/>
  <path id="DejaVuSans-Bold-44" class="cls-15" d="M289.7,397.3v4.9h.7c.8,0,1.5-.2,1.9-.6.4-.4.7-1,.7-1.8s-.2-1.4-.7-1.8c-.4-.4-1.1-.6-1.9-.6h-.7ZM287.6,395.7h2.2c1.2,0,2.1,0,2.7.3.6.2,1.1.5,1.5.9.4.4.7.8.8,1.3.2.5.3,1,.3,1.6s0,1.1-.3,1.6c-.2.5-.5.9-.8,1.3-.4.4-.9.7-1.5.9-.6.2-1.5.3-2.7.3h-2.2v-8Z"/>
  <path id="DejaVuSans-Bold-61" class="cls-15" d="M299.4,401c-.4,0-.7,0-.9.2-.2.1-.3.3-.3.6s0,.4.2.6c.2.1.4.2.7.2s.7-.1.9-.4c.2-.3.4-.6.4-1v-.2h-1ZM302.3,400.3v3.4h-1.9v-.9c-.3.4-.5.6-.9.8-.3.2-.7.2-1.2.2s-1.1-.2-1.5-.5c-.4-.4-.6-.8-.6-1.4s.2-1.2.7-1.6c.5-.3,1.2-.5,2.3-.5h1.1c0-.5-.1-.7-.4-.8-.2-.1-.6-.2-1.1-.2s-.8,0-1.1.1c-.4,0-.7.2-1,.4v-1.5c.4-.1.8-.2,1.2-.2.4,0,.8,0,1.2,0,1.1,0,1.9.2,2.3.6.5.4.7,1.1.7,2.1Z"/>
  <path id="DejaVuSans-Bold-79" class="cls-15" d="M303,397.7h1.9l1.6,4.1,1.4-4.1h1.9l-2.5,6.6c-.3.7-.5,1.1-.9,1.4-.3.3-.8.4-1.3.4h-1.1v-1.3h.6c.3,0,.6,0,.7-.2.1-.1.3-.3.3-.6v-.2c0,0-2.6-6.2-2.6-6.2Z"/>
  <g class="cls-11">
    <path class="cls-13" d="M35.2,374.8h526.2"/>
  </g>
  <path id="m1c40304f0b" class="cls-17" d="M35.2,374.8h-3.5"/>
  <path id="DejaVuSans-30" class="cls-15" d="M25,371.9c-.5,0-.9.3-1.1.8-.3.5-.4,1.3-.4,2.3s.1,1.7.4,2.2c.3.5.6.8,1.1.8s.9-.3,1.2-.8c.3-.5.4-1.2.4-2.2s-.1-1.8-.4-2.3c-.3-.5-.6-.8-1.2-.8ZM25,371.1c.8,0,1.4.3,1.9,1,.4.6.6,1.6.6,2.8s-.2,2.2-.6,2.8c-.4.6-1.1,1-1.9,1s-1.4-.3-1.9-1c-.4-.6-.6-1.6-.6-2.8s.2-2.2.6-2.8c.4-.6,1.1-1,1.9-1Z"/>
  <g class="cls-18">
    <path class="cls-13" d="M35.2,314.1h526.2"/>
  </g>
  <path id="m1c40304f0b-2" data-name="m1c40304f0b" class="cls-17" d="M35.2,314.1h-3.5"/>
  <path id="DejaVuSans-31-2" data-name="DejaVuSans-31" class="cls-15" d="M23.1,317.1h1.6v-5.6l-1.8.4v-.9l1.7-.4h1v6.5h1.6v.8h-4.2v-.8Z"/>
  <g class="cls-21">
    <path class="cls-13" d="M35.2,253.5h526.2"/>
  </g>
  <path id="m1c40304f0b-3" data-name="m1c40304f0b" class="cls-17" d="M35.2,253.5h-3.5"/>
  <path id="DejaVuSans-32-2" data-name="DejaVuSans-32" class="cls-15" d="M23.8,256.5h3.4v.8h-4.6v-.8c.4-.4.9-.9,1.5-1.6.6-.7,1.1-1.1,1.2-1.3.3-.4.5-.7.7-.9.1-.2.2-.5.2-.7,0-.4-.1-.7-.4-.9-.3-.2-.6-.4-1.1-.4s-.6,0-1,.2c-.3.1-.7.3-1.1.5v-1c.4-.2.8-.3,1.1-.4.3,0,.7-.1.9-.1.8,0,1.4.2,1.8.6.4.4.7.9.7,1.5s0,.6-.2.9c-.1.3-.3.6-.6.9,0,0-.3.4-.8.8-.4.5-1.1,1.1-1.8,1.9Z"/>
  <g class="cls-20">
    <path class="cls-13" d="M35.2,192.9h526.2"/>
  </g>
  <path id="m1c40304f0b-4" data-name="m1c40304f0b" class="cls-17" d="M35.2,192.9h-3.5"/>
  <path id="DejaVuSans-33-2" data-name="DejaVuSans-33" class="cls-15" d="M25.9,192.7c.5.1.8.3,1.1.6.3.3.4.7.4,1.2,0,.7-.2,1.3-.7,1.7-.5.4-1.2.6-2.1.6s-.6,0-.9,0c-.3,0-.7-.2-1-.3v-1c.3.2.6.3.9.4.3,0,.7.1,1,.1.6,0,1.1-.1,1.4-.4s.5-.6.5-1.1-.2-.8-.5-1c-.3-.2-.7-.4-1.3-.4h-.9v-.8h.9c.5,0,.9,0,1.1-.3s.4-.5.4-.8-.1-.7-.4-.9c-.3-.2-.6-.3-1.1-.3s-.6,0-.9,0c-.3,0-.6.1-1,.3v-.9c.4-.1.7-.2,1.1-.2s.6,0,.9,0c.7,0,1.3.2,1.8.5.4.3.7.8.7,1.4s-.1.7-.3,1-.6.5-1,.6Z"/>
  <g class="cls-19">
    <path class="cls-13" d="M35.2,132.3h526.2"/>
  </g>
  <path id="m1c40304f0b-5" data-name="m1c40304f0b" class="cls-17" d="M35.2,132.3h-3.5"/>
  <path id="DejaVuSans-34-2" data-name="DejaVuSans-34" class="cls-15" d="M25.6,129.6l-2.5,3.9h2.5v-3.9ZM25.4,128.8h1.2v4.8h1v.8h-1v1.7h-1v-1.7h-3.3v-1l3-4.6Z"/>
  <g class="cls-25">
    <path class="cls-13" d="M35.2,71.6h526.2"/>
  </g>
  <path id="m1c40304f0b-6" data-name="m1c40304f0b" class="cls-17" d="M35.2,71.6h-3.5"/>
  <path id="DejaVuSans-35" class="cls-15" d="M22.9,68.1h3.9v.8h-3v1.8c.1,0,.3,0,.4-.1.1,0,.3,0,.4,0,.8,0,1.5.2,1.9.7.5.4.7,1,.7,1.8s-.2,1.4-.7,1.8c-.5.4-1.2.7-2.1.7s-.6,0-.9,0c-.3,0-.6-.1-1-.2v-1c.3.2.6.3.9.4s.6.1,1,.1c.6,0,1-.1,1.3-.4.3-.3.5-.7.5-1.2s-.2-.9-.5-1.2c-.3-.3-.8-.4-1.3-.4s-.5,0-.8,0c-.3,0-.5.1-.8.3v-3.7Z"/>
  <g class="cls-24">
    <path class="cls-13" d="M35.2,11h526.2"/>
  </g>
  <path id="m1c40304f0b-7" data-name="m1c40304f0b" class="cls-17" d="M35.2,11h-3.5"/>
  <path id="DejaVuSans-36" class="cls-15" d="M25.1,10.8c-.4,0-.8.2-1.1.5-.3.3-.4.7-.4,1.2s.1.9.4,1.2c.3.3.6.5,1.1.5s.8-.2,1.1-.5c.3-.3.4-.7.4-1.2s-.1-.9-.4-1.2c-.3-.3-.6-.5-1.1-.5ZM27.1,7.7v.9c-.2-.1-.5-.2-.8-.3-.3,0-.5,0-.8,0-.7,0-1.1.2-1.5.7-.3.4-.5,1.1-.6,2,.2-.3.4-.5.7-.7.3-.2.6-.2,1-.2.7,0,1.3.2,1.7.7.4.4.6,1,.6,1.8s-.2,1.4-.7,1.8c-.4.5-1,.7-1.8.7s-1.5-.3-1.9-1c-.4-.6-.7-1.6-.7-2.8s.3-2.1.8-2.8c.5-.7,1.3-1,2.2-1s.5,0,.8,0,.5.1.8.2Z"/>
  <path id="DejaVuSans-Bold-42" class="cls-15" d="M10.6,235.5c0-.3,0-.6-.2-.7-.1-.2-.4-.3-.6-.3s-.5,0-.6.3c-.1.2-.2.4-.2.7v1.1h1.7v-1.1ZM14.2,235.5c0-.4,0-.7-.3-.9s-.4-.3-.8-.3-.6.1-.8.3c-.2.2-.3.5-.3.9v1.2h2.1v-1.2ZM11.3,233.5c.1-.4.4-.8.7-1,.3-.2.8-.4,1.3-.4.8,0,1.4.3,1.7.8.4.5.6,1.3.6,2.4v3.4H7.5v-3.1c0-1.1.2-1.9.5-2.4s.9-.7,1.6-.7.7,0,1,.3c.3.2.5.4.6.8Z"/>
  <path id="DejaVuSans-Bold-65" class="cls-15" d="M12.5,224.4h.5v4.5c.5,0,.8-.2,1-.5s.3-.7.3-1.2,0-.8-.2-1.2c-.1-.4-.3-.9-.5-1.3h1.5c.2.5.3.9.4,1.4,0,.5.1.9.1,1.4,0,1.1-.3,1.9-.8,2.5-.6.6-1.3.9-2.3.9s-1.8-.3-2.3-.9c-.6-.6-.8-1.4-.8-2.4s.3-1.7.9-2.3c.6-.6,1.3-.9,2.3-.9ZM11.9,226.4c-.4,0-.7.1-.9.3-.2.2-.3.5-.3.8s.1.7.3.9.5.4.9.4v-2.5Z"/>
  <path id="DejaVuSans-Bold-68" class="cls-15" d="M11.9,216.9h3.7v1.9h-2.8c-.5,0-.9,0-1.1,0s-.3,0-.4.1c-.1,0-.2.2-.3.3,0,.1-.1.3-.1.4,0,.4.2.7.5.9.3.2.7.3,1.3.3h3v1.9H7.2v-1.9h3.2c-.4-.3-.6-.6-.8-.9-.2-.3-.2-.7-.2-1.1,0-.7.2-1.2.6-1.6.4-.4,1-.5,1.9-.5Z"/>
  <path id="DejaVuSans-Bold-61-2" data-name="DejaVuSans-Bold-61" class="cls-15" d="M12.9,212.5c0,.4,0,.7.2.9.1.2.3.3.6.3s.4,0,.6-.2c.1-.2.2-.4.2-.7s-.1-.7-.4-.9c-.3-.2-.6-.4-1-.4h-.2v1ZM12.1,209.5h3.4v1.9h-.9c.4.3.6.5.8.9.2.3.2.7.2,1.2s-.2,1.1-.5,1.5c-.4.4-.8.6-1.4.6s-1.2-.2-1.6-.7c-.3-.5-.5-1.2-.5-2.3v-1.1h-.1c-.3,0-.5.1-.7.4-.1.2-.2.6-.2,1.1s0,.8.1,1.1c0,.4.2.7.4,1h-1.5c-.1-.4-.2-.8-.2-1.2,0-.4,0-.8,0-1.2,0-1.1.2-1.9.6-2.3.4-.5,1.1-.7,2.1-.7Z"/>
  <path id="DejaVuSans-Bold-76" class="cls-15" d="M9.5,208.5v-1.9l4.2-1.5-4.2-1.5v-1.9l6,2.4v2.1l-6,2.4Z"/>
  <path id="DejaVuSans-Bold-69" class="cls-15" d="M9.5,200.6v-1.9h6v1.9h-6ZM7.2,200.6v-1.9h1.6v1.9h-1.6Z"/>
  <path id="DejaVuSans-Bold-6f" class="cls-15" d="M10.8,193.9c0,.4.2.8.5,1s.7.3,1.3.3,1-.1,1.3-.3c.3-.2.5-.5.5-1s-.2-.7-.5-1c-.3-.2-.7-.3-1.3-.3s-1,.1-1.3.3c-.3.2-.5.5-.5,1ZM9.4,193.9c0-1,.3-1.8.8-2.4.6-.6,1.3-.9,2.3-.9s1.8.3,2.3.9c.6.6.8,1.4.8,2.4s-.3,1.8-.8,2.4c-.6.6-1.3.9-2.3.9s-1.8-.3-2.3-.9c-.6-.6-.8-1.4-.8-2.4Z"/>
  <path id="DejaVuSans-Bold-72" class="cls-15" d="M11.2,184.8c0,.2-.1.3-.2.5,0,.2,0,.3,0,.5,0,.5.2.9.5,1.1.3.3.8.4,1.4.4h2.8v1.9h-6v-1.9h1c-.4-.2-.7-.5-.9-.9-.2-.3-.3-.7-.3-1.2s0-.1,0-.2c0,0,0-.2,0-.3h1.7Z"/>
  <path id="DejaVuSans-Bold-20" class="cls-15" d="M15.6,184.7"/>
  <path id="DejaVuSans-Bold-53" class="cls-15" d="M7.8,174.3h1.7c-.2.4-.3.9-.4,1.3-.1.4-.2.8-.2,1.2s0,.9.2,1.1c.1.2.3.4.6.4s.4,0,.5-.2c.1-.2.2-.4.3-.9l.2-.9c.2-.9.5-1.5.8-1.9.4-.4.9-.6,1.6-.6s1.5.3,2,.8c.4.5.6,1.3.6,2.4s0,1-.1,1.5c0,.5-.2,1-.4,1.5h-1.7c.3-.5.5-1,.6-1.5.1-.5.2-.9.2-1.4s0-.8-.2-1c-.2-.2-.4-.4-.6-.4s-.4,0-.6.2-.3.5-.4,1l-.2.8c-.2.8-.4,1.4-.8,1.8-.4.4-.9.6-1.5.6s-1.4-.3-1.8-.8-.6-1.3-.6-2.2,0-.9,0-1.4.2-.9.3-1.4Z"/>
  <path id="DejaVuSans-Bold-63" class="cls-15" d="M9.7,167.2h1.6c-.2.3-.3.5-.4.8s-.1.5-.1.8c0,.5.2,1,.5,1.3s.8.4,1.3.4,1-.1,1.3-.4c.3-.3.5-.7.5-1.3s0-.6-.1-.9c0-.3-.2-.5-.4-.7h1.6c.1.3.2.6.2.9,0,.3,0,.6,0,.9,0,1.1-.3,1.9-.8,2.5-.6.6-1.3.9-2.3.9s-1.8-.3-2.3-.9c-.6-.6-.8-1.5-.8-2.5s0-.6,0-.9.1-.6.2-.9Z"/>
  <path id="DejaVuSans-Bold-6f-2" data-name="DejaVuSans-Bold-6f" class="cls-15" d="M10.8,162.7c0,.4.2.8.5,1s.7.3,1.3.3,1-.1,1.3-.3c.3-.2.5-.5.5-1s-.2-.7-.5-1c-.3-.2-.7-.3-1.3-.3s-1,.1-1.3.3c-.3.2-.5.5-.5,1ZM9.4,162.7c0-1,.3-1.8.8-2.4.6-.6,1.3-.9,2.3-.9s1.8.3,2.3.9c.6.6.8,1.4.8,2.4s-.3,1.8-.8,2.4c-.6.6-1.3.9-2.3.9s-1.8-.3-2.3-.9c-.6-.6-.8-1.4-.8-2.4Z"/>
  <path id="DejaVuSans-Bold-72-2" data-name="DejaVuSans-Bold-72" class="cls-15" d="M11.2,153.5c0,.2-.1.3-.2.5,0,.2,0,.3,0,.5,0,.5.2.9.5,1.1.3.3.8.4,1.4.4h2.8v1.9h-6v-1.9h1c-.4-.2-.7-.5-.9-.9-.2-.3-.3-.7-.3-1.2s0-.1,0-.2c0,0,0-.2,0-.3h1.7Z"/>
  <path id="DejaVuSans-Bold-65-2" data-name="DejaVuSans-Bold-65" class="cls-15" d="M12.5,146.5h.5v4.5c.5,0,.8-.2,1-.5s.3-.7.3-1.2,0-.8-.2-1.2c-.1-.4-.3-.9-.5-1.3h1.5c.2.5.3.9.4,1.4,0,.5.1.9.1,1.4,0,1.1-.3,1.9-.8,2.5-.6.6-1.3.9-2.3.9s-1.8-.3-2.3-.9c-.6-.6-.8-1.4-.8-2.4s.3-1.7.9-2.3c.6-.6,1.3-.9,2.3-.9ZM11.9,148.5c-.4,0-.7.1-.9.3-.2.2-.3.5-.3.8s.1.7.3.9.5.4.9.4v-2.5Z"/>
  <g class="cls-22">
    <path class="cls-4" d="M66.8,205.3v-17.7"/>
  </g>
  <g class="cls-23">
    <path class="cls-4" d="M221.2,242.8v-14.7"/>
  </g>
  <g class="cls-26">
    <path class="cls-4" d="M375.5,244.8v-16"/>
  </g>
  <g class="cls-49">
    <path class="cls-4" d="M529.8,216.7v-16.8"/>
  </g>
  <g class="cls-54">
    <path id="m26b0e92a2e" class="cls-5" d="M71.8,205.3h-10"/>
    <path id="m26b0e92a2e-2" data-name="m26b0e92a2e" class="cls-5" d="M226.2,242.8h-10"/>
    <path id="m26b0e92a2e-3" data-name="m26b0e92a2e" class="cls-5" d="M380.5,244.8h-10"/>
    <path id="m26b0e92a2e-4" data-name="m26b0e92a2e" class="cls-5" d="M534.8,216.7h-10"/>
  </g>
  <g class="cls-48">
    <path id="m26b0e92a2e-5" data-name="m26b0e92a2e" class="cls-5" d="M71.8,187.6h-10"/>
    <path id="m26b0e92a2e-6" data-name="m26b0e92a2e" class="cls-5" d="M226.2,228.1h-10"/>
    <path id="m26b0e92a2e-7" data-name="m26b0e92a2e" class="cls-5" d="M380.5,228.9h-10"/>
    <path id="m26b0e92a2e-8" data-name="m26b0e92a2e" class="cls-5" d="M534.8,199.9h-10"/>
  </g>
  <g class="cls-47">
    <path class="cls-10" d="M59.1,224.8v-50.4"/>
  </g>
  <g class="cls-46">
    <path class="cls-10" d="M213.4,281v-38.1"/>
  </g>
  <g class="cls-50">
    <path class="cls-10" d="M367.8,260.6v-37.7"/>
  </g>
  <g class="cls-52">
    <path class="cls-10" d="M522.1,257.3v-34.5"/>
  </g>
  <g class="cls-51">
    <path id="m1f9be03f1e" class="cls-8" d="M64.1,224.8h-10"/>
    <path id="m1f9be03f1e-2" data-name="m1f9be03f1e" class="cls-8" d="M218.4,281h-10"/>
    <path id="m1f9be03f1e-3" data-name="m1f9be03f1e" class="cls-8" d="M372.8,260.6h-10"/>
    <path id="m1f9be03f1e-4" data-name="m1f9be03f1e" class="cls-8" d="M527.1,257.3h-10"/>
  </g>
  <g class="cls-55">
    <path id="m1f9be03f1e-5" data-name="m1f9be03f1e" class="cls-8" d="M64.1,174.4h-10"/>
    <path id="m1f9be03f1e-6" data-name="m1f9be03f1e" class="cls-8" d="M218.4,242.9h-10"/>
    <path id="m1f9be03f1e-7" data-name="m1f9be03f1e" class="cls-8" d="M372.8,222.9h-10"/>
    <path id="m1f9be03f1e-8" data-name="m1f9be03f1e" class="cls-8" d="M527.1,222.8h-10"/>
  </g>
  <g class="cls-53">
    <path class="cls-4" d="M66.8,341.2v-8"/>
  </g>
  <g class="cls-27">
    <path class="cls-4" d="M221.2,345.5v-7"/>
  </g>
  <g class="cls-28">
    <path class="cls-4" d="M375.5,351.6v-5.8"/>
  </g>
  <g class="cls-31">
    <path class="cls-4" d="M529.8,340.8v-6.6"/>
  </g>
  <g class="cls-30">
    <path id="m26b0e92a2e-9" data-name="m26b0e92a2e" class="cls-5" d="M71.8,341.2h-10"/>
    <path id="m26b0e92a2e-10" data-name="m26b0e92a2e" class="cls-5" d="M226.2,345.5h-10"/>
    <path id="m26b0e92a2e-11" data-name="m26b0e92a2e" class="cls-5" d="M380.5,351.6h-10"/>
    <path id="m26b0e92a2e-12" data-name="m26b0e92a2e" class="cls-5" d="M534.8,340.8h-10"/>
  </g>
  <g class="cls-29">
    <path id="m26b0e92a2e-13" data-name="m26b0e92a2e" class="cls-5" d="M71.8,333.2h-10"/>
    <path id="m26b0e92a2e-14" data-name="m26b0e92a2e" class="cls-5" d="M226.2,338.5h-10"/>
    <path id="m26b0e92a2e-15" data-name="m26b0e92a2e" class="cls-5" d="M380.5,345.8h-10"/>
    <path id="m26b0e92a2e-16" data-name="m26b0e92a2e" class="cls-5" d="M534.8,334.2h-10"/>
  </g>
  <g class="cls-32">
    <path class="cls-10" d="M74.6,348.5v-14.8"/>
  </g>
  <g class="cls-35">
    <path class="cls-10" d="M228.9,346.9v-21.7"/>
  </g>
  <g class="cls-33">
    <path class="cls-10" d="M383.2,352.3v-12.3"/>
  </g>
  <g class="cls-34">
    <path class="cls-10" d="M537.5,346.1v-26.8"/>
  </g>
  <g class="cls-36">
    <path id="m1f9be03f1e-9" data-name="m1f9be03f1e" class="cls-8" d="M79.6,348.5h-10"/>
    <path id="m1f9be03f1e-10" data-name="m1f9be03f1e" class="cls-8" d="M233.9,346.9h-10"/>
    <path id="m1f9be03f1e-11" data-name="m1f9be03f1e" class="cls-8" d="M388.2,352.3h-10"/>
    <path id="m1f9be03f1e-12" data-name="m1f9be03f1e" class="cls-8" d="M542.5,346.1h-10"/>
  </g>
  <g class="cls-43">
    <path id="m1f9be03f1e-13" data-name="m1f9be03f1e" class="cls-8" d="M79.6,333.7h-10"/>
    <path id="m1f9be03f1e-14" data-name="m1f9be03f1e" class="cls-8" d="M233.9,325.2h-10"/>
    <path id="m1f9be03f1e-15" data-name="m1f9be03f1e" class="cls-8" d="M388.2,340h-10"/>
    <path id="m1f9be03f1e-16" data-name="m1f9be03f1e" class="cls-8" d="M542.5,319.2h-10"/>
  </g>
  <g class="cls-45">
    <path class="cls-3" d="M66.8,196.5l154.3,39,154.3,1.4,154.3-28.6"/>
  </g>
  <g class="cls-42">
    <path id="me8235a11c9" class="cls-5" d="M66.8,200.5c1.1,0,2.1-.4,2.8-1.2s1.2-1.8,1.2-2.8-.4-2.1-1.2-2.8-1.8-1.2-2.8-1.2-2.1.4-2.8,1.2-1.2,1.8-1.2,2.8.4,2.1,1.2,2.8,1.8,1.2,2.8,1.2Z"/>
    <path id="me8235a11c9-2" data-name="me8235a11c9" class="cls-5" d="M221.2,239.5c1.1,0,2.1-.4,2.8-1.2s1.2-1.8,1.2-2.8-.4-2.1-1.2-2.8-1.8-1.2-2.8-1.2-2.1.4-2.8,1.2-1.2,1.8-1.2,2.8.4,2.1,1.2,2.8,1.8,1.2,2.8,1.2Z"/>
    <path id="me8235a11c9-3" data-name="me8235a11c9" class="cls-5" d="M375.5,240.8c1.1,0,2.1-.4,2.8-1.2s1.2-1.8,1.2-2.8-.4-2.1-1.2-2.8-1.8-1.2-2.8-1.2-2.1.4-2.8,1.2-1.2,1.8-1.2,2.8.4,2.1,1.2,2.8,1.8,1.2,2.8,1.2Z"/>
    <path id="me8235a11c9-4" data-name="me8235a11c9" class="cls-5" d="M529.8,212.3c1.1,0,2.1-.4,2.8-1.2s1.2-1.8,1.2-2.8-.4-2.1-1.2-2.8-1.8-1.2-2.8-1.2-2.1.4-2.8,1.2-1.2,1.8-1.2,2.8.4,2.1,1.2,2.8,1.8,1.2,2.8,1.2Z"/>
  </g>
  <g class="cls-41">
    <path class="cls-7" d="M59.1,199.6l154.3,62.3,154.3-20.2,154.3-1.7"/>
  </g>
  <g class="cls-37">
    <path id="m96b60f1a9f" class="cls-8" d="M59.1,203.6c1.1,0,2.1-.4,2.8-1.2s1.2-1.8,1.2-2.8-.4-2.1-1.2-2.8-1.8-1.2-2.8-1.2-2.1.4-2.8,1.2-1.2,1.8-1.2,2.8.4,2.1,1.2,2.8,1.8,1.2,2.8,1.2Z"/>
    <path id="m96b60f1a9f-2" data-name="m96b60f1a9f" class="cls-8" d="M213.4,265.9c1.1,0,2.1-.4,2.8-1.2s1.2-1.8,1.2-2.8-.4-2.1-1.2-2.8-1.8-1.2-2.8-1.2-2.1.4-2.8,1.2-1.2,1.8-1.2,2.8.4,2.1,1.2,2.8,1.8,1.2,2.8,1.2Z"/>
    <path id="m96b60f1a9f-3" data-name="m96b60f1a9f" class="cls-8" d="M367.8,245.7c1.1,0,2.1-.4,2.8-1.2s1.2-1.8,1.2-2.8-.4-2.1-1.2-2.8-1.8-1.2-2.8-1.2-2.1.4-2.8,1.2-1.2,1.8-1.2,2.8.4,2.1,1.2,2.8,1.8,1.2,2.8,1.2Z"/>
    <path id="m96b60f1a9f-4" data-name="m96b60f1a9f" class="cls-8" d="M522.1,244c1.1,0,2.1-.4,2.8-1.2s1.2-1.8,1.2-2.8-.4-2.1-1.2-2.8-1.8-1.2-2.8-1.2-2.1.4-2.8,1.2-1.2,1.8-1.2,2.8.4,2.1,1.2,2.8,1.8,1.2,2.8,1.2Z"/>
  </g>
  <g class="cls-38">
    <path class="cls-2" d="M66.8,337.2l154.3,4.8,154.3,6.6,154.3-11.2"/>
  </g>
  <g class="cls-39">
    <path id="m7ad667e683" class="cls-1" d="M66.8,333.2l-4,8h8l-4-8Z"/>
    <path id="m7ad667e683-2" data-name="m7ad667e683" class="cls-1" d="M221.2,338l-4,8h8l-4-8Z"/>
    <path id="m7ad667e683-3" data-name="m7ad667e683" class="cls-1" d="M375.5,344.7l-4,8h8l-4-8Z"/>
    <path id="m7ad667e683-4" data-name="m7ad667e683" class="cls-1" d="M529.8,333.5l-4,8h8l-4-8Z"/>
  </g>
  <g class="cls-40">
    <path class="cls-9" d="M74.6,341.1l154.3-5.1,154.3,10.1,154.3-13.5"/>
  </g>
  <g class="cls-44">
    <path id="meb35c6d6f5" class="cls-6" d="M74.6,337.1l-4,8h8l-4-8Z"/>
    <path id="meb35c6d6f5-2" data-name="meb35c6d6f5" class="cls-6" d="M228.9,332l-4,8h8l-4-8Z"/>
    <path id="meb35c6d6f5-3" data-name="meb35c6d6f5" class="cls-6" d="M383.2,342.1l-4,8h8l-4-8Z"/>
    <path id="meb35c6d6f5-4" data-name="meb35c6d6f5" class="cls-6" d="M537.5,328.7l-4,8h8l-4-8Z"/>
  </g>
  <path class="cls-14" d="M35.2,374.8V11"/>
  <path class="cls-14" d="M561.4,374.8V11"/>
  <path class="cls-14" d="M35.2,374.8h526.2"/>
  <path class="cls-14" d="M35.2,11h526.2"/>
  <path class="cls-56" d="M433.5,44.6h121.6c1.2,0,1.8-.6,1.8-1.8v-25.5c0-1.2-.6-1.8-1.8-1.8h-121.6c-1.2,0-1.8.6-1.8,1.8v25.5c0,1.2.6,1.8,1.8,1.8Z"/>
  <path class="cls-4" d="M444.3,27.3v-9"/>
  <path id="m26b0e92a2e-17" data-name="m26b0e92a2e" class="cls-5" d="M449.3,27.3h-10"/>
  <path id="m26b0e92a2e-18" data-name="m26b0e92a2e" class="cls-5" d="M449.3,18.3h-10"/>
  <path class="cls-3" d="M435.3,22.8h18"/>
  <path id="me8235a11c9-5" data-name="me8235a11c9" class="cls-5" d="M444.3,26.8c1.1,0,2.1-.4,2.8-1.2s1.2-1.8,1.2-2.8-.4-2.1-1.2-2.8-1.8-1.2-2.8-1.2-2.1.4-2.8,1.2-1.2,1.8-1.2,2.8.4,2.1,1.2,2.8,1.8,1.2,2.8,1.2Z"/>
  <path id="DejaVuSans-47" class="cls-15" d="M465.9,25v-1.8h-1.4v-.7h2.3v2.8c-.3.2-.7.4-1.1.6-.4.1-.9.2-1.3.2-1,0-1.8-.3-2.4-.9-.6-.6-.9-1.4-.9-2.5s.3-1.9.9-2.5c.6-.6,1.4-.9,2.4-.9s.8,0,1.2.2c.4.1.7.3,1.1.5v.9c-.3-.3-.7-.5-1-.6s-.8-.2-1.2-.2c-.8,0-1.4.2-1.8.7-.4.4-.6,1.1-.6,2s.2,1.6.6,2c.4.4,1,.7,1.8.7s.6,0,.8,0c.2,0,.5-.1.7-.3Z"/>
  <path id="DejaVuSans-2e" class="cls-15" d="M468.4,24.8h.9v1.1h-.9v-1.1Z"/>
  <path id="DejaVuSans-20-5" data-name="DejaVuSans-20" class="cls-15" d="M470.3,25.9"/>
  <path id="DejaVuSans-64" class="cls-15" d="M477.3,21.8v-2.7h.8v6.8h-.8v-.7c-.2.3-.4.5-.6.7-.3.1-.6.2-.9.2-.6,0-1.1-.2-1.5-.7-.4-.5-.6-1.1-.6-1.9s.2-1.4.6-1.9c.4-.5.9-.7,1.5-.7s.7,0,.9.2c.3.1.5.4.6.7ZM474.5,23.5c0,.6.1,1.1.4,1.4.2.3.6.5,1,.5s.8-.2,1-.5c.2-.3.4-.8.4-1.4s-.1-1.1-.4-1.4c-.2-.3-.6-.5-1-.5s-.8.2-1,.5-.4.8-.4,1.4Z"/>
  <path id="DejaVuSans-6f" class="cls-15" d="M481.7,21.6c-.4,0-.8.2-1,.5s-.4.8-.4,1.4.1,1.1.4,1.4c.3.3.6.5,1,.5s.8-.2,1-.5c.3-.3.4-.8.4-1.4s-.1-1-.4-1.4c-.3-.3-.6-.5-1-.5ZM481.7,20.9c.7,0,1.3.2,1.7.7.4.5.6,1.1.6,1.9s-.2,1.4-.6,1.9c-.4.5-1,.7-1.7.7s-1.3-.2-1.7-.7c-.4-.5-.6-1.1-.6-1.9s.2-1.4.6-1.9c.4-.5,1-.7,1.7-.7Z"/>
  <path id="DejaVuSans-72" class="cls-15" d="M488.1,21.8c0,0-.2,0-.3-.1-.1,0-.2,0-.4,0-.5,0-.8.1-1.1.4s-.4.7-.4,1.3v2.6h-.8v-4.9h.8v.8c.2-.3.4-.5.7-.7.3-.1.6-.2,1-.2s.1,0,.2,0c0,0,.1,0,.2,0v.8Z"/>
  <path id="DejaVuSans-6f-2" data-name="DejaVuSans-6f" class="cls-15" d="M490.7,21.6c-.4,0-.8.2-1,.5s-.4.8-.4,1.4.1,1.1.4,1.4c.3.3.6.5,1,.5s.8-.2,1-.5c.3-.3.4-.8.4-1.4s-.1-1-.4-1.4c-.3-.3-.6-.5-1-.5ZM490.7,20.9c.7,0,1.3.2,1.7.7.4.5.6,1.1.6,1.9s-.2,1.4-.6,1.9c-.4.5-1,.7-1.7.7s-1.3-.2-1.7-.7c-.4-.5-.6-1.1-.6-1.9s.2-1.4.6-1.9c.4-.5,1-.7,1.7-.7Z"/>
  <path id="DejaVuSans-74" class="cls-15" d="M495.1,19.6v1.4h1.7v.6h-1.7v2.7c0,.4,0,.7.2.8s.3.2.7.2h.8v.7h-.8c-.6,0-1.1-.1-1.3-.3-.2-.2-.4-.7-.4-1.3v-2.7h-.6v-.6h.6v-1.4h.8Z"/>
  <path id="DejaVuSans-6f-3" data-name="DejaVuSans-6f" class="cls-15" d="M499.7,21.6c-.4,0-.8.2-1,.5s-.4.8-.4,1.4.1,1.1.4,1.4c.3.3.6.5,1,.5s.8-.2,1-.5c.3-.3.4-.8.4-1.4s-.1-1-.4-1.4c-.3-.3-.6-.5-1-.5ZM499.7,20.9c.7,0,1.3.2,1.7.7.4.5.6,1.1.6,1.9s-.2,1.4-.6,1.9c-.4.5-1,.7-1.7.7s-1.3-.2-1.7-.7c-.4-.5-.6-1.1-.6-1.9s.2-1.4.6-1.9c.4-.5,1-.7,1.7-.7Z"/>
  <path id="DejaVuSans-63" class="cls-15" d="M506.8,21.2v.8c-.2-.1-.5-.2-.7-.3s-.5,0-.7,0c-.5,0-.9.2-1.2.5-.3.3-.4.8-.4,1.4s.1,1.1.4,1.4c.3.3.7.5,1.2.5s.5,0,.7,0,.5-.2.7-.3v.7c-.2.1-.5.2-.7.2-.2,0-.5,0-.8,0-.7,0-1.3-.2-1.8-.7-.4-.5-.7-1.1-.7-1.9s.2-1.4.7-1.9c.4-.5,1-.7,1.8-.7s.5,0,.7,0c.2,0,.5.1.7.2Z"/>
  <path id="DejaVuSans-65" class="cls-15" d="M512.5,23.3v.4h-3.7c0,.6.2,1,.5,1.3.3.3.7.4,1.3.4s.6,0,.9-.1.6-.2.9-.3v.8c-.3.1-.6.2-.9.3s-.6,0-.9,0c-.8,0-1.4-.2-1.9-.7-.5-.5-.7-1.1-.7-1.9s.2-1.4.7-1.9c.4-.5,1-.7,1.8-.7s1.2.2,1.6.6c.4.4.6,1,.6,1.7ZM511.7,23c0-.4-.1-.8-.4-1.1-.2-.3-.6-.4-1-.4s-.8.1-1.1.4-.4.6-.5,1.1h2.9Z"/>
  <path id="DejaVuSans-70" class="cls-15" d="M514.6,25.2v2.6h-.8v-6.8h.8v.7c.2-.3.4-.5.6-.7.3-.1.6-.2.9-.2.6,0,1.1.2,1.5.7.4.5.6,1.1.6,1.9s-.2,1.4-.6,1.9c-.4.5-.9.7-1.5.7s-.7,0-.9-.2c-.3-.1-.5-.4-.6-.7ZM517.3,23.5c0-.6-.1-1.1-.4-1.4s-.6-.5-1-.5-.8.2-1,.5-.4.8-.4,1.4.1,1.1.4,1.4c.2.3.6.5,1,.5s.8-.2,1-.5c.2-.3.4-.8.4-1.4Z"/>
  <path id="DejaVuSans-68" class="cls-15" d="M523.6,23v3h-.8v-2.9c0-.5,0-.8-.3-1-.2-.2-.5-.3-.8-.3s-.8.1-1,.4c-.3.3-.4.7-.4,1.1v2.8h-.8v-6.8h.8v2.7c.2-.3.4-.5.7-.7.3-.1.6-.2.9-.2.6,0,1,.2,1.3.5.3.3.4.9.4,1.5Z"/>
  <path id="DejaVuSans-61-5" data-name="DejaVuSans-61" class="cls-15" d="M527.4,23.5c-.7,0-1.1,0-1.4.2s-.4.4-.4.8,0,.5.3.7c.2.2.4.3.8.3s.8-.2,1.1-.5.4-.7.4-1.3v-.2h-.8ZM529.1,23.1v2.8h-.8v-.7c-.2.3-.4.5-.7.7-.3.1-.6.2-1,.2s-.9-.1-1.2-.4c-.3-.3-.4-.7-.4-1.1s.2-1,.6-1.3c.4-.3.9-.4,1.7-.4h1.1c0-.5-.1-.7-.4-.9s-.6-.3-1-.3-.6,0-.8.1c-.3,0-.5.2-.8.3v-.7c.3-.1.6-.2.9-.3.3,0,.5,0,.8,0,.7,0,1.2.2,1.6.6.4.4.5.9.5,1.7Z"/>
  <path id="DejaVuSans-6c" class="cls-15" d="M530.7,19.1h.8v6.8h-.8v-6.8Z"/>
  <path id="DejaVuSans-61-6" data-name="DejaVuSans-61" class="cls-15" d="M535.5,23.5c-.7,0-1.1,0-1.4.2s-.4.4-.4.8,0,.5.3.7c.2.2.4.3.8.3s.8-.2,1.1-.5.4-.7.4-1.3v-.2h-.8ZM537.1,23.1v2.8h-.8v-.7c-.2.3-.4.5-.7.7-.3.1-.6.2-1,.2s-.9-.1-1.2-.4c-.3-.3-.4-.7-.4-1.1s.2-1,.6-1.3c.4-.3.9-.4,1.7-.4h1.1c0-.5-.1-.7-.4-.9s-.6-.3-1-.3-.6,0-.8.1c-.3,0-.5.2-.8.3v-.7c.3-.1.6-.2.9-.3.3,0,.5,0,.8,0,.7,0,1.2.2,1.6.6.4.4.5.9.5,1.7Z"/>
  <path id="DejaVuSans-20-6" data-name="DejaVuSans-20" class="cls-15" d="M537.9,25.9"/>
  <path id="DejaVuSans-43" class="cls-15" d="M546.5,19.9v.9c-.3-.3-.6-.5-1-.6-.3-.1-.7-.2-1.1-.2-.7,0-1.3.2-1.7.7s-.6,1.1-.6,2,.2,1.5.6,2,1,.7,1.7.7.7,0,1.1-.2.7-.3,1-.6v.9c-.3.2-.6.4-1,.5-.3.1-.7.2-1.1.2-1,0-1.8-.3-2.3-.9-.6-.6-.9-1.4-.9-2.5s.3-1.9.9-2.5c.6-.6,1.4-.9,2.3-.9s.8,0,1.1.2c.3.1.7.3,1,.5Z"/>
  <path id="DejaVuSans-43-2" data-name="DejaVuSans-43" class="cls-15" d="M552.8,19.9v.9c-.3-.3-.6-.5-1-.6-.3-.1-.7-.2-1.1-.2-.7,0-1.3.2-1.7.7s-.6,1.1-.6,2,.2,1.5.6,2,1,.7,1.7.7.7,0,1.1-.2.7-.3,1-.6v.9c-.3.2-.6.4-1,.5-.3.1-.7.2-1.1.2-1,0-1.8-.3-2.3-.9-.6-.6-.9-1.4-.9-2.5s.3-1.9.9-2.5c.6-.6,1.4-.9,2.3-.9s.8,0,1.1.2c.3.1.7.3,1,.5Z"/>
  <path class="cls-10" d="M444.3,40.5v-9"/>
  <path id="m1f9be03f1e-17" data-name="m1f9be03f1e" class="cls-8" d="M449.3,40.5h-10"/>
  <path id="m1f9be03f1e-18" data-name="m1f9be03f1e" class="cls-8" d="M449.3,31.5h-10"/>
  <path class="cls-7" d="M435.3,36h18"/>
  <path id="m96b60f1a9f-5" data-name="m96b60f1a9f" class="cls-8" d="M444.3,40c1.1,0,2.1-.4,2.8-1.2s1.2-1.8,1.2-2.8-.4-2.1-1.2-2.8-1.8-1.2-2.8-1.2-2.1.4-2.8,1.2-1.2,1.8-1.2,2.8.4,2.1,1.2,2.8,1.8,1.2,2.8,1.2Z"/>
  <path id="DejaVuSans-47-2" data-name="DejaVuSans-47" class="cls-15" d="M465.9,38.2v-1.8h-1.4v-.7h2.3v2.8c-.3.2-.7.4-1.1.6-.4.1-.9.2-1.3.2-1,0-1.8-.3-2.4-.9-.6-.6-.9-1.4-.9-2.5s.3-1.9.9-2.5c.6-.6,1.4-.9,2.4-.9s.8,0,1.2.2c.4.1.7.3,1.1.5v.9c-.3-.3-.7-.5-1-.6s-.8-.2-1.2-.2c-.8,0-1.4.2-1.8.7-.4.4-.6,1.1-.6,2s.2,1.6.6,2c.4.4,1,.7,1.8.7s.6,0,.8,0c.2,0,.5-.1.7-.3Z"/>
  <path id="DejaVuSans-2e-2" data-name="DejaVuSans-2e" class="cls-15" d="M468.4,38h.9v1.1h-.9v-1.1Z"/>
  <path id="DejaVuSans-20-7" data-name="DejaVuSans-20" class="cls-15" d="M470.3,39.1"/>
  <path id="DejaVuSans-64-2" data-name="DejaVuSans-64" class="cls-15" d="M477.3,35v-2.7h.8v6.8h-.8v-.7c-.2.3-.4.5-.6.7-.3.1-.6.2-.9.2-.6,0-1.1-.2-1.5-.7-.4-.5-.6-1.1-.6-1.9s.2-1.4.6-1.9c.4-.5.9-.7,1.5-.7s.7,0,.9.2c.3.1.5.4.6.7ZM474.5,36.7c0,.6.1,1.1.4,1.4.2.3.6.5,1,.5s.8-.2,1-.5c.2-.3.4-.8.4-1.4s-.1-1.1-.4-1.4c-.2-.3-.6-.5-1-.5s-.8.2-1,.5-.4.8-.4,1.4Z"/>
  <path id="DejaVuSans-6f-4" data-name="DejaVuSans-6f" class="cls-15" d="M481.7,34.8c-.4,0-.8.2-1,.5s-.4.8-.4,1.4.1,1.1.4,1.4c.3.3.6.5,1,.5s.8-.2,1-.5c.3-.3.4-.8.4-1.4s-.1-1-.4-1.4c-.3-.3-.6-.5-1-.5ZM481.7,34.1c.7,0,1.3.2,1.7.7.4.5.6,1.1.6,1.9s-.2,1.4-.6,1.9c-.4.5-1,.7-1.7.7s-1.3-.2-1.7-.7c-.4-.5-.6-1.1-.6-1.9s.2-1.4.6-1.9c.4-.5,1-.7,1.7-.7Z"/>
  <path id="DejaVuSans-72-2" data-name="DejaVuSans-72" class="cls-15" d="M488.1,35c0,0-.2,0-.3-.1-.1,0-.2,0-.4,0-.5,0-.8.1-1.1.4s-.4.7-.4,1.3v2.6h-.8v-4.9h.8v.8c.2-.3.4-.5.7-.7.3-.1.6-.2,1-.2s.1,0,.2,0c0,0,.1,0,.2,0v.8Z"/>
  <path id="DejaVuSans-6f-5" data-name="DejaVuSans-6f" class="cls-15" d="M490.7,34.8c-.4,0-.8.2-1,.5s-.4.8-.4,1.4.1,1.1.4,1.4c.3.3.6.5,1,.5s.8-.2,1-.5c.3-.3.4-.8.4-1.4s-.1-1-.4-1.4c-.3-.3-.6-.5-1-.5ZM490.7,34.1c.7,0,1.3.2,1.7.7.4.5.6,1.1.6,1.9s-.2,1.4-.6,1.9c-.4.5-1,.7-1.7.7s-1.3-.2-1.7-.7c-.4-.5-.6-1.1-.6-1.9s.2-1.4.6-1.9c.4-.5,1-.7,1.7-.7Z"/>
  <path id="DejaVuSans-74-2" data-name="DejaVuSans-74" class="cls-15" d="M495.1,32.8v1.4h1.7v.6h-1.7v2.7c0,.4,0,.7.2.8s.3.2.7.2h.8v.7h-.8c-.6,0-1.1-.1-1.3-.3-.2-.2-.4-.7-.4-1.3v-2.7h-.6v-.6h.6v-1.4h.8Z"/>
  <path id="DejaVuSans-6f-6" data-name="DejaVuSans-6f" class="cls-15" d="M499.7,34.8c-.4,0-.8.2-1,.5s-.4.8-.4,1.4.1,1.1.4,1.4c.3.3.6.5,1,.5s.8-.2,1-.5c.3-.3.4-.8.4-1.4s-.1-1-.4-1.4c-.3-.3-.6-.5-1-.5ZM499.7,34.1c.7,0,1.3.2,1.7.7.4.5.6,1.1.6,1.9s-.2,1.4-.6,1.9c-.4.5-1,.7-1.7.7s-1.3-.2-1.7-.7c-.4-.5-.6-1.1-.6-1.9s.2-1.4.6-1.9c.4-.5,1-.7,1.7-.7Z"/>
  <path id="DejaVuSans-63-2" data-name="DejaVuSans-63" class="cls-15" d="M506.8,34.4v.8c-.2-.1-.5-.2-.7-.3s-.5,0-.7,0c-.5,0-.9.2-1.2.5-.3.3-.4.8-.4,1.4s.1,1.1.4,1.4c.3.3.7.5,1.2.5s.5,0,.7,0,.5-.2.7-.3v.7c-.2.1-.5.2-.7.2-.2,0-.5,0-.8,0-.7,0-1.3-.2-1.8-.7-.4-.5-.7-1.1-.7-1.9s.2-1.4.7-1.9c.4-.5,1-.7,1.8-.7s.5,0,.7,0c.2,0,.5.1.7.2Z"/>
  <path id="DejaVuSans-65-2" data-name="DejaVuSans-65" class="cls-15" d="M512.5,36.5v.4h-3.7c0,.6.2,1,.5,1.3.3.3.7.4,1.3.4s.6,0,.9-.1.6-.2.9-.3v.8c-.3.1-.6.2-.9.3s-.6,0-.9,0c-.8,0-1.4-.2-1.9-.7-.5-.5-.7-1.1-.7-1.9s.2-1.4.7-1.9c.4-.5,1-.7,1.8-.7s1.2.2,1.6.6c.4.4.6,1,.6,1.7ZM511.7,36.2c0-.4-.1-.8-.4-1.1-.2-.3-.6-.4-1-.4s-.8.1-1.1.4-.4.6-.5,1.1h2.9Z"/>
  <path id="DejaVuSans-70-2" data-name="DejaVuSans-70" class="cls-15" d="M514.6,38.4v2.6h-.8v-6.8h.8v.7c.2-.3.4-.5.6-.7.3-.1.6-.2.9-.2.6,0,1.1.2,1.5.7.4.5.6,1.1.6,1.9s-.2,1.4-.6,1.9c-.4.5-.9.7-1.5.7s-.7,0-.9-.2c-.3-.1-.5-.4-.6-.7ZM517.3,36.7c0-.6-.1-1.1-.4-1.4s-.6-.5-1-.5-.8.2-1,.5-.4.8-.4,1.4.1,1.1.4,1.4c.2.3.6.5,1,.5s.8-.2,1-.5c.2-.3.4-.8.4-1.4Z"/>
  <path id="DejaVuSans-68-2" data-name="DejaVuSans-68" class="cls-15" d="M523.6,36.2v3h-.8v-2.9c0-.5,0-.8-.3-1-.2-.2-.5-.3-.8-.3s-.8.1-1,.4c-.3.3-.4.7-.4,1.1v2.8h-.8v-6.8h.8v2.7c.2-.3.4-.5.7-.7.3-.1.6-.2.9-.2.6,0,1,.2,1.3.5.3.3.4.9.4,1.5Z"/>
  <path id="DejaVuSans-61-7" data-name="DejaVuSans-61" class="cls-15" d="M527.4,36.7c-.7,0-1.1,0-1.4.2s-.4.4-.4.8,0,.5.3.7c.2.2.4.3.8.3s.8-.2,1.1-.5.4-.7.4-1.3v-.2h-.8ZM529.1,36.3v2.8h-.8v-.7c-.2.3-.4.5-.7.7-.3.1-.6.2-1,.2s-.9-.1-1.2-.4c-.3-.3-.4-.7-.4-1.1s.2-1,.6-1.3c.4-.3.9-.4,1.7-.4h1.1c0-.5-.1-.7-.4-.9s-.6-.3-1-.3-.6,0-.8.1c-.3,0-.5.2-.8.3v-.7c.3-.1.6-.2.9-.3.3,0,.5,0,.8,0,.7,0,1.2.2,1.6.6.4.4.5.9.5,1.7Z"/>
  <path id="DejaVuSans-6c-2" data-name="DejaVuSans-6c" class="cls-15" d="M530.7,32.3h.8v6.8h-.8v-6.8Z"/>
  <path id="DejaVuSans-61-8" data-name="DejaVuSans-61" class="cls-15" d="M535.5,36.7c-.7,0-1.1,0-1.4.2s-.4.4-.4.8,0,.5.3.7c.2.2.4.3.8.3s.8-.2,1.1-.5.4-.7.4-1.3v-.2h-.8ZM537.1,36.3v2.8h-.8v-.7c-.2.3-.4.5-.7.7-.3.1-.6.2-1,.2s-.9-.1-1.2-.4c-.3-.3-.4-.7-.4-1.1s.2-1,.6-1.3c.4-.3.9-.4,1.7-.4h1.1c0-.5-.1-.7-.4-.9s-.6-.3-1-.3-.6,0-.8.1c-.3,0-.5.2-.8.3v-.7c.3-.1.6-.2.9-.3.3,0,.5,0,.8,0,.7,0,1.2.2,1.6.6.4.4.5.9.5,1.7Z"/>
  <path id="DejaVuSans-20-8" data-name="DejaVuSans-20" class="cls-15" d="M537.9,39.1"/>
  <path id="DejaVuSans-50" class="cls-15" d="M542.5,33.3v2.5h1.1c.4,0,.7-.1,1-.3.2-.2.3-.5.3-.9s-.1-.7-.3-.9c-.2-.2-.5-.3-1-.3h-1.1ZM541.6,32.6h2c.7,0,1.3.2,1.7.5.4.3.6.8.6,1.5s-.2,1.1-.6,1.5c-.4.3-.9.5-1.7.5h-1.1v2.6h-.9v-6.6Z"/>
  <path id="DejaVuSans-43-3" data-name="DejaVuSans-43" class="cls-15" d="M552,33.1v.9c-.3-.3-.6-.5-1-.6-.3-.1-.7-.2-1.1-.2-.7,0-1.3.2-1.7.7s-.6,1.1-.6,2,.2,1.5.6,2,1,.7,1.7.7.7,0,1.1-.2.7-.3,1-.6v.9c-.3.2-.6.4-1,.5-.3.1-.7.2-1.1.2-1,0-1.8-.3-2.3-.9-.6-.6-.9-1.4-.9-2.5s.3-1.9.9-2.5c.6-.6,1.4-.9,2.3-.9s.8,0,1.1.2c.3.1.7.3,1,.5Z"/>
</svg>