<?xml version="1.0" encoding="utf-8" standalone="no"?>
<!DOCTYPE svg PUBLIC "-//W3C//DTD SVG 1.1//EN"
  "http://www.w3.org/Graphics/SVG/1.1/DTD/svg11.dtd">
<!-- Created with matplotlib (https://matplotlib.org/) -->
<svg height="423.321687pt" version="1.1" viewBox="0 0 713.6525 423.321687" width="713.6525pt" xmlns="http://www.w3.org/2000/svg" xmlns:xlink="http://www.w3.org/1999/xlink">
 <metadata>
  <rdf:RDF xmlns:cc="http://creativecommons.org/ns#" xmlns:dc="http://purl.org/dc/elements/1.1/" xmlns:rdf="http://www.w3.org/1999/02/22-rdf-syntax-ns#">
   <cc:Work>
    <dc:type rdf:resource="http://purl.org/dc/dcmitype/StillImage"/>
    <dc:date>2026-06-11T09:36:31.527082</dc:date>
    <dc:format>image/svg+xml</dc:format>
    <dc:creator>
     <cc:Agent>
      <dc:title>Matplotlib v3.3.2, https://matplotlib.org/</dc:title>
     </cc:Agent>
    </dc:creator>
   </cc:Work>
  </rdf:RDF>
 </metadata>
 <defs>
  <style type="text/css">*{stroke-linecap:butt;stroke-linejoin:round;}</style>
 </defs>
 <g id="figure_1">
  <g id="patch_1">
   <path d="M 0 423.321687 
L 713.6525 423.321687 
L 713.6525 0 
L 0 0 
z
" style="fill:#ffffff;"/>
  </g>
  <g id="axes_1">
   <g id="patch_2">
    <path d="M 42.6325 383.829812 
L 706.4525 383.829812 
L 706.4525 23.837812 
L 42.6325 23.837812 
z
" style="fill:#ffffff;"/>
   </g>
   <g id="matplotlib.axis_1">
    <g id="xtick_1">
     <g id="line2d_1">
      <path clip-path="url(#pa35d3be6fa)" d="M 72.806136 383.829812 
L 72.806136 23.837812 
" style="fill:none;stroke:#808080;stroke-linecap:square;stroke-opacity:0.3;stroke-width:0.5;"/>
     </g>
     <g id="line2d_2">
      <defs>
       <path d="M 0 0 
L 0 3.5 
" id="m705a9b0937" style="stroke:#000000;stroke-width:0.8;"/>
      </defs>
      <g>
       <use style="stroke:#000000;stroke-width:0.8;" x="72.806136" xlink:href="#m705a9b0937" y="383.829812"/>
      </g>
     </g>
     <g id="text_1">
      <!-- $L_1$ -->
      <g transform="translate(67.656136 398.42825)scale(0.1 -0.1)">
       <defs>
        <path d="M 16.796875 72.90625 
L 26.703125 72.90625 
L 14.203125 8.203125 
L 49.703125 8.203125 
L 48.09375 0 
L 2.6875 0 
z
" id="DejaVuSans-Oblique-76"/>
        <path d="M 12.40625 8.296875 
L 28.515625 8.296875 
L 28.515625 63.921875 
L 10.984375 60.40625 
L 10.984375 69.390625 
L 28.421875 72.90625 
L 38.28125 72.90625 
L 38.28125 8.296875 
L 54.390625 8.296875 
L 54.390625 0 
L 12.40625 0 
z
" id="DejaVuSans-49"/>
       </defs>
       <use transform="translate(0 0.09375)" xlink:href="#DejaVuSans-Oblique-76"/>
       <use transform="translate(55.712891 -16.3125)scale(0.7)" xlink:href="#DejaVuSans-49"/>
      </g>
     </g>
    </g>
    <g id="xtick_2">
     <g id="line2d_3">
      <path clip-path="url(#pa35d3be6fa)" d="M 173.384924 383.829812 
L 173.384924 23.837812 
" style="fill:none;stroke:#808080;stroke-linecap:square;stroke-opacity:0.3;stroke-width:0.5;"/>
     </g>
     <g id="line2d_4">
      <g>
       <use style="stroke:#000000;stroke-width:0.8;" x="173.384924" xlink:href="#m705a9b0937" y="383.829812"/>
      </g>
     </g>
     <g id="text_2">
      <!-- $L_2$ -->
      <g transform="translate(168.234924 398.42825)scale(0.1 -0.1)">
       <defs>
        <path d="M 19.1875 8.296875 
L 53.609375 8.296875 
L 53.609375 0 
L 7.328125 0 
L 7.328125 8.296875 
Q 12.9375 14.109375 22.625 23.890625 
Q 32.328125 33.6875 34.8125 36.53125 
Q 39.546875 41.84375 41.421875 45.53125 
Q 43.3125 49.21875 43.3125 52.78125 
Q 43.3125 58.59375 39.234375 62.25 
Q 35.15625 65.921875 28.609375 65.921875 
Q 23.96875 65.921875 18.8125 64.3125 
Q 13.671875 62.703125 7.8125 59.421875 
L 7.8125 69.390625 
Q 13.765625 71.78125 18.9375 73 
Q 24.125 74.21875 28.421875 74.21875 
Q 39.75 74.21875 46.484375 68.546875 
Q 53.21875 62.890625 53.21875 53.421875 
Q 53.21875 48.921875 51.53125 44.890625 
Q 49.859375 40.875 45.40625 35.40625 
Q 44.1875 33.984375 37.640625 27.21875 
Q 31.109375 20.453125 19.1875 8.296875 
z
" id="DejaVuSans-50"/>
       </defs>
       <use transform="translate(0 0.09375)" xlink:href="#DejaVuSans-Oblique-76"/>
       <use transform="translate(55.712891 -16.3125)scale(0.7)" xlink:href="#DejaVuSans-50"/>
      </g>
     </g>
    </g>
    <g id="xtick_3">
     <g id="line2d_5">
      <path clip-path="url(#pa35d3be6fa)" d="M 273.963712 383.829812 
L 273.963712 23.837812 
" style="fill:none;stroke:#808080;stroke-linecap:square;stroke-opacity:0.3;stroke-width:0.5;"/>
     </g>
     <g id="line2d_6">
      <g>
       <use style="stroke:#000000;stroke-width:0.8;" x="273.963712" xlink:href="#m705a9b0937" y="383.829812"/>
      </g>
     </g>
     <g id="text_3">
      <!-- 1 -->
      <g transform="translate(270.782462 398.42825)scale(0.1 -0.1)">
       <use xlink:href="#DejaVuSans-49"/>
      </g>
     </g>
    </g>
    <g id="xtick_4">
     <g id="line2d_7">
      <path clip-path="url(#pa35d3be6fa)" d="M 374.5425 383.829812 
L 374.5425 23.837812 
" style="fill:none;stroke:#808080;stroke-linecap:square;stroke-opacity:0.3;stroke-width:0.5;"/>
     </g>
     <g id="line2d_8">
      <g>
       <use style="stroke:#000000;stroke-width:0.8;" x="374.5425" xlink:href="#m705a9b0937" y="383.829812"/>
      </g>
     </g>
     <g id="text_4">
      <!-- 2 -->
      <g transform="translate(371.36125 398.42825)scale(0.1 -0.1)">
       <use xlink:href="#DejaVuSans-50"/>
      </g>
     </g>
    </g>
    <g id="xtick_5">
     <g id="line2d_9">
      <path clip-path="url(#pa35d3be6fa)" d="M 475.121288 383.829812 
L 475.121288 23.837812 
" style="fill:none;stroke:#808080;stroke-linecap:square;stroke-opacity:0.3;stroke-width:0.5;"/>
     </g>
     <g id="line2d_10">
      <g>
       <use style="stroke:#000000;stroke-width:0.8;" x="475.121288" xlink:href="#m705a9b0937" y="383.829812"/>
      </g>
     </g>
     <g id="text_5">
      <!-- 3 -->
      <g transform="translate(471.940038 398.42825)scale(0.1 -0.1)">
       <defs>
        <path d="M 40.578125 39.3125 
Q 47.65625 37.796875 51.625 33 
Q 55.609375 28.21875 55.609375 21.1875 
Q 55.609375 10.40625 48.1875 4.484375 
Q 40.765625 -1.421875 27.09375 -1.421875 
Q 22.515625 -1.421875 17.65625 -0.515625 
Q 12.796875 0.390625 7.625 2.203125 
L 7.625 11.71875 
Q 11.71875 9.328125 16.59375 8.109375 
Q 21.484375 6.890625 26.8125 6.890625 
Q 36.078125 6.890625 40.9375 10.546875 
Q 45.796875 14.203125 45.796875 21.1875 
Q 45.796875 27.640625 41.28125 31.265625 
Q 36.765625 34.90625 28.71875 34.90625 
L 20.21875 34.90625 
L 20.21875 43.015625 
L 29.109375 43.015625 
Q 36.375 43.015625 40.234375 45.921875 
Q 44.09375 48.828125 44.09375 54.296875 
Q 44.09375 59.90625 40.109375 62.90625 
Q 36.140625 65.921875 28.71875 65.921875 
Q 24.65625 65.921875 20.015625 65.03125 
Q 15.375 64.15625 9.8125 62.3125 
L 9.8125 71.09375 
Q 15.4375 72.65625 20.34375 73.4375 
Q 25.25 74.21875 29.59375 74.21875 
Q 40.828125 74.21875 47.359375 69.109375 
Q 53.90625 64.015625 53.90625 55.328125 
Q 53.90625 49.265625 50.4375 45.09375 
Q 46.96875 40.921875 40.578125 39.3125 
z
" id="DejaVuSans-51"/>
       </defs>
       <use xlink:href="#DejaVuSans-51"/>
      </g>
     </g>
    </g>
    <g id="xtick_6">
     <g id="line2d_11">
      <path clip-path="url(#pa35d3be6fa)" d="M 575.700076 383.829812 
L 575.700076 23.837812 
" style="fill:none;stroke:#808080;stroke-linecap:square;stroke-opacity:0.3;stroke-width:0.5;"/>
     </g>
     <g id="line2d_12">
      <g>
       <use style="stroke:#000000;stroke-width:0.8;" x="575.700076" xlink:href="#m705a9b0937" y="383.829812"/>
      </g>
     </g>
     <g id="text_6">
      <!-- 4 -->
      <g transform="translate(572.518826 398.42825)scale(0.1 -0.1)">
       <defs>
        <path d="M 37.796875 64.3125 
L 12.890625 25.390625 
L 37.796875 25.390625 
z
M 35.203125 72.90625 
L 47.609375 72.90625 
L 47.609375 25.390625 
L 58.015625 25.390625 
L 58.015625 17.1875 
L 47.609375 17.1875 
L 47.609375 0 
L 37.796875 0 
L 37.796875 17.1875 
L 4.890625 17.1875 
L 4.890625 26.703125 
z
" id="DejaVuSans-52"/>
       </defs>
       <use xlink:href="#DejaVuSans-52"/>
      </g>
     </g>
    </g>
    <g id="xtick_7">
     <g id="line2d_13">
      <path clip-path="url(#pa35d3be6fa)" d="M 676.278864 383.829812 
L 676.278864 23.837812 
" style="fill:none;stroke:#808080;stroke-linecap:square;stroke-opacity:0.3;stroke-width:0.5;"/>
     </g>
     <g id="line2d_14">
      <g>
       <use style="stroke:#000000;stroke-width:0.8;" x="676.278864" xlink:href="#m705a9b0937" y="383.829812"/>
      </g>
     </g>
     <g id="text_7">
      <!-- 5 -->
      <g transform="translate(673.097614 398.42825)scale(0.1 -0.1)">
       <defs>
        <path d="M 10.796875 72.90625 
L 49.515625 72.90625 
L 49.515625 64.59375 
L 19.828125 64.59375 
L 19.828125 46.734375 
Q 21.96875 47.46875 24.109375 47.828125 
Q 26.265625 48.1875 28.421875 48.1875 
Q 40.625 48.1875 47.75 41.5 
Q 54.890625 34.8125 54.890625 23.390625 
Q 54.890625 11.625 47.5625 5.09375 
Q 40.234375 -1.421875 26.90625 -1.421875 
Q 22.3125 -1.421875 17.546875 -0.640625 
Q 12.796875 0.140625 7.71875 1.703125 
L 7.71875 11.625 
Q 12.109375 9.234375 16.796875 8.0625 
Q 21.484375 6.890625 26.703125 6.890625 
Q 35.15625 6.890625 40.078125 11.328125 
Q 45.015625 15.765625 45.015625 23.390625 
Q 45.015625 31 40.078125 35.4375 
Q 35.15625 39.890625 26.703125 39.890625 
Q 22.75 39.890625 18.8125 39.015625 
Q 14.890625 38.140625 10.796875 36.28125 
z
" id="DejaVuSans-53"/>
       </defs>
       <use xlink:href="#DejaVuSans-53"/>
      </g>
     </g>
    </g>
    <g id="text_8">
     <!-- Block Number -->
     <g transform="translate(327.286875 413.626062)scale(0.12 -0.12)">
      <defs>
       <path d="M 38.375 44.671875 
Q 42.828125 44.671875 45.109375 46.625 
Q 47.40625 48.578125 47.40625 52.390625 
Q 47.40625 56.15625 45.109375 58.125 
Q 42.828125 60.109375 38.375 60.109375 
L 27.984375 60.109375 
L 27.984375 44.671875 
z
M 39.015625 12.796875 
Q 44.671875 12.796875 47.53125 15.1875 
Q 50.390625 17.578125 50.390625 22.40625 
Q 50.390625 27.15625 47.5625 29.515625 
Q 44.734375 31.890625 39.015625 31.890625 
L 27.984375 31.890625 
L 27.984375 12.796875 
z
M 56.5 39.015625 
Q 62.546875 37.25 65.859375 32.515625 
Q 69.1875 27.78125 69.1875 20.90625 
Q 69.1875 10.359375 62.0625 5.171875 
Q 54.9375 0 40.375 0 
L 9.1875 0 
L 9.1875 72.90625 
L 37.40625 72.90625 
Q 52.59375 72.90625 59.40625 68.3125 
Q 66.21875 63.71875 66.21875 53.609375 
Q 66.21875 48.296875 63.71875 44.5625 
Q 61.234375 40.828125 56.5 39.015625 
z
" id="DejaVuSans-Bold-66"/>
       <path d="M 8.40625 75.984375 
L 25.875 75.984375 
L 25.875 0 
L 8.40625 0 
z
" id="DejaVuSans-Bold-108"/>
       <path d="M 34.421875 43.5 
Q 28.609375 43.5 25.5625 39.328125 
Q 22.515625 35.15625 22.515625 27.296875 
Q 22.515625 19.4375 25.5625 15.25 
Q 28.609375 11.078125 34.421875 11.078125 
Q 40.140625 11.078125 43.15625 15.25 
Q 46.1875 19.4375 46.1875 27.296875 
Q 46.1875 35.15625 43.15625 39.328125 
Q 40.140625 43.5 34.421875 43.5 
z
M 34.421875 56 
Q 48.53125 56 56.46875 48.375 
Q 64.40625 40.765625 64.40625 27.296875 
Q 64.40625 13.8125 56.46875 6.1875 
Q 48.53125 -1.421875 34.421875 -1.421875 
Q 20.265625 -1.421875 12.28125 6.1875 
Q 4.296875 13.8125 4.296875 27.296875 
Q 4.296875 40.765625 12.28125 48.375 
Q 20.265625 56 34.421875 56 
z
" id="DejaVuSans-Bold-111"/>
       <path d="M 52.59375 52.984375 
L 52.59375 38.71875 
Q 49.03125 41.15625 45.4375 42.328125 
Q 41.84375 43.5 37.984375 43.5 
Q 30.671875 43.5 26.59375 39.234375 
Q 22.515625 34.96875 22.515625 27.296875 
Q 22.515625 19.625 26.59375 15.34375 
Q 30.671875 11.078125 37.984375 11.078125 
Q 42.09375 11.078125 45.78125 12.296875 
Q 49.46875 13.53125 52.59375 15.921875 
L 52.59375 1.609375 
Q 48.484375 0.09375 44.265625 -0.65625 
Q 40.046875 -1.421875 35.796875 -1.421875 
Q 21 -1.421875 12.640625 6.171875 
Q 4.296875 13.765625 4.296875 27.296875 
Q 4.296875 40.828125 12.640625 48.40625 
Q 21 56 35.796875 56 
Q 40.09375 56 44.265625 55.25 
Q 48.4375 54.5 52.59375 52.984375 
z
" id="DejaVuSans-Bold-99"/>
       <path d="M 8.40625 75.984375 
L 25.875 75.984375 
L 25.875 34.625 
L 46 54.6875 
L 66.3125 54.6875 
L 39.59375 29.59375 
L 68.40625 0 
L 47.21875 0 
L 25.875 22.796875 
L 25.875 0 
L 8.40625 0 
z
" id="DejaVuSans-Bold-107"/>
       <path id="DejaVuSans-Bold-32"/>
       <path d="M 9.1875 72.90625 
L 30.171875 72.90625 
L 56.6875 22.90625 
L 56.6875 72.90625 
L 74.515625 72.90625 
L 74.515625 0 
L 53.515625 0 
L 27 50 
L 27 0 
L 9.1875 0 
z
" id="DejaVuSans-Bold-78"/>
       <path d="M 7.8125 21.296875 
L 7.8125 54.6875 
L 25.390625 54.6875 
L 25.390625 49.21875 
Q 25.390625 44.78125 25.34375 38.0625 
Q 25.296875 31.34375 25.296875 29.109375 
Q 25.296875 22.515625 25.640625 19.609375 
Q 25.984375 16.703125 26.8125 15.375 
Q 27.875 13.671875 29.609375 12.734375 
Q 31.34375 11.8125 33.59375 11.8125 
Q 39.0625 11.8125 42.1875 16.015625 
Q 45.3125 20.21875 45.3125 27.6875 
L 45.3125 54.6875 
L 62.796875 54.6875 
L 62.796875 0 
L 45.3125 0 
L 45.3125 7.90625 
Q 41.359375 3.125 36.9375 0.84375 
Q 32.515625 -1.421875 27.203125 -1.421875 
Q 17.71875 -1.421875 12.765625 4.390625 
Q 7.8125 10.203125 7.8125 21.296875 
z
" id="DejaVuSans-Bold-117"/>
       <path d="M 59.078125 45.609375 
Q 62.40625 50.6875 66.96875 53.34375 
Q 71.53125 56 77 56 
Q 86.421875 56 91.359375 50.1875 
Q 96.296875 44.390625 96.296875 33.296875 
L 96.296875 0 
L 78.71875 0 
L 78.71875 28.515625 
Q 78.765625 29.15625 78.78125 29.828125 
Q 78.8125 30.515625 78.8125 31.78125 
Q 78.8125 37.59375 77.09375 40.203125 
Q 75.390625 42.828125 71.578125 42.828125 
Q 66.609375 42.828125 63.890625 38.71875 
Q 61.1875 34.625 61.078125 26.859375 
L 61.078125 0 
L 43.5 0 
L 43.5 28.515625 
Q 43.5 37.59375 41.9375 40.203125 
Q 40.375 42.828125 36.375 42.828125 
Q 31.34375 42.828125 28.609375 38.703125 
Q 25.875 34.578125 25.875 26.90625 
L 25.875 0 
L 8.296875 0 
L 8.296875 54.6875 
L 25.875 54.6875 
L 25.875 46.6875 
Q 29.109375 51.3125 33.28125 53.65625 
Q 37.453125 56 42.484375 56 
Q 48.140625 56 52.484375 53.265625 
Q 56.84375 50.53125 59.078125 45.609375 
z
" id="DejaVuSans-Bold-109"/>
       <path d="M 37.5 11.28125 
Q 43.109375 11.28125 46.0625 15.375 
Q 49.03125 19.484375 49.03125 27.296875 
Q 49.03125 35.109375 46.0625 39.203125 
Q 43.109375 43.3125 37.5 43.3125 
Q 31.890625 43.3125 28.875 39.1875 
Q 25.875 35.0625 25.875 27.296875 
Q 25.875 19.53125 28.875 15.40625 
Q 31.890625 11.28125 37.5 11.28125 
z
M 25.875 46.6875 
Q 29.5 51.46875 33.890625 53.734375 
Q 38.28125 56 44 56 
Q 54.109375 56 60.59375 47.96875 
Q 67.09375 39.9375 67.09375 27.296875 
Q 67.09375 14.65625 60.59375 6.609375 
Q 54.109375 -1.421875 44 -1.421875 
Q 38.28125 -1.421875 33.890625 0.84375 
Q 29.5 3.125 25.875 7.90625 
L 25.875 0 
L 8.40625 0 
L 8.40625 75.984375 
L 25.875 75.984375 
z
" id="DejaVuSans-Bold-98"/>
       <path d="M 62.984375 27.484375 
L 62.984375 22.515625 
L 22.125 22.515625 
Q 22.75 16.359375 26.5625 13.28125 
Q 30.375 10.203125 37.203125 10.203125 
Q 42.71875 10.203125 48.5 11.84375 
Q 54.296875 13.484375 60.40625 16.796875 
L 60.40625 3.328125 
Q 54.203125 0.984375 48 -0.21875 
Q 41.796875 -1.421875 35.59375 -1.421875 
Q 20.75 -1.421875 12.515625 6.125 
Q 4.296875 13.671875 4.296875 27.296875 
Q 4.296875 40.671875 12.375 48.328125 
Q 20.453125 56 34.625 56 
Q 47.515625 56 55.25 48.234375 
Q 62.984375 40.484375 62.984375 27.484375 
z
M 45.015625 33.296875 
Q 45.015625 38.28125 42.109375 41.328125 
Q 39.203125 44.390625 34.515625 44.390625 
Q 29.4375 44.390625 26.265625 41.53125 
Q 23.09375 38.671875 22.3125 33.296875 
z
" id="DejaVuSans-Bold-101"/>
       <path d="M 49.03125 39.796875 
Q 46.734375 40.875 44.453125 41.375 
Q 42.1875 41.890625 39.890625 41.890625 
Q 33.15625 41.890625 29.515625 37.5625 
Q 25.875 33.25 25.875 25.203125 
L 25.875 0 
L 8.40625 0 
L 8.40625 54.6875 
L 25.875 54.6875 
L 25.875 45.703125 
Q 29.25 51.078125 33.609375 53.53125 
Q 37.984375 56 44.09375 56 
Q 44.96875 56 45.984375 55.921875 
Q 47.015625 55.859375 48.96875 55.609375 
z
" id="DejaVuSans-Bold-114"/>
      </defs>
      <use xlink:href="#DejaVuSans-Bold-66"/>
      <use x="76.220703" xlink:href="#DejaVuSans-Bold-108"/>
      <use x="110.498047" xlink:href="#DejaVuSans-Bold-111"/>
      <use x="179.199219" xlink:href="#DejaVuSans-Bold-99"/>
      <use x="238.476562" xlink:href="#DejaVuSans-Bold-107"/>
      <use x="304.980469" xlink:href="#DejaVuSans-Bold-32"/>
      <use x="339.794922" xlink:href="#DejaVuSans-Bold-78"/>
      <use x="423.486328" xlink:href="#DejaVuSans-Bold-117"/>
      <use x="494.677734" xlink:href="#DejaVuSans-Bold-109"/>
      <use x="598.876953" xlink:href="#DejaVuSans-Bold-98"/>
      <use x="670.458984" xlink:href="#DejaVuSans-Bold-101"/>
      <use x="738.28125" xlink:href="#DejaVuSans-Bold-114"/>
     </g>
    </g>
   </g>
   <g id="matplotlib.axis_2">
    <g id="ytick_1">
     <g id="line2d_15">
      <path clip-path="url(#pa35d3be6fa)" d="M 42.6325 383.829812 
L 706.4525 383.829812 
" style="fill:none;stroke:#808080;stroke-linecap:square;stroke-opacity:0.3;stroke-width:0.5;"/>
     </g>
     <g id="line2d_16">
      <defs>
       <path d="M 0 0 
L -3.5 0 
" id="m25c766351e" style="stroke:#000000;stroke-width:0.8;"/>
      </defs>
      <g>
       <use style="stroke:#000000;stroke-width:0.8;" x="42.6325" xlink:href="#m25c766351e" y="383.829812"/>
      </g>
     </g>
     <g id="text_9">
      <!-- 0 -->
      <g transform="translate(29.27 387.629031)scale(0.1 -0.1)">
       <defs>
        <path d="M 31.78125 66.40625 
Q 24.171875 66.40625 20.328125 58.90625 
Q 16.5 51.421875 16.5 36.375 
Q 16.5 21.390625 20.328125 13.890625 
Q 24.171875 6.390625 31.78125 6.390625 
Q 39.453125 6.390625 43.28125 13.890625 
Q 47.125 21.390625 47.125 36.375 
Q 47.125 51.421875 43.28125 58.90625 
Q 39.453125 66.40625 31.78125 66.40625 
z
M 31.78125 74.21875 
Q 44.046875 74.21875 50.515625 64.515625 
Q 56.984375 54.828125 56.984375 36.375 
Q 56.984375 17.96875 50.515625 8.265625 
Q 44.046875 -1.421875 31.78125 -1.421875 
Q 19.53125 -1.421875 13.0625 8.265625 
Q 6.59375 17.96875 6.59375 36.375 
Q 6.59375 54.828125 13.0625 64.515625 
Q 19.53125 74.21875 31.78125 74.21875 
z
" id="DejaVuSans-48"/>
       </defs>
       <use xlink:href="#DejaVuSans-48"/>
      </g>
     </g>
    </g>
    <g id="ytick_2">
     <g id="line2d_17">
      <path clip-path="url(#pa35d3be6fa)" d="M 42.6325 343.830701 
L 706.4525 343.830701 
" style="fill:none;stroke:#808080;stroke-linecap:square;stroke-opacity:0.3;stroke-width:0.5;"/>
     </g>
     <g id="line2d_18">
      <g>
       <use style="stroke:#000000;stroke-width:0.8;" x="42.6325" xlink:href="#m25c766351e" y="343.830701"/>
      </g>
     </g>
     <g id="text_10">
      <!-- 2 -->
      <g transform="translate(29.27 347.62992)scale(0.1 -0.1)">
       <use xlink:href="#DejaVuSans-50"/>
      </g>
     </g>
    </g>
    <g id="ytick_3">
     <g id="line2d_19">
      <path clip-path="url(#pa35d3be6fa)" d="M 42.6325 303.83159 
L 706.4525 303.83159 
" style="fill:none;stroke:#808080;stroke-linecap:square;stroke-opacity:0.3;stroke-width:0.5;"/>
     </g>
     <g id="line2d_20">
      <g>
       <use style="stroke:#000000;stroke-width:0.8;" x="42.6325" xlink:href="#m25c766351e" y="303.83159"/>
      </g>
     </g>
     <g id="text_11">
      <!-- 4 -->
      <g transform="translate(29.27 307.630809)scale(0.1 -0.1)">
       <use xlink:href="#DejaVuSans-52"/>
      </g>
     </g>
    </g>
    <g id="ytick_4">
     <g id="line2d_21">
      <path clip-path="url(#pa35d3be6fa)" d="M 42.6325 263.832479 
L 706.4525 263.832479 
" style="fill:none;stroke:#808080;stroke-linecap:square;stroke-opacity:0.3;stroke-width:0.5;"/>
     </g>
     <g id="line2d_22">
      <g>
       <use style="stroke:#000000;stroke-width:0.8;" x="42.6325" xlink:href="#m25c766351e" y="263.832479"/>
      </g>
     </g>
     <g id="text_12">
      <!-- 6 -->
      <g transform="translate(29.27 267.631698)scale(0.1 -0.1)">
       <defs>
        <path d="M 33.015625 40.375 
Q 26.375 40.375 22.484375 35.828125 
Q 18.609375 31.296875 18.609375 23.390625 
Q 18.609375 15.53125 22.484375 10.953125 
Q 26.375 6.390625 33.015625 6.390625 
Q 39.65625 6.390625 43.53125 10.953125 
Q 47.40625 15.53125 47.40625 23.390625 
Q 47.40625 31.296875 43.53125 35.828125 
Q 39.65625 40.375 33.015625 40.375 
z
M 52.59375 71.296875 
L 52.59375 62.3125 
Q 48.875 64.0625 45.09375 64.984375 
Q 41.3125 65.921875 37.59375 65.921875 
Q 27.828125 65.921875 22.671875 59.328125 
Q 17.53125 52.734375 16.796875 39.40625 
Q 19.671875 43.65625 24.015625 45.921875 
Q 28.375 48.1875 33.59375 48.1875 
Q 44.578125 48.1875 50.953125 41.515625 
Q 57.328125 34.859375 57.328125 23.390625 
Q 57.328125 12.15625 50.6875 5.359375 
Q 44.046875 -1.421875 33.015625 -1.421875 
Q 20.359375 -1.421875 13.671875 8.265625 
Q 6.984375 17.96875 6.984375 36.375 
Q 6.984375 53.65625 15.1875 63.9375 
Q 23.390625 74.21875 37.203125 74.21875 
Q 40.921875 74.21875 44.703125 73.484375 
Q 48.484375 72.75 52.59375 71.296875 
z
" id="DejaVuSans-54"/>
       </defs>
       <use xlink:href="#DejaVuSans-54"/>
      </g>
     </g>
    </g>
    <g id="ytick_5">
     <g id="line2d_23">
      <path clip-path="url(#pa35d3be6fa)" d="M 42.6325 223.833368 
L 706.4525 223.833368 
" style="fill:none;stroke:#808080;stroke-linecap:square;stroke-opacity:0.3;stroke-width:0.5;"/>
     </g>
     <g id="line2d_24">
      <g>
       <use style="stroke:#000000;stroke-width:0.8;" x="42.6325" xlink:href="#m25c766351e" y="223.833368"/>
      </g>
     </g>
     <g id="text_13">
      <!-- 8 -->
      <g transform="translate(29.27 227.632587)scale(0.1 -0.1)">
       <defs>
        <path d="M 31.78125 34.625 
Q 24.75 34.625 20.71875 30.859375 
Q 16.703125 27.09375 16.703125 20.515625 
Q 16.703125 13.921875 20.71875 10.15625 
Q 24.75 6.390625 31.78125 6.390625 
Q 38.8125 6.390625 42.859375 10.171875 
Q 46.921875 13.96875 46.921875 20.515625 
Q 46.921875 27.09375 42.890625 30.859375 
Q 38.875 34.625 31.78125 34.625 
z
M 21.921875 38.8125 
Q 15.578125 40.375 12.03125 44.71875 
Q 8.5 49.078125 8.5 55.328125 
Q 8.5 64.0625 14.71875 69.140625 
Q 20.953125 74.21875 31.78125 74.21875 
Q 42.671875 74.21875 48.875 69.140625 
Q 55.078125 64.0625 55.078125 55.328125 
Q 55.078125 49.078125 51.53125 44.71875 
Q 48 40.375 41.703125 38.8125 
Q 48.828125 37.15625 52.796875 32.3125 
Q 56.78125 27.484375 56.78125 20.515625 
Q 56.78125 9.90625 50.3125 4.234375 
Q 43.84375 -1.421875 31.78125 -1.421875 
Q 19.734375 -1.421875 13.25 4.234375 
Q 6.78125 9.90625 6.78125 20.515625 
Q 6.78125 27.484375 10.78125 32.3125 
Q 14.796875 37.15625 21.921875 38.8125 
z
M 18.3125 54.390625 
Q 18.3125 48.734375 21.84375 45.5625 
Q 25.390625 42.390625 31.78125 42.390625 
Q 38.140625 42.390625 41.71875 45.5625 
Q 45.3125 48.734375 45.3125 54.390625 
Q 45.3125 60.0625 41.71875 63.234375 
Q 38.140625 66.40625 31.78125 66.40625 
Q 25.390625 66.40625 21.84375 63.234375 
Q 18.3125 60.0625 18.3125 54.390625 
z
" id="DejaVuSans-56"/>
       </defs>
       <use xlink:href="#DejaVuSans-56"/>
      </g>
     </g>
    </g>
    <g id="ytick_6">
     <g id="line2d_25">
      <path clip-path="url(#pa35d3be6fa)" d="M 42.6325 183.834257 
L 706.4525 183.834257 
" style="fill:none;stroke:#808080;stroke-linecap:square;stroke-opacity:0.3;stroke-width:0.5;"/>
     </g>
     <g id="line2d_26">
      <g>
       <use style="stroke:#000000;stroke-width:0.8;" x="42.6325" xlink:href="#m25c766351e" y="183.834257"/>
      </g>
     </g>
     <g id="text_14">
      <!-- 10 -->
      <g transform="translate(22.9075 187.633476)scale(0.1 -0.1)">
       <use xlink:href="#DejaVuSans-49"/>
       <use x="63.623047" xlink:href="#DejaVuSans-48"/>
      </g>
     </g>
    </g>
    <g id="ytick_7">
     <g id="line2d_27">
      <path clip-path="url(#pa35d3be6fa)" d="M 42.6325 143.835146 
L 706.4525 143.835146 
" style="fill:none;stroke:#808080;stroke-linecap:square;stroke-opacity:0.3;stroke-width:0.5;"/>
     </g>
     <g id="line2d_28">
      <g>
       <use style="stroke:#000000;stroke-width:0.8;" x="42.6325" xlink:href="#m25c766351e" y="143.835146"/>
      </g>
     </g>
     <g id="text_15">
      <!-- 12 -->
      <g transform="translate(22.9075 147.634365)scale(0.1 -0.1)">
       <use xlink:href="#DejaVuSans-49"/>
       <use x="63.623047" xlink:href="#DejaVuSans-50"/>
      </g>
     </g>
    </g>
    <g id="ytick_8">
     <g id="line2d_29">
      <path clip-path="url(#pa35d3be6fa)" d="M 42.6325 103.836035 
L 706.4525 103.836035 
" style="fill:none;stroke:#808080;stroke-linecap:square;stroke-opacity:0.3;stroke-width:0.5;"/>
     </g>
     <g id="line2d_30">
      <g>
       <use style="stroke:#000000;stroke-width:0.8;" x="42.6325" xlink:href="#m25c766351e" y="103.836035"/>
      </g>
     </g>
     <g id="text_16">
      <!-- 14 -->
      <g transform="translate(22.9075 107.635253)scale(0.1 -0.1)">
       <use xlink:href="#DejaVuSans-49"/>
       <use x="63.623047" xlink:href="#DejaVuSans-52"/>
      </g>
     </g>
    </g>
    <g id="ytick_9">
     <g id="line2d_31">
      <path clip-path="url(#pa35d3be6fa)" d="M 42.6325 63.836924 
L 706.4525 63.836924 
" style="fill:none;stroke:#808080;stroke-linecap:square;stroke-opacity:0.3;stroke-width:0.5;"/>
     </g>
     <g id="line2d_32">
      <g>
       <use style="stroke:#000000;stroke-width:0.8;" x="42.6325" xlink:href="#m25c766351e" y="63.836924"/>
      </g>
     </g>
     <g id="text_17">
      <!-- 16 -->
      <g transform="translate(22.9075 67.636142)scale(0.1 -0.1)">
       <use xlink:href="#DejaVuSans-49"/>
       <use x="63.623047" xlink:href="#DejaVuSans-54"/>
      </g>
     </g>
    </g>
    <g id="ytick_10">
     <g id="line2d_33">
      <path clip-path="url(#pa35d3be6fa)" d="M 42.6325 23.837812 
L 706.4525 23.837812 
" style="fill:none;stroke:#808080;stroke-linecap:square;stroke-opacity:0.3;stroke-width:0.5;"/>
     </g>
     <g id="line2d_34">
      <g>
       <use style="stroke:#000000;stroke-width:0.8;" x="42.6325" xlink:href="#m25c766351e" y="23.837812"/>
      </g>
     </g>
     <g id="text_18">
      <!-- 18 -->
      <g transform="translate(22.9075 27.637031)scale(0.1 -0.1)">
       <use xlink:href="#DejaVuSans-49"/>
       <use x="63.623047" xlink:href="#DejaVuSans-56"/>
      </g>
     </g>
    </g>
    <g id="text_19">
     <!-- Average CR probability -->
     <g transform="translate(16.318125 281.777562)rotate(-90)scale(0.12 -0.12)">
      <defs>
       <path d="M 53.421875 13.28125 
L 24.03125 13.28125 
L 19.390625 0 
L 0.484375 0 
L 27.484375 72.90625 
L 49.90625 72.90625 
L 76.90625 0 
L 58.015625 0 
z
M 28.71875 26.8125 
L 48.6875 26.8125 
L 38.71875 55.8125 
z
" id="DejaVuSans-Bold-65"/>
       <path d="M 1.515625 54.6875 
L 19 54.6875 
L 32.625 16.890625 
L 46.1875 54.6875 
L 63.71875 54.6875 
L 42.1875 0 
L 23 0 
z
" id="DejaVuSans-Bold-118"/>
       <path d="M 32.90625 24.609375 
Q 27.4375 24.609375 24.671875 22.75 
Q 21.921875 20.90625 21.921875 17.28125 
Q 21.921875 13.96875 24.140625 12.078125 
Q 26.375 10.203125 30.328125 10.203125 
Q 35.25 10.203125 38.625 13.734375 
Q 42 17.28125 42 22.609375 
L 42 24.609375 
z
M 59.625 31.203125 
L 59.625 0 
L 42 0 
L 42 8.109375 
Q 38.484375 3.125 34.078125 0.84375 
Q 29.6875 -1.421875 23.390625 -1.421875 
Q 14.890625 -1.421875 9.59375 3.53125 
Q 4.296875 8.5 4.296875 16.40625 
Q 4.296875 26.03125 10.90625 30.515625 
Q 17.53125 35.015625 31.6875 35.015625 
L 42 35.015625 
L 42 36.375 
Q 42 40.53125 38.71875 42.453125 
Q 35.453125 44.390625 28.515625 44.390625 
Q 22.90625 44.390625 18.0625 43.265625 
Q 13.234375 42.140625 9.078125 39.890625 
L 9.078125 53.21875 
Q 14.703125 54.59375 20.359375 55.296875 
Q 26.03125 56 31.6875 56 
Q 46.484375 56 53.046875 50.171875 
Q 59.625 44.34375 59.625 31.203125 
z
" id="DejaVuSans-Bold-97"/>
       <path d="M 45.609375 9.28125 
Q 42 4.5 37.640625 2.25 
Q 33.296875 0 27.59375 0 
Q 17.578125 0 11.03125 7.875 
Q 4.5 15.765625 4.5 27.984375 
Q 4.5 40.234375 11.03125 48.0625 
Q 17.578125 55.90625 27.59375 55.90625 
Q 33.296875 55.90625 37.640625 53.65625 
Q 42 51.421875 45.609375 46.578125 
L 45.609375 54.6875 
L 63.1875 54.6875 
L 63.1875 5.515625 
Q 63.1875 -7.671875 54.859375 -14.625 
Q 46.53125 -21.578125 30.71875 -21.578125 
Q 25.59375 -21.578125 20.796875 -20.796875 
Q 16.015625 -20.015625 11.1875 -18.40625 
L 11.1875 -4.78125 
Q 15.765625 -7.421875 20.15625 -8.71875 
Q 24.5625 -10.015625 29 -10.015625 
Q 37.59375 -10.015625 41.59375 -6.25 
Q 45.609375 -2.484375 45.609375 5.515625 
z
M 34.078125 43.3125 
Q 28.65625 43.3125 25.625 39.296875 
Q 22.609375 35.296875 22.609375 27.984375 
Q 22.609375 20.453125 25.53125 16.578125 
Q 28.46875 12.703125 34.078125 12.703125 
Q 39.546875 12.703125 42.578125 16.703125 
Q 45.609375 20.703125 45.609375 27.984375 
Q 45.609375 35.296875 42.578125 39.296875 
Q 39.546875 43.3125 34.078125 43.3125 
z
" id="DejaVuSans-Bold-103"/>
       <path d="M 67 4 
Q 61.8125 1.3125 56.203125 -0.046875 
Q 50.59375 -1.421875 44.484375 -1.421875 
Q 26.265625 -1.421875 15.625 8.765625 
Q 4.984375 18.953125 4.984375 36.375 
Q 4.984375 53.859375 15.625 64.03125 
Q 26.265625 74.21875 44.484375 74.21875 
Q 50.59375 74.21875 56.203125 72.84375 
Q 61.8125 71.484375 67 68.796875 
L 67 53.71875 
Q 61.765625 57.28125 56.6875 58.9375 
Q 51.609375 60.59375 46 60.59375 
Q 35.9375 60.59375 30.171875 54.140625 
Q 24.421875 47.703125 24.421875 36.375 
Q 24.421875 25.09375 30.171875 18.640625 
Q 35.9375 12.203125 46 12.203125 
Q 51.609375 12.203125 56.6875 13.859375 
Q 61.765625 15.53125 67 19.09375 
z
" id="DejaVuSans-Bold-67"/>
       <path d="M 35.890625 40.578125 
Q 41.796875 40.578125 44.359375 42.765625 
Q 46.921875 44.96875 46.921875 50 
Q 46.921875 54.984375 44.359375 57.125 
Q 41.796875 59.28125 35.890625 59.28125 
L 27.984375 59.28125 
L 27.984375 40.578125 
z
M 27.984375 27.59375 
L 27.984375 0 
L 9.1875 0 
L 9.1875 72.90625 
L 37.890625 72.90625 
Q 52.296875 72.90625 59 68.0625 
Q 65.71875 63.234375 65.71875 52.78125 
Q 65.71875 45.5625 62.21875 40.921875 
Q 58.734375 36.28125 51.703125 34.078125 
Q 55.5625 33.203125 58.609375 30.09375 
Q 61.671875 27 64.796875 20.703125 
L 75 0 
L 54.984375 0 
L 46.09375 18.109375 
Q 43.40625 23.578125 40.640625 25.578125 
Q 37.890625 27.59375 33.296875 27.59375 
z
" id="DejaVuSans-Bold-82"/>
       <path d="M 25.875 7.90625 
L 25.875 -20.796875 
L 8.40625 -20.796875 
L 8.40625 54.6875 
L 25.875 54.6875 
L 25.875 46.6875 
Q 29.5 51.46875 33.890625 53.734375 
Q 38.28125 56 44 56 
Q 54.109375 56 60.59375 47.96875 
Q 67.09375 39.9375 67.09375 27.296875 
Q 67.09375 14.65625 60.59375 6.609375 
Q 54.109375 -1.421875 44 -1.421875 
Q 38.28125 -1.421875 33.890625 0.84375 
Q 29.5 3.125 25.875 7.90625 
z
M 37.5 43.3125 
Q 31.890625 43.3125 28.875 39.1875 
Q 25.875 35.0625 25.875 27.296875 
Q 25.875 19.53125 28.875 15.40625 
Q 31.890625 11.28125 37.5 11.28125 
Q 43.109375 11.28125 46.0625 15.375 
Q 49.03125 19.484375 49.03125 27.296875 
Q 49.03125 35.109375 46.0625 39.203125 
Q 43.109375 43.3125 37.5 43.3125 
z
" id="DejaVuSans-Bold-112"/>
       <path d="M 8.40625 54.6875 
L 25.875 54.6875 
L 25.875 0 
L 8.40625 0 
z
M 8.40625 75.984375 
L 25.875 75.984375 
L 25.875 61.71875 
L 8.40625 61.71875 
z
" id="DejaVuSans-Bold-105"/>
       <path d="M 27.484375 70.21875 
L 27.484375 54.6875 
L 45.515625 54.6875 
L 45.515625 42.1875 
L 27.484375 42.1875 
L 27.484375 19 
Q 27.484375 15.1875 29 13.84375 
Q 30.515625 12.5 35.015625 12.5 
L 44 12.5 
L 44 0 
L 29 0 
Q 18.65625 0 14.328125 4.3125 
Q 10.015625 8.640625 10.015625 19 
L 10.015625 42.1875 
L 1.3125 42.1875 
L 1.3125 54.6875 
L 10.015625 54.6875 
L 10.015625 70.21875 
z
" id="DejaVuSans-Bold-116"/>
       <path d="M 1.21875 54.6875 
L 18.703125 54.6875 
L 33.40625 17.578125 
L 45.90625 54.6875 
L 63.375 54.6875 
L 40.375 -5.171875 
Q 36.921875 -14.3125 32.296875 -17.9375 
Q 27.6875 -21.578125 20.125 -21.578125 
L 10.015625 -21.578125 
L 10.015625 -10.109375 
L 15.484375 -10.109375 
Q 19.921875 -10.109375 21.9375 -8.6875 
Q 23.96875 -7.28125 25.09375 -3.609375 
L 25.59375 -2.09375 
z
" id="DejaVuSans-Bold-121"/>
      </defs>
      <use xlink:href="#DejaVuSans-Bold-65"/>
      <use x="73.767578" xlink:href="#DejaVuSans-Bold-118"/>
      <use x="138.953125" xlink:href="#DejaVuSans-Bold-101"/>
      <use x="206.775391" xlink:href="#DejaVuSans-Bold-114"/>
      <use x="256.091797" xlink:href="#DejaVuSans-Bold-97"/>
      <use x="323.572266" xlink:href="#DejaVuSans-Bold-103"/>
      <use x="395.154297" xlink:href="#DejaVuSans-Bold-101"/>
      <use x="462.976562" xlink:href="#DejaVuSans-Bold-32"/>
      <use x="497.791016" xlink:href="#DejaVuSans-Bold-67"/>
      <use x="571.179688" xlink:href="#DejaVuSans-Bold-82"/>
      <use x="648.181641" xlink:href="#DejaVuSans-Bold-32"/>
      <use x="682.996094" xlink:href="#DejaVuSans-Bold-112"/>
      <use x="754.578125" xlink:href="#DejaVuSans-Bold-114"/>
      <use x="803.894531" xlink:href="#DejaVuSans-Bold-111"/>
      <use x="872.595703" xlink:href="#DejaVuSans-Bold-98"/>
      <use x="944.177734" xlink:href="#DejaVuSans-Bold-97"/>
      <use x="1011.658203" xlink:href="#DejaVuSans-Bold-98"/>
      <use x="1083.240234" xlink:href="#DejaVuSans-Bold-105"/>
      <use x="1117.517578" xlink:href="#DejaVuSans-Bold-108"/>
      <use x="1151.794922" xlink:href="#DejaVuSans-Bold-105"/>
      <use x="1186.072266" xlink:href="#DejaVuSans-Bold-116"/>
      <use x="1233.875" xlink:href="#DejaVuSans-Bold-121"/>
     </g>
    </g>
   </g>
   <g id="LineCollection_1">
    <path clip-path="url(#pa35d3be6fa)" d="M 72.806136 343.010539 
L 72.806136 311.318271 
" style="fill:none;stroke:#0072b2;stroke-opacity:0.9;stroke-width:2;"/>
    <path clip-path="url(#pa35d3be6fa)" d="M 173.384924 328.052255 
L 173.384924 279.610926 
" style="fill:none;stroke:#0072b2;stroke-opacity:0.9;stroke-width:2;"/>
    <path clip-path="url(#pa35d3be6fa)" d="M 273.963712 342.145542 
L 273.963712 312.183268 
" style="fill:none;stroke:#0072b2;stroke-opacity:0.9;stroke-width:2;"/>
    <path clip-path="url(#pa35d3be6fa)" d="M 374.5425 371.349304 
L 374.5425 349.644692 
" style="fill:none;stroke:#0072b2;stroke-opacity:0.9;stroke-width:2;"/>
    <path clip-path="url(#pa35d3be6fa)" d="M 475.121288 355.37745 
L 475.121288 332.283953 
" style="fill:none;stroke:#0072b2;stroke-opacity:0.9;stroke-width:2;"/>
    <path clip-path="url(#pa35d3be6fa)" d="M 575.700076 361.652439 
L 575.700076 339.342001 
" style="fill:none;stroke:#0072b2;stroke-opacity:0.9;stroke-width:2;"/>
    <path clip-path="url(#pa35d3be6fa)" d="M 676.278864 383.829812 
L 676.278864 377.163294 
" style="fill:none;stroke:#0072b2;stroke-opacity:0.9;stroke-width:2;"/>
   </g>
   <g id="LineCollection_2">
    <path clip-path="url(#pa35d3be6fa)" d="M 72.806136 332.366628 
L 72.806136 301.962626 
" style="fill:none;stroke:#0072b2;stroke-opacity:0.9;stroke-width:2;"/>
    <path clip-path="url(#pa35d3be6fa)" d="M 173.384924 377.163294 
L 173.384924 363.830257 
" style="fill:none;stroke:#0072b2;stroke-opacity:0.9;stroke-width:2;"/>
    <path clip-path="url(#pa35d3be6fa)" d="M 273.963712 353.310187 
L 273.963712 341.017734 
" style="fill:none;stroke:#0072b2;stroke-opacity:0.9;stroke-width:2;"/>
    <path clip-path="url(#pa35d3be6fa)" d="M 374.5425 383.829812 
L 374.5425 383.829812 
" style="fill:none;stroke:#0072b2;stroke-opacity:0.9;stroke-width:2;"/>
    <path clip-path="url(#pa35d3be6fa)" d="M 475.121288 380.38482 
L 475.121288 360.608731 
" style="fill:none;stroke:#0072b2;stroke-opacity:0.9;stroke-width:2;"/>
    <path clip-path="url(#pa35d3be6fa)" d="M 575.700076 376.939828 
L 575.700076 337.387649 
" style="fill:none;stroke:#0072b2;stroke-opacity:0.9;stroke-width:2;"/>
    <path clip-path="url(#pa35d3be6fa)" d="M 676.278864 383.829812 
L 676.278864 370.496775 
" style="fill:none;stroke:#0072b2;stroke-opacity:0.9;stroke-width:2;"/>
   </g>
   <g id="LineCollection_3">
    <path clip-path="url(#pa35d3be6fa)" d="M 72.806136 369.456191 
L 72.806136 344.871286 
" style="fill:none;stroke:#d55e00;stroke-opacity:0.9;stroke-width:2;"/>
    <path clip-path="url(#pa35d3be6fa)" d="M 173.384924 374.157983 
L 173.384924 353.502531 
" style="fill:none;stroke:#d55e00;stroke-opacity:0.9;stroke-width:2;"/>
    <path clip-path="url(#pa35d3be6fa)" d="M 273.963712 360.772867 
L 273.963712 320.222018 
" style="fill:none;stroke:#d55e00;stroke-opacity:0.9;stroke-width:2;"/>
    <path clip-path="url(#pa35d3be6fa)" d="M 374.5425 378.929328 
L 374.5425 362.064222 
" style="fill:none;stroke:#d55e00;stroke-opacity:0.9;stroke-width:2;"/>
    <path clip-path="url(#pa35d3be6fa)" d="M 475.121288 350.042444 
L 475.121288 330.95244 
" style="fill:none;stroke:#d55e00;stroke-opacity:0.9;stroke-width:2;"/>
    <path clip-path="url(#pa35d3be6fa)" d="M 575.700076 383.829812 
L 575.700076 370.496775 
" style="fill:none;stroke:#d55e00;stroke-opacity:0.9;stroke-width:2;"/>
    <path clip-path="url(#pa35d3be6fa)" d="M 676.278864 383.829812 
L 676.278864 377.163294 
" style="fill:none;stroke:#d55e00;stroke-opacity:0.9;stroke-width:2;"/>
   </g>
   <g id="LineCollection_4">
    <path clip-path="url(#pa35d3be6fa)" d="M 72.806136 366.643224 
L 72.806136 354.350771 
" style="fill:none;stroke:#d55e00;stroke-opacity:0.9;stroke-width:2;"/>
    <path clip-path="url(#pa35d3be6fa)" d="M 173.384924 363.830257 
L 173.384924 337.164183 
" style="fill:none;stroke:#d55e00;stroke-opacity:0.9;stroke-width:2;"/>
    <path clip-path="url(#pa35d3be6fa)" d="M 273.963712 359.322291 
L 273.963712 328.339112 
" style="fill:none;stroke:#d55e00;stroke-opacity:0.9;stroke-width:2;"/>
    <path clip-path="url(#pa35d3be6fa)" d="M 374.5425 375.191068 
L 374.5425 359.135965 
" style="fill:none;stroke:#d55e00;stroke-opacity:0.9;stroke-width:2;"/>
    <path clip-path="url(#pa35d3be6fa)" d="M 475.121288 365.596291 
L 475.121288 348.731185 
" style="fill:none;stroke:#d55e00;stroke-opacity:0.9;stroke-width:2;"/>
    <path clip-path="url(#pa35d3be6fa)" d="M 575.700076 380.661183 
L 575.700076 366.998886 
" style="fill:none;stroke:#d55e00;stroke-opacity:0.9;stroke-width:2;"/>
    <path clip-path="url(#pa35d3be6fa)" d="M 676.278864 380.38482 
L 676.278864 360.608731 
" style="fill:none;stroke:#d55e00;stroke-opacity:0.9;stroke-width:2;"/>
   </g>
   <g id="line2d_35">
    <defs>
     <path d="M 5 0 
L -5 -0 
" id="m9374a1b983" style="stroke:#0072b2;stroke-opacity:0.9;stroke-width:1.5;"/>
    </defs>
    <g clip-path="url(#pa35d3be6fa)">
     <use style="fill:#0072b2;fill-opacity:0.9;stroke:#0072b2;stroke-opacity:0.9;stroke-width:1.5;" x="72.806136" xlink:href="#m9374a1b983" y="343.010539"/>
     <use style="fill:#0072b2;fill-opacity:0.9;stroke:#0072b2;stroke-opacity:0.9;stroke-width:1.5;" x="173.384924" xlink:href="#m9374a1b983" y="328.052255"/>
     <use style="fill:#0072b2;fill-opacity:0.9;stroke:#0072b2;stroke-opacity:0.9;stroke-width:1.5;" x="273.963712" xlink:href="#m9374a1b983" y="342.145542"/>
     <use style="fill:#0072b2;fill-opacity:0.9;stroke:#0072b2;stroke-opacity:0.9;stroke-width:1.5;" x="374.5425" xlink:href="#m9374a1b983" y="371.349304"/>
     <use style="fill:#0072b2;fill-opacity:0.9;stroke:#0072b2;stroke-opacity:0.9;stroke-width:1.5;" x="475.121288" xlink:href="#m9374a1b983" y="355.37745"/>
     <use style="fill:#0072b2;fill-opacity:0.9;stroke:#0072b2;stroke-opacity:0.9;stroke-width:1.5;" x="575.700076" xlink:href="#m9374a1b983" y="361.652439"/>
     <use style="fill:#0072b2;fill-opacity:0.9;stroke:#0072b2;stroke-opacity:0.9;stroke-width:1.5;" x="676.278864" xlink:href="#m9374a1b983" y="383.829812"/>
    </g>
   </g>
   <g id="line2d_36">
    <g clip-path="url(#pa35d3be6fa)">
     <use style="fill:#0072b2;fill-opacity:0.9;stroke:#0072b2;stroke-opacity:0.9;stroke-width:1.5;" x="72.806136" xlink:href="#m9374a1b983" y="311.318271"/>
     <use style="fill:#0072b2;fill-opacity:0.9;stroke:#0072b2;stroke-opacity:0.9;stroke-width:1.5;" x="173.384924" xlink:href="#m9374a1b983" y="279.610926"/>
     <use style="fill:#0072b2;fill-opacity:0.9;stroke:#0072b2;stroke-opacity:0.9;stroke-width:1.5;" x="273.963712" xlink:href="#m9374a1b983" y="312.183268"/>
     <use style="fill:#0072b2;fill-opacity:0.9;stroke:#0072b2;stroke-opacity:0.9;stroke-width:1.5;" x="374.5425" xlink:href="#m9374a1b983" y="349.644692"/>
     <use style="fill:#0072b2;fill-opacity:0.9;stroke:#0072b2;stroke-opacity:0.9;stroke-width:1.5;" x="475.121288" xlink:href="#m9374a1b983" y="332.283953"/>
     <use style="fill:#0072b2;fill-opacity:0.9;stroke:#0072b2;stroke-opacity:0.9;stroke-width:1.5;" x="575.700076" xlink:href="#m9374a1b983" y="339.342001"/>
     <use style="fill:#0072b2;fill-opacity:0.9;stroke:#0072b2;stroke-opacity:0.9;stroke-width:1.5;" x="676.278864" xlink:href="#m9374a1b983" y="377.163294"/>
    </g>
   </g>
   <g id="line2d_37">
    <g clip-path="url(#pa35d3be6fa)">
     <use style="fill:#0072b2;fill-opacity:0.9;stroke:#0072b2;stroke-opacity:0.9;stroke-width:1.5;" x="72.806136" xlink:href="#m9374a1b983" y="332.366628"/>
     <use style="fill:#0072b2;fill-opacity:0.9;stroke:#0072b2;stroke-opacity:0.9;stroke-width:1.5;" x="173.384924" xlink:href="#m9374a1b983" y="377.163294"/>
     <use style="fill:#0072b2;fill-opacity:0.9;stroke:#0072b2;stroke-opacity:0.9;stroke-width:1.5;" x="273.963712" xlink:href="#m9374a1b983" y="353.310187"/>
     <use style="fill:#0072b2;fill-opacity:0.9;stroke:#0072b2;stroke-opacity:0.9;stroke-width:1.5;" x="374.5425" xlink:href="#m9374a1b983" y="383.829812"/>
     <use style="fill:#0072b2;fill-opacity:0.9;stroke:#0072b2;stroke-opacity:0.9;stroke-width:1.5;" x="475.121288" xlink:href="#m9374a1b983" y="380.38482"/>
     <use style="fill:#0072b2;fill-opacity:0.9;stroke:#0072b2;stroke-opacity:0.9;stroke-width:1.5;" x="575.700076" xlink:href="#m9374a1b983" y="376.939828"/>
     <use style="fill:#0072b2;fill-opacity:0.9;stroke:#0072b2;stroke-opacity:0.9;stroke-width:1.5;" x="676.278864" xlink:href="#m9374a1b983" y="383.829812"/>
    </g>
   </g>
   <g id="line2d_38">
    <g clip-path="url(#pa35d3be6fa)">
     <use style="fill:#0072b2;fill-opacity:0.9;stroke:#0072b2;stroke-opacity:0.9;stroke-width:1.5;" x="72.806136" xlink:href="#m9374a1b983" y="301.962626"/>
     <use style="fill:#0072b2;fill-opacity:0.9;stroke:#0072b2;stroke-opacity:0.9;stroke-width:1.5;" x="173.384924" xlink:href="#m9374a1b983" y="363.830257"/>
     <use style="fill:#0072b2;fill-opacity:0.9;stroke:#0072b2;stroke-opacity:0.9;stroke-width:1.5;" x="273.963712" xlink:href="#m9374a1b983" y="341.017734"/>
     <use style="fill:#0072b2;fill-opacity:0.9;stroke:#0072b2;stroke-opacity:0.9;stroke-width:1.5;" x="374.5425" xlink:href="#m9374a1b983" y="383.829812"/>
     <use style="fill:#0072b2;fill-opacity:0.9;stroke:#0072b2;stroke-opacity:0.9;stroke-width:1.5;" x="475.121288" xlink:href="#m9374a1b983" y="360.608731"/>
     <use style="fill:#0072b2;fill-opacity:0.9;stroke:#0072b2;stroke-opacity:0.9;stroke-width:1.5;" x="575.700076" xlink:href="#m9374a1b983" y="337.387649"/>
     <use style="fill:#0072b2;fill-opacity:0.9;stroke:#0072b2;stroke-opacity:0.9;stroke-width:1.5;" x="676.278864" xlink:href="#m9374a1b983" y="370.496775"/>
    </g>
   </g>
   <g id="line2d_39">
    <defs>
     <path d="M 5 0 
L -5 -0 
" id="m9c29ffffb7" style="stroke:#d55e00;stroke-opacity:0.9;stroke-width:1.5;"/>
    </defs>
    <g clip-path="url(#pa35d3be6fa)">
     <use style="fill:#d55e00;fill-opacity:0.9;stroke:#d55e00;stroke-opacity:0.9;stroke-width:1.5;" x="72.806136" xlink:href="#m9c29ffffb7" y="369.456191"/>
     <use style="fill:#d55e00;fill-opacity:0.9;stroke:#d55e00;stroke-opacity:0.9;stroke-width:1.5;" x="173.384924" xlink:href="#m9c29ffffb7" y="374.157983"/>
     <use style="fill:#d55e00;fill-opacity:0.9;stroke:#d55e00;stroke-opacity:0.9;stroke-width:1.5;" x="273.963712" xlink:href="#m9c29ffffb7" y="360.772867"/>
     <use style="fill:#d55e00;fill-opacity:0.9;stroke:#d55e00;stroke-opacity:0.9;stroke-width:1.5;" x="374.5425" xlink:href="#m9c29ffffb7" y="378.929328"/>
     <use style="fill:#d55e00;fill-opacity:0.9;stroke:#d55e00;stroke-opacity:0.9;stroke-width:1.5;" x="475.121288" xlink:href="#m9c29ffffb7" y="350.042444"/>
     <use style="fill:#d55e00;fill-opacity:0.9;stroke:#d55e00;stroke-opacity:0.9;stroke-width:1.5;" x="575.700076" xlink:href="#m9c29ffffb7" y="383.829812"/>
     <use style="fill:#d55e00;fill-opacity:0.9;stroke:#d55e00;stroke-opacity:0.9;stroke-width:1.5;" x="676.278864" xlink:href="#m9c29ffffb7" y="383.829812"/>
    </g>
   </g>
   <g id="line2d_40">
    <g clip-path="url(#pa35d3be6fa)">
     <use style="fill:#d55e00;fill-opacity:0.9;stroke:#d55e00;stroke-opacity:0.9;stroke-width:1.5;" x="72.806136" xlink:href="#m9c29ffffb7" y="344.871286"/>
     <use style="fill:#d55e00;fill-opacity:0.9;stroke:#d55e00;stroke-opacity:0.9;stroke-width:1.5;" x="173.384924" xlink:href="#m9c29ffffb7" y="353.502531"/>
     <use style="fill:#d55e00;fill-opacity:0.9;stroke:#d55e00;stroke-opacity:0.9;stroke-width:1.5;" x="273.963712" xlink:href="#m9c29ffffb7" y="320.222018"/>
     <use style="fill:#d55e00;fill-opacity:0.9;stroke:#d55e00;stroke-opacity:0.9;stroke-width:1.5;" x="374.5425" xlink:href="#m9c29ffffb7" y="362.064222"/>
     <use style="fill:#d55e00;fill-opacity:0.9;stroke:#d55e00;stroke-opacity:0.9;stroke-width:1.5;" x="475.121288" xlink:href="#m9c29ffffb7" y="330.95244"/>
     <use style="fill:#d55e00;fill-opacity:0.9;stroke:#d55e00;stroke-opacity:0.9;stroke-width:1.5;" x="575.700076" xlink:href="#m9c29ffffb7" y="370.496775"/>
     <use style="fill:#d55e00;fill-opacity:0.9;stroke:#d55e00;stroke-opacity:0.9;stroke-width:1.5;" x="676.278864" xlink:href="#m9c29ffffb7" y="377.163294"/>
    </g>
   </g>
   <g id="line2d_41">
    <g clip-path="url(#pa35d3be6fa)">
     <use style="fill:#d55e00;fill-opacity:0.9;stroke:#d55e00;stroke-opacity:0.9;stroke-width:1.5;" x="72.806136" xlink:href="#m9c29ffffb7" y="366.643224"/>
     <use style="fill:#d55e00;fill-opacity:0.9;stroke:#d55e00;stroke-opacity:0.9;stroke-width:1.5;" x="173.384924" xlink:href="#m9c29ffffb7" y="363.830257"/>
     <use style="fill:#d55e00;fill-opacity:0.9;stroke:#d55e00;stroke-opacity:0.9;stroke-width:1.5;" x="273.963712" xlink:href="#m9c29ffffb7" y="359.322291"/>
     <use style="fill:#d55e00;fill-opacity:0.9;stroke:#d55e00;stroke-opacity:0.9;stroke-width:1.5;" x="374.5425" xlink:href="#m9c29ffffb7" y="375.191068"/>
     <use style="fill:#d55e00;fill-opacity:0.9;stroke:#d55e00;stroke-opacity:0.9;stroke-width:1.5;" x="475.121288" xlink:href="#m9c29ffffb7" y="365.596291"/>
     <use style="fill:#d55e00;fill-opacity:0.9;stroke:#d55e00;stroke-opacity:0.9;stroke-width:1.5;" x="575.700076" xlink:href="#m9c29ffffb7" y="380.661183"/>
     <use style="fill:#d55e00;fill-opacity:0.9;stroke:#d55e00;stroke-opacity:0.9;stroke-width:1.5;" x="676.278864" xlink:href="#m9c29ffffb7" y="380.38482"/>
    </g>
   </g>
   <g id="line2d_42">
    <g clip-path="url(#pa35d3be6fa)">
     <use style="fill:#d55e00;fill-opacity:0.9;stroke:#d55e00;stroke-opacity:0.9;stroke-width:1.5;" x="72.806136" xlink:href="#m9c29ffffb7" y="354.350771"/>
     <use style="fill:#d55e00;fill-opacity:0.9;stroke:#d55e00;stroke-opacity:0.9;stroke-width:1.5;" x="173.384924" xlink:href="#m9c29ffffb7" y="337.164183"/>
     <use style="fill:#d55e00;fill-opacity:0.9;stroke:#d55e00;stroke-opacity:0.9;stroke-width:1.5;" x="273.963712" xlink:href="#m9c29ffffb7" y="328.339112"/>
     <use style="fill:#d55e00;fill-opacity:0.9;stroke:#d55e00;stroke-opacity:0.9;stroke-width:1.5;" x="374.5425" xlink:href="#m9c29ffffb7" y="359.135965"/>
     <use style="fill:#d55e00;fill-opacity:0.9;stroke:#d55e00;stroke-opacity:0.9;stroke-width:1.5;" x="475.121288" xlink:href="#m9c29ffffb7" y="348.731185"/>
     <use style="fill:#d55e00;fill-opacity:0.9;stroke:#d55e00;stroke-opacity:0.9;stroke-width:1.5;" x="575.700076" xlink:href="#m9c29ffffb7" y="366.998886"/>
     <use style="fill:#d55e00;fill-opacity:0.9;stroke:#d55e00;stroke-opacity:0.9;stroke-width:1.5;" x="676.278864" xlink:href="#m9c29ffffb7" y="360.608731"/>
    </g>
   </g>
   <g id="line2d_43">
    <path clip-path="url(#pa35d3be6fa)" d="M 72.806136 327.164405 
L 173.384924 303.83159 
L 273.963712 327.164405 
L 374.5425 360.496998 
L 475.121288 343.830701 
L 575.700076 350.49722 
L 676.278864 380.496553 
" style="fill:none;stroke:#0072b2;stroke-linecap:square;stroke-opacity:0.9;stroke-width:2;"/>
    <defs>
     <path d="M 0 4 
C 1.060812 4 2.078319 3.578535 2.828427 2.828427 
C 3.578535 2.078319 4 1.060812 4 0 
C 4 -1.060812 3.578535 -2.078319 2.828427 -2.828427 
C 2.078319 -3.578535 1.060812 -4 0 -4 
C -1.060812 -4 -2.078319 -3.578535 -2.828427 -2.828427 
C -3.578535 -2.078319 -4 -1.060812 -4 0 
C -4 1.060812 -3.578535 2.078319 -2.828427 2.828427 
C -2.078319 3.578535 -1.060812 4 0 4 
z
" id="m801a7bce6b" style="stroke:#0072b2;stroke-opacity:0.9;stroke-width:1.5;"/>
    </defs>
    <g clip-path="url(#pa35d3be6fa)">
     <use style="fill:#0072b2;fill-opacity:0.9;stroke:#0072b2;stroke-opacity:0.9;stroke-width:1.5;" x="72.806136" xlink:href="#m801a7bce6b" y="327.164405"/>
     <use style="fill:#0072b2;fill-opacity:0.9;stroke:#0072b2;stroke-opacity:0.9;stroke-width:1.5;" x="173.384924" xlink:href="#m801a7bce6b" y="303.83159"/>
     <use style="fill:#0072b2;fill-opacity:0.9;stroke:#0072b2;stroke-opacity:0.9;stroke-width:1.5;" x="273.963712" xlink:href="#m801a7bce6b" y="327.164405"/>
     <use style="fill:#0072b2;fill-opacity:0.9;stroke:#0072b2;stroke-opacity:0.9;stroke-width:1.5;" x="374.5425" xlink:href="#m801a7bce6b" y="360.496998"/>
     <use style="fill:#0072b2;fill-opacity:0.9;stroke:#0072b2;stroke-opacity:0.9;stroke-width:1.5;" x="475.121288" xlink:href="#m801a7bce6b" y="343.830701"/>
     <use style="fill:#0072b2;fill-opacity:0.9;stroke:#0072b2;stroke-opacity:0.9;stroke-width:1.5;" x="575.700076" xlink:href="#m801a7bce6b" y="350.49722"/>
     <use style="fill:#0072b2;fill-opacity:0.9;stroke:#0072b2;stroke-opacity:0.9;stroke-width:1.5;" x="676.278864" xlink:href="#m801a7bce6b" y="380.496553"/>
    </g>
   </g>
   <g id="line2d_44">
    <path clip-path="url(#pa35d3be6fa)" d="M 72.806136 317.164627 
L 173.384924 370.496775 
L 273.963712 347.163961 
L 374.5425 383.829812 
L 475.121288 370.496775 
L 575.700076 357.163738 
L 676.278864 377.163294 
" style="fill:none;stroke:#0072b2;stroke-dasharray:7.4,3.2;stroke-dashoffset:0;stroke-opacity:0.9;stroke-width:2;"/>
    <defs>
     <path d="M 0 4 
C 1.060812 4 2.078319 3.578535 2.828427 2.828427 
C 3.578535 2.078319 4 1.060812 4 0 
C 4 -1.060812 3.578535 -2.078319 2.828427 -2.828427 
C 2.078319 -3.578535 1.060812 -4 0 -4 
C -1.060812 -4 -2.078319 -3.578535 -2.828427 -2.828427 
C -3.578535 -2.078319 -4 -1.060812 -4 0 
C -4 1.060812 -3.578535 2.078319 -2.828427 2.828427 
C -2.078319 3.578535 -1.060812 4 0 4 
z
" id="m67a2b48ae9" style="stroke:#0072b2;stroke-opacity:0.9;stroke-width:1.5;"/>
    </defs>
    <g clip-path="url(#pa35d3be6fa)">
     <use style="fill-opacity:0;stroke:#0072b2;stroke-opacity:0.9;stroke-width:1.5;" x="72.806136" xlink:href="#m67a2b48ae9" y="317.164627"/>
     <use style="fill-opacity:0;stroke:#0072b2;stroke-opacity:0.9;stroke-width:1.5;" x="173.384924" xlink:href="#m67a2b48ae9" y="370.496775"/>
     <use style="fill-opacity:0;stroke:#0072b2;stroke-opacity:0.9;stroke-width:1.5;" x="273.963712" xlink:href="#m67a2b48ae9" y="347.163961"/>
     <use style="fill-opacity:0;stroke:#0072b2;stroke-opacity:0.9;stroke-width:1.5;" x="374.5425" xlink:href="#m67a2b48ae9" y="383.829812"/>
     <use style="fill-opacity:0;stroke:#0072b2;stroke-opacity:0.9;stroke-width:1.5;" x="475.121288" xlink:href="#m67a2b48ae9" y="370.496775"/>
     <use style="fill-opacity:0;stroke:#0072b2;stroke-opacity:0.9;stroke-width:1.5;" x="575.700076" xlink:href="#m67a2b48ae9" y="357.163738"/>
     <use style="fill-opacity:0;stroke:#0072b2;stroke-opacity:0.9;stroke-width:1.5;" x="676.278864" xlink:href="#m67a2b48ae9" y="377.163294"/>
    </g>
   </g>
   <g id="line2d_45">
    <path clip-path="url(#pa35d3be6fa)" d="M 72.806136 357.163738 
L 173.384924 363.830257 
L 273.963712 340.497442 
L 374.5425 370.496775 
L 475.121288 340.497442 
L 575.700076 377.163294 
L 676.278864 380.496553 
" style="fill:none;stroke:#d55e00;stroke-linecap:square;stroke-opacity:0.9;stroke-width:2;"/>
    <defs>
     <path d="M 0 4 
C 1.060812 4 2.078319 3.578535 2.828427 2.828427 
C 3.578535 2.078319 4 1.060812 4 0 
C 4 -1.060812 3.578535 -2.078319 2.828427 -2.828427 
C 2.078319 -3.578535 1.060812 -4 0 -4 
C -1.060812 -4 -2.078319 -3.578535 -2.828427 -2.828427 
C -3.578535 -2.078319 -4 -1.060812 -4 0 
C -4 1.060812 -3.578535 2.078319 -2.828427 2.828427 
C -2.078319 3.578535 -1.060812 4 0 4 
z
" id="mbbf2dee364" style="stroke:#d55e00;stroke-opacity:0.9;stroke-width:1.5;"/>
    </defs>
    <g clip-path="url(#pa35d3be6fa)">
     <use style="fill:#d55e00;fill-opacity:0.9;stroke:#d55e00;stroke-opacity:0.9;stroke-width:1.5;" x="72.806136" xlink:href="#mbbf2dee364" y="357.163738"/>
     <use style="fill:#d55e00;fill-opacity:0.9;stroke:#d55e00;stroke-opacity:0.9;stroke-width:1.5;" x="173.384924" xlink:href="#mbbf2dee364" y="363.830257"/>
     <use style="fill:#d55e00;fill-opacity:0.9;stroke:#d55e00;stroke-opacity:0.9;stroke-width:1.5;" x="273.963712" xlink:href="#mbbf2dee364" y="340.497442"/>
     <use style="fill:#d55e00;fill-opacity:0.9;stroke:#d55e00;stroke-opacity:0.9;stroke-width:1.5;" x="374.5425" xlink:href="#mbbf2dee364" y="370.496775"/>
     <use style="fill:#d55e00;fill-opacity:0.9;stroke:#d55e00;stroke-opacity:0.9;stroke-width:1.5;" x="475.121288" xlink:href="#mbbf2dee364" y="340.497442"/>
     <use style="fill:#d55e00;fill-opacity:0.9;stroke:#d55e00;stroke-opacity:0.9;stroke-width:1.5;" x="575.700076" xlink:href="#mbbf2dee364" y="377.163294"/>
     <use style="fill:#d55e00;fill-opacity:0.9;stroke:#d55e00;stroke-opacity:0.9;stroke-width:1.5;" x="676.278864" xlink:href="#mbbf2dee364" y="380.496553"/>
    </g>
   </g>
   <g id="line2d_46">
    <path clip-path="url(#pa35d3be6fa)" d="M 72.806136 360.496998 
L 173.384924 350.49722 
L 273.963712 343.830701 
L 374.5425 367.163516 
L 475.121288 357.163738 
L 575.700076 373.830035 
L 676.278864 370.496775 
" style="fill:none;stroke:#d55e00;stroke-dasharray:7.4,3.2;stroke-dashoffset:0;stroke-opacity:0.9;stroke-width:2;"/>
    <defs>
     <path d="M 0 4 
C 1.060812 4 2.078319 3.578535 2.828427 2.828427 
C 3.578535 2.078319 4 1.060812 4 0 
C 4 -1.060812 3.578535 -2.078319 2.828427 -2.828427 
C 2.078319 -3.578535 1.060812 -4 0 -4 
C -1.060812 -4 -2.078319 -3.578535 -2.828427 -2.828427 
C -3.578535 -2.078319 -4 -1.060812 -4 0 
C -4 1.060812 -3.578535 2.078319 -2.828427 2.828427 
C -2.078319 3.578535 -1.060812 4 0 4 
z
" id="me9395152d4" style="stroke:#d55e00;stroke-opacity:0.9;stroke-width:1.5;"/>
    </defs>
    <g clip-path="url(#pa35d3be6fa)">
     <use style="fill-opacity:0;stroke:#d55e00;stroke-opacity:0.9;stroke-width:1.5;" x="72.806136" xlink:href="#me9395152d4" y="360.496998"/>
     <use style="fill-opacity:0;stroke:#d55e00;stroke-opacity:0.9;stroke-width:1.5;" x="173.384924" xlink:href="#me9395152d4" y="350.49722"/>
     <use style="fill-opacity:0;stroke:#d55e00;stroke-opacity:0.9;stroke-width:1.5;" x="273.963712" xlink:href="#me9395152d4" y="343.830701"/>
     <use style="fill-opacity:0;stroke:#d55e00;stroke-opacity:0.9;stroke-width:1.5;" x="374.5425" xlink:href="#me9395152d4" y="367.163516"/>
     <use style="fill-opacity:0;stroke:#d55e00;stroke-opacity:0.9;stroke-width:1.5;" x="475.121288" xlink:href="#me9395152d4" y="357.163738"/>
     <use style="fill-opacity:0;stroke:#d55e00;stroke-opacity:0.9;stroke-width:1.5;" x="575.700076" xlink:href="#me9395152d4" y="373.830035"/>
     <use style="fill-opacity:0;stroke:#d55e00;stroke-opacity:0.9;stroke-width:1.5;" x="676.278864" xlink:href="#me9395152d4" y="370.496775"/>
    </g>
   </g>
   <g id="patch_3">
    <path d="M 42.6325 383.829812 
L 42.6325 23.837812 
" style="fill:none;stroke:#000000;stroke-linecap:square;stroke-linejoin:miter;stroke-width:0.8;"/>
   </g>
   <g id="patch_4">
    <path d="M 706.4525 383.829812 
L 706.4525 23.837812 
" style="fill:none;stroke:#000000;stroke-linecap:square;stroke-linejoin:miter;stroke-width:0.8;"/>
   </g>
   <g id="patch_5">
    <path d="M 42.6325 383.829812 
L 706.4525 383.829812 
" style="fill:none;stroke:#000000;stroke-linecap:square;stroke-linejoin:miter;stroke-width:0.8;"/>
   </g>
   <g id="patch_6">
    <path d="M 42.6325 23.837812 
L 706.4525 23.837812 
" style="fill:none;stroke:#000000;stroke-linecap:square;stroke-linejoin:miter;stroke-width:0.8;"/>
   </g>
   <g id="text_20">
    <!-- || -->
    <g transform="translate(220.021193 386.9721)scale(0.1 -0.1)">
     <defs>
      <path d="M 23.78125 76.421875 
L 23.78125 -23.578125 
L 12.703125 -23.578125 
L 12.703125 76.421875 
z
" id="DejaVuSans-Bold-124"/>
     </defs>
     <use xlink:href="#DejaVuSans-Bold-124"/>
     <use x="36.523438" xlink:href="#DejaVuSans-Bold-124"/>
    </g>
   </g>
   <g id="text_21">
    <!-- Contraction probability across blocks -->
    <g transform="translate(227.311719 17.837812)scale(0.14 -0.14)">
     <defs>
      <path d="M 63.375 33.296875 
L 63.375 0 
L 45.796875 0 
L 45.796875 5.421875 
L 45.796875 25.484375 
Q 45.796875 32.5625 45.484375 35.25 
Q 45.171875 37.9375 44.390625 39.203125 
Q 43.359375 40.921875 41.59375 41.875 
Q 39.84375 42.828125 37.59375 42.828125 
Q 32.125 42.828125 29 38.59375 
Q 25.875 34.375 25.875 26.90625 
L 25.875 0 
L 8.40625 0 
L 8.40625 54.6875 
L 25.875 54.6875 
L 25.875 46.6875 
Q 29.828125 51.46875 34.265625 53.734375 
Q 38.71875 56 44.09375 56 
Q 53.5625 56 58.46875 50.1875 
Q 63.375 44.390625 63.375 33.296875 
z
" id="DejaVuSans-Bold-110"/>
      <path d="M 51.125 52.984375 
L 51.125 39.703125 
Q 45.515625 42.046875 40.28125 43.21875 
Q 35.0625 44.390625 30.421875 44.390625 
Q 25.4375 44.390625 23.015625 43.140625 
Q 20.609375 41.890625 20.609375 39.3125 
Q 20.609375 37.203125 22.4375 36.078125 
Q 24.265625 34.96875 29 34.421875 
L 32.078125 33.984375 
Q 45.515625 32.28125 50.140625 28.375 
Q 54.78125 24.46875 54.78125 16.109375 
Q 54.78125 7.375 48.328125 2.96875 
Q 41.890625 -1.421875 29.109375 -1.421875 
Q 23.6875 -1.421875 17.890625 -0.5625 
Q 12.109375 0.296875 6 2 
L 6 15.28125 
Q 11.234375 12.75 16.71875 11.46875 
Q 22.21875 10.203125 27.875 10.203125 
Q 33.015625 10.203125 35.59375 11.609375 
Q 38.1875 13.03125 38.1875 15.828125 
Q 38.1875 18.171875 36.40625 19.3125 
Q 34.625 20.453125 29.296875 21.09375 
L 26.21875 21.484375 
Q 14.546875 22.953125 9.859375 26.90625 
Q 5.171875 30.859375 5.171875 38.921875 
Q 5.171875 47.609375 11.125 51.796875 
Q 17.09375 56 29.390625 56 
Q 34.234375 56 39.546875 55.265625 
Q 44.875 54.546875 51.125 52.984375 
z
" id="DejaVuSans-Bold-115"/>
     </defs>
     <use xlink:href="#DejaVuSans-Bold-67"/>
     <use x="73.388672" xlink:href="#DejaVuSans-Bold-111"/>
     <use x="142.089844" xlink:href="#DejaVuSans-Bold-110"/>
     <use x="213.28125" xlink:href="#DejaVuSans-Bold-116"/>
     <use x="261.083984" xlink:href="#DejaVuSans-Bold-114"/>
     <use x="310.400391" xlink:href="#DejaVuSans-Bold-97"/>
     <use x="377.880859" xlink:href="#DejaVuSans-Bold-99"/>
     <use x="437.158203" xlink:href="#DejaVuSans-Bold-116"/>
     <use x="484.960938" xlink:href="#DejaVuSans-Bold-105"/>
     <use x="519.238281" xlink:href="#DejaVuSans-Bold-111"/>
     <use x="587.939453" xlink:href="#DejaVuSans-Bold-110"/>
     <use x="659.130859" xlink:href="#DejaVuSans-Bold-32"/>
     <use x="693.945312" xlink:href="#DejaVuSans-Bold-112"/>
     <use x="765.527344" xlink:href="#DejaVuSans-Bold-114"/>
     <use x="814.84375" xlink:href="#DejaVuSans-Bold-111"/>
     <use x="883.544922" xlink:href="#DejaVuSans-Bold-98"/>
     <use x="955.126953" xlink:href="#DejaVuSans-Bold-97"/>
     <use x="1022.607422" xlink:href="#DejaVuSans-Bold-98"/>
     <use x="1094.189453" xlink:href="#DejaVuSans-Bold-105"/>
     <use x="1128.466797" xlink:href="#DejaVuSans-Bold-108"/>
     <use x="1162.744141" xlink:href="#DejaVuSans-Bold-105"/>
     <use x="1197.021484" xlink:href="#DejaVuSans-Bold-116"/>
     <use x="1244.824219" xlink:href="#DejaVuSans-Bold-121"/>
     <use x="1310.009766" xlink:href="#DejaVuSans-Bold-32"/>
     <use x="1344.824219" xlink:href="#DejaVuSans-Bold-97"/>
     <use x="1412.304688" xlink:href="#DejaVuSans-Bold-99"/>
     <use x="1471.582031" xlink:href="#DejaVuSans-Bold-114"/>
     <use x="1520.898438" xlink:href="#DejaVuSans-Bold-111"/>
     <use x="1589.599609" xlink:href="#DejaVuSans-Bold-115"/>
     <use x="1649.121094" xlink:href="#DejaVuSans-Bold-115"/>
     <use x="1708.642578" xlink:href="#DejaVuSans-Bold-32"/>
     <use x="1743.457031" xlink:href="#DejaVuSans-Bold-98"/>
     <use x="1815.039062" xlink:href="#DejaVuSans-Bold-108"/>
     <use x="1849.316406" xlink:href="#DejaVuSans-Bold-111"/>
     <use x="1918.017578" xlink:href="#DejaVuSans-Bold-99"/>
     <use x="1977.294922" xlink:href="#DejaVuSans-Bold-107"/>
     <use x="2043.798828" xlink:href="#DejaVuSans-Bold-115"/>
    </g>
   </g>
   <g id="legend_1">
    <g id="patch_7">
     <path d="M 565.093125 90.550312 
L 699.4525 90.550312 
Q 701.4525 90.550312 701.4525 88.550312 
L 701.4525 30.837812 
Q 701.4525 28.837812 699.4525 28.837812 
L 565.093125 28.837812 
Q 563.093125 28.837812 563.093125 30.837812 
L 563.093125 88.550312 
Q 563.093125 90.550312 565.093125 90.550312 
z
" style="fill:#ffffff;opacity:0.9;stroke:#cccccc;stroke-linejoin:miter;"/>
    </g>
    <g id="LineCollection_5">
     <path d="M 577.093125 41.93625 
L 577.093125 31.93625 
" style="fill:none;stroke:#0072b2;stroke-opacity:0.9;stroke-width:2;"/>
    </g>
    <g id="line2d_47">
     <g>
      <use style="fill:#0072b2;fill-opacity:0.9;stroke:#0072b2;stroke-opacity:0.9;stroke-width:1.5;" x="577.093125" xlink:href="#m9374a1b983" y="41.93625"/>
     </g>
    </g>
    <g id="line2d_48">
     <g>
      <use style="fill:#0072b2;fill-opacity:0.9;stroke:#0072b2;stroke-opacity:0.9;stroke-width:1.5;" x="577.093125" xlink:href="#m9374a1b983" y="31.93625"/>
     </g>
    </g>
    <g id="line2d_49">
     <path d="M 567.093125 36.93625 
L 587.093125 36.93625 
" style="fill:none;stroke:#0072b2;stroke-linecap:square;stroke-opacity:0.9;stroke-width:2;"/>
    </g>
    <g id="line2d_50">
     <g>
      <use style="fill:#0072b2;fill-opacity:0.9;stroke:#0072b2;stroke-opacity:0.9;stroke-width:1.5;" x="577.093125" xlink:href="#m801a7bce6b" y="36.93625"/>
     </g>
    </g>
    <g id="text_22">
     <!-- High responders, CC -->
     <g transform="translate(595.093125 40.43625)scale(0.1 -0.1)">
      <defs>
       <path d="M 9.8125 72.90625 
L 19.671875 72.90625 
L 19.671875 43.015625 
L 55.515625 43.015625 
L 55.515625 72.90625 
L 65.375 72.90625 
L 65.375 0 
L 55.515625 0 
L 55.515625 34.71875 
L 19.671875 34.71875 
L 19.671875 0 
L 9.8125 0 
z
" id="DejaVuSans-72"/>
       <path d="M 9.421875 54.6875 
L 18.40625 54.6875 
L 18.40625 0 
L 9.421875 0 
z
M 9.421875 75.984375 
L 18.40625 75.984375 
L 18.40625 64.59375 
L 9.421875 64.59375 
z
" id="DejaVuSans-105"/>
       <path d="M 45.40625 27.984375 
Q 45.40625 37.75 41.375 43.109375 
Q 37.359375 48.484375 30.078125 48.484375 
Q 22.859375 48.484375 18.828125 43.109375 
Q 14.796875 37.75 14.796875 27.984375 
Q 14.796875 18.265625 18.828125 12.890625 
Q 22.859375 7.515625 30.078125 7.515625 
Q 37.359375 7.515625 41.375 12.890625 
Q 45.40625 18.265625 45.40625 27.984375 
z
M 54.390625 6.78125 
Q 54.390625 -7.171875 48.1875 -13.984375 
Q 42 -20.796875 29.203125 -20.796875 
Q 24.46875 -20.796875 20.265625 -20.09375 
Q 16.0625 -19.390625 12.109375 -17.921875 
L 12.109375 -9.1875 
Q 16.0625 -11.328125 19.921875 -12.34375 
Q 23.78125 -13.375 27.78125 -13.375 
Q 36.625 -13.375 41.015625 -8.765625 
Q 45.40625 -4.15625 45.40625 5.171875 
L 45.40625 9.625 
Q 42.625 4.78125 38.28125 2.390625 
Q 33.9375 0 27.875 0 
Q 17.828125 0 11.671875 7.65625 
Q 5.515625 15.328125 5.515625 27.984375 
Q 5.515625 40.671875 11.671875 48.328125 
Q 17.828125 56 27.875 56 
Q 33.9375 56 38.28125 53.609375 
Q 42.625 51.21875 45.40625 46.390625 
L 45.40625 54.6875 
L 54.390625 54.6875 
z
" id="DejaVuSans-103"/>
       <path d="M 54.890625 33.015625 
L 54.890625 0 
L 45.90625 0 
L 45.90625 32.71875 
Q 45.90625 40.484375 42.875 44.328125 
Q 39.84375 48.1875 33.796875 48.1875 
Q 26.515625 48.1875 22.3125 43.546875 
Q 18.109375 38.921875 18.109375 30.90625 
L 18.109375 0 
L 9.078125 0 
L 9.078125 75.984375 
L 18.109375 75.984375 
L 18.109375 46.1875 
Q 21.34375 51.125 25.703125 53.5625 
Q 30.078125 56 35.796875 56 
Q 45.21875 56 50.046875 50.171875 
Q 54.890625 44.34375 54.890625 33.015625 
z
" id="DejaVuSans-104"/>
       <path id="DejaVuSans-32"/>
       <path d="M 41.109375 46.296875 
Q 39.59375 47.171875 37.8125 47.578125 
Q 36.03125 48 33.890625 48 
Q 26.265625 48 22.1875 43.046875 
Q 18.109375 38.09375 18.109375 28.8125 
L 18.109375 0 
L 9.078125 0 
L 9.078125 54.6875 
L 18.109375 54.6875 
L 18.109375 46.1875 
Q 20.953125 51.171875 25.484375 53.578125 
Q 30.03125 56 36.53125 56 
Q 37.453125 56 38.578125 55.875 
Q 39.703125 55.765625 41.0625 55.515625 
z
" id="DejaVuSans-114"/>
       <path d="M 56.203125 29.59375 
L 56.203125 25.203125 
L 14.890625 25.203125 
Q 15.484375 15.921875 20.484375 11.0625 
Q 25.484375 6.203125 34.421875 6.203125 
Q 39.59375 6.203125 44.453125 7.46875 
Q 49.3125 8.734375 54.109375 11.28125 
L 54.109375 2.78125 
Q 49.265625 0.734375 44.1875 -0.34375 
Q 39.109375 -1.421875 33.890625 -1.421875 
Q 20.796875 -1.421875 13.15625 6.1875 
Q 5.515625 13.8125 5.515625 26.8125 
Q 5.515625 40.234375 12.765625 48.109375 
Q 20.015625 56 32.328125 56 
Q 43.359375 56 49.78125 48.890625 
Q 56.203125 41.796875 56.203125 29.59375 
z
M 47.21875 32.234375 
Q 47.125 39.59375 43.09375 43.984375 
Q 39.0625 48.390625 32.421875 48.390625 
Q 24.90625 48.390625 20.390625 44.140625 
Q 15.875 39.890625 15.1875 32.171875 
z
" id="DejaVuSans-101"/>
       <path d="M 44.28125 53.078125 
L 44.28125 44.578125 
Q 40.484375 46.53125 36.375 47.5 
Q 32.28125 48.484375 27.875 48.484375 
Q 21.1875 48.484375 17.84375 46.4375 
Q 14.5 44.390625 14.5 40.28125 
Q 14.5 37.15625 16.890625 35.375 
Q 19.28125 33.59375 26.515625 31.984375 
L 29.59375 31.296875 
Q 39.15625 29.25 43.1875 25.515625 
Q 47.21875 21.78125 47.21875 15.09375 
Q 47.21875 7.46875 41.1875 3.015625 
Q 35.15625 -1.421875 24.609375 -1.421875 
Q 20.21875 -1.421875 15.453125 -0.5625 
Q 10.6875 0.296875 5.421875 2 
L 5.421875 11.28125 
Q 10.40625 8.6875 15.234375 7.390625 
Q 20.0625 6.109375 24.8125 6.109375 
Q 31.15625 6.109375 34.5625 8.28125 
Q 37.984375 10.453125 37.984375 14.40625 
Q 37.984375 18.0625 35.515625 20.015625 
Q 33.0625 21.96875 24.703125 23.78125 
L 21.578125 24.515625 
Q 13.234375 26.265625 9.515625 29.90625 
Q 5.8125 33.546875 5.8125 39.890625 
Q 5.8125 47.609375 11.28125 51.796875 
Q 16.75 56 26.8125 56 
Q 31.78125 56 36.171875 55.265625 
Q 40.578125 54.546875 44.28125 53.078125 
z
" id="DejaVuSans-115"/>
       <path d="M 18.109375 8.203125 
L 18.109375 -20.796875 
L 9.078125 -20.796875 
L 9.078125 54.6875 
L 18.109375 54.6875 
L 18.109375 46.390625 
Q 20.953125 51.265625 25.265625 53.625 
Q 29.59375 56 35.59375 56 
Q 45.5625 56 51.78125 48.09375 
Q 58.015625 40.1875 58.015625 27.296875 
Q 58.015625 14.40625 51.78125 6.484375 
Q 45.5625 -1.421875 35.59375 -1.421875 
Q 29.59375 -1.421875 25.265625 0.953125 
Q 20.953125 3.328125 18.109375 8.203125 
z
M 48.6875 27.296875 
Q 48.6875 37.203125 44.609375 42.84375 
Q 40.53125 48.484375 33.40625 48.484375 
Q 26.265625 48.484375 22.1875 42.84375 
Q 18.109375 37.203125 18.109375 27.296875 
Q 18.109375 17.390625 22.1875 11.75 
Q 26.265625 6.109375 33.40625 6.109375 
Q 40.53125 6.109375 44.609375 11.75 
Q 48.6875 17.390625 48.6875 27.296875 
z
" id="DejaVuSans-112"/>
       <path d="M 30.609375 48.390625 
Q 23.390625 48.390625 19.1875 42.75 
Q 14.984375 37.109375 14.984375 27.296875 
Q 14.984375 17.484375 19.15625 11.84375 
Q 23.34375 6.203125 30.609375 6.203125 
Q 37.796875 6.203125 41.984375 11.859375 
Q 46.1875 17.53125 46.1875 27.296875 
Q 46.1875 37.015625 41.984375 42.703125 
Q 37.796875 48.390625 30.609375 48.390625 
z
M 30.609375 56 
Q 42.328125 56 49.015625 48.375 
Q 55.71875 40.765625 55.71875 27.296875 
Q 55.71875 13.875 49.015625 6.21875 
Q 42.328125 -1.421875 30.609375 -1.421875 
Q 18.84375 -1.421875 12.171875 6.21875 
Q 5.515625 13.875 5.515625 27.296875 
Q 5.515625 40.765625 12.171875 48.375 
Q 18.84375 56 30.609375 56 
z
" id="DejaVuSans-111"/>
       <path d="M 54.890625 33.015625 
L 54.890625 0 
L 45.90625 0 
L 45.90625 32.71875 
Q 45.90625 40.484375 42.875 44.328125 
Q 39.84375 48.1875 33.796875 48.1875 
Q 26.515625 48.1875 22.3125 43.546875 
Q 18.109375 38.921875 18.109375 30.90625 
L 18.109375 0 
L 9.078125 0 
L 9.078125 54.6875 
L 18.109375 54.6875 
L 18.109375 46.1875 
Q 21.34375 51.125 25.703125 53.5625 
Q 30.078125 56 35.796875 56 
Q 45.21875 56 50.046875 50.171875 
Q 54.890625 44.34375 54.890625 33.015625 
z
" id="DejaVuSans-110"/>
       <path d="M 45.40625 46.390625 
L 45.40625 75.984375 
L 54.390625 75.984375 
L 54.390625 0 
L 45.40625 0 
L 45.40625 8.203125 
Q 42.578125 3.328125 38.25 0.953125 
Q 33.9375 -1.421875 27.875 -1.421875 
Q 17.96875 -1.421875 11.734375 6.484375 
Q 5.515625 14.40625 5.515625 27.296875 
Q 5.515625 40.1875 11.734375 48.09375 
Q 17.96875 56 27.875 56 
Q 33.9375 56 38.25 53.625 
Q 42.578125 51.265625 45.40625 46.390625 
z
M 14.796875 27.296875 
Q 14.796875 17.390625 18.875 11.75 
Q 22.953125 6.109375 30.078125 6.109375 
Q 37.203125 6.109375 41.296875 11.75 
Q 45.40625 17.390625 45.40625 27.296875 
Q 45.40625 37.203125 41.296875 42.84375 
Q 37.203125 48.484375 30.078125 48.484375 
Q 22.953125 48.484375 18.875 42.84375 
Q 14.796875 37.203125 14.796875 27.296875 
z
" id="DejaVuSans-100"/>
       <path d="M 11.71875 12.40625 
L 22.015625 12.40625 
L 22.015625 4 
L 14.015625 -11.625 
L 7.71875 -11.625 
L 11.71875 4 
z
" id="DejaVuSans-44"/>
       <path d="M 64.40625 67.28125 
L 64.40625 56.890625 
Q 59.421875 61.53125 53.78125 63.8125 
Q 48.140625 66.109375 41.796875 66.109375 
Q 29.296875 66.109375 22.65625 58.46875 
Q 16.015625 50.828125 16.015625 36.375 
Q 16.015625 21.96875 22.65625 14.328125 
Q 29.296875 6.6875 41.796875 6.6875 
Q 48.140625 6.6875 53.78125 8.984375 
Q 59.421875 11.28125 64.40625 15.921875 
L 64.40625 5.609375 
Q 59.234375 2.09375 53.4375 0.328125 
Q 47.65625 -1.421875 41.21875 -1.421875 
Q 24.65625 -1.421875 15.125 8.703125 
Q 5.609375 18.84375 5.609375 36.375 
Q 5.609375 53.953125 15.125 64.078125 
Q 24.65625 74.21875 41.21875 74.21875 
Q 47.75 74.21875 53.53125 72.484375 
Q 59.328125 70.75 64.40625 67.28125 
z
" id="DejaVuSans-67"/>
      </defs>
      <use xlink:href="#DejaVuSans-72"/>
      <use x="75.195312" xlink:href="#DejaVuSans-105"/>
      <use x="102.978516" xlink:href="#DejaVuSans-103"/>
      <use x="166.455078" xlink:href="#DejaVuSans-104"/>
      <use x="229.833984" xlink:href="#DejaVuSans-32"/>
      <use x="261.621094" xlink:href="#DejaVuSans-114"/>
      <use x="300.484375" xlink:href="#DejaVuSans-101"/>
      <use x="362.007812" xlink:href="#DejaVuSans-115"/>
      <use x="414.107422" xlink:href="#DejaVuSans-112"/>
      <use x="477.583984" xlink:href="#DejaVuSans-111"/>
      <use x="538.765625" xlink:href="#DejaVuSans-110"/>
      <use x="602.144531" xlink:href="#DejaVuSans-100"/>
      <use x="665.621094" xlink:href="#DejaVuSans-101"/>
      <use x="727.144531" xlink:href="#DejaVuSans-114"/>
      <use x="768.257812" xlink:href="#DejaVuSans-115"/>
      <use x="820.357422" xlink:href="#DejaVuSans-44"/>
      <use x="852.144531" xlink:href="#DejaVuSans-32"/>
      <use x="883.931641" xlink:href="#DejaVuSans-67"/>
      <use x="953.755859" xlink:href="#DejaVuSans-67"/>
     </g>
    </g>
    <g id="LineCollection_6">
     <path d="M 577.093125 56.614375 
L 577.093125 46.614375 
" style="fill:none;stroke:#0072b2;stroke-opacity:0.9;stroke-width:2;"/>
    </g>
    <g id="line2d_51">
     <g>
      <use style="fill:#0072b2;fill-opacity:0.9;stroke:#0072b2;stroke-opacity:0.9;stroke-width:1.5;" x="577.093125" xlink:href="#m9374a1b983" y="56.614375"/>
     </g>
    </g>
    <g id="line2d_52">
     <g>
      <use style="fill:#0072b2;fill-opacity:0.9;stroke:#0072b2;stroke-opacity:0.9;stroke-width:1.5;" x="577.093125" xlink:href="#m9374a1b983" y="46.614375"/>
     </g>
    </g>
    <g id="line2d_53">
     <path d="M 567.093125 51.614375 
L 587.093125 51.614375 
" style="fill:none;stroke:#0072b2;stroke-dasharray:7.4,3.2;stroke-dashoffset:0;stroke-opacity:0.9;stroke-width:2;"/>
    </g>
    <g id="line2d_54">
     <g>
      <use style="fill-opacity:0;stroke:#0072b2;stroke-opacity:0.9;stroke-width:1.5;" x="577.093125" xlink:href="#m67a2b48ae9" y="51.614375"/>
     </g>
    </g>
    <g id="text_23">
     <!-- High responders, PC -->
     <g transform="translate(595.093125 55.114375)scale(0.1 -0.1)">
      <defs>
       <path d="M 19.671875 64.796875 
L 19.671875 37.40625 
L 32.078125 37.40625 
Q 38.96875 37.40625 42.71875 40.96875 
Q 46.484375 44.53125 46.484375 51.125 
Q 46.484375 57.671875 42.71875 61.234375 
Q 38.96875 64.796875 32.078125 64.796875 
z
M 9.8125 72.90625 
L 32.078125 72.90625 
Q 44.34375 72.90625 50.609375 67.359375 
Q 56.890625 61.8125 56.890625 51.125 
Q 56.890625 40.328125 50.609375 34.8125 
Q 44.34375 29.296875 32.078125 29.296875 
L 19.671875 29.296875 
L 19.671875 0 
L 9.8125 0 
z
" id="DejaVuSans-80"/>
      </defs>
      <use xlink:href="#DejaVuSans-72"/>
      <use x="75.195312" xlink:href="#DejaVuSans-105"/>
      <use x="102.978516" xlink:href="#DejaVuSans-103"/>
      <use x="166.455078" xlink:href="#DejaVuSans-104"/>
      <use x="229.833984" xlink:href="#DejaVuSans-32"/>
      <use x="261.621094" xlink:href="#DejaVuSans-114"/>
      <use x="300.484375" xlink:href="#DejaVuSans-101"/>
      <use x="362.007812" xlink:href="#DejaVuSans-115"/>
      <use x="414.107422" xlink:href="#DejaVuSans-112"/>
      <use x="477.583984" xlink:href="#DejaVuSans-111"/>
      <use x="538.765625" xlink:href="#DejaVuSans-110"/>
      <use x="602.144531" xlink:href="#DejaVuSans-100"/>
      <use x="665.621094" xlink:href="#DejaVuSans-101"/>
      <use x="727.144531" xlink:href="#DejaVuSans-114"/>
      <use x="768.257812" xlink:href="#DejaVuSans-115"/>
      <use x="820.357422" xlink:href="#DejaVuSans-44"/>
      <use x="852.144531" xlink:href="#DejaVuSans-32"/>
      <use x="883.931641" xlink:href="#DejaVuSans-80"/>
      <use x="944.234375" xlink:href="#DejaVuSans-67"/>
     </g>
    </g>
    <g id="LineCollection_7">
     <path d="M 577.093125 71.2925 
L 577.093125 61.2925 
" style="fill:none;stroke:#d55e00;stroke-opacity:0.9;stroke-width:2;"/>
    </g>
    <g id="line2d_55">
     <g>
      <use style="fill:#d55e00;fill-opacity:0.9;stroke:#d55e00;stroke-opacity:0.9;stroke-width:1.5;" x="577.093125" xlink:href="#m9c29ffffb7" y="71.2925"/>
     </g>
    </g>
    <g id="line2d_56">
     <g>
      <use style="fill:#d55e00;fill-opacity:0.9;stroke:#d55e00;stroke-opacity:0.9;stroke-width:1.5;" x="577.093125" xlink:href="#m9c29ffffb7" y="61.2925"/>
     </g>
    </g>
    <g id="line2d_57">
     <path d="M 567.093125 66.2925 
L 587.093125 66.2925 
" style="fill:none;stroke:#d55e00;stroke-linecap:square;stroke-opacity:0.9;stroke-width:2;"/>
    </g>
    <g id="line2d_58">
     <g>
      <use style="fill:#d55e00;fill-opacity:0.9;stroke:#d55e00;stroke-opacity:0.9;stroke-width:1.5;" x="577.093125" xlink:href="#mbbf2dee364" y="66.2925"/>
     </g>
    </g>
    <g id="text_24">
     <!-- Low responders, CC -->
     <g transform="translate(595.093125 69.7925)scale(0.1 -0.1)">
      <defs>
       <path d="M 9.8125 72.90625 
L 19.671875 72.90625 
L 19.671875 8.296875 
L 55.171875 8.296875 
L 55.171875 0 
L 9.8125 0 
z
" id="DejaVuSans-76"/>
       <path d="M 4.203125 54.6875 
L 13.1875 54.6875 
L 24.421875 12.015625 
L 35.59375 54.6875 
L 46.1875 54.6875 
L 57.421875 12.015625 
L 68.609375 54.6875 
L 77.59375 54.6875 
L 63.28125 0 
L 52.6875 0 
L 40.921875 44.828125 
L 29.109375 0 
L 18.5 0 
z
" id="DejaVuSans-119"/>
      </defs>
      <use xlink:href="#DejaVuSans-76"/>
      <use x="53.962891" xlink:href="#DejaVuSans-111"/>
      <use x="115.144531" xlink:href="#DejaVuSans-119"/>
      <use x="196.931641" xlink:href="#DejaVuSans-32"/>
      <use x="228.71875" xlink:href="#DejaVuSans-114"/>
      <use x="267.582031" xlink:href="#DejaVuSans-101"/>
      <use x="329.105469" xlink:href="#DejaVuSans-115"/>
      <use x="381.205078" xlink:href="#DejaVuSans-112"/>
      <use x="444.681641" xlink:href="#DejaVuSans-111"/>
      <use x="505.863281" xlink:href="#DejaVuSans-110"/>
      <use x="569.242188" xlink:href="#DejaVuSans-100"/>
      <use x="632.71875" xlink:href="#DejaVuSans-101"/>
      <use x="694.242188" xlink:href="#DejaVuSans-114"/>
      <use x="735.355469" xlink:href="#DejaVuSans-115"/>
      <use x="787.455078" xlink:href="#DejaVuSans-44"/>
      <use x="819.242188" xlink:href="#DejaVuSans-32"/>
      <use x="851.029297" xlink:href="#DejaVuSans-67"/>
      <use x="920.853516" xlink:href="#DejaVuSans-67"/>
     </g>
    </g>
    <g id="LineCollection_8">
     <path d="M 577.093125 85.970625 
L 577.093125 75.970625 
" style="fill:none;stroke:#d55e00;stroke-opacity:0.9;stroke-width:2;"/>
    </g>
    <g id="line2d_59">
     <g>
      <use style="fill:#d55e00;fill-opacity:0.9;stroke:#d55e00;stroke-opacity:0.9;stroke-width:1.5;" x="577.093125" xlink:href="#m9c29ffffb7" y="85.970625"/>
     </g>
    </g>
    <g id="line2d_60">
     <g>
      <use style="fill:#d55e00;fill-opacity:0.9;stroke:#d55e00;stroke-opacity:0.9;stroke-width:1.5;" x="577.093125" xlink:href="#m9c29ffffb7" y="75.970625"/>
     </g>
    </g>
    <g id="line2d_61">
     <path d="M 567.093125 80.970625 
L 587.093125 80.970625 
" style="fill:none;stroke:#d55e00;stroke-dasharray:7.4,3.2;stroke-dashoffset:0;stroke-opacity:0.9;stroke-width:2;"/>
    </g>
    <g id="line2d_62">
     <g>
      <use style="fill-opacity:0;stroke:#d55e00;stroke-opacity:0.9;stroke-width:1.5;" x="577.093125" xlink:href="#me9395152d4" y="80.970625"/>
     </g>
    </g>
    <g id="text_25">
     <!-- Low responders, PC -->
     <g transform="translate(595.093125 84.470625)scale(0.1 -0.1)">
      <use xlink:href="#DejaVuSans-76"/>
      <use x="53.962891" xlink:href="#DejaVuSans-111"/>
      <use x="115.144531" xlink:href="#DejaVuSans-119"/>
      <use x="196.931641" xlink:href="#DejaVuSans-32"/>
      <use x="228.71875" xlink:href="#DejaVuSans-114"/>
      <use x="267.582031" xlink:href="#DejaVuSans-101"/>
      <use x="329.105469" xlink:href="#DejaVuSans-115"/>
      <use x="381.205078" xlink:href="#DejaVuSans-112"/>
      <use x="444.681641" xlink:href="#DejaVuSans-111"/>
      <use x="505.863281" xlink:href="#DejaVuSans-110"/>
      <use x="569.242188" xlink:href="#DejaVuSans-100"/>
      <use x="632.71875" xlink:href="#DejaVuSans-101"/>
      <use x="694.242188" xlink:href="#DejaVuSans-114"/>
      <use x="735.355469" xlink:href="#DejaVuSans-115"/>
      <use x="787.455078" xlink:href="#DejaVuSans-44"/>
      <use x="819.242188" xlink:href="#DejaVuSans-32"/>
      <use x="851.029297" xlink:href="#DejaVuSans-80"/>
      <use x="911.332031" xlink:href="#DejaVuSans-67"/>
     </g>
    </g>
   </g>
  </g>
 </g>
 <defs>
  <clipPath id="pa35d3be6fa">
   <rect height="359.992" width="663.82" x="42.6325" y="23.837812"/>
  </clipPath>
 </defs>
</svg>
