<?xml version="1.0" encoding="utf-8" standalone="no"?>
<!DOCTYPE svg PUBLIC "-//W3C//DTD SVG 1.1//EN"
  "http://www.w3.org/Graphics/SVG/1.1/DTD/svg11.dtd">
<!-- Created with matplotlib (https://matplotlib.org/) -->
<svg height="423.321687pt" version="1.1" viewBox="0 0 713.639375 423.321687" width="713.639375pt" xmlns="http://www.w3.org/2000/svg" xmlns:xlink="http://www.w3.org/1999/xlink">
 <metadata>
  <rdf:RDF xmlns:cc="http://creativecommons.org/ns#" xmlns:dc="http://purl.org/dc/elements/1.1/" xmlns:rdf="http://www.w3.org/1999/02/22-rdf-syntax-ns#">
   <cc:Work>
    <dc:type rdf:resource="http://purl.org/dc/dcmitype/StillImage"/>
    <dc:date>2026-07-15T09:11:01.475162</dc:date>
    <dc:format>image/svg+xml</dc:format>
    <dc:creator>
     <cc:Agent>
      <dc:title>Matplotlib v3.3.2, https://matplotlib.org/</dc:title>
     </cc:Agent>
    </dc:creator>
   </cc:Work>
  </rdf:RDF>
 </metadata>
 <defs>
  <style type="text/css">*{stroke-linecap:butt;stroke-linejoin:round;}</style>
 </defs>
 <g id="figure_1">
  <g id="patch_1">
   <path d="M 0 423.321687 
L 713.639375 423.321687 
L 713.639375 0 
L 0 0 
z
" style="fill:#ffffff;"/>
  </g>
  <g id="axes_1">
   <g id="patch_2">
    <path d="M 42.619375 383.829812 
L 706.439375 383.829812 
L 706.439375 23.837812 
L 42.619375 23.837812 
z
" style="fill:#ffffff;"/>
   </g>
   <g id="matplotlib.axis_1">
    <g id="xtick_1">
     <g id="line2d_1">
      <path clip-path="url(#p1bec734e63)" d="M 72.793011 383.829812 
L 72.793011 23.837812 
" style="fill:none;stroke:#808080;stroke-linecap:square;stroke-opacity:0.3;stroke-width:0.5;"/>
     </g>
     <g id="line2d_2">
      <defs>
       <path d="M 0 0 
L 0 3.5 
" id="mc4a7417b15" style="stroke:#000000;stroke-width:0.8;"/>
      </defs>
      <g>
       <use style="stroke:#000000;stroke-width:0.8;" x="72.793011" xlink:href="#mc4a7417b15" y="383.829812"/>
      </g>
     </g>
     <g id="text_1">
      <!-- $L_1$ -->
      <g transform="translate(67.643011 398.42825)scale(0.1 -0.1)">
       <defs>
        <path d="M 16.796875 72.90625 
L 26.703125 72.90625 
L 14.203125 8.203125 
L 49.703125 8.203125 
L 48.09375 0 
L 2.6875 0 
z
" id="DejaVuSans-Oblique-76"/>
        <path d="M 12.40625 8.296875 
L 28.515625 8.296875 
L 28.515625 63.921875 
L 10.984375 60.40625 
L 10.984375 69.390625 
L 28.421875 72.90625 
L 38.28125 72.90625 
L 38.28125 8.296875 
L 54.390625 8.296875 
L 54.390625 0 
L 12.40625 0 
z
" id="DejaVuSans-49"/>
       </defs>
       <use transform="translate(0 0.09375)" xlink:href="#DejaVuSans-Oblique-76"/>
       <use transform="translate(55.712891 -16.3125)scale(0.7)" xlink:href="#DejaVuSans-49"/>
      </g>
     </g>
    </g>
    <g id="xtick_2">
     <g id="line2d_3">
      <path clip-path="url(#p1bec734e63)" d="M 173.371799 383.829812 
L 173.371799 23.837812 
" style="fill:none;stroke:#808080;stroke-linecap:square;stroke-opacity:0.3;stroke-width:0.5;"/>
     </g>
     <g id="line2d_4">
      <g>
       <use style="stroke:#000000;stroke-width:0.8;" x="173.371799" xlink:href="#mc4a7417b15" y="383.829812"/>
      </g>
     </g>
     <g id="text_2">
      <!-- $L_2$ -->
      <g transform="translate(168.221799 398.42825)scale(0.1 -0.1)">
       <defs>
        <path d="M 19.1875 8.296875 
L 53.609375 8.296875 
L 53.609375 0 
L 7.328125 0 
L 7.328125 8.296875 
Q 12.9375 14.109375 22.625 23.890625 
Q 32.328125 33.6875 34.8125 36.53125 
Q 39.546875 41.84375 41.421875 45.53125 
Q 43.3125 49.21875 43.3125 52.78125 
Q 43.3125 58.59375 39.234375 62.25 
Q 35.15625 65.921875 28.609375 65.921875 
Q 23.96875 65.921875 18.8125 64.3125 
Q 13.671875 62.703125 7.8125 59.421875 
L 7.8125 69.390625 
Q 13.765625 71.78125 18.9375 73 
Q 24.125 74.21875 28.421875 74.21875 
Q 39.75 74.21875 46.484375 68.546875 
Q 53.21875 62.890625 53.21875 53.421875 
Q 53.21875 48.921875 51.53125 44.890625 
Q 49.859375 40.875 45.40625 35.40625 
Q 44.1875 33.984375 37.640625 27.21875 
Q 31.109375 20.453125 19.1875 8.296875 
z
" id="DejaVuSans-50"/>
       </defs>
       <use transform="translate(0 0.09375)" xlink:href="#DejaVuSans-Oblique-76"/>
       <use transform="translate(55.712891 -16.3125)scale(0.7)" xlink:href="#DejaVuSans-50"/>
      </g>
     </g>
    </g>
    <g id="xtick_3">
     <g id="line2d_5">
      <path clip-path="url(#p1bec734e63)" d="M 273.950587 383.829812 
L 273.950587 23.837812 
" style="fill:none;stroke:#808080;stroke-linecap:square;stroke-opacity:0.3;stroke-width:0.5;"/>
     </g>
     <g id="line2d_6">
      <g>
       <use style="stroke:#000000;stroke-width:0.8;" x="273.950587" xlink:href="#mc4a7417b15" y="383.829812"/>
      </g>
     </g>
     <g id="text_3">
      <!-- 1 -->
      <g transform="translate(270.769337 398.42825)scale(0.1 -0.1)">
       <use xlink:href="#DejaVuSans-49"/>
      </g>
     </g>
    </g>
    <g id="xtick_4">
     <g id="line2d_7">
      <path clip-path="url(#p1bec734e63)" d="M 374.529375 383.829812 
L 374.529375 23.837812 
" style="fill:none;stroke:#808080;stroke-linecap:square;stroke-opacity:0.3;stroke-width:0.5;"/>
     </g>
     <g id="line2d_8">
      <g>
       <use style="stroke:#000000;stroke-width:0.8;" x="374.529375" xlink:href="#mc4a7417b15" y="383.829812"/>
      </g>
     </g>
     <g id="text_4">
      <!-- 2 -->
      <g transform="translate(371.348125 398.42825)scale(0.1 -0.1)">
       <use xlink:href="#DejaVuSans-50"/>
      </g>
     </g>
    </g>
    <g id="xtick_5">
     <g id="line2d_9">
      <path clip-path="url(#p1bec734e63)" d="M 475.108163 383.829812 
L 475.108163 23.837812 
" style="fill:none;stroke:#808080;stroke-linecap:square;stroke-opacity:0.3;stroke-width:0.5;"/>
     </g>
     <g id="line2d_10">
      <g>
       <use style="stroke:#000000;stroke-width:0.8;" x="475.108163" xlink:href="#mc4a7417b15" y="383.829812"/>
      </g>
     </g>
     <g id="text_5">
      <!-- 3 -->
      <g transform="translate(471.926913 398.42825)scale(0.1 -0.1)">
       <defs>
        <path d="M 40.578125 39.3125 
Q 47.65625 37.796875 51.625 33 
Q 55.609375 28.21875 55.609375 21.1875 
Q 55.609375 10.40625 48.1875 4.484375 
Q 40.765625 -1.421875 27.09375 -1.421875 
Q 22.515625 -1.421875 17.65625 -0.515625 
Q 12.796875 0.390625 7.625 2.203125 
L 7.625 11.71875 
Q 11.71875 9.328125 16.59375 8.109375 
Q 21.484375 6.890625 26.8125 6.890625 
Q 36.078125 6.890625 40.9375 10.546875 
Q 45.796875 14.203125 45.796875 21.1875 
Q 45.796875 27.640625 41.28125 31.265625 
Q 36.765625 34.90625 28.71875 34.90625 
L 20.21875 34.90625 
L 20.21875 43.015625 
L 29.109375 43.015625 
Q 36.375 43.015625 40.234375 45.921875 
Q 44.09375 48.828125 44.09375 54.296875 
Q 44.09375 59.90625 40.109375 62.90625 
Q 36.140625 65.921875 28.71875 65.921875 
Q 24.65625 65.921875 20.015625 65.03125 
Q 15.375 64.15625 9.8125 62.3125 
L 9.8125 71.09375 
Q 15.4375 72.65625 20.34375 73.4375 
Q 25.25 74.21875 29.59375 74.21875 
Q 40.828125 74.21875 47.359375 69.109375 
Q 53.90625 64.015625 53.90625 55.328125 
Q 53.90625 49.265625 50.4375 45.09375 
Q 46.96875 40.921875 40.578125 39.3125 
z
" id="DejaVuSans-51"/>
       </defs>
       <use xlink:href="#DejaVuSans-51"/>
      </g>
     </g>
    </g>
    <g id="xtick_6">
     <g id="line2d_11">
      <path clip-path="url(#p1bec734e63)" d="M 575.686951 383.829812 
L 575.686951 23.837812 
" style="fill:none;stroke:#808080;stroke-linecap:square;stroke-opacity:0.3;stroke-width:0.5;"/>
     </g>
     <g id="line2d_12">
      <g>
       <use style="stroke:#000000;stroke-width:0.8;" x="575.686951" xlink:href="#mc4a7417b15" y="383.829812"/>
      </g>
     </g>
     <g id="text_6">
      <!-- 4 -->
      <g transform="translate(572.505701 398.42825)scale(0.1 -0.1)">
       <defs>
        <path d="M 37.796875 64.3125 
L 12.890625 25.390625 
L 37.796875 25.390625 
z
M 35.203125 72.90625 
L 47.609375 72.90625 
L 47.609375 25.390625 
L 58.015625 25.390625 
L 58.015625 17.1875 
L 47.609375 17.1875 
L 47.609375 0 
L 37.796875 0 
L 37.796875 17.1875 
L 4.890625 17.1875 
L 4.890625 26.703125 
z
" id="DejaVuSans-52"/>
       </defs>
       <use xlink:href="#DejaVuSans-52"/>
      </g>
     </g>
    </g>
    <g id="xtick_7">
     <g id="line2d_13">
      <path clip-path="url(#p1bec734e63)" d="M 676.265739 383.829812 
L 676.265739 23.837812 
" style="fill:none;stroke:#808080;stroke-linecap:square;stroke-opacity:0.3;stroke-width:0.5;"/>
     </g>
     <g id="line2d_14">
      <g>
       <use style="stroke:#000000;stroke-width:0.8;" x="676.265739" xlink:href="#mc4a7417b15" y="383.829812"/>
      </g>
     </g>
     <g id="text_7">
      <!-- 5 -->
      <g transform="translate(673.084489 398.42825)scale(0.1 -0.1)">
       <defs>
        <path d="M 10.796875 72.90625 
L 49.515625 72.90625 
L 49.515625 64.59375 
L 19.828125 64.59375 
L 19.828125 46.734375 
Q 21.96875 47.46875 24.109375 47.828125 
Q 26.265625 48.1875 28.421875 48.1875 
Q 40.625 48.1875 47.75 41.5 
Q 54.890625 34.8125 54.890625 23.390625 
Q 54.890625 11.625 47.5625 5.09375 
Q 40.234375 -1.421875 26.90625 -1.421875 
Q 22.3125 -1.421875 17.546875 -0.640625 
Q 12.796875 0.140625 7.71875 1.703125 
L 7.71875 11.625 
Q 12.109375 9.234375 16.796875 8.0625 
Q 21.484375 6.890625 26.703125 6.890625 
Q 35.15625 6.890625 40.078125 11.328125 
Q 45.015625 15.765625 45.015625 23.390625 
Q 45.015625 31 40.078125 35.4375 
Q 35.15625 39.890625 26.703125 39.890625 
Q 22.75 39.890625 18.8125 39.015625 
Q 14.890625 38.140625 10.796875 36.28125 
z
" id="DejaVuSans-53"/>
       </defs>
       <use xlink:href="#DejaVuSans-53"/>
      </g>
     </g>
    </g>
    <g id="text_8">
     <!-- Block Number -->
     <g transform="translate(327.27375 413.626062)scale(0.12 -0.12)">
      <defs>
       <path d="M 38.375 44.671875 
Q 42.828125 44.671875 45.109375 46.625 
Q 47.40625 48.578125 47.40625 52.390625 
Q 47.40625 56.15625 45.109375 58.125 
Q 42.828125 60.109375 38.375 60.109375 
L 27.984375 60.109375 
L 27.984375 44.671875 
z
M 39.015625 12.796875 
Q 44.671875 12.796875 47.53125 15.1875 
Q 50.390625 17.578125 50.390625 22.40625 
Q 50.390625 27.15625 47.5625 29.515625 
Q 44.734375 31.890625 39.015625 31.890625 
L 27.984375 31.890625 
L 27.984375 12.796875 
z
M 56.5 39.015625 
Q 62.546875 37.25 65.859375 32.515625 
Q 69.1875 27.78125 69.1875 20.90625 
Q 69.1875 10.359375 62.0625 5.171875 
Q 54.9375 0 40.375 0 
L 9.1875 0 
L 9.1875 72.90625 
L 37.40625 72.90625 
Q 52.59375 72.90625 59.40625 68.3125 
Q 66.21875 63.71875 66.21875 53.609375 
Q 66.21875 48.296875 63.71875 44.5625 
Q 61.234375 40.828125 56.5 39.015625 
z
" id="DejaVuSans-Bold-66"/>
       <path d="M 8.40625 75.984375 
L 25.875 75.984375 
L 25.875 0 
L 8.40625 0 
z
" id="DejaVuSans-Bold-108"/>
       <path d="M 34.421875 43.5 
Q 28.609375 43.5 25.5625 39.328125 
Q 22.515625 35.15625 22.515625 27.296875 
Q 22.515625 19.4375 25.5625 15.25 
Q 28.609375 11.078125 34.421875 11.078125 
Q 40.140625 11.078125 43.15625 15.25 
Q 46.1875 19.4375 46.1875 27.296875 
Q 46.1875 35.15625 43.15625 39.328125 
Q 40.140625 43.5 34.421875 43.5 
z
M 34.421875 56 
Q 48.53125 56 56.46875 48.375 
Q 64.40625 40.765625 64.40625 27.296875 
Q 64.40625 13.8125 56.46875 6.1875 
Q 48.53125 -1.421875 34.421875 -1.421875 
Q 20.265625 -1.421875 12.28125 6.1875 
Q 4.296875 13.8125 4.296875 27.296875 
Q 4.296875 40.765625 12.28125 48.375 
Q 20.265625 56 34.421875 56 
z
" id="DejaVuSans-Bold-111"/>
       <path d="M 52.59375 52.984375 
L 52.59375 38.71875 
Q 49.03125 41.15625 45.4375 42.328125 
Q 41.84375 43.5 37.984375 43.5 
Q 30.671875 43.5 26.59375 39.234375 
Q 22.515625 34.96875 22.515625 27.296875 
Q 22.515625 19.625 26.59375 15.34375 
Q 30.671875 11.078125 37.984375 11.078125 
Q 42.09375 11.078125 45.78125 12.296875 
Q 49.46875 13.53125 52.59375 15.921875 
L 52.59375 1.609375 
Q 48.484375 0.09375 44.265625 -0.65625 
Q 40.046875 -1.421875 35.796875 -1.421875 
Q 21 -1.421875 12.640625 6.171875 
Q 4.296875 13.765625 4.296875 27.296875 
Q 4.296875 40.828125 12.640625 48.40625 
Q 21 56 35.796875 56 
Q 40.09375 56 44.265625 55.25 
Q 48.4375 54.5 52.59375 52.984375 
z
" id="DejaVuSans-Bold-99"/>
       <path d="M 8.40625 75.984375 
L 25.875 75.984375 
L 25.875 34.625 
L 46 54.6875 
L 66.3125 54.6875 
L 39.59375 29.59375 
L 68.40625 0 
L 47.21875 0 
L 25.875 22.796875 
L 25.875 0 
L 8.40625 0 
z
" id="DejaVuSans-Bold-107"/>
       <path id="DejaVuSans-Bold-32"/>
       <path d="M 9.1875 72.90625 
L 30.171875 72.90625 
L 56.6875 22.90625 
L 56.6875 72.90625 
L 74.515625 72.90625 
L 74.515625 0 
L 53.515625 0 
L 27 50 
L 27 0 
L 9.1875 0 
z
" id="DejaVuSans-Bold-78"/>
       <path d="M 7.8125 21.296875 
L 7.8125 54.6875 
L 25.390625 54.6875 
L 25.390625 49.21875 
Q 25.390625 44.78125 25.34375 38.0625 
Q 25.296875 31.34375 25.296875 29.109375 
Q 25.296875 22.515625 25.640625 19.609375 
Q 25.984375 16.703125 26.8125 15.375 
Q 27.875 13.671875 29.609375 12.734375 
Q 31.34375 11.8125 33.59375 11.8125 
Q 39.0625 11.8125 42.1875 16.015625 
Q 45.3125 20.21875 45.3125 27.6875 
L 45.3125 54.6875 
L 62.796875 54.6875 
L 62.796875 0 
L 45.3125 0 
L 45.3125 7.90625 
Q 41.359375 3.125 36.9375 0.84375 
Q 32.515625 -1.421875 27.203125 -1.421875 
Q 17.71875 -1.421875 12.765625 4.390625 
Q 7.8125 10.203125 7.8125 21.296875 
z
" id="DejaVuSans-Bold-117"/>
       <path d="M 59.078125 45.609375 
Q 62.40625 50.6875 66.96875 53.34375 
Q 71.53125 56 77 56 
Q 86.421875 56 91.359375 50.1875 
Q 96.296875 44.390625 96.296875 33.296875 
L 96.296875 0 
L 78.71875 0 
L 78.71875 28.515625 
Q 78.765625 29.15625 78.78125 29.828125 
Q 78.8125 30.515625 78.8125 31.78125 
Q 78.8125 37.59375 77.09375 40.203125 
Q 75.390625 42.828125 71.578125 42.828125 
Q 66.609375 42.828125 63.890625 38.71875 
Q 61.1875 34.625 61.078125 26.859375 
L 61.078125 0 
L 43.5 0 
L 43.5 28.515625 
Q 43.5 37.59375 41.9375 40.203125 
Q 40.375 42.828125 36.375 42.828125 
Q 31.34375 42.828125 28.609375 38.703125 
Q 25.875 34.578125 25.875 26.90625 
L 25.875 0 
L 8.296875 0 
L 8.296875 54.6875 
L 25.875 54.6875 
L 25.875 46.6875 
Q 29.109375 51.3125 33.28125 53.65625 
Q 37.453125 56 42.484375 56 
Q 48.140625 56 52.484375 53.265625 
Q 56.84375 50.53125 59.078125 45.609375 
z
" id="DejaVuSans-Bold-109"/>
       <path d="M 37.5 11.28125 
Q 43.109375 11.28125 46.0625 15.375 
Q 49.03125 19.484375 49.03125 27.296875 
Q 49.03125 35.109375 46.0625 39.203125 
Q 43.109375 43.3125 37.5 43.3125 
Q 31.890625 43.3125 28.875 39.1875 
Q 25.875 35.0625 25.875 27.296875 
Q 25.875 19.53125 28.875 15.40625 
Q 31.890625 11.28125 37.5 11.28125 
z
M 25.875 46.6875 
Q 29.5 51.46875 33.890625 53.734375 
Q 38.28125 56 44 56 
Q 54.109375 56 60.59375 47.96875 
Q 67.09375 39.9375 67.09375 27.296875 
Q 67.09375 14.65625 60.59375 6.609375 
Q 54.109375 -1.421875 44 -1.421875 
Q 38.28125 -1.421875 33.890625 0.84375 
Q 29.5 3.125 25.875 7.90625 
L 25.875 0 
L 8.40625 0 
L 8.40625 75.984375 
L 25.875 75.984375 
z
" id="DejaVuSans-Bold-98"/>
       <path d="M 62.984375 27.484375 
L 62.984375 22.515625 
L 22.125 22.515625 
Q 22.75 16.359375 26.5625 13.28125 
Q 30.375 10.203125 37.203125 10.203125 
Q 42.71875 10.203125 48.5 11.84375 
Q 54.296875 13.484375 60.40625 16.796875 
L 60.40625 3.328125 
Q 54.203125 0.984375 48 -0.21875 
Q 41.796875 -1.421875 35.59375 -1.421875 
Q 20.75 -1.421875 12.515625 6.125 
Q 4.296875 13.671875 4.296875 27.296875 
Q 4.296875 40.671875 12.375 48.328125 
Q 20.453125 56 34.625 56 
Q 47.515625 56 55.25 48.234375 
Q 62.984375 40.484375 62.984375 27.484375 
z
M 45.015625 33.296875 
Q 45.015625 38.28125 42.109375 41.328125 
Q 39.203125 44.390625 34.515625 44.390625 
Q 29.4375 44.390625 26.265625 41.53125 
Q 23.09375 38.671875 22.3125 33.296875 
z
" id="DejaVuSans-Bold-101"/>
       <path d="M 49.03125 39.796875 
Q 46.734375 40.875 44.453125 41.375 
Q 42.1875 41.890625 39.890625 41.890625 
Q 33.15625 41.890625 29.515625 37.5625 
Q 25.875 33.25 25.875 25.203125 
L 25.875 0 
L 8.40625 0 
L 8.40625 54.6875 
L 25.875 54.6875 
L 25.875 45.703125 
Q 29.25 51.078125 33.609375 53.53125 
Q 37.984375 56 44.09375 56 
Q 44.96875 56 45.984375 55.921875 
Q 47.015625 55.859375 48.96875 55.609375 
z
" id="DejaVuSans-Bold-114"/>
      </defs>
      <use xlink:href="#DejaVuSans-Bold-66"/>
      <use x="76.220703" xlink:href="#DejaVuSans-Bold-108"/>
      <use x="110.498047" xlink:href="#DejaVuSans-Bold-111"/>
      <use x="179.199219" xlink:href="#DejaVuSans-Bold-99"/>
      <use x="238.476562" xlink:href="#DejaVuSans-Bold-107"/>
      <use x="304.980469" xlink:href="#DejaVuSans-Bold-32"/>
      <use x="339.794922" xlink:href="#DejaVuSans-Bold-78"/>
      <use x="423.486328" xlink:href="#DejaVuSans-Bold-117"/>
      <use x="494.677734" xlink:href="#DejaVuSans-Bold-109"/>
      <use x="598.876953" xlink:href="#DejaVuSans-Bold-98"/>
      <use x="670.458984" xlink:href="#DejaVuSans-Bold-101"/>
      <use x="738.28125" xlink:href="#DejaVuSans-Bold-114"/>
     </g>
    </g>
   </g>
   <g id="matplotlib.axis_2">
    <g id="ytick_1">
     <g id="line2d_15">
      <path clip-path="url(#p1bec734e63)" d="M 42.619375 383.829812 
L 706.439375 383.829812 
" style="fill:none;stroke:#808080;stroke-linecap:square;stroke-opacity:0.3;stroke-width:0.5;"/>
     </g>
     <g id="line2d_16">
      <defs>
       <path d="M 0 0 
L -3.5 0 
" id="m3c49ec033e" style="stroke:#000000;stroke-width:0.8;"/>
      </defs>
      <g>
       <use style="stroke:#000000;stroke-width:0.8;" x="42.619375" xlink:href="#m3c49ec033e" y="383.829812"/>
      </g>
     </g>
     <g id="text_9">
      <!-- 0 -->
      <g transform="translate(29.256875 387.629031)scale(0.1 -0.1)">
       <defs>
        <path d="M 31.78125 66.40625 
Q 24.171875 66.40625 20.328125 58.90625 
Q 16.5 51.421875 16.5 36.375 
Q 16.5 21.390625 20.328125 13.890625 
Q 24.171875 6.390625 31.78125 6.390625 
Q 39.453125 6.390625 43.28125 13.890625 
Q 47.125 21.390625 47.125 36.375 
Q 47.125 51.421875 43.28125 58.90625 
Q 39.453125 66.40625 31.78125 66.40625 
z
M 31.78125 74.21875 
Q 44.046875 74.21875 50.515625 64.515625 
Q 56.984375 54.828125 56.984375 36.375 
Q 56.984375 17.96875 50.515625 8.265625 
Q 44.046875 -1.421875 31.78125 -1.421875 
Q 19.53125 -1.421875 13.0625 8.265625 
Q 6.59375 17.96875 6.59375 36.375 
Q 6.59375 54.828125 13.0625 64.515625 
Q 19.53125 74.21875 31.78125 74.21875 
z
" id="DejaVuSans-48"/>
       </defs>
       <use xlink:href="#DejaVuSans-48"/>
      </g>
     </g>
    </g>
    <g id="ytick_2">
     <g id="line2d_17">
      <path clip-path="url(#p1bec734e63)" d="M 42.619375 343.830701 
L 706.439375 343.830701 
" style="fill:none;stroke:#808080;stroke-linecap:square;stroke-opacity:0.3;stroke-width:0.5;"/>
     </g>
     <g id="line2d_18">
      <g>
       <use style="stroke:#000000;stroke-width:0.8;" x="42.619375" xlink:href="#m3c49ec033e" y="343.830701"/>
      </g>
     </g>
     <g id="text_10">
      <!-- 2 -->
      <g transform="translate(29.256875 347.62992)scale(0.1 -0.1)">
       <use xlink:href="#DejaVuSans-50"/>
      </g>
     </g>
    </g>
    <g id="ytick_3">
     <g id="line2d_19">
      <path clip-path="url(#p1bec734e63)" d="M 42.619375 303.83159 
L 706.439375 303.83159 
" style="fill:none;stroke:#808080;stroke-linecap:square;stroke-opacity:0.3;stroke-width:0.5;"/>
     </g>
     <g id="line2d_20">
      <g>
       <use style="stroke:#000000;stroke-width:0.8;" x="42.619375" xlink:href="#m3c49ec033e" y="303.83159"/>
      </g>
     </g>
     <g id="text_11">
      <!-- 4 -->
      <g transform="translate(29.256875 307.630809)scale(0.1 -0.1)">
       <use xlink:href="#DejaVuSans-52"/>
      </g>
     </g>
    </g>
    <g id="ytick_4">
     <g id="line2d_21">
      <path clip-path="url(#p1bec734e63)" d="M 42.619375 263.832479 
L 706.439375 263.832479 
" style="fill:none;stroke:#808080;stroke-linecap:square;stroke-opacity:0.3;stroke-width:0.5;"/>
     </g>
     <g id="line2d_22">
      <g>
       <use style="stroke:#000000;stroke-width:0.8;" x="42.619375" xlink:href="#m3c49ec033e" y="263.832479"/>
      </g>
     </g>
     <g id="text_12">
      <!-- 6 -->
      <g transform="translate(29.256875 267.631698)scale(0.1 -0.1)">
       <defs>
        <path d="M 33.015625 40.375 
Q 26.375 40.375 22.484375 35.828125 
Q 18.609375 31.296875 18.609375 23.390625 
Q 18.609375 15.53125 22.484375 10.953125 
Q 26.375 6.390625 33.015625 6.390625 
Q 39.65625 6.390625 43.53125 10.953125 
Q 47.40625 15.53125 47.40625 23.390625 
Q 47.40625 31.296875 43.53125 35.828125 
Q 39.65625 40.375 33.015625 40.375 
z
M 52.59375 71.296875 
L 52.59375 62.3125 
Q 48.875 64.0625 45.09375 64.984375 
Q 41.3125 65.921875 37.59375 65.921875 
Q 27.828125 65.921875 22.671875 59.328125 
Q 17.53125 52.734375 16.796875 39.40625 
Q 19.671875 43.65625 24.015625 45.921875 
Q 28.375 48.1875 33.59375 48.1875 
Q 44.578125 48.1875 50.953125 41.515625 
Q 57.328125 34.859375 57.328125 23.390625 
Q 57.328125 12.15625 50.6875 5.359375 
Q 44.046875 -1.421875 33.015625 -1.421875 
Q 20.359375 -1.421875 13.671875 8.265625 
Q 6.984375 17.96875 6.984375 36.375 
Q 6.984375 53.65625 15.1875 63.9375 
Q 23.390625 74.21875 37.203125 74.21875 
Q 40.921875 74.21875 44.703125 73.484375 
Q 48.484375 72.75 52.59375 71.296875 
z
" id="DejaVuSans-54"/>
       </defs>
       <use xlink:href="#DejaVuSans-54"/>
      </g>
     </g>
    </g>
    <g id="ytick_5">
     <g id="line2d_23">
      <path clip-path="url(#p1bec734e63)" d="M 42.619375 223.833368 
L 706.439375 223.833368 
" style="fill:none;stroke:#808080;stroke-linecap:square;stroke-opacity:0.3;stroke-width:0.5;"/>
     </g>
     <g id="line2d_24">
      <g>
       <use style="stroke:#000000;stroke-width:0.8;" x="42.619375" xlink:href="#m3c49ec033e" y="223.833368"/>
      </g>
     </g>
     <g id="text_13">
      <!-- 8 -->
      <g transform="translate(29.256875 227.632587)scale(0.1 -0.1)">
       <defs>
        <path d="M 31.78125 34.625 
Q 24.75 34.625 20.71875 30.859375 
Q 16.703125 27.09375 16.703125 20.515625 
Q 16.703125 13.921875 20.71875 10.15625 
Q 24.75 6.390625 31.78125 6.390625 
Q 38.8125 6.390625 42.859375 10.171875 
Q 46.921875 13.96875 46.921875 20.515625 
Q 46.921875 27.09375 42.890625 30.859375 
Q 38.875 34.625 31.78125 34.625 
z
M 21.921875 38.8125 
Q 15.578125 40.375 12.03125 44.71875 
Q 8.5 49.078125 8.5 55.328125 
Q 8.5 64.0625 14.71875 69.140625 
Q 20.953125 74.21875 31.78125 74.21875 
Q 42.671875 74.21875 48.875 69.140625 
Q 55.078125 64.0625 55.078125 55.328125 
Q 55.078125 49.078125 51.53125 44.71875 
Q 48 40.375 41.703125 38.8125 
Q 48.828125 37.15625 52.796875 32.3125 
Q 56.78125 27.484375 56.78125 20.515625 
Q 56.78125 9.90625 50.3125 4.234375 
Q 43.84375 -1.421875 31.78125 -1.421875 
Q 19.734375 -1.421875 13.25 4.234375 
Q 6.78125 9.90625 6.78125 20.515625 
Q 6.78125 27.484375 10.78125 32.3125 
Q 14.796875 37.15625 21.921875 38.8125 
z
M 18.3125 54.390625 
Q 18.3125 48.734375 21.84375 45.5625 
Q 25.390625 42.390625 31.78125 42.390625 
Q 38.140625 42.390625 41.71875 45.5625 
Q 45.3125 48.734375 45.3125 54.390625 
Q 45.3125 60.0625 41.71875 63.234375 
Q 38.140625 66.40625 31.78125 66.40625 
Q 25.390625 66.40625 21.84375 63.234375 
Q 18.3125 60.0625 18.3125 54.390625 
z
" id="DejaVuSans-56"/>
       </defs>
       <use xlink:href="#DejaVuSans-56"/>
      </g>
     </g>
    </g>
    <g id="ytick_6">
     <g id="line2d_25">
      <path clip-path="url(#p1bec734e63)" d="M 42.619375 183.834257 
L 706.439375 183.834257 
" style="fill:none;stroke:#808080;stroke-linecap:square;stroke-opacity:0.3;stroke-width:0.5;"/>
     </g>
     <g id="line2d_26">
      <g>
       <use style="stroke:#000000;stroke-width:0.8;" x="42.619375" xlink:href="#m3c49ec033e" y="183.834257"/>
      </g>
     </g>
     <g id="text_14">
      <!-- 10 -->
      <g transform="translate(22.894375 187.633476)scale(0.1 -0.1)">
       <use xlink:href="#DejaVuSans-49"/>
       <use x="63.623047" xlink:href="#DejaVuSans-48"/>
      </g>
     </g>
    </g>
    <g id="ytick_7">
     <g id="line2d_27">
      <path clip-path="url(#p1bec734e63)" d="M 42.619375 143.835146 
L 706.439375 143.835146 
" style="fill:none;stroke:#808080;stroke-linecap:square;stroke-opacity:0.3;stroke-width:0.5;"/>
     </g>
     <g id="line2d_28">
      <g>
       <use style="stroke:#000000;stroke-width:0.8;" x="42.619375" xlink:href="#m3c49ec033e" y="143.835146"/>
      </g>
     </g>
     <g id="text_15">
      <!-- 12 -->
      <g transform="translate(22.894375 147.634365)scale(0.1 -0.1)">
       <use xlink:href="#DejaVuSans-49"/>
       <use x="63.623047" xlink:href="#DejaVuSans-50"/>
      </g>
     </g>
    </g>
    <g id="ytick_8">
     <g id="line2d_29">
      <path clip-path="url(#p1bec734e63)" d="M 42.619375 103.836035 
L 706.439375 103.836035 
" style="fill:none;stroke:#808080;stroke-linecap:square;stroke-opacity:0.3;stroke-width:0.5;"/>
     </g>
     <g id="line2d_30">
      <g>
       <use style="stroke:#000000;stroke-width:0.8;" x="42.619375" xlink:href="#m3c49ec033e" y="103.836035"/>
      </g>
     </g>
     <g id="text_16">
      <!-- 14 -->
      <g transform="translate(22.894375 107.635253)scale(0.1 -0.1)">
       <use xlink:href="#DejaVuSans-49"/>
       <use x="63.623047" xlink:href="#DejaVuSans-52"/>
      </g>
     </g>
    </g>
    <g id="ytick_9">
     <g id="line2d_31">
      <path clip-path="url(#p1bec734e63)" d="M 42.619375 63.836924 
L 706.439375 63.836924 
" style="fill:none;stroke:#808080;stroke-linecap:square;stroke-opacity:0.3;stroke-width:0.5;"/>
     </g>
     <g id="line2d_32">
      <g>
       <use style="stroke:#000000;stroke-width:0.8;" x="42.619375" xlink:href="#m3c49ec033e" y="63.836924"/>
      </g>
     </g>
     <g id="text_17">
      <!-- 16 -->
      <g transform="translate(22.894375 67.636142)scale(0.1 -0.1)">
       <use xlink:href="#DejaVuSans-49"/>
       <use x="63.623047" xlink:href="#DejaVuSans-54"/>
      </g>
     </g>
    </g>
    <g id="ytick_10">
     <g id="line2d_33">
      <path clip-path="url(#p1bec734e63)" d="M 42.619375 23.837812 
L 706.439375 23.837812 
" style="fill:none;stroke:#808080;stroke-linecap:square;stroke-opacity:0.3;stroke-width:0.5;"/>
     </g>
     <g id="line2d_34">
      <g>
       <use style="stroke:#000000;stroke-width:0.8;" x="42.619375" xlink:href="#m3c49ec033e" y="23.837812"/>
      </g>
     </g>
     <g id="text_18">
      <!-- 18 -->
      <g transform="translate(22.894375 27.637031)scale(0.1 -0.1)">
       <use xlink:href="#DejaVuSans-49"/>
       <use x="63.623047" xlink:href="#DejaVuSans-56"/>
      </g>
     </g>
    </g>
    <g id="text_19">
     <!-- Average CR counts (sum per worm) -->
     <g transform="translate(16.305 323.518812)rotate(-90)scale(0.12 -0.12)">
      <defs>
       <path d="M 53.421875 13.28125 
L 24.03125 13.28125 
L 19.390625 0 
L 0.484375 0 
L 27.484375 72.90625 
L 49.90625 72.90625 
L 76.90625 0 
L 58.015625 0 
z
M 28.71875 26.8125 
L 48.6875 26.8125 
L 38.71875 55.8125 
z
" id="DejaVuSans-Bold-65"/>
       <path d="M 1.515625 54.6875 
L 19 54.6875 
L 32.625 16.890625 
L 46.1875 54.6875 
L 63.71875 54.6875 
L 42.1875 0 
L 23 0 
z
" id="DejaVuSans-Bold-118"/>
       <path d="M 32.90625 24.609375 
Q 27.4375 24.609375 24.671875 22.75 
Q 21.921875 20.90625 21.921875 17.28125 
Q 21.921875 13.96875 24.140625 12.078125 
Q 26.375 10.203125 30.328125 10.203125 
Q 35.25 10.203125 38.625 13.734375 
Q 42 17.28125 42 22.609375 
L 42 24.609375 
z
M 59.625 31.203125 
L 59.625 0 
L 42 0 
L 42 8.109375 
Q 38.484375 3.125 34.078125 0.84375 
Q 29.6875 -1.421875 23.390625 -1.421875 
Q 14.890625 -1.421875 9.59375 3.53125 
Q 4.296875 8.5 4.296875 16.40625 
Q 4.296875 26.03125 10.90625 30.515625 
Q 17.53125 35.015625 31.6875 35.015625 
L 42 35.015625 
L 42 36.375 
Q 42 40.53125 38.71875 42.453125 
Q 35.453125 44.390625 28.515625 44.390625 
Q 22.90625 44.390625 18.0625 43.265625 
Q 13.234375 42.140625 9.078125 39.890625 
L 9.078125 53.21875 
Q 14.703125 54.59375 20.359375 55.296875 
Q 26.03125 56 31.6875 56 
Q 46.484375 56 53.046875 50.171875 
Q 59.625 44.34375 59.625 31.203125 
z
" id="DejaVuSans-Bold-97"/>
       <path d="M 45.609375 9.28125 
Q 42 4.5 37.640625 2.25 
Q 33.296875 0 27.59375 0 
Q 17.578125 0 11.03125 7.875 
Q 4.5 15.765625 4.5 27.984375 
Q 4.5 40.234375 11.03125 48.0625 
Q 17.578125 55.90625 27.59375 55.90625 
Q 33.296875 55.90625 37.640625 53.65625 
Q 42 51.421875 45.609375 46.578125 
L 45.609375 54.6875 
L 63.1875 54.6875 
L 63.1875 5.515625 
Q 63.1875 -7.671875 54.859375 -14.625 
Q 46.53125 -21.578125 30.71875 -21.578125 
Q 25.59375 -21.578125 20.796875 -20.796875 
Q 16.015625 -20.015625 11.1875 -18.40625 
L 11.1875 -4.78125 
Q 15.765625 -7.421875 20.15625 -8.71875 
Q 24.5625 -10.015625 29 -10.015625 
Q 37.59375 -10.015625 41.59375 -6.25 
Q 45.609375 -2.484375 45.609375 5.515625 
z
M 34.078125 43.3125 
Q 28.65625 43.3125 25.625 39.296875 
Q 22.609375 35.296875 22.609375 27.984375 
Q 22.609375 20.453125 25.53125 16.578125 
Q 28.46875 12.703125 34.078125 12.703125 
Q 39.546875 12.703125 42.578125 16.703125 
Q 45.609375 20.703125 45.609375 27.984375 
Q 45.609375 35.296875 42.578125 39.296875 
Q 39.546875 43.3125 34.078125 43.3125 
z
" id="DejaVuSans-Bold-103"/>
       <path d="M 67 4 
Q 61.8125 1.3125 56.203125 -0.046875 
Q 50.59375 -1.421875 44.484375 -1.421875 
Q 26.265625 -1.421875 15.625 8.765625 
Q 4.984375 18.953125 4.984375 36.375 
Q 4.984375 53.859375 15.625 64.03125 
Q 26.265625 74.21875 44.484375 74.21875 
Q 50.59375 74.21875 56.203125 72.84375 
Q 61.8125 71.484375 67 68.796875 
L 67 53.71875 
Q 61.765625 57.28125 56.6875 58.9375 
Q 51.609375 60.59375 46 60.59375 
Q 35.9375 60.59375 30.171875 54.140625 
Q 24.421875 47.703125 24.421875 36.375 
Q 24.421875 25.09375 30.171875 18.640625 
Q 35.9375 12.203125 46 12.203125 
Q 51.609375 12.203125 56.6875 13.859375 
Q 61.765625 15.53125 67 19.09375 
z
" id="DejaVuSans-Bold-67"/>
       <path d="M 35.890625 40.578125 
Q 41.796875 40.578125 44.359375 42.765625 
Q 46.921875 44.96875 46.921875 50 
Q 46.921875 54.984375 44.359375 57.125 
Q 41.796875 59.28125 35.890625 59.28125 
L 27.984375 59.28125 
L 27.984375 40.578125 
z
M 27.984375 27.59375 
L 27.984375 0 
L 9.1875 0 
L 9.1875 72.90625 
L 37.890625 72.90625 
Q 52.296875 72.90625 59 68.0625 
Q 65.71875 63.234375 65.71875 52.78125 
Q 65.71875 45.5625 62.21875 40.921875 
Q 58.734375 36.28125 51.703125 34.078125 
Q 55.5625 33.203125 58.609375 30.09375 
Q 61.671875 27 64.796875 20.703125 
L 75 0 
L 54.984375 0 
L 46.09375 18.109375 
Q 43.40625 23.578125 40.640625 25.578125 
Q 37.890625 27.59375 33.296875 27.59375 
z
" id="DejaVuSans-Bold-82"/>
       <path d="M 63.375 33.296875 
L 63.375 0 
L 45.796875 0 
L 45.796875 5.421875 
L 45.796875 25.484375 
Q 45.796875 32.5625 45.484375 35.25 
Q 45.171875 37.9375 44.390625 39.203125 
Q 43.359375 40.921875 41.59375 41.875 
Q 39.84375 42.828125 37.59375 42.828125 
Q 32.125 42.828125 29 38.59375 
Q 25.875 34.375 25.875 26.90625 
L 25.875 0 
L 8.40625 0 
L 8.40625 54.6875 
L 25.875 54.6875 
L 25.875 46.6875 
Q 29.828125 51.46875 34.265625 53.734375 
Q 38.71875 56 44.09375 56 
Q 53.5625 56 58.46875 50.1875 
Q 63.375 44.390625 63.375 33.296875 
z
" id="DejaVuSans-Bold-110"/>
       <path d="M 27.484375 70.21875 
L 27.484375 54.6875 
L 45.515625 54.6875 
L 45.515625 42.1875 
L 27.484375 42.1875 
L 27.484375 19 
Q 27.484375 15.1875 29 13.84375 
Q 30.515625 12.5 35.015625 12.5 
L 44 12.5 
L 44 0 
L 29 0 
Q 18.65625 0 14.328125 4.3125 
Q 10.015625 8.640625 10.015625 19 
L 10.015625 42.1875 
L 1.3125 42.1875 
L 1.3125 54.6875 
L 10.015625 54.6875 
L 10.015625 70.21875 
z
" id="DejaVuSans-Bold-116"/>
       <path d="M 51.125 52.984375 
L 51.125 39.703125 
Q 45.515625 42.046875 40.28125 43.21875 
Q 35.0625 44.390625 30.421875 44.390625 
Q 25.4375 44.390625 23.015625 43.140625 
Q 20.609375 41.890625 20.609375 39.3125 
Q 20.609375 37.203125 22.4375 36.078125 
Q 24.265625 34.96875 29 34.421875 
L 32.078125 33.984375 
Q 45.515625 32.28125 50.140625 28.375 
Q 54.78125 24.46875 54.78125 16.109375 
Q 54.78125 7.375 48.328125 2.96875 
Q 41.890625 -1.421875 29.109375 -1.421875 
Q 23.6875 -1.421875 17.890625 -0.5625 
Q 12.109375 0.296875 6 2 
L 6 15.28125 
Q 11.234375 12.75 16.71875 11.46875 
Q 22.21875 10.203125 27.875 10.203125 
Q 33.015625 10.203125 35.59375 11.609375 
Q 38.1875 13.03125 38.1875 15.828125 
Q 38.1875 18.171875 36.40625 19.3125 
Q 34.625 20.453125 29.296875 21.09375 
L 26.21875 21.484375 
Q 14.546875 22.953125 9.859375 26.90625 
Q 5.171875 30.859375 5.171875 38.921875 
Q 5.171875 47.609375 11.125 51.796875 
Q 17.09375 56 29.390625 56 
Q 34.234375 56 39.546875 55.265625 
Q 44.875 54.546875 51.125 52.984375 
z
" id="DejaVuSans-Bold-115"/>
       <path d="M 37.703125 -13.1875 
L 23.1875 -13.1875 
Q 15.71875 -1.125 12.15625 9.734375 
Q 8.59375 20.609375 8.59375 31.296875 
Q 8.59375 42 12.171875 52.953125 
Q 15.765625 63.921875 23.1875 75.875 
L 37.703125 75.875 
Q 31.453125 64.3125 28.328125 53.25 
Q 25.203125 42.1875 25.203125 31.390625 
Q 25.203125 20.609375 28.296875 9.515625 
Q 31.390625 -1.5625 37.703125 -13.1875 
z
" id="DejaVuSans-Bold-40"/>
       <path d="M 25.875 7.90625 
L 25.875 -20.796875 
L 8.40625 -20.796875 
L 8.40625 54.6875 
L 25.875 54.6875 
L 25.875 46.6875 
Q 29.5 51.46875 33.890625 53.734375 
Q 38.28125 56 44 56 
Q 54.109375 56 60.59375 47.96875 
Q 67.09375 39.9375 67.09375 27.296875 
Q 67.09375 14.65625 60.59375 6.609375 
Q 54.109375 -1.421875 44 -1.421875 
Q 38.28125 -1.421875 33.890625 0.84375 
Q 29.5 3.125 25.875 7.90625 
z
M 37.5 43.3125 
Q 31.890625 43.3125 28.875 39.1875 
Q 25.875 35.0625 25.875 27.296875 
Q 25.875 19.53125 28.875 15.40625 
Q 31.890625 11.28125 37.5 11.28125 
Q 43.109375 11.28125 46.0625 15.375 
Q 49.03125 19.484375 49.03125 27.296875 
Q 49.03125 35.109375 46.0625 39.203125 
Q 43.109375 43.3125 37.5 43.3125 
z
" id="DejaVuSans-Bold-112"/>
       <path d="M 3.515625 54.6875 
L 20.515625 54.6875 
L 29.6875 17 
L 38.921875 54.6875 
L 53.515625 54.6875 
L 62.703125 17.390625 
L 71.921875 54.6875 
L 88.921875 54.6875 
L 74.515625 0 
L 55.421875 0 
L 46.1875 37.59375 
L 37.015625 0 
L 17.921875 0 
z
" id="DejaVuSans-Bold-119"/>
       <path d="M 8.015625 -13.1875 
Q 14.265625 -1.5625 17.390625 9.515625 
Q 20.515625 20.609375 20.515625 31.390625 
Q 20.515625 42.1875 17.390625 53.25 
Q 14.265625 64.3125 8.015625 75.875 
L 22.515625 75.875 
Q 29.9375 63.921875 33.515625 52.953125 
Q 37.109375 42 37.109375 31.296875 
Q 37.109375 20.609375 33.546875 9.734375 
Q 29.984375 -1.125 22.515625 -13.1875 
z
" id="DejaVuSans-Bold-41"/>
      </defs>
      <use xlink:href="#DejaVuSans-Bold-65"/>
      <use x="73.767578" xlink:href="#DejaVuSans-Bold-118"/>
      <use x="138.953125" xlink:href="#DejaVuSans-Bold-101"/>
      <use x="206.775391" xlink:href="#DejaVuSans-Bold-114"/>
      <use x="256.091797" xlink:href="#DejaVuSans-Bold-97"/>
      <use x="323.572266" xlink:href="#DejaVuSans-Bold-103"/>
      <use x="395.154297" xlink:href="#DejaVuSans-Bold-101"/>
      <use x="462.976562" xlink:href="#DejaVuSans-Bold-32"/>
      <use x="497.791016" xlink:href="#DejaVuSans-Bold-67"/>
      <use x="571.179688" xlink:href="#DejaVuSans-Bold-82"/>
      <use x="648.181641" xlink:href="#DejaVuSans-Bold-32"/>
      <use x="682.996094" xlink:href="#DejaVuSans-Bold-99"/>
      <use x="742.273438" xlink:href="#DejaVuSans-Bold-111"/>
      <use x="810.974609" xlink:href="#DejaVuSans-Bold-117"/>
      <use x="882.166016" xlink:href="#DejaVuSans-Bold-110"/>
      <use x="953.357422" xlink:href="#DejaVuSans-Bold-116"/>
      <use x="1001.160156" xlink:href="#DejaVuSans-Bold-115"/>
      <use x="1060.681641" xlink:href="#DejaVuSans-Bold-32"/>
      <use x="1095.496094" xlink:href="#DejaVuSans-Bold-40"/>
      <use x="1141.199219" xlink:href="#DejaVuSans-Bold-115"/>
      <use x="1200.720703" xlink:href="#DejaVuSans-Bold-117"/>
      <use x="1271.912109" xlink:href="#DejaVuSans-Bold-109"/>
      <use x="1376.111328" xlink:href="#DejaVuSans-Bold-32"/>
      <use x="1410.925781" xlink:href="#DejaVuSans-Bold-112"/>
      <use x="1482.507812" xlink:href="#DejaVuSans-Bold-101"/>
      <use x="1550.330078" xlink:href="#DejaVuSans-Bold-114"/>
      <use x="1599.646484" xlink:href="#DejaVuSans-Bold-32"/>
      <use x="1634.460938" xlink:href="#DejaVuSans-Bold-119"/>
      <use x="1726.84375" xlink:href="#DejaVuSans-Bold-111"/>
      <use x="1795.544922" xlink:href="#DejaVuSans-Bold-114"/>
      <use x="1844.861328" xlink:href="#DejaVuSans-Bold-109"/>
      <use x="1949.060547" xlink:href="#DejaVuSans-Bold-41"/>
     </g>
    </g>
   </g>
   <g id="patch_3">
    <path d="M 42.619375 383.829812 
L 42.619375 23.837812 
" style="fill:none;stroke:#000000;stroke-linecap:square;stroke-linejoin:miter;stroke-width:0.8;"/>
   </g>
   <g id="patch_4">
    <path d="M 706.439375 383.829812 
L 706.439375 23.837812 
" style="fill:none;stroke:#000000;stroke-linecap:square;stroke-linejoin:miter;stroke-width:0.8;"/>
   </g>
   <g id="patch_5">
    <path d="M 42.619375 383.829812 
L 706.439375 383.829812 
" style="fill:none;stroke:#000000;stroke-linecap:square;stroke-linejoin:miter;stroke-width:0.8;"/>
   </g>
   <g id="patch_6">
    <path d="M 42.619375 23.837812 
L 706.439375 23.837812 
" style="fill:none;stroke:#000000;stroke-linecap:square;stroke-linejoin:miter;stroke-width:0.8;"/>
   </g>
   <g id="text_20">
    <!-- || -->
    <g transform="translate(220.008068 386.9721)scale(0.1 -0.1)">
     <defs>
      <path d="M 23.78125 76.421875 
L 23.78125 -23.578125 
L 12.703125 -23.578125 
L 12.703125 76.421875 
z
" id="DejaVuSans-Bold-124"/>
     </defs>
     <use xlink:href="#DejaVuSans-Bold-124"/>
     <use x="36.523438" xlink:href="#DejaVuSans-Bold-124"/>
    </g>
   </g>
   <g id="text_21">
    <!-- CC vs PC across blocks (responders pooled, mean ± 95% bootstrap CI) -->
    <g transform="translate(96.620625 17.837812)scale(0.14 -0.14)">
     <defs>
      <path d="M 9.1875 72.90625 
L 40.375 72.90625 
Q 54.296875 72.90625 61.734375 66.71875 
Q 69.1875 60.546875 69.1875 49.125 
Q 69.1875 37.640625 61.734375 31.46875 
Q 54.296875 25.296875 40.375 25.296875 
L 27.984375 25.296875 
L 27.984375 0 
L 9.1875 0 
z
M 27.984375 59.28125 
L 27.984375 38.921875 
L 38.375 38.921875 
Q 43.84375 38.921875 46.828125 41.578125 
Q 49.8125 44.234375 49.8125 49.125 
Q 49.8125 54 46.828125 56.640625 
Q 43.84375 59.28125 38.375 59.28125 
z
" id="DejaVuSans-Bold-80"/>
      <path d="M 45.609375 46.6875 
L 45.609375 75.984375 
L 63.1875 75.984375 
L 63.1875 0 
L 45.609375 0 
L 45.609375 7.90625 
Q 42 3.078125 37.640625 0.828125 
Q 33.296875 -1.421875 27.59375 -1.421875 
Q 17.484375 -1.421875 10.984375 6.609375 
Q 4.5 14.65625 4.5 27.296875 
Q 4.5 39.9375 10.984375 47.96875 
Q 17.484375 56 27.59375 56 
Q 33.25 56 37.625 53.734375 
Q 42 51.46875 45.609375 46.6875 
z
M 34.078125 11.28125 
Q 39.703125 11.28125 42.65625 15.375 
Q 45.609375 19.484375 45.609375 27.296875 
Q 45.609375 35.109375 42.65625 39.203125 
Q 39.703125 43.3125 34.078125 43.3125 
Q 28.515625 43.3125 25.5625 39.203125 
Q 22.609375 35.109375 22.609375 27.296875 
Q 22.609375 19.484375 25.5625 15.375 
Q 28.515625 11.28125 34.078125 11.28125 
z
" id="DejaVuSans-Bold-100"/>
      <path d="M 10.203125 18.890625 
L 27.78125 18.890625 
L 27.78125 4 
L 15.71875 -14.203125 
L 5.328125 -14.203125 
L 10.203125 4 
z
" id="DejaVuSans-Bold-44"/>
      <path d="M 47.703125 62.703125 
L 47.703125 45.40625 
L 73.1875 45.40625 
L 73.1875 33.890625 
L 47.703125 33.890625 
L 47.703125 16.609375 
L 36.078125 16.609375 
L 36.078125 33.890625 
L 10.59375 33.890625 
L 10.59375 45.40625 
L 36.078125 45.40625 
L 36.078125 62.703125 
z
M 10.59375 11.625 
L 73.1875 11.625 
L 73.1875 0 
L 10.59375 0 
z
" id="DejaVuSans-Bold-177"/>
      <path d="M 10.015625 1.609375 
L 10.015625 15.09375 
Q 14.5 12.984375 18.59375 11.9375 
Q 22.703125 10.890625 26.703125 10.890625 
Q 35.109375 10.890625 39.796875 15.546875 
Q 44.484375 20.21875 45.3125 29.390625 
Q 42 26.953125 38.234375 25.734375 
Q 34.46875 24.515625 30.078125 24.515625 
Q 18.890625 24.515625 12.03125 31.03125 
Q 5.171875 37.546875 5.171875 48.1875 
Q 5.171875 59.96875 12.8125 67.046875 
Q 20.453125 74.125 33.296875 74.125 
Q 47.5625 74.125 55.375 64.5 
Q 63.1875 54.890625 63.1875 37.3125 
Q 63.1875 19.234375 54.046875 8.90625 
Q 44.921875 -1.421875 29 -1.421875 
Q 23.875 -1.421875 19.1875 -0.65625 
Q 14.5 0.09375 10.015625 1.609375 
z
M 33.203125 36.71875 
Q 38.140625 36.71875 40.625 39.90625 
Q 43.109375 43.109375 43.109375 49.515625 
Q 43.109375 55.859375 40.625 59.078125 
Q 38.140625 62.3125 33.203125 62.3125 
Q 28.265625 62.3125 25.78125 59.078125 
Q 23.296875 55.859375 23.296875 49.515625 
Q 23.296875 43.109375 25.78125 39.90625 
Q 28.265625 36.71875 33.203125 36.71875 
z
" id="DejaVuSans-Bold-57"/>
      <path d="M 10.59375 72.90625 
L 57.328125 72.90625 
L 57.328125 59.078125 
L 25.59375 59.078125 
L 25.59375 47.796875 
Q 27.734375 48.390625 29.90625 48.703125 
Q 32.078125 49.03125 34.421875 49.03125 
Q 47.75 49.03125 55.171875 42.359375 
Q 62.59375 35.6875 62.59375 23.78125 
Q 62.59375 11.96875 54.515625 5.265625 
Q 46.4375 -1.421875 32.078125 -1.421875 
Q 25.875 -1.421875 19.796875 -0.21875 
Q 13.71875 0.984375 7.71875 3.421875 
L 7.71875 18.21875 
Q 13.671875 14.796875 19.015625 13.078125 
Q 24.359375 11.375 29.109375 11.375 
Q 35.9375 11.375 39.859375 14.71875 
Q 43.796875 18.0625 43.796875 23.78125 
Q 43.796875 29.546875 39.859375 32.859375 
Q 35.9375 36.1875 29.109375 36.1875 
Q 25.046875 36.1875 20.453125 35.125 
Q 15.875 34.078125 10.59375 31.890625 
z
" id="DejaVuSans-Bold-53"/>
      <path d="M 77.484375 30.078125 
Q 74.03125 30.078125 72.125 27.078125 
Q 70.21875 24.078125 70.21875 18.5 
Q 70.21875 12.890625 72.09375 9.890625 
Q 73.96875 6.890625 77.484375 6.890625 
Q 81 6.890625 82.859375 9.890625 
Q 84.71875 12.890625 84.71875 18.5 
Q 84.71875 24.078125 82.828125 27.078125 
Q 80.953125 30.078125 77.484375 30.078125 
z
M 77.484375 38.28125 
Q 86.578125 38.28125 91.796875 33 
Q 97.015625 27.734375 97.015625 18.5 
Q 97.015625 9.28125 91.796875 3.921875 
Q 86.578125 -1.421875 77.484375 -1.421875 
Q 68.40625 -1.421875 63.15625 3.921875 
Q 57.90625 9.28125 57.90625 18.5 
Q 57.90625 27.6875 63.15625 32.984375 
Q 68.40625 38.28125 77.484375 38.28125 
z
M 32.71875 -1.421875 
L 21.921875 -1.421875 
L 67.484375 74.21875 
L 78.328125 74.21875 
z
M 22.703125 74.21875 
Q 31.78125 74.21875 36.984375 68.921875 
Q 42.1875 63.625 42.1875 54.390625 
Q 42.1875 45.171875 36.984375 39.84375 
Q 31.78125 34.515625 22.703125 34.515625 
Q 13.625 34.515625 8.421875 39.84375 
Q 3.21875 45.171875 3.21875 54.390625 
Q 3.21875 63.625 8.421875 68.921875 
Q 13.625 74.21875 22.703125 74.21875 
z
M 22.703125 66.015625 
Q 19.1875 66.015625 17.28125 62.984375 
Q 15.375 59.96875 15.375 54.390625 
Q 15.375 48.78125 17.28125 45.71875 
Q 19.1875 42.671875 22.703125 42.671875 
Q 26.21875 42.671875 28.09375 45.71875 
Q 29.984375 48.78125 29.984375 54.390625 
Q 29.984375 59.96875 28.078125 62.984375 
Q 26.171875 66.015625 22.703125 66.015625 
z
" id="DejaVuSans-Bold-37"/>
      <path d="M 9.1875 72.90625 
L 27.984375 72.90625 
L 27.984375 0 
L 9.1875 0 
z
" id="DejaVuSans-Bold-73"/>
     </defs>
     <use xlink:href="#DejaVuSans-Bold-67"/>
     <use x="73.388672" xlink:href="#DejaVuSans-Bold-67"/>
     <use x="146.777344" xlink:href="#DejaVuSans-Bold-32"/>
     <use x="181.591797" xlink:href="#DejaVuSans-Bold-118"/>
     <use x="246.777344" xlink:href="#DejaVuSans-Bold-115"/>
     <use x="306.298828" xlink:href="#DejaVuSans-Bold-32"/>
     <use x="341.113281" xlink:href="#DejaVuSans-Bold-80"/>
     <use x="414.404297" xlink:href="#DejaVuSans-Bold-67"/>
     <use x="487.792969" xlink:href="#DejaVuSans-Bold-32"/>
     <use x="522.607422" xlink:href="#DejaVuSans-Bold-97"/>
     <use x="590.087891" xlink:href="#DejaVuSans-Bold-99"/>
     <use x="649.365234" xlink:href="#DejaVuSans-Bold-114"/>
     <use x="698.681641" xlink:href="#DejaVuSans-Bold-111"/>
     <use x="767.382812" xlink:href="#DejaVuSans-Bold-115"/>
     <use x="826.904297" xlink:href="#DejaVuSans-Bold-115"/>
     <use x="886.425781" xlink:href="#DejaVuSans-Bold-32"/>
     <use x="921.240234" xlink:href="#DejaVuSans-Bold-98"/>
     <use x="992.822266" xlink:href="#DejaVuSans-Bold-108"/>
     <use x="1027.099609" xlink:href="#DejaVuSans-Bold-111"/>
     <use x="1095.800781" xlink:href="#DejaVuSans-Bold-99"/>
     <use x="1155.078125" xlink:href="#DejaVuSans-Bold-107"/>
     <use x="1221.582031" xlink:href="#DejaVuSans-Bold-115"/>
     <use x="1281.103516" xlink:href="#DejaVuSans-Bold-32"/>
     <use x="1315.917969" xlink:href="#DejaVuSans-Bold-40"/>
     <use x="1361.621094" xlink:href="#DejaVuSans-Bold-114"/>
     <use x="1410.9375" xlink:href="#DejaVuSans-Bold-101"/>
     <use x="1478.759766" xlink:href="#DejaVuSans-Bold-115"/>
     <use x="1538.28125" xlink:href="#DejaVuSans-Bold-112"/>
     <use x="1609.863281" xlink:href="#DejaVuSans-Bold-111"/>
     <use x="1678.564453" xlink:href="#DejaVuSans-Bold-110"/>
     <use x="1749.755859" xlink:href="#DejaVuSans-Bold-100"/>
     <use x="1821.337891" xlink:href="#DejaVuSans-Bold-101"/>
     <use x="1889.160156" xlink:href="#DejaVuSans-Bold-114"/>
     <use x="1938.476562" xlink:href="#DejaVuSans-Bold-115"/>
     <use x="1997.998047" xlink:href="#DejaVuSans-Bold-32"/>
     <use x="2032.8125" xlink:href="#DejaVuSans-Bold-112"/>
     <use x="2104.394531" xlink:href="#DejaVuSans-Bold-111"/>
     <use x="2173.095703" xlink:href="#DejaVuSans-Bold-111"/>
     <use x="2241.796875" xlink:href="#DejaVuSans-Bold-108"/>
     <use x="2276.074219" xlink:href="#DejaVuSans-Bold-101"/>
     <use x="2343.896484" xlink:href="#DejaVuSans-Bold-100"/>
     <use x="2415.478516" xlink:href="#DejaVuSans-Bold-44"/>
     <use x="2453.466797" xlink:href="#DejaVuSans-Bold-32"/>
     <use x="2488.28125" xlink:href="#DejaVuSans-Bold-109"/>
     <use x="2592.480469" xlink:href="#DejaVuSans-Bold-101"/>
     <use x="2660.302734" xlink:href="#DejaVuSans-Bold-97"/>
     <use x="2727.783203" xlink:href="#DejaVuSans-Bold-110"/>
     <use x="2798.974609" xlink:href="#DejaVuSans-Bold-32"/>
     <use x="2833.789062" xlink:href="#DejaVuSans-Bold-177"/>
     <use x="2917.578125" xlink:href="#DejaVuSans-Bold-32"/>
     <use x="2952.392578" xlink:href="#DejaVuSans-Bold-57"/>
     <use x="3021.972656" xlink:href="#DejaVuSans-Bold-53"/>
     <use x="3091.552734" xlink:href="#DejaVuSans-Bold-37"/>
     <use x="3191.748047" xlink:href="#DejaVuSans-Bold-32"/>
     <use x="3226.5625" xlink:href="#DejaVuSans-Bold-98"/>
     <use x="3298.144531" xlink:href="#DejaVuSans-Bold-111"/>
     <use x="3366.845703" xlink:href="#DejaVuSans-Bold-111"/>
     <use x="3435.546875" xlink:href="#DejaVuSans-Bold-116"/>
     <use x="3483.349609" xlink:href="#DejaVuSans-Bold-115"/>
     <use x="3542.871094" xlink:href="#DejaVuSans-Bold-116"/>
     <use x="3590.673828" xlink:href="#DejaVuSans-Bold-114"/>
     <use x="3639.990234" xlink:href="#DejaVuSans-Bold-97"/>
     <use x="3707.470703" xlink:href="#DejaVuSans-Bold-112"/>
     <use x="3779.052734" xlink:href="#DejaVuSans-Bold-32"/>
     <use x="3813.867188" xlink:href="#DejaVuSans-Bold-67"/>
     <use x="3887.255859" xlink:href="#DejaVuSans-Bold-73"/>
     <use x="3924.462891" xlink:href="#DejaVuSans-Bold-41"/>
    </g>
   </g>
   <g id="LineCollection_1">
    <path clip-path="url(#p1bec734e63)" d="M 72.793011 360.496998 
L 72.793011 322.164516 
" style="fill:none;stroke:#0072b2;stroke-opacity:0.9;stroke-width:2.5;"/>
    <path clip-path="url(#p1bec734e63)" d="M 173.371799 360.496998 
L 173.371799 303.83159 
" style="fill:none;stroke:#0072b2;stroke-opacity:0.9;stroke-width:2.5;"/>
    <path clip-path="url(#p1bec734e63)" d="M 273.950587 355.497109 
L 273.950587 308.831479 
" style="fill:none;stroke:#0072b2;stroke-opacity:0.9;stroke-width:2.5;"/>
    <path clip-path="url(#p1bec734e63)" d="M 374.529375 377.163294 
L 374.529375 352.16385 
" style="fill:none;stroke:#0072b2;stroke-opacity:0.9;stroke-width:2.5;"/>
    <path clip-path="url(#p1bec734e63)" d="M 475.108163 355.497109 
L 475.108163 328.831035 
" style="fill:none;stroke:#0072b2;stroke-opacity:0.9;stroke-width:2.5;"/>
    <path clip-path="url(#p1bec734e63)" d="M 575.686951 375.496664 
L 575.686951 348.83059 
" style="fill:none;stroke:#0072b2;stroke-opacity:0.9;stroke-width:2.5;"/>
    <path clip-path="url(#p1bec734e63)" d="M 676.265739 383.829812 
L 676.265739 375.496664 
" style="fill:none;stroke:#0072b2;stroke-opacity:0.9;stroke-width:2.5;"/>
   </g>
   <g id="LineCollection_2">
    <path clip-path="url(#p1bec734e63)" d="M 72.793011 357.163738 
L 72.793011 318.831257 
" style="fill:none;stroke:#d55e00;stroke-opacity:0.9;stroke-width:2.5;"/>
    <path clip-path="url(#p1bec734e63)" d="M 173.371799 373.830035 
L 173.371799 345.497331 
" style="fill:none;stroke:#d55e00;stroke-opacity:0.9;stroke-width:2.5;"/>
    <path clip-path="url(#p1bec734e63)" d="M 273.950587 360.496998 
L 273.950587 330.497664 
" style="fill:none;stroke:#d55e00;stroke-opacity:0.9;stroke-width:2.5;"/>
    <path clip-path="url(#p1bec734e63)" d="M 374.529375 383.829812 
L 374.529375 365.496887 
" style="fill:none;stroke:#d55e00;stroke-opacity:0.9;stroke-width:2.5;"/>
    <path clip-path="url(#p1bec734e63)" d="M 475.108163 375.496664 
L 475.108163 350.49722 
" style="fill:none;stroke:#d55e00;stroke-opacity:0.9;stroke-width:2.5;"/>
    <path clip-path="url(#p1bec734e63)" d="M 575.686951 380.496553 
L 575.686951 343.830701 
" style="fill:none;stroke:#d55e00;stroke-opacity:0.9;stroke-width:2.5;"/>
    <path clip-path="url(#p1bec734e63)" d="M 676.265739 383.829812 
L 676.265739 362.163627 
" style="fill:none;stroke:#d55e00;stroke-opacity:0.9;stroke-width:2.5;"/>
   </g>
   <g id="line2d_35">
    <defs>
     <path d="M 5 0 
L -5 -0 
" id="m3491b86beb" style="stroke:#0072b2;stroke-opacity:0.9;stroke-width:1.5;"/>
    </defs>
    <g clip-path="url(#p1bec734e63)">
     <use style="fill:#0072b2;fill-opacity:0.9;stroke:#0072b2;stroke-opacity:0.9;stroke-width:1.5;" x="72.793011" xlink:href="#m3491b86beb" y="360.496998"/>
     <use style="fill:#0072b2;fill-opacity:0.9;stroke:#0072b2;stroke-opacity:0.9;stroke-width:1.5;" x="173.371799" xlink:href="#m3491b86beb" y="360.496998"/>
     <use style="fill:#0072b2;fill-opacity:0.9;stroke:#0072b2;stroke-opacity:0.9;stroke-width:1.5;" x="273.950587" xlink:href="#m3491b86beb" y="355.497109"/>
     <use style="fill:#0072b2;fill-opacity:0.9;stroke:#0072b2;stroke-opacity:0.9;stroke-width:1.5;" x="374.529375" xlink:href="#m3491b86beb" y="377.163294"/>
     <use style="fill:#0072b2;fill-opacity:0.9;stroke:#0072b2;stroke-opacity:0.9;stroke-width:1.5;" x="475.108163" xlink:href="#m3491b86beb" y="355.497109"/>
     <use style="fill:#0072b2;fill-opacity:0.9;stroke:#0072b2;stroke-opacity:0.9;stroke-width:1.5;" x="575.686951" xlink:href="#m3491b86beb" y="375.496664"/>
     <use style="fill:#0072b2;fill-opacity:0.9;stroke:#0072b2;stroke-opacity:0.9;stroke-width:1.5;" x="676.265739" xlink:href="#m3491b86beb" y="383.829812"/>
    </g>
   </g>
   <g id="line2d_36">
    <g clip-path="url(#p1bec734e63)">
     <use style="fill:#0072b2;fill-opacity:0.9;stroke:#0072b2;stroke-opacity:0.9;stroke-width:1.5;" x="72.793011" xlink:href="#m3491b86beb" y="322.164516"/>
     <use style="fill:#0072b2;fill-opacity:0.9;stroke:#0072b2;stroke-opacity:0.9;stroke-width:1.5;" x="173.371799" xlink:href="#m3491b86beb" y="303.83159"/>
     <use style="fill:#0072b2;fill-opacity:0.9;stroke:#0072b2;stroke-opacity:0.9;stroke-width:1.5;" x="273.950587" xlink:href="#m3491b86beb" y="308.831479"/>
     <use style="fill:#0072b2;fill-opacity:0.9;stroke:#0072b2;stroke-opacity:0.9;stroke-width:1.5;" x="374.529375" xlink:href="#m3491b86beb" y="352.16385"/>
     <use style="fill:#0072b2;fill-opacity:0.9;stroke:#0072b2;stroke-opacity:0.9;stroke-width:1.5;" x="475.108163" xlink:href="#m3491b86beb" y="328.831035"/>
     <use style="fill:#0072b2;fill-opacity:0.9;stroke:#0072b2;stroke-opacity:0.9;stroke-width:1.5;" x="575.686951" xlink:href="#m3491b86beb" y="348.83059"/>
     <use style="fill:#0072b2;fill-opacity:0.9;stroke:#0072b2;stroke-opacity:0.9;stroke-width:1.5;" x="676.265739" xlink:href="#m3491b86beb" y="375.496664"/>
    </g>
   </g>
   <g id="line2d_37">
    <defs>
     <path d="M 5 0 
L -5 -0 
" id="m31db4d7595" style="stroke:#d55e00;stroke-opacity:0.9;stroke-width:1.5;"/>
    </defs>
    <g clip-path="url(#p1bec734e63)">
     <use style="fill:#d55e00;fill-opacity:0.9;stroke:#d55e00;stroke-opacity:0.9;stroke-width:1.5;" x="72.793011" xlink:href="#m31db4d7595" y="357.163738"/>
     <use style="fill:#d55e00;fill-opacity:0.9;stroke:#d55e00;stroke-opacity:0.9;stroke-width:1.5;" x="173.371799" xlink:href="#m31db4d7595" y="373.830035"/>
     <use style="fill:#d55e00;fill-opacity:0.9;stroke:#d55e00;stroke-opacity:0.9;stroke-width:1.5;" x="273.950587" xlink:href="#m31db4d7595" y="360.496998"/>
     <use style="fill:#d55e00;fill-opacity:0.9;stroke:#d55e00;stroke-opacity:0.9;stroke-width:1.5;" x="374.529375" xlink:href="#m31db4d7595" y="383.829812"/>
     <use style="fill:#d55e00;fill-opacity:0.9;stroke:#d55e00;stroke-opacity:0.9;stroke-width:1.5;" x="475.108163" xlink:href="#m31db4d7595" y="375.496664"/>
     <use style="fill:#d55e00;fill-opacity:0.9;stroke:#d55e00;stroke-opacity:0.9;stroke-width:1.5;" x="575.686951" xlink:href="#m31db4d7595" y="380.496553"/>
     <use style="fill:#d55e00;fill-opacity:0.9;stroke:#d55e00;stroke-opacity:0.9;stroke-width:1.5;" x="676.265739" xlink:href="#m31db4d7595" y="383.829812"/>
    </g>
   </g>
   <g id="line2d_38">
    <g clip-path="url(#p1bec734e63)">
     <use style="fill:#d55e00;fill-opacity:0.9;stroke:#d55e00;stroke-opacity:0.9;stroke-width:1.5;" x="72.793011" xlink:href="#m31db4d7595" y="318.831257"/>
     <use style="fill:#d55e00;fill-opacity:0.9;stroke:#d55e00;stroke-opacity:0.9;stroke-width:1.5;" x="173.371799" xlink:href="#m31db4d7595" y="345.497331"/>
     <use style="fill:#d55e00;fill-opacity:0.9;stroke:#d55e00;stroke-opacity:0.9;stroke-width:1.5;" x="273.950587" xlink:href="#m31db4d7595" y="330.497664"/>
     <use style="fill:#d55e00;fill-opacity:0.9;stroke:#d55e00;stroke-opacity:0.9;stroke-width:1.5;" x="374.529375" xlink:href="#m31db4d7595" y="365.496887"/>
     <use style="fill:#d55e00;fill-opacity:0.9;stroke:#d55e00;stroke-opacity:0.9;stroke-width:1.5;" x="475.108163" xlink:href="#m31db4d7595" y="350.49722"/>
     <use style="fill:#d55e00;fill-opacity:0.9;stroke:#d55e00;stroke-opacity:0.9;stroke-width:1.5;" x="575.686951" xlink:href="#m31db4d7595" y="343.830701"/>
     <use style="fill:#d55e00;fill-opacity:0.9;stroke:#d55e00;stroke-opacity:0.9;stroke-width:1.5;" x="676.265739" xlink:href="#m31db4d7595" y="362.163627"/>
    </g>
   </g>
   <g id="legend_1">
    <g id="patch_7">
     <path d="M 469.208125 61.194062 
L 699.439375 61.194062 
Q 701.439375 61.194062 701.439375 59.194062 
L 701.439375 30.837812 
Q 701.439375 28.837812 699.439375 28.837812 
L 469.208125 28.837812 
Q 467.208125 28.837812 467.208125 30.837812 
L 467.208125 59.194062 
Q 467.208125 61.194062 469.208125 61.194062 
z
" style="fill:#ffffff;opacity:0.9;stroke:#cccccc;stroke-linejoin:miter;"/>
    </g>
    <g id="LineCollection_3">
     <path d="M 481.208125 41.93625 
L 481.208125 31.93625 
" style="fill:none;stroke:#0072b2;stroke-opacity:0.9;stroke-width:2.5;"/>
    </g>
    <g id="line2d_39">
     <g>
      <use style="fill:#0072b2;fill-opacity:0.9;stroke:#0072b2;stroke-opacity:0.9;stroke-width:1.5;" x="481.208125" xlink:href="#m3491b86beb" y="41.93625"/>
     </g>
    </g>
    <g id="line2d_40">
     <g>
      <use style="fill:#0072b2;fill-opacity:0.9;stroke:#0072b2;stroke-opacity:0.9;stroke-width:1.5;" x="481.208125" xlink:href="#m3491b86beb" y="31.93625"/>
     </g>
    </g>
    <g id="line2d_41">
     <path d="M 471.208125 36.93625 
L 491.208125 36.93625 
" style="fill:none;stroke:#0072b2;stroke-linecap:square;stroke-opacity:0.9;stroke-width:2.5;"/>
    </g>
    <g id="line2d_42">
     <defs>
      <path d="M 0 4 
C 1.060812 4 2.078319 3.578535 2.828427 2.828427 
C 3.578535 2.078319 4 1.060812 4 0 
C 4 -1.060812 3.578535 -2.078319 2.828427 -2.828427 
C 2.078319 -3.578535 1.060812 -4 0 -4 
C -1.060812 -4 -2.078319 -3.578535 -2.828427 -2.828427 
C -3.578535 -2.078319 -4 -1.060812 -4 0 
C -4 1.060812 -3.578535 2.078319 -2.828427 2.828427 
C -2.078319 3.578535 -1.060812 4 0 4 
z
" id="m0528d24c40" style="stroke:#0072b2;stroke-opacity:0.9;stroke-width:1.5;"/>
     </defs>
     <g>
      <use style="fill:#0072b2;fill-opacity:0.9;stroke:#0072b2;stroke-opacity:0.9;stroke-width:1.5;" x="481.208125" xlink:href="#m0528d24c40" y="36.93625"/>
     </g>
    </g>
    <g id="text_22">
     <!-- Conditioning (CC), n = 12 worms -->
     <g transform="translate(499.208125 40.43625)scale(0.1 -0.1)">
      <defs>
       <path d="M 64.40625 67.28125 
L 64.40625 56.890625 
Q 59.421875 61.53125 53.78125 63.8125 
Q 48.140625 66.109375 41.796875 66.109375 
Q 29.296875 66.109375 22.65625 58.46875 
Q 16.015625 50.828125 16.015625 36.375 
Q 16.015625 21.96875 22.65625 14.328125 
Q 29.296875 6.6875 41.796875 6.6875 
Q 48.140625 6.6875 53.78125 8.984375 
Q 59.421875 11.28125 64.40625 15.921875 
L 64.40625 5.609375 
Q 59.234375 2.09375 53.4375 0.328125 
Q 47.65625 -1.421875 41.21875 -1.421875 
Q 24.65625 -1.421875 15.125 8.703125 
Q 5.609375 18.84375 5.609375 36.375 
Q 5.609375 53.953125 15.125 64.078125 
Q 24.65625 74.21875 41.21875 74.21875 
Q 47.75 74.21875 53.53125 72.484375 
Q 59.328125 70.75 64.40625 67.28125 
z
" id="DejaVuSans-67"/>
       <path d="M 30.609375 48.390625 
Q 23.390625 48.390625 19.1875 42.75 
Q 14.984375 37.109375 14.984375 27.296875 
Q 14.984375 17.484375 19.15625 11.84375 
Q 23.34375 6.203125 30.609375 6.203125 
Q 37.796875 6.203125 41.984375 11.859375 
Q 46.1875 17.53125 46.1875 27.296875 
Q 46.1875 37.015625 41.984375 42.703125 
Q 37.796875 48.390625 30.609375 48.390625 
z
M 30.609375 56 
Q 42.328125 56 49.015625 48.375 
Q 55.71875 40.765625 55.71875 27.296875 
Q 55.71875 13.875 49.015625 6.21875 
Q 42.328125 -1.421875 30.609375 -1.421875 
Q 18.84375 -1.421875 12.171875 6.21875 
Q 5.515625 13.875 5.515625 27.296875 
Q 5.515625 40.765625 12.171875 48.375 
Q 18.84375 56 30.609375 56 
z
" id="DejaVuSans-111"/>
       <path d="M 54.890625 33.015625 
L 54.890625 0 
L 45.90625 0 
L 45.90625 32.71875 
Q 45.90625 40.484375 42.875 44.328125 
Q 39.84375 48.1875 33.796875 48.1875 
Q 26.515625 48.1875 22.3125 43.546875 
Q 18.109375 38.921875 18.109375 30.90625 
L 18.109375 0 
L 9.078125 0 
L 9.078125 54.6875 
L 18.109375 54.6875 
L 18.109375 46.1875 
Q 21.34375 51.125 25.703125 53.5625 
Q 30.078125 56 35.796875 56 
Q 45.21875 56 50.046875 50.171875 
Q 54.890625 44.34375 54.890625 33.015625 
z
" id="DejaVuSans-110"/>
       <path d="M 45.40625 46.390625 
L 45.40625 75.984375 
L 54.390625 75.984375 
L 54.390625 0 
L 45.40625 0 
L 45.40625 8.203125 
Q 42.578125 3.328125 38.25 0.953125 
Q 33.9375 -1.421875 27.875 -1.421875 
Q 17.96875 -1.421875 11.734375 6.484375 
Q 5.515625 14.40625 5.515625 27.296875 
Q 5.515625 40.1875 11.734375 48.09375 
Q 17.96875 56 27.875 56 
Q 33.9375 56 38.25 53.625 
Q 42.578125 51.265625 45.40625 46.390625 
z
M 14.796875 27.296875 
Q 14.796875 17.390625 18.875 11.75 
Q 22.953125 6.109375 30.078125 6.109375 
Q 37.203125 6.109375 41.296875 11.75 
Q 45.40625 17.390625 45.40625 27.296875 
Q 45.40625 37.203125 41.296875 42.84375 
Q 37.203125 48.484375 30.078125 48.484375 
Q 22.953125 48.484375 18.875 42.84375 
Q 14.796875 37.203125 14.796875 27.296875 
z
" id="DejaVuSans-100"/>
       <path d="M 9.421875 54.6875 
L 18.40625 54.6875 
L 18.40625 0 
L 9.421875 0 
z
M 9.421875 75.984375 
L 18.40625 75.984375 
L 18.40625 64.59375 
L 9.421875 64.59375 
z
" id="DejaVuSans-105"/>
       <path d="M 18.3125 70.21875 
L 18.3125 54.6875 
L 36.8125 54.6875 
L 36.8125 47.703125 
L 18.3125 47.703125 
L 18.3125 18.015625 
Q 18.3125 11.328125 20.140625 9.421875 
Q 21.96875 7.515625 27.59375 7.515625 
L 36.8125 7.515625 
L 36.8125 0 
L 27.59375 0 
Q 17.1875 0 13.234375 3.875 
Q 9.28125 7.765625 9.28125 18.015625 
L 9.28125 47.703125 
L 2.6875 47.703125 
L 2.6875 54.6875 
L 9.28125 54.6875 
L 9.28125 70.21875 
z
" id="DejaVuSans-116"/>
       <path d="M 45.40625 27.984375 
Q 45.40625 37.75 41.375 43.109375 
Q 37.359375 48.484375 30.078125 48.484375 
Q 22.859375 48.484375 18.828125 43.109375 
Q 14.796875 37.75 14.796875 27.984375 
Q 14.796875 18.265625 18.828125 12.890625 
Q 22.859375 7.515625 30.078125 7.515625 
Q 37.359375 7.515625 41.375 12.890625 
Q 45.40625 18.265625 45.40625 27.984375 
z
M 54.390625 6.78125 
Q 54.390625 -7.171875 48.1875 -13.984375 
Q 42 -20.796875 29.203125 -20.796875 
Q 24.46875 -20.796875 20.265625 -20.09375 
Q 16.0625 -19.390625 12.109375 -17.921875 
L 12.109375 -9.1875 
Q 16.0625 -11.328125 19.921875 -12.34375 
Q 23.78125 -13.375 27.78125 -13.375 
Q 36.625 -13.375 41.015625 -8.765625 
Q 45.40625 -4.15625 45.40625 5.171875 
L 45.40625 9.625 
Q 42.625 4.78125 38.28125 2.390625 
Q 33.9375 0 27.875 0 
Q 17.828125 0 11.671875 7.65625 
Q 5.515625 15.328125 5.515625 27.984375 
Q 5.515625 40.671875 11.671875 48.328125 
Q 17.828125 56 27.875 56 
Q 33.9375 56 38.28125 53.609375 
Q 42.625 51.21875 45.40625 46.390625 
L 45.40625 54.6875 
L 54.390625 54.6875 
z
" id="DejaVuSans-103"/>
       <path id="DejaVuSans-32"/>
       <path d="M 31 75.875 
Q 24.46875 64.65625 21.28125 53.65625 
Q 18.109375 42.671875 18.109375 31.390625 
Q 18.109375 20.125 21.3125 9.0625 
Q 24.515625 -2 31 -13.1875 
L 23.1875 -13.1875 
Q 15.875 -1.703125 12.234375 9.375 
Q 8.59375 20.453125 8.59375 31.390625 
Q 8.59375 42.28125 12.203125 53.3125 
Q 15.828125 64.359375 23.1875 75.875 
z
" id="DejaVuSans-40"/>
       <path d="M 8.015625 75.875 
L 15.828125 75.875 
Q 23.140625 64.359375 26.78125 53.3125 
Q 30.421875 42.28125 30.421875 31.390625 
Q 30.421875 20.453125 26.78125 9.375 
Q 23.140625 -1.703125 15.828125 -13.1875 
L 8.015625 -13.1875 
Q 14.5 -2 17.703125 9.0625 
Q 20.90625 20.125 20.90625 31.390625 
Q 20.90625 42.671875 17.703125 53.65625 
Q 14.5 64.65625 8.015625 75.875 
z
" id="DejaVuSans-41"/>
       <path d="M 11.71875 12.40625 
L 22.015625 12.40625 
L 22.015625 4 
L 14.015625 -11.625 
L 7.71875 -11.625 
L 11.71875 4 
z
" id="DejaVuSans-44"/>
       <path d="M 10.59375 45.40625 
L 73.1875 45.40625 
L 73.1875 37.203125 
L 10.59375 37.203125 
z
M 10.59375 25.484375 
L 73.1875 25.484375 
L 73.1875 17.1875 
L 10.59375 17.1875 
z
" id="DejaVuSans-61"/>
       <path d="M 4.203125 54.6875 
L 13.1875 54.6875 
L 24.421875 12.015625 
L 35.59375 54.6875 
L 46.1875 54.6875 
L 57.421875 12.015625 
L 68.609375 54.6875 
L 77.59375 54.6875 
L 63.28125 0 
L 52.6875 0 
L 40.921875 44.828125 
L 29.109375 0 
L 18.5 0 
z
" id="DejaVuSans-119"/>
       <path d="M 41.109375 46.296875 
Q 39.59375 47.171875 37.8125 47.578125 
Q 36.03125 48 33.890625 48 
Q 26.265625 48 22.1875 43.046875 
Q 18.109375 38.09375 18.109375 28.8125 
L 18.109375 0 
L 9.078125 0 
L 9.078125 54.6875 
L 18.109375 54.6875 
L 18.109375 46.1875 
Q 20.953125 51.171875 25.484375 53.578125 
Q 30.03125 56 36.53125 56 
Q 37.453125 56 38.578125 55.875 
Q 39.703125 55.765625 41.0625 55.515625 
z
" id="DejaVuSans-114"/>
       <path d="M 52 44.1875 
Q 55.375 50.25 60.0625 53.125 
Q 64.75 56 71.09375 56 
Q 79.640625 56 84.28125 50.015625 
Q 88.921875 44.046875 88.921875 33.015625 
L 88.921875 0 
L 79.890625 0 
L 79.890625 32.71875 
Q 79.890625 40.578125 77.09375 44.375 
Q 74.3125 48.1875 68.609375 48.1875 
Q 61.625 48.1875 57.5625 43.546875 
Q 53.515625 38.921875 53.515625 30.90625 
L 53.515625 0 
L 44.484375 0 
L 44.484375 32.71875 
Q 44.484375 40.625 41.703125 44.40625 
Q 38.921875 48.1875 33.109375 48.1875 
Q 26.21875 48.1875 22.15625 43.53125 
Q 18.109375 38.875 18.109375 30.90625 
L 18.109375 0 
L 9.078125 0 
L 9.078125 54.6875 
L 18.109375 54.6875 
L 18.109375 46.1875 
Q 21.1875 51.21875 25.484375 53.609375 
Q 29.78125 56 35.6875 56 
Q 41.65625 56 45.828125 52.96875 
Q 50 49.953125 52 44.1875 
z
" id="DejaVuSans-109"/>
       <path d="M 44.28125 53.078125 
L 44.28125 44.578125 
Q 40.484375 46.53125 36.375 47.5 
Q 32.28125 48.484375 27.875 48.484375 
Q 21.1875 48.484375 17.84375 46.4375 
Q 14.5 44.390625 14.5 40.28125 
Q 14.5 37.15625 16.890625 35.375 
Q 19.28125 33.59375 26.515625 31.984375 
L 29.59375 31.296875 
Q 39.15625 29.25 43.1875 25.515625 
Q 47.21875 21.78125 47.21875 15.09375 
Q 47.21875 7.46875 41.1875 3.015625 
Q 35.15625 -1.421875 24.609375 -1.421875 
Q 20.21875 -1.421875 15.453125 -0.5625 
Q 10.6875 0.296875 5.421875 2 
L 5.421875 11.28125 
Q 10.40625 8.6875 15.234375 7.390625 
Q 20.0625 6.109375 24.8125 6.109375 
Q 31.15625 6.109375 34.5625 8.28125 
Q 37.984375 10.453125 37.984375 14.40625 
Q 37.984375 18.0625 35.515625 20.015625 
Q 33.0625 21.96875 24.703125 23.78125 
L 21.578125 24.515625 
Q 13.234375 26.265625 9.515625 29.90625 
Q 5.8125 33.546875 5.8125 39.890625 
Q 5.8125 47.609375 11.28125 51.796875 
Q 16.75 56 26.8125 56 
Q 31.78125 56 36.171875 55.265625 
Q 40.578125 54.546875 44.28125 53.078125 
z
" id="DejaVuSans-115"/>
      </defs>
      <use xlink:href="#DejaVuSans-67"/>
      <use x="69.824219" xlink:href="#DejaVuSans-111"/>
      <use x="131.005859" xlink:href="#DejaVuSans-110"/>
      <use x="194.384766" xlink:href="#DejaVuSans-100"/>
      <use x="257.861328" xlink:href="#DejaVuSans-105"/>
      <use x="285.644531" xlink:href="#DejaVuSans-116"/>
      <use x="324.853516" xlink:href="#DejaVuSans-105"/>
      <use x="352.636719" xlink:href="#DejaVuSans-111"/>
      <use x="413.818359" xlink:href="#DejaVuSans-110"/>
      <use x="477.197266" xlink:href="#DejaVuSans-105"/>
      <use x="504.980469" xlink:href="#DejaVuSans-110"/>
      <use x="568.359375" xlink:href="#DejaVuSans-103"/>
      <use x="631.835938" xlink:href="#DejaVuSans-32"/>
      <use x="663.623047" xlink:href="#DejaVuSans-40"/>
      <use x="702.636719" xlink:href="#DejaVuSans-67"/>
      <use x="772.460938" xlink:href="#DejaVuSans-67"/>
      <use x="842.285156" xlink:href="#DejaVuSans-41"/>
      <use x="881.298828" xlink:href="#DejaVuSans-44"/>
      <use x="913.085938" xlink:href="#DejaVuSans-32"/>
      <use x="944.873047" xlink:href="#DejaVuSans-110"/>
      <use x="1008.251953" xlink:href="#DejaVuSans-32"/>
      <use x="1040.039062" xlink:href="#DejaVuSans-61"/>
      <use x="1123.828125" xlink:href="#DejaVuSans-32"/>
      <use x="1155.615234" xlink:href="#DejaVuSans-49"/>
      <use x="1219.238281" xlink:href="#DejaVuSans-50"/>
      <use x="1282.861328" xlink:href="#DejaVuSans-32"/>
      <use x="1314.648438" xlink:href="#DejaVuSans-119"/>
      <use x="1396.435547" xlink:href="#DejaVuSans-111"/>
      <use x="1457.617188" xlink:href="#DejaVuSans-114"/>
      <use x="1496.980469" xlink:href="#DejaVuSans-109"/>
      <use x="1594.392578" xlink:href="#DejaVuSans-115"/>
     </g>
    </g>
    <g id="LineCollection_4">
     <path d="M 481.208125 56.614375 
L 481.208125 46.614375 
" style="fill:none;stroke:#d55e00;stroke-opacity:0.9;stroke-width:2.5;"/>
    </g>
    <g id="line2d_43">
     <g>
      <use style="fill:#d55e00;fill-opacity:0.9;stroke:#d55e00;stroke-opacity:0.9;stroke-width:1.5;" x="481.208125" xlink:href="#m31db4d7595" y="56.614375"/>
     </g>
    </g>
    <g id="line2d_44">
     <g>
      <use style="fill:#d55e00;fill-opacity:0.9;stroke:#d55e00;stroke-opacity:0.9;stroke-width:1.5;" x="481.208125" xlink:href="#m31db4d7595" y="46.614375"/>
     </g>
    </g>
    <g id="line2d_45">
     <path d="M 471.208125 51.614375 
L 491.208125 51.614375 
" style="fill:none;stroke:#d55e00;stroke-linecap:square;stroke-opacity:0.9;stroke-width:2.5;"/>
    </g>
    <g id="line2d_46">
     <defs>
      <path d="M 0 4 
C 1.060812 4 2.078319 3.578535 2.828427 2.828427 
C 3.578535 2.078319 4 1.060812 4 0 
C 4 -1.060812 3.578535 -2.078319 2.828427 -2.828427 
C 2.078319 -3.578535 1.060812 -4 0 -4 
C -1.060812 -4 -2.078319 -3.578535 -2.828427 -2.828427 
C -3.578535 -2.078319 -4 -1.060812 -4 0 
C -4 1.060812 -3.578535 2.078319 -2.828427 2.828427 
C -2.078319 3.578535 -1.060812 4 0 4 
z
" id="m619b51e8e5" style="stroke:#d55e00;stroke-opacity:0.9;stroke-width:1.5;"/>
     </defs>
     <g>
      <use style="fill:#d55e00;fill-opacity:0.9;stroke:#d55e00;stroke-opacity:0.9;stroke-width:1.5;" x="481.208125" xlink:href="#m619b51e8e5" y="51.614375"/>
     </g>
    </g>
    <g id="text_23">
     <!-- Pseudoconditioning (PC), n = 12 worms -->
     <g transform="translate(499.208125 55.114375)scale(0.1 -0.1)">
      <defs>
       <path d="M 19.671875 64.796875 
L 19.671875 37.40625 
L 32.078125 37.40625 
Q 38.96875 37.40625 42.71875 40.96875 
Q 46.484375 44.53125 46.484375 51.125 
Q 46.484375 57.671875 42.71875 61.234375 
Q 38.96875 64.796875 32.078125 64.796875 
z
M 9.8125 72.90625 
L 32.078125 72.90625 
Q 44.34375 72.90625 50.609375 67.359375 
Q 56.890625 61.8125 56.890625 51.125 
Q 56.890625 40.328125 50.609375 34.8125 
Q 44.34375 29.296875 32.078125 29.296875 
L 19.671875 29.296875 
L 19.671875 0 
L 9.8125 0 
z
" id="DejaVuSans-80"/>
       <path d="M 56.203125 29.59375 
L 56.203125 25.203125 
L 14.890625 25.203125 
Q 15.484375 15.921875 20.484375 11.0625 
Q 25.484375 6.203125 34.421875 6.203125 
Q 39.59375 6.203125 44.453125 7.46875 
Q 49.3125 8.734375 54.109375 11.28125 
L 54.109375 2.78125 
Q 49.265625 0.734375 44.1875 -0.34375 
Q 39.109375 -1.421875 33.890625 -1.421875 
Q 20.796875 -1.421875 13.15625 6.1875 
Q 5.515625 13.8125 5.515625 26.8125 
Q 5.515625 40.234375 12.765625 48.109375 
Q 20.015625 56 32.328125 56 
Q 43.359375 56 49.78125 48.890625 
Q 56.203125 41.796875 56.203125 29.59375 
z
M 47.21875 32.234375 
Q 47.125 39.59375 43.09375 43.984375 
Q 39.0625 48.390625 32.421875 48.390625 
Q 24.90625 48.390625 20.390625 44.140625 
Q 15.875 39.890625 15.1875 32.171875 
z
" id="DejaVuSans-101"/>
       <path d="M 8.5 21.578125 
L 8.5 54.6875 
L 17.484375 54.6875 
L 17.484375 21.921875 
Q 17.484375 14.15625 20.5 10.265625 
Q 23.53125 6.390625 29.59375 6.390625 
Q 36.859375 6.390625 41.078125 11.03125 
Q 45.3125 15.671875 45.3125 23.6875 
L 45.3125 54.6875 
L 54.296875 54.6875 
L 54.296875 0 
L 45.3125 0 
L 45.3125 8.40625 
Q 42.046875 3.421875 37.71875 1 
Q 33.40625 -1.421875 27.6875 -1.421875 
Q 18.265625 -1.421875 13.375 4.4375 
Q 8.5 10.296875 8.5 21.578125 
z
M 31.109375 56 
z
" id="DejaVuSans-117"/>
       <path d="M 48.78125 52.59375 
L 48.78125 44.1875 
Q 44.96875 46.296875 41.140625 47.34375 
Q 37.3125 48.390625 33.40625 48.390625 
Q 24.65625 48.390625 19.8125 42.84375 
Q 14.984375 37.3125 14.984375 27.296875 
Q 14.984375 17.28125 19.8125 11.734375 
Q 24.65625 6.203125 33.40625 6.203125 
Q 37.3125 6.203125 41.140625 7.25 
Q 44.96875 8.296875 48.78125 10.40625 
L 48.78125 2.09375 
Q 45.015625 0.34375 40.984375 -0.53125 
Q 36.96875 -1.421875 32.421875 -1.421875 
Q 20.0625 -1.421875 12.78125 6.34375 
Q 5.515625 14.109375 5.515625 27.296875 
Q 5.515625 40.671875 12.859375 48.328125 
Q 20.21875 56 33.015625 56 
Q 37.15625 56 41.109375 55.140625 
Q 45.0625 54.296875 48.78125 52.59375 
z
" id="DejaVuSans-99"/>
      </defs>
      <use xlink:href="#DejaVuSans-80"/>
      <use x="58.552734" xlink:href="#DejaVuSans-115"/>
      <use x="110.652344" xlink:href="#DejaVuSans-101"/>
      <use x="172.175781" xlink:href="#DejaVuSans-117"/>
      <use x="235.554688" xlink:href="#DejaVuSans-100"/>
      <use x="299.03125" xlink:href="#DejaVuSans-111"/>
      <use x="360.212891" xlink:href="#DejaVuSans-99"/>
      <use x="415.193359" xlink:href="#DejaVuSans-111"/>
      <use x="476.375" xlink:href="#DejaVuSans-110"/>
      <use x="539.753906" xlink:href="#DejaVuSans-100"/>
      <use x="603.230469" xlink:href="#DejaVuSans-105"/>
      <use x="631.013672" xlink:href="#DejaVuSans-116"/>
      <use x="670.222656" xlink:href="#DejaVuSans-105"/>
      <use x="698.005859" xlink:href="#DejaVuSans-111"/>
      <use x="759.1875" xlink:href="#DejaVuSans-110"/>
      <use x="822.566406" xlink:href="#DejaVuSans-105"/>
      <use x="850.349609" xlink:href="#DejaVuSans-110"/>
      <use x="913.728516" xlink:href="#DejaVuSans-103"/>
      <use x="977.205078" xlink:href="#DejaVuSans-32"/>
      <use x="1008.992188" xlink:href="#DejaVuSans-40"/>
      <use x="1048.005859" xlink:href="#DejaVuSans-80"/>
      <use x="1108.308594" xlink:href="#DejaVuSans-67"/>
      <use x="1178.132812" xlink:href="#DejaVuSans-41"/>
      <use x="1217.146484" xlink:href="#DejaVuSans-44"/>
      <use x="1248.933594" xlink:href="#DejaVuSans-32"/>
      <use x="1280.720703" xlink:href="#DejaVuSans-110"/>
      <use x="1344.099609" xlink:href="#DejaVuSans-32"/>
      <use x="1375.886719" xlink:href="#DejaVuSans-61"/>
      <use x="1459.675781" xlink:href="#DejaVuSans-32"/>
      <use x="1491.462891" xlink:href="#DejaVuSans-49"/>
      <use x="1555.085938" xlink:href="#DejaVuSans-50"/>
      <use x="1618.708984" xlink:href="#DejaVuSans-32"/>
      <use x="1650.496094" xlink:href="#DejaVuSans-119"/>
      <use x="1732.283203" xlink:href="#DejaVuSans-111"/>
      <use x="1793.464844" xlink:href="#DejaVuSans-114"/>
      <use x="1832.828125" xlink:href="#DejaVuSans-109"/>
      <use x="1930.240234" xlink:href="#DejaVuSans-115"/>
     </g>
    </g>
   </g>
   <g id="line2d_47">
    <path clip-path="url(#p1bec734e63)" d="M 72.793011 342.164072 
L 173.371799 333.830924 
L 273.950587 333.830924 
L 374.529375 365.496887 
L 475.108163 342.164072 
L 575.686951 363.830257 
L 676.265739 380.496553 
" style="fill:none;stroke:#0072b2;stroke-linecap:square;stroke-opacity:0.9;stroke-width:2.5;"/>
    <g clip-path="url(#p1bec734e63)">
     <use style="fill:#0072b2;fill-opacity:0.9;stroke:#0072b2;stroke-opacity:0.9;stroke-width:1.5;" x="72.793011" xlink:href="#m0528d24c40" y="342.164072"/>
     <use style="fill:#0072b2;fill-opacity:0.9;stroke:#0072b2;stroke-opacity:0.9;stroke-width:1.5;" x="173.371799" xlink:href="#m0528d24c40" y="333.830924"/>
     <use style="fill:#0072b2;fill-opacity:0.9;stroke:#0072b2;stroke-opacity:0.9;stroke-width:1.5;" x="273.950587" xlink:href="#m0528d24c40" y="333.830924"/>
     <use style="fill:#0072b2;fill-opacity:0.9;stroke:#0072b2;stroke-opacity:0.9;stroke-width:1.5;" x="374.529375" xlink:href="#m0528d24c40" y="365.496887"/>
     <use style="fill:#0072b2;fill-opacity:0.9;stroke:#0072b2;stroke-opacity:0.9;stroke-width:1.5;" x="475.108163" xlink:href="#m0528d24c40" y="342.164072"/>
     <use style="fill:#0072b2;fill-opacity:0.9;stroke:#0072b2;stroke-opacity:0.9;stroke-width:1.5;" x="575.686951" xlink:href="#m0528d24c40" y="363.830257"/>
     <use style="fill:#0072b2;fill-opacity:0.9;stroke:#0072b2;stroke-opacity:0.9;stroke-width:1.5;" x="676.265739" xlink:href="#m0528d24c40" y="380.496553"/>
    </g>
   </g>
   <g id="line2d_48">
    <path clip-path="url(#p1bec734e63)" d="M 72.793011 338.830812 
L 173.371799 360.496998 
L 273.950587 345.497331 
L 374.529375 375.496664 
L 475.108163 363.830257 
L 575.686951 365.496887 
L 676.265739 373.830035 
" style="fill:none;stroke:#d55e00;stroke-linecap:square;stroke-opacity:0.9;stroke-width:2.5;"/>
    <g clip-path="url(#p1bec734e63)">
     <use style="fill:#d55e00;fill-opacity:0.9;stroke:#d55e00;stroke-opacity:0.9;stroke-width:1.5;" x="72.793011" xlink:href="#m619b51e8e5" y="338.830812"/>
     <use style="fill:#d55e00;fill-opacity:0.9;stroke:#d55e00;stroke-opacity:0.9;stroke-width:1.5;" x="173.371799" xlink:href="#m619b51e8e5" y="360.496998"/>
     <use style="fill:#d55e00;fill-opacity:0.9;stroke:#d55e00;stroke-opacity:0.9;stroke-width:1.5;" x="273.950587" xlink:href="#m619b51e8e5" y="345.497331"/>
     <use style="fill:#d55e00;fill-opacity:0.9;stroke:#d55e00;stroke-opacity:0.9;stroke-width:1.5;" x="374.529375" xlink:href="#m619b51e8e5" y="375.496664"/>
     <use style="fill:#d55e00;fill-opacity:0.9;stroke:#d55e00;stroke-opacity:0.9;stroke-width:1.5;" x="475.108163" xlink:href="#m619b51e8e5" y="363.830257"/>
     <use style="fill:#d55e00;fill-opacity:0.9;stroke:#d55e00;stroke-opacity:0.9;stroke-width:1.5;" x="575.686951" xlink:href="#m619b51e8e5" y="365.496887"/>
     <use style="fill:#d55e00;fill-opacity:0.9;stroke:#d55e00;stroke-opacity:0.9;stroke-width:1.5;" x="676.265739" xlink:href="#m619b51e8e5" y="373.830035"/>
    </g>
   </g>
  </g>
 </g>
 <defs>
  <clipPath id="p1bec734e63">
   <rect height="359.992" width="663.82" x="42.619375" y="23.837812"/>
  </clipPath>
 </defs>
</svg>
