<?xml version="1.0" encoding="utf-8" standalone="no"?>
<!DOCTYPE svg PUBLIC "-//W3C//DTD SVG 1.1//EN"
  "http://www.w3.org/Graphics/SVG/1.1/DTD/svg11.dtd">
<!-- Created with matplotlib (https://matplotlib.org/) -->
<svg height="425.049687pt" version="1.1" viewBox="0 0 713.6525 425.049687" width="713.6525pt" xmlns="http://www.w3.org/2000/svg" xmlns:xlink="http://www.w3.org/1999/xlink">
 <metadata>
  <rdf:RDF xmlns:cc="http://creativecommons.org/ns#" xmlns:dc="http://purl.org/dc/elements/1.1/" xmlns:rdf="http://www.w3.org/1999/02/22-rdf-syntax-ns#">
   <cc:Work>
    <dc:type rdf:resource="http://purl.org/dc/dcmitype/StillImage"/>
    <dc:date>2026-04-16T18:31:18.936738</dc:date>
    <dc:format>image/svg+xml</dc:format>
    <dc:creator>
     <cc:Agent>
      <dc:title>Matplotlib v3.3.2, https://matplotlib.org/</dc:title>
     </cc:Agent>
    </dc:creator>
   </cc:Work>
  </rdf:RDF>
 </metadata>
 <defs>
  <style type="text/css">*{stroke-linecap:butt;stroke-linejoin:round;}</style>
 </defs>
 <g id="figure_1">
  <g id="patch_1">
   <path d="M 0 425.049687 
L 713.6525 425.049687 
L 713.6525 0 
L 0 0 
z
" style="fill:#ffffff;"/>
  </g>
  <g id="axes_1">
   <g id="patch_2">
    <path d="M 42.6325 385.557812 
L 706.4525 385.557812 
L 706.4525 23.837812 
L 42.6325 23.837812 
z
" style="fill:#ffffff;"/>
   </g>
   <g id="line2d_1">
    <path clip-path="url(#pcb4cf8a232)" d="M 72.806136 354.740341 
L 273.963712 361.176974 
L 475.121288 320.924789 
L 676.278864 286.908109 
" style="fill:none;stroke:#1f4788;stroke-linecap:square;stroke-opacity:0.35;stroke-width:2;"/>
    <defs>
     <path d="M 0 2 
C 0.530406 2 1.03916 1.789267 1.414214 1.414214 
C 1.789267 1.03916 2 0.530406 2 0 
C 2 -0.530406 1.789267 -1.03916 1.414214 -1.414214 
C 1.03916 -1.789267 0.530406 -2 0 -2 
C -0.530406 -2 -1.03916 -1.789267 -1.414214 -1.414214 
C -1.789267 -1.03916 -2 -0.530406 -2 0 
C -2 0.530406 -1.789267 1.03916 -1.414214 1.414214 
C -1.03916 1.789267 -0.530406 2 0 2 
z
" id="mf0d283b7bf" style="stroke:#1f4788;stroke-opacity:0.35;"/>
    </defs>
    <g clip-path="url(#pcb4cf8a232)">
     <use style="fill:#1f4788;fill-opacity:0.35;stroke:#1f4788;stroke-opacity:0.35;" x="72.806136" xlink:href="#mf0d283b7bf" y="354.740341"/>
     <use style="fill:#1f4788;fill-opacity:0.35;stroke:#1f4788;stroke-opacity:0.35;" x="273.963712" xlink:href="#mf0d283b7bf" y="361.176974"/>
     <use style="fill:#1f4788;fill-opacity:0.35;stroke:#1f4788;stroke-opacity:0.35;" x="475.121288" xlink:href="#mf0d283b7bf" y="320.924789"/>
     <use style="fill:#1f4788;fill-opacity:0.35;stroke:#1f4788;stroke-opacity:0.35;" x="676.278864" xlink:href="#mf0d283b7bf" y="286.908109"/>
    </g>
   </g>
   <g id="line2d_2">
    <path clip-path="url(#pcb4cf8a232)" d="M 72.806136 340.26527 
L 273.963712 297.216894 
L 475.121288 329.20752 
L 676.278864 295.733331 
" style="fill:none;stroke:#1f4788;stroke-linecap:square;stroke-opacity:0.35;stroke-width:2;"/>
    <g clip-path="url(#pcb4cf8a232)">
     <use style="fill:#1f4788;fill-opacity:0.35;stroke:#1f4788;stroke-opacity:0.35;" x="72.806136" xlink:href="#mf0d283b7bf" y="340.26527"/>
     <use style="fill:#1f4788;fill-opacity:0.35;stroke:#1f4788;stroke-opacity:0.35;" x="273.963712" xlink:href="#mf0d283b7bf" y="297.216894"/>
     <use style="fill:#1f4788;fill-opacity:0.35;stroke:#1f4788;stroke-opacity:0.35;" x="475.121288" xlink:href="#mf0d283b7bf" y="329.20752"/>
     <use style="fill:#1f4788;fill-opacity:0.35;stroke:#1f4788;stroke-opacity:0.35;" x="676.278864" xlink:href="#mf0d283b7bf" y="295.733331"/>
    </g>
   </g>
   <g id="line2d_3">
    <path clip-path="url(#pcb4cf8a232)" d="M 72.806136 361.061595 
L 273.963712 296.43415 
L 475.121288 312.406715 
L 676.278864 329.886214 
" style="fill:none;stroke:#1f4788;stroke-linecap:square;stroke-opacity:0.35;stroke-width:2;"/>
    <g clip-path="url(#pcb4cf8a232)">
     <use style="fill:#1f4788;fill-opacity:0.35;stroke:#1f4788;stroke-opacity:0.35;" x="72.806136" xlink:href="#mf0d283b7bf" y="361.061595"/>
     <use style="fill:#1f4788;fill-opacity:0.35;stroke:#1f4788;stroke-opacity:0.35;" x="273.963712" xlink:href="#mf0d283b7bf" y="296.43415"/>
     <use style="fill:#1f4788;fill-opacity:0.35;stroke:#1f4788;stroke-opacity:0.35;" x="475.121288" xlink:href="#mf0d283b7bf" y="312.406715"/>
     <use style="fill:#1f4788;fill-opacity:0.35;stroke:#1f4788;stroke-opacity:0.35;" x="676.278864" xlink:href="#mf0d283b7bf" y="329.886214"/>
    </g>
   </g>
   <g id="line2d_4">
    <path clip-path="url(#pcb4cf8a232)" d="M 72.806136 293.527162 
L 273.963712 278.428833 
L 475.121288 338.278799 
L 676.278864 340.099051 
" style="fill:none;stroke:#1f4788;stroke-linecap:square;stroke-opacity:0.35;stroke-width:2;"/>
    <g clip-path="url(#pcb4cf8a232)">
     <use style="fill:#1f4788;fill-opacity:0.35;stroke:#1f4788;stroke-opacity:0.35;" x="72.806136" xlink:href="#mf0d283b7bf" y="293.527162"/>
     <use style="fill:#1f4788;fill-opacity:0.35;stroke:#1f4788;stroke-opacity:0.35;" x="273.963712" xlink:href="#mf0d283b7bf" y="278.428833"/>
     <use style="fill:#1f4788;fill-opacity:0.35;stroke:#1f4788;stroke-opacity:0.35;" x="475.121288" xlink:href="#mf0d283b7bf" y="338.278799"/>
     <use style="fill:#1f4788;fill-opacity:0.35;stroke:#1f4788;stroke-opacity:0.35;" x="676.278864" xlink:href="#mf0d283b7bf" y="340.099051"/>
    </g>
   </g>
   <g id="line2d_5">
    <path clip-path="url(#pcb4cf8a232)" d="M 72.806136 362.80646 
L 273.963712 275.027745 
L 475.121288 277.836054 
L 676.278864 285.76294 
" style="fill:none;stroke:#1f4788;stroke-linecap:square;stroke-opacity:0.35;stroke-width:2;"/>
    <g clip-path="url(#pcb4cf8a232)">
     <use style="fill:#1f4788;fill-opacity:0.35;stroke:#1f4788;stroke-opacity:0.35;" x="72.806136" xlink:href="#mf0d283b7bf" y="362.80646"/>
     <use style="fill:#1f4788;fill-opacity:0.35;stroke:#1f4788;stroke-opacity:0.35;" x="273.963712" xlink:href="#mf0d283b7bf" y="275.027745"/>
     <use style="fill:#1f4788;fill-opacity:0.35;stroke:#1f4788;stroke-opacity:0.35;" x="475.121288" xlink:href="#mf0d283b7bf" y="277.836054"/>
     <use style="fill:#1f4788;fill-opacity:0.35;stroke:#1f4788;stroke-opacity:0.35;" x="676.278864" xlink:href="#mf0d283b7bf" y="285.76294"/>
    </g>
   </g>
   <g id="line2d_6">
    <path clip-path="url(#pcb4cf8a232)" d="M 72.806136 326.083933 
L 273.963712 342.619219 
L 475.121288 211.784707 
L 676.278864 276.88075 
" style="fill:none;stroke:#1f4788;stroke-linecap:square;stroke-opacity:0.35;stroke-width:2;"/>
    <g clip-path="url(#pcb4cf8a232)">
     <use style="fill:#1f4788;fill-opacity:0.35;stroke:#1f4788;stroke-opacity:0.35;" x="72.806136" xlink:href="#mf0d283b7bf" y="326.083933"/>
     <use style="fill:#1f4788;fill-opacity:0.35;stroke:#1f4788;stroke-opacity:0.35;" x="273.963712" xlink:href="#mf0d283b7bf" y="342.619219"/>
     <use style="fill:#1f4788;fill-opacity:0.35;stroke:#1f4788;stroke-opacity:0.35;" x="475.121288" xlink:href="#mf0d283b7bf" y="211.784707"/>
     <use style="fill:#1f4788;fill-opacity:0.35;stroke:#1f4788;stroke-opacity:0.35;" x="676.278864" xlink:href="#mf0d283b7bf" y="276.88075"/>
    </g>
   </g>
   <g id="line2d_7">
    <path clip-path="url(#pcb4cf8a232)" d="M 72.806136 336.480064 
L 273.963712 320.577648 
L 475.121288 331.049686 
L 676.278864 357.919526 
" style="fill:none;stroke:#1f4788;stroke-linecap:square;stroke-opacity:0.35;stroke-width:2;"/>
    <g clip-path="url(#pcb4cf8a232)">
     <use style="fill:#1f4788;fill-opacity:0.35;stroke:#1f4788;stroke-opacity:0.35;" x="72.806136" xlink:href="#mf0d283b7bf" y="336.480064"/>
     <use style="fill:#1f4788;fill-opacity:0.35;stroke:#1f4788;stroke-opacity:0.35;" x="273.963712" xlink:href="#mf0d283b7bf" y="320.577648"/>
     <use style="fill:#1f4788;fill-opacity:0.35;stroke:#1f4788;stroke-opacity:0.35;" x="475.121288" xlink:href="#mf0d283b7bf" y="331.049686"/>
     <use style="fill:#1f4788;fill-opacity:0.35;stroke:#1f4788;stroke-opacity:0.35;" x="676.278864" xlink:href="#mf0d283b7bf" y="357.919526"/>
    </g>
   </g>
   <g id="line2d_8">
    <path clip-path="url(#pcb4cf8a232)" d="M 72.806136 325.473602 
L 273.963712 305.630182 
L 475.121288 331.010074 
L 676.278864 261.569841 
" style="fill:none;stroke:#1f4788;stroke-linecap:square;stroke-opacity:0.35;stroke-width:2;"/>
    <g clip-path="url(#pcb4cf8a232)">
     <use style="fill:#1f4788;fill-opacity:0.35;stroke:#1f4788;stroke-opacity:0.35;" x="72.806136" xlink:href="#mf0d283b7bf" y="325.473602"/>
     <use style="fill:#1f4788;fill-opacity:0.35;stroke:#1f4788;stroke-opacity:0.35;" x="273.963712" xlink:href="#mf0d283b7bf" y="305.630182"/>
     <use style="fill:#1f4788;fill-opacity:0.35;stroke:#1f4788;stroke-opacity:0.35;" x="475.121288" xlink:href="#mf0d283b7bf" y="331.010074"/>
     <use style="fill:#1f4788;fill-opacity:0.35;stroke:#1f4788;stroke-opacity:0.35;" x="676.278864" xlink:href="#mf0d283b7bf" y="261.569841"/>
    </g>
   </g>
   <g id="line2d_9">
    <path clip-path="url(#pcb4cf8a232)" d="M 72.806136 347.995766 
L 273.963712 361.259739 
L 475.121288 308.947266 
L 676.278864 340.400065 
" style="fill:none;stroke:#1f4788;stroke-linecap:square;stroke-opacity:0.35;stroke-width:2;"/>
    <g clip-path="url(#pcb4cf8a232)">
     <use style="fill:#1f4788;fill-opacity:0.35;stroke:#1f4788;stroke-opacity:0.35;" x="72.806136" xlink:href="#mf0d283b7bf" y="347.995766"/>
     <use style="fill:#1f4788;fill-opacity:0.35;stroke:#1f4788;stroke-opacity:0.35;" x="273.963712" xlink:href="#mf0d283b7bf" y="361.259739"/>
     <use style="fill:#1f4788;fill-opacity:0.35;stroke:#1f4788;stroke-opacity:0.35;" x="475.121288" xlink:href="#mf0d283b7bf" y="308.947266"/>
     <use style="fill:#1f4788;fill-opacity:0.35;stroke:#1f4788;stroke-opacity:0.35;" x="676.278864" xlink:href="#mf0d283b7bf" y="340.400065"/>
    </g>
   </g>
   <g id="line2d_10">
    <path clip-path="url(#pcb4cf8a232)" d="M 72.806136 345.346809 
L 273.963712 354.670026 
L 475.121288 347.502914 
L 676.278864 351.640123 
" style="fill:none;stroke:#1f4788;stroke-linecap:square;stroke-opacity:0.35;stroke-width:2;"/>
    <g clip-path="url(#pcb4cf8a232)">
     <use style="fill:#1f4788;fill-opacity:0.35;stroke:#1f4788;stroke-opacity:0.35;" x="72.806136" xlink:href="#mf0d283b7bf" y="345.346809"/>
     <use style="fill:#1f4788;fill-opacity:0.35;stroke:#1f4788;stroke-opacity:0.35;" x="273.963712" xlink:href="#mf0d283b7bf" y="354.670026"/>
     <use style="fill:#1f4788;fill-opacity:0.35;stroke:#1f4788;stroke-opacity:0.35;" x="475.121288" xlink:href="#mf0d283b7bf" y="347.502914"/>
     <use style="fill:#1f4788;fill-opacity:0.35;stroke:#1f4788;stroke-opacity:0.35;" x="676.278864" xlink:href="#mf0d283b7bf" y="351.640123"/>
    </g>
   </g>
   <g id="line2d_11">
    <path clip-path="url(#pcb4cf8a232)" d="M 72.806136 342.822473 
L 273.963712 299.98621 
L 475.121288 218.816838 
L 676.278864 334.605312 
" style="fill:none;stroke:#1f4788;stroke-linecap:square;stroke-opacity:0.35;stroke-width:2;"/>
    <g clip-path="url(#pcb4cf8a232)">
     <use style="fill:#1f4788;fill-opacity:0.35;stroke:#1f4788;stroke-opacity:0.35;" x="72.806136" xlink:href="#mf0d283b7bf" y="342.822473"/>
     <use style="fill:#1f4788;fill-opacity:0.35;stroke:#1f4788;stroke-opacity:0.35;" x="273.963712" xlink:href="#mf0d283b7bf" y="299.98621"/>
     <use style="fill:#1f4788;fill-opacity:0.35;stroke:#1f4788;stroke-opacity:0.35;" x="475.121288" xlink:href="#mf0d283b7bf" y="218.816838"/>
     <use style="fill:#1f4788;fill-opacity:0.35;stroke:#1f4788;stroke-opacity:0.35;" x="676.278864" xlink:href="#mf0d283b7bf" y="334.605312"/>
    </g>
   </g>
   <g id="line2d_12">
    <path clip-path="url(#pcb4cf8a232)" d="M 72.806136 355.444272 
L 273.963712 329.760547 
L 475.121288 345.911615 
L 676.278864 277.818067 
" style="fill:none;stroke:#1f4788;stroke-linecap:square;stroke-opacity:0.35;stroke-width:2;"/>
    <g clip-path="url(#pcb4cf8a232)">
     <use style="fill:#1f4788;fill-opacity:0.35;stroke:#1f4788;stroke-opacity:0.35;" x="72.806136" xlink:href="#mf0d283b7bf" y="355.444272"/>
     <use style="fill:#1f4788;fill-opacity:0.35;stroke:#1f4788;stroke-opacity:0.35;" x="273.963712" xlink:href="#mf0d283b7bf" y="329.760547"/>
     <use style="fill:#1f4788;fill-opacity:0.35;stroke:#1f4788;stroke-opacity:0.35;" x="475.121288" xlink:href="#mf0d283b7bf" y="345.911615"/>
     <use style="fill:#1f4788;fill-opacity:0.35;stroke:#1f4788;stroke-opacity:0.35;" x="676.278864" xlink:href="#mf0d283b7bf" y="277.818067"/>
    </g>
   </g>
   <g id="line2d_13">
    <path clip-path="url(#pcb4cf8a232)" d="M 72.806136 317.420623 
L 273.963712 199.976428 
L 475.121288 236.875594 
L 676.278864 243.28295 
" style="fill:none;stroke:#9e778a;stroke-linecap:square;stroke-opacity:0.35;stroke-width:2;"/>
    <defs>
     <path d="M 0 2 
C 0.530406 2 1.03916 1.789267 1.414214 1.414214 
C 1.789267 1.03916 2 0.530406 2 0 
C 2 -0.530406 1.789267 -1.03916 1.414214 -1.414214 
C 1.03916 -1.789267 0.530406 -2 0 -2 
C -0.530406 -2 -1.03916 -1.789267 -1.414214 -1.414214 
C -1.789267 -1.03916 -2 -0.530406 -2 0 
C -2 0.530406 -1.789267 1.03916 -1.414214 1.414214 
C -1.03916 1.789267 -0.530406 2 0 2 
z
" id="m6503826399" style="stroke:#9e778a;stroke-opacity:0.35;"/>
    </defs>
    <g clip-path="url(#pcb4cf8a232)">
     <use style="fill:#9e778a;fill-opacity:0.35;stroke:#9e778a;stroke-opacity:0.35;" x="72.806136" xlink:href="#m6503826399" y="317.420623"/>
     <use style="fill:#9e778a;fill-opacity:0.35;stroke:#9e778a;stroke-opacity:0.35;" x="273.963712" xlink:href="#m6503826399" y="199.976428"/>
     <use style="fill:#9e778a;fill-opacity:0.35;stroke:#9e778a;stroke-opacity:0.35;" x="475.121288" xlink:href="#m6503826399" y="236.875594"/>
     <use style="fill:#9e778a;fill-opacity:0.35;stroke:#9e778a;stroke-opacity:0.35;" x="676.278864" xlink:href="#m6503826399" y="243.28295"/>
    </g>
   </g>
   <g id="line2d_14">
    <path clip-path="url(#pcb4cf8a232)" d="M 72.806136 189.037345 
L 273.963712 267.413341 
L 475.121288 279.899275 
L 676.278864 351.092745 
" style="fill:none;stroke:#9e778a;stroke-linecap:square;stroke-opacity:0.35;stroke-width:2;"/>
    <g clip-path="url(#pcb4cf8a232)">
     <use style="fill:#9e778a;fill-opacity:0.35;stroke:#9e778a;stroke-opacity:0.35;" x="72.806136" xlink:href="#m6503826399" y="189.037345"/>
     <use style="fill:#9e778a;fill-opacity:0.35;stroke:#9e778a;stroke-opacity:0.35;" x="273.963712" xlink:href="#m6503826399" y="267.413341"/>
     <use style="fill:#9e778a;fill-opacity:0.35;stroke:#9e778a;stroke-opacity:0.35;" x="475.121288" xlink:href="#m6503826399" y="279.899275"/>
     <use style="fill:#9e778a;fill-opacity:0.35;stroke:#9e778a;stroke-opacity:0.35;" x="676.278864" xlink:href="#m6503826399" y="351.092745"/>
    </g>
   </g>
   <g id="line2d_15">
    <path clip-path="url(#pcb4cf8a232)" d="M 72.806136 349.292066 
L 273.963712 316.161113 
L 475.121288 288.423822 
L 676.278864 258.215214 
" style="fill:none;stroke:#9e778a;stroke-linecap:square;stroke-opacity:0.35;stroke-width:2;"/>
    <g clip-path="url(#pcb4cf8a232)">
     <use style="fill:#9e778a;fill-opacity:0.35;stroke:#9e778a;stroke-opacity:0.35;" x="72.806136" xlink:href="#m6503826399" y="349.292066"/>
     <use style="fill:#9e778a;fill-opacity:0.35;stroke:#9e778a;stroke-opacity:0.35;" x="273.963712" xlink:href="#m6503826399" y="316.161113"/>
     <use style="fill:#9e778a;fill-opacity:0.35;stroke:#9e778a;stroke-opacity:0.35;" x="475.121288" xlink:href="#m6503826399" y="288.423822"/>
     <use style="fill:#9e778a;fill-opacity:0.35;stroke:#9e778a;stroke-opacity:0.35;" x="676.278864" xlink:href="#m6503826399" y="258.215214"/>
    </g>
   </g>
   <g id="line2d_16">
    <path clip-path="url(#pcb4cf8a232)" d="M 72.806136 285.549925 
L 273.963712 207.976128 
L 475.121288 335.614001 
L 676.278864 315.76522 
" style="fill:none;stroke:#9e778a;stroke-linecap:square;stroke-opacity:0.35;stroke-width:2;"/>
    <g clip-path="url(#pcb4cf8a232)">
     <use style="fill:#9e778a;fill-opacity:0.35;stroke:#9e778a;stroke-opacity:0.35;" x="72.806136" xlink:href="#m6503826399" y="285.549925"/>
     <use style="fill:#9e778a;fill-opacity:0.35;stroke:#9e778a;stroke-opacity:0.35;" x="273.963712" xlink:href="#m6503826399" y="207.976128"/>
     <use style="fill:#9e778a;fill-opacity:0.35;stroke:#9e778a;stroke-opacity:0.35;" x="475.121288" xlink:href="#m6503826399" y="335.614001"/>
     <use style="fill:#9e778a;fill-opacity:0.35;stroke:#9e778a;stroke-opacity:0.35;" x="676.278864" xlink:href="#m6503826399" y="315.76522"/>
    </g>
   </g>
   <g id="line2d_17">
    <path clip-path="url(#pcb4cf8a232)" d="M 72.806136 309.317118 
L 273.963712 358.315819 
L 475.121288 290.103214 
L 676.278864 281.94747 
" style="fill:none;stroke:#9e778a;stroke-linecap:square;stroke-opacity:0.35;stroke-width:2;"/>
    <g clip-path="url(#pcb4cf8a232)">
     <use style="fill:#9e778a;fill-opacity:0.35;stroke:#9e778a;stroke-opacity:0.35;" x="72.806136" xlink:href="#m6503826399" y="309.317118"/>
     <use style="fill:#9e778a;fill-opacity:0.35;stroke:#9e778a;stroke-opacity:0.35;" x="273.963712" xlink:href="#m6503826399" y="358.315819"/>
     <use style="fill:#9e778a;fill-opacity:0.35;stroke:#9e778a;stroke-opacity:0.35;" x="475.121288" xlink:href="#m6503826399" y="290.103214"/>
     <use style="fill:#9e778a;fill-opacity:0.35;stroke:#9e778a;stroke-opacity:0.35;" x="676.278864" xlink:href="#m6503826399" y="281.94747"/>
    </g>
   </g>
   <g id="line2d_18">
    <path clip-path="url(#pcb4cf8a232)" d="M 72.806136 40.279631 
L 273.963712 295.207053 
L 475.121288 368.261805 
L 676.278864 274.020016 
" style="fill:none;stroke:#9e778a;stroke-linecap:square;stroke-opacity:0.35;stroke-width:2;"/>
    <g clip-path="url(#pcb4cf8a232)">
     <use style="fill:#9e778a;fill-opacity:0.35;stroke:#9e778a;stroke-opacity:0.35;" x="72.806136" xlink:href="#m6503826399" y="40.279631"/>
     <use style="fill:#9e778a;fill-opacity:0.35;stroke:#9e778a;stroke-opacity:0.35;" x="273.963712" xlink:href="#m6503826399" y="295.207053"/>
     <use style="fill:#9e778a;fill-opacity:0.35;stroke:#9e778a;stroke-opacity:0.35;" x="475.121288" xlink:href="#m6503826399" y="368.261805"/>
     <use style="fill:#9e778a;fill-opacity:0.35;stroke:#9e778a;stroke-opacity:0.35;" x="676.278864" xlink:href="#m6503826399" y="274.020016"/>
    </g>
   </g>
   <g id="line2d_19">
    <path clip-path="url(#pcb4cf8a232)" d="M 72.806136 302.297505 
L 273.963712 302.726276 
L 475.121288 269.29348 
L 676.278864 282.127978 
" style="fill:none;stroke:#9e778a;stroke-linecap:square;stroke-opacity:0.35;stroke-width:2;"/>
    <g clip-path="url(#pcb4cf8a232)">
     <use style="fill:#9e778a;fill-opacity:0.35;stroke:#9e778a;stroke-opacity:0.35;" x="72.806136" xlink:href="#m6503826399" y="302.297505"/>
     <use style="fill:#9e778a;fill-opacity:0.35;stroke:#9e778a;stroke-opacity:0.35;" x="273.963712" xlink:href="#m6503826399" y="302.726276"/>
     <use style="fill:#9e778a;fill-opacity:0.35;stroke:#9e778a;stroke-opacity:0.35;" x="475.121288" xlink:href="#m6503826399" y="269.29348"/>
     <use style="fill:#9e778a;fill-opacity:0.35;stroke:#9e778a;stroke-opacity:0.35;" x="676.278864" xlink:href="#m6503826399" y="282.127978"/>
    </g>
   </g>
   <g id="line2d_20">
    <path clip-path="url(#pcb4cf8a232)" d="M 72.806136 320.143262 
L 273.963712 307.700404 
L 475.121288 281.759979 
L 676.278864 239.818874 
" style="fill:none;stroke:#9e778a;stroke-linecap:square;stroke-opacity:0.35;stroke-width:2;"/>
    <g clip-path="url(#pcb4cf8a232)">
     <use style="fill:#9e778a;fill-opacity:0.35;stroke:#9e778a;stroke-opacity:0.35;" x="72.806136" xlink:href="#m6503826399" y="320.143262"/>
     <use style="fill:#9e778a;fill-opacity:0.35;stroke:#9e778a;stroke-opacity:0.35;" x="273.963712" xlink:href="#m6503826399" y="307.700404"/>
     <use style="fill:#9e778a;fill-opacity:0.35;stroke:#9e778a;stroke-opacity:0.35;" x="475.121288" xlink:href="#m6503826399" y="281.759979"/>
     <use style="fill:#9e778a;fill-opacity:0.35;stroke:#9e778a;stroke-opacity:0.35;" x="676.278864" xlink:href="#m6503826399" y="239.818874"/>
    </g>
   </g>
   <g id="line2d_21">
    <path clip-path="url(#pcb4cf8a232)" d="M 72.806136 275.858709 
L 273.963712 318.71228 
L 475.121288 249.536847 
L 676.278864 309.402025 
" style="fill:none;stroke:#9e778a;stroke-linecap:square;stroke-opacity:0.35;stroke-width:2;"/>
    <g clip-path="url(#pcb4cf8a232)">
     <use style="fill:#9e778a;fill-opacity:0.35;stroke:#9e778a;stroke-opacity:0.35;" x="72.806136" xlink:href="#m6503826399" y="275.858709"/>
     <use style="fill:#9e778a;fill-opacity:0.35;stroke:#9e778a;stroke-opacity:0.35;" x="273.963712" xlink:href="#m6503826399" y="318.71228"/>
     <use style="fill:#9e778a;fill-opacity:0.35;stroke:#9e778a;stroke-opacity:0.35;" x="475.121288" xlink:href="#m6503826399" y="249.536847"/>
     <use style="fill:#9e778a;fill-opacity:0.35;stroke:#9e778a;stroke-opacity:0.35;" x="676.278864" xlink:href="#m6503826399" y="309.402025"/>
    </g>
   </g>
   <g id="line2d_22">
    <path clip-path="url(#pcb4cf8a232)" d="M 72.806136 335.347179 
L 273.963712 306.361759 
L 475.121288 317.172138 
L 676.278864 291.434383 
" style="fill:none;stroke:#9e778a;stroke-linecap:square;stroke-opacity:0.35;stroke-width:2;"/>
    <g clip-path="url(#pcb4cf8a232)">
     <use style="fill:#9e778a;fill-opacity:0.35;stroke:#9e778a;stroke-opacity:0.35;" x="72.806136" xlink:href="#m6503826399" y="335.347179"/>
     <use style="fill:#9e778a;fill-opacity:0.35;stroke:#9e778a;stroke-opacity:0.35;" x="273.963712" xlink:href="#m6503826399" y="306.361759"/>
     <use style="fill:#9e778a;fill-opacity:0.35;stroke:#9e778a;stroke-opacity:0.35;" x="475.121288" xlink:href="#m6503826399" y="317.172138"/>
     <use style="fill:#9e778a;fill-opacity:0.35;stroke:#9e778a;stroke-opacity:0.35;" x="676.278864" xlink:href="#m6503826399" y="291.434383"/>
    </g>
   </g>
   <g id="line2d_23">
    <path clip-path="url(#pcb4cf8a232)" d="M 72.806136 328.208865 
L 273.963712 255.570643 
L 475.121288 189.489552 
L 676.278864 323.798928 
" style="fill:none;stroke:#9e778a;stroke-linecap:square;stroke-opacity:0.35;stroke-width:2;"/>
    <g clip-path="url(#pcb4cf8a232)">
     <use style="fill:#9e778a;fill-opacity:0.35;stroke:#9e778a;stroke-opacity:0.35;" x="72.806136" xlink:href="#m6503826399" y="328.208865"/>
     <use style="fill:#9e778a;fill-opacity:0.35;stroke:#9e778a;stroke-opacity:0.35;" x="273.963712" xlink:href="#m6503826399" y="255.570643"/>
     <use style="fill:#9e778a;fill-opacity:0.35;stroke:#9e778a;stroke-opacity:0.35;" x="475.121288" xlink:href="#m6503826399" y="189.489552"/>
     <use style="fill:#9e778a;fill-opacity:0.35;stroke:#9e778a;stroke-opacity:0.35;" x="676.278864" xlink:href="#m6503826399" y="323.798928"/>
    </g>
   </g>
   <g id="line2d_24">
    <path clip-path="url(#pcb4cf8a232)" d="M 72.806136 296.216279 
L 273.963712 369.115994 
L 475.121288 272.005582 
L 676.278864 272.61545 
" style="fill:none;stroke:#9e778a;stroke-linecap:square;stroke-opacity:0.35;stroke-width:2;"/>
    <g clip-path="url(#pcb4cf8a232)">
     <use style="fill:#9e778a;fill-opacity:0.35;stroke:#9e778a;stroke-opacity:0.35;" x="72.806136" xlink:href="#m6503826399" y="296.216279"/>
     <use style="fill:#9e778a;fill-opacity:0.35;stroke:#9e778a;stroke-opacity:0.35;" x="273.963712" xlink:href="#m6503826399" y="369.115994"/>
     <use style="fill:#9e778a;fill-opacity:0.35;stroke:#9e778a;stroke-opacity:0.35;" x="475.121288" xlink:href="#m6503826399" y="272.005582"/>
     <use style="fill:#9e778a;fill-opacity:0.35;stroke:#9e778a;stroke-opacity:0.35;" x="676.278864" xlink:href="#m6503826399" y="272.61545"/>
    </g>
   </g>
   <g id="matplotlib.axis_1">
    <g id="xtick_1">
     <g id="line2d_25">
      <path clip-path="url(#pcb4cf8a232)" d="M 72.806136 385.557812 
L 72.806136 23.837812 
" style="fill:none;stroke:#b0b0b0;stroke-linecap:square;stroke-opacity:0.3;stroke-width:0.8;"/>
     </g>
     <g id="line2d_26">
      <defs>
       <path d="M 0 0 
L 0 3.5 
" id="m6ebd4cdece" style="stroke:#000000;stroke-width:0.8;"/>
      </defs>
      <g>
       <use style="stroke:#000000;stroke-width:0.8;" x="72.806136" xlink:href="#m6ebd4cdece" y="385.557812"/>
      </g>
     </g>
     <g id="text_1">
      <!-- 1 -->
      <g transform="translate(69.624886 400.15625)scale(0.1 -0.1)">
       <defs>
        <path d="M 12.40625 8.296875 
L 28.515625 8.296875 
L 28.515625 63.921875 
L 10.984375 60.40625 
L 10.984375 69.390625 
L 28.421875 72.90625 
L 38.28125 72.90625 
L 38.28125 8.296875 
L 54.390625 8.296875 
L 54.390625 0 
L 12.40625 0 
z
" id="DejaVuSans-49"/>
       </defs>
       <use xlink:href="#DejaVuSans-49"/>
      </g>
     </g>
    </g>
    <g id="xtick_2">
     <g id="line2d_27">
      <path clip-path="url(#pcb4cf8a232)" d="M 273.963712 385.557812 
L 273.963712 23.837812 
" style="fill:none;stroke:#b0b0b0;stroke-linecap:square;stroke-opacity:0.3;stroke-width:0.8;"/>
     </g>
     <g id="line2d_28">
      <g>
       <use style="stroke:#000000;stroke-width:0.8;" x="273.963712" xlink:href="#m6ebd4cdece" y="385.557812"/>
      </g>
     </g>
     <g id="text_2">
      <!-- 2 -->
      <g transform="translate(270.782462 400.15625)scale(0.1 -0.1)">
       <defs>
        <path d="M 19.1875 8.296875 
L 53.609375 8.296875 
L 53.609375 0 
L 7.328125 0 
L 7.328125 8.296875 
Q 12.9375 14.109375 22.625 23.890625 
Q 32.328125 33.6875 34.8125 36.53125 
Q 39.546875 41.84375 41.421875 45.53125 
Q 43.3125 49.21875 43.3125 52.78125 
Q 43.3125 58.59375 39.234375 62.25 
Q 35.15625 65.921875 28.609375 65.921875 
Q 23.96875 65.921875 18.8125 64.3125 
Q 13.671875 62.703125 7.8125 59.421875 
L 7.8125 69.390625 
Q 13.765625 71.78125 18.9375 73 
Q 24.125 74.21875 28.421875 74.21875 
Q 39.75 74.21875 46.484375 68.546875 
Q 53.21875 62.890625 53.21875 53.421875 
Q 53.21875 48.921875 51.53125 44.890625 
Q 49.859375 40.875 45.40625 35.40625 
Q 44.1875 33.984375 37.640625 27.21875 
Q 31.109375 20.453125 19.1875 8.296875 
z
" id="DejaVuSans-50"/>
       </defs>
       <use xlink:href="#DejaVuSans-50"/>
      </g>
     </g>
    </g>
    <g id="xtick_3">
     <g id="line2d_29">
      <path clip-path="url(#pcb4cf8a232)" d="M 475.121288 385.557812 
L 475.121288 23.837812 
" style="fill:none;stroke:#b0b0b0;stroke-linecap:square;stroke-opacity:0.3;stroke-width:0.8;"/>
     </g>
     <g id="line2d_30">
      <g>
       <use style="stroke:#000000;stroke-width:0.8;" x="475.121288" xlink:href="#m6ebd4cdece" y="385.557812"/>
      </g>
     </g>
     <g id="text_3">
      <!-- 3 -->
      <g transform="translate(471.940038 400.15625)scale(0.1 -0.1)">
       <defs>
        <path d="M 40.578125 39.3125 
Q 47.65625 37.796875 51.625 33 
Q 55.609375 28.21875 55.609375 21.1875 
Q 55.609375 10.40625 48.1875 4.484375 
Q 40.765625 -1.421875 27.09375 -1.421875 
Q 22.515625 -1.421875 17.65625 -0.515625 
Q 12.796875 0.390625 7.625 2.203125 
L 7.625 11.71875 
Q 11.71875 9.328125 16.59375 8.109375 
Q 21.484375 6.890625 26.8125 6.890625 
Q 36.078125 6.890625 40.9375 10.546875 
Q 45.796875 14.203125 45.796875 21.1875 
Q 45.796875 27.640625 41.28125 31.265625 
Q 36.765625 34.90625 28.71875 34.90625 
L 20.21875 34.90625 
L 20.21875 43.015625 
L 29.109375 43.015625 
Q 36.375 43.015625 40.234375 45.921875 
Q 44.09375 48.828125 44.09375 54.296875 
Q 44.09375 59.90625 40.109375 62.90625 
Q 36.140625 65.921875 28.71875 65.921875 
Q 24.65625 65.921875 20.015625 65.03125 
Q 15.375 64.15625 9.8125 62.3125 
L 9.8125 71.09375 
Q 15.4375 72.65625 20.34375 73.4375 
Q 25.25 74.21875 29.59375 74.21875 
Q 40.828125 74.21875 47.359375 69.109375 
Q 53.90625 64.015625 53.90625 55.328125 
Q 53.90625 49.265625 50.4375 45.09375 
Q 46.96875 40.921875 40.578125 39.3125 
z
" id="DejaVuSans-51"/>
       </defs>
       <use xlink:href="#DejaVuSans-51"/>
      </g>
     </g>
    </g>
    <g id="xtick_4">
     <g id="line2d_31">
      <path clip-path="url(#pcb4cf8a232)" d="M 676.278864 385.557812 
L 676.278864 23.837812 
" style="fill:none;stroke:#b0b0b0;stroke-linecap:square;stroke-opacity:0.3;stroke-width:0.8;"/>
     </g>
     <g id="line2d_32">
      <g>
       <use style="stroke:#000000;stroke-width:0.8;" x="676.278864" xlink:href="#m6ebd4cdece" y="385.557812"/>
      </g>
     </g>
     <g id="text_4">
      <!-- 4 -->
      <g transform="translate(673.097614 400.15625)scale(0.1 -0.1)">
       <defs>
        <path d="M 37.796875 64.3125 
L 12.890625 25.390625 
L 37.796875 25.390625 
z
M 35.203125 72.90625 
L 47.609375 72.90625 
L 47.609375 25.390625 
L 58.015625 25.390625 
L 58.015625 17.1875 
L 47.609375 17.1875 
L 47.609375 0 
L 37.796875 0 
L 37.796875 17.1875 
L 4.890625 17.1875 
L 4.890625 26.703125 
z
" id="DejaVuSans-52"/>
       </defs>
       <use xlink:href="#DejaVuSans-52"/>
      </g>
     </g>
    </g>
    <g id="text_5">
     <!-- Day -->
     <g transform="translate(361.78875 415.260312)scale(0.12 -0.12)">
      <defs>
       <path d="M 27.984375 58.6875 
L 27.984375 14.203125 
L 34.71875 14.203125 
Q 46.234375 14.203125 52.3125 19.921875 
Q 58.40625 25.640625 58.40625 36.53125 
Q 58.40625 47.359375 52.34375 53.015625 
Q 46.296875 58.6875 34.71875 58.6875 
z
M 9.1875 72.90625 
L 29 72.90625 
Q 45.609375 72.90625 53.734375 70.53125 
Q 61.859375 68.171875 67.671875 62.5 
Q 72.796875 57.5625 75.28125 51.109375 
Q 77.78125 44.671875 77.78125 36.53125 
Q 77.78125 28.265625 75.28125 21.796875 
Q 72.796875 15.328125 67.671875 10.40625 
Q 61.8125 4.734375 53.609375 2.359375 
Q 45.40625 0 29 0 
L 9.1875 0 
z
" id="DejaVuSans-Bold-68"/>
       <path d="M 32.90625 24.609375 
Q 27.4375 24.609375 24.671875 22.75 
Q 21.921875 20.90625 21.921875 17.28125 
Q 21.921875 13.96875 24.140625 12.078125 
Q 26.375 10.203125 30.328125 10.203125 
Q 35.25 10.203125 38.625 13.734375 
Q 42 17.28125 42 22.609375 
L 42 24.609375 
z
M 59.625 31.203125 
L 59.625 0 
L 42 0 
L 42 8.109375 
Q 38.484375 3.125 34.078125 0.84375 
Q 29.6875 -1.421875 23.390625 -1.421875 
Q 14.890625 -1.421875 9.59375 3.53125 
Q 4.296875 8.5 4.296875 16.40625 
Q 4.296875 26.03125 10.90625 30.515625 
Q 17.53125 35.015625 31.6875 35.015625 
L 42 35.015625 
L 42 36.375 
Q 42 40.53125 38.71875 42.453125 
Q 35.453125 44.390625 28.515625 44.390625 
Q 22.90625 44.390625 18.0625 43.265625 
Q 13.234375 42.140625 9.078125 39.890625 
L 9.078125 53.21875 
Q 14.703125 54.59375 20.359375 55.296875 
Q 26.03125 56 31.6875 56 
Q 46.484375 56 53.046875 50.171875 
Q 59.625 44.34375 59.625 31.203125 
z
" id="DejaVuSans-Bold-97"/>
       <path d="M 1.21875 54.6875 
L 18.703125 54.6875 
L 33.40625 17.578125 
L 45.90625 54.6875 
L 63.375 54.6875 
L 40.375 -5.171875 
Q 36.921875 -14.3125 32.296875 -17.9375 
Q 27.6875 -21.578125 20.125 -21.578125 
L 10.015625 -21.578125 
L 10.015625 -10.109375 
L 15.484375 -10.109375 
Q 19.921875 -10.109375 21.9375 -8.6875 
Q 23.96875 -7.28125 25.09375 -3.609375 
L 25.59375 -2.09375 
z
" id="DejaVuSans-Bold-121"/>
      </defs>
      <use xlink:href="#DejaVuSans-Bold-68"/>
      <use x="83.007812" xlink:href="#DejaVuSans-Bold-97"/>
      <use x="147.363281" xlink:href="#DejaVuSans-Bold-121"/>
     </g>
    </g>
   </g>
   <g id="matplotlib.axis_2">
    <g id="ytick_1">
     <g id="line2d_33">
      <path clip-path="url(#pcb4cf8a232)" d="M 42.6325 331.038375 
L 706.4525 331.038375 
" style="fill:none;stroke:#b0b0b0;stroke-linecap:square;stroke-opacity:0.3;stroke-width:0.8;"/>
     </g>
     <g id="line2d_34">
      <defs>
       <path d="M 0 0 
L -3.5 0 
" id="m4ef6ee9195" style="stroke:#000000;stroke-width:0.8;"/>
      </defs>
      <g>
       <use style="stroke:#000000;stroke-width:0.8;" x="42.6325" xlink:href="#m4ef6ee9195" y="331.038375"/>
      </g>
     </g>
     <g id="text_6">
      <!-- 2 -->
      <g transform="translate(29.27 334.837594)scale(0.1 -0.1)">
       <use xlink:href="#DejaVuSans-50"/>
      </g>
     </g>
    </g>
    <g id="ytick_2">
     <g id="line2d_35">
      <path clip-path="url(#pcb4cf8a232)" d="M 42.6325 269.304212 
L 706.4525 269.304212 
" style="fill:none;stroke:#b0b0b0;stroke-linecap:square;stroke-opacity:0.3;stroke-width:0.8;"/>
     </g>
     <g id="line2d_36">
      <g>
       <use style="stroke:#000000;stroke-width:0.8;" x="42.6325" xlink:href="#m4ef6ee9195" y="269.304212"/>
      </g>
     </g>
     <g id="text_7">
      <!-- 4 -->
      <g transform="translate(29.27 273.103431)scale(0.1 -0.1)">
       <use xlink:href="#DejaVuSans-52"/>
      </g>
     </g>
    </g>
    <g id="ytick_3">
     <g id="line2d_37">
      <path clip-path="url(#pcb4cf8a232)" d="M 42.6325 207.57005 
L 706.4525 207.57005 
" style="fill:none;stroke:#b0b0b0;stroke-linecap:square;stroke-opacity:0.3;stroke-width:0.8;"/>
     </g>
     <g id="line2d_38">
      <g>
       <use style="stroke:#000000;stroke-width:0.8;" x="42.6325" xlink:href="#m4ef6ee9195" y="207.57005"/>
      </g>
     </g>
     <g id="text_8">
      <!-- 6 -->
      <g transform="translate(29.27 211.369269)scale(0.1 -0.1)">
       <defs>
        <path d="M 33.015625 40.375 
Q 26.375 40.375 22.484375 35.828125 
Q 18.609375 31.296875 18.609375 23.390625 
Q 18.609375 15.53125 22.484375 10.953125 
Q 26.375 6.390625 33.015625 6.390625 
Q 39.65625 6.390625 43.53125 10.953125 
Q 47.40625 15.53125 47.40625 23.390625 
Q 47.40625 31.296875 43.53125 35.828125 
Q 39.65625 40.375 33.015625 40.375 
z
M 52.59375 71.296875 
L 52.59375 62.3125 
Q 48.875 64.0625 45.09375 64.984375 
Q 41.3125 65.921875 37.59375 65.921875 
Q 27.828125 65.921875 22.671875 59.328125 
Q 17.53125 52.734375 16.796875 39.40625 
Q 19.671875 43.65625 24.015625 45.921875 
Q 28.375 48.1875 33.59375 48.1875 
Q 44.578125 48.1875 50.953125 41.515625 
Q 57.328125 34.859375 57.328125 23.390625 
Q 57.328125 12.15625 50.6875 5.359375 
Q 44.046875 -1.421875 33.015625 -1.421875 
Q 20.359375 -1.421875 13.671875 8.265625 
Q 6.984375 17.96875 6.984375 36.375 
Q 6.984375 53.65625 15.1875 63.9375 
Q 23.390625 74.21875 37.203125 74.21875 
Q 40.921875 74.21875 44.703125 73.484375 
Q 48.484375 72.75 52.59375 71.296875 
z
" id="DejaVuSans-54"/>
       </defs>
       <use xlink:href="#DejaVuSans-54"/>
      </g>
     </g>
    </g>
    <g id="ytick_4">
     <g id="line2d_39">
      <path clip-path="url(#pcb4cf8a232)" d="M 42.6325 145.835888 
L 706.4525 145.835888 
" style="fill:none;stroke:#b0b0b0;stroke-linecap:square;stroke-opacity:0.3;stroke-width:0.8;"/>
     </g>
     <g id="line2d_40">
      <g>
       <use style="stroke:#000000;stroke-width:0.8;" x="42.6325" xlink:href="#m4ef6ee9195" y="145.835888"/>
      </g>
     </g>
     <g id="text_9">
      <!-- 8 -->
      <g transform="translate(29.27 149.635107)scale(0.1 -0.1)">
       <defs>
        <path d="M 31.78125 34.625 
Q 24.75 34.625 20.71875 30.859375 
Q 16.703125 27.09375 16.703125 20.515625 
Q 16.703125 13.921875 20.71875 10.15625 
Q 24.75 6.390625 31.78125 6.390625 
Q 38.8125 6.390625 42.859375 10.171875 
Q 46.921875 13.96875 46.921875 20.515625 
Q 46.921875 27.09375 42.890625 30.859375 
Q 38.875 34.625 31.78125 34.625 
z
M 21.921875 38.8125 
Q 15.578125 40.375 12.03125 44.71875 
Q 8.5 49.078125 8.5 55.328125 
Q 8.5 64.0625 14.71875 69.140625 
Q 20.953125 74.21875 31.78125 74.21875 
Q 42.671875 74.21875 48.875 69.140625 
Q 55.078125 64.0625 55.078125 55.328125 
Q 55.078125 49.078125 51.53125 44.71875 
Q 48 40.375 41.703125 38.8125 
Q 48.828125 37.15625 52.796875 32.3125 
Q 56.78125 27.484375 56.78125 20.515625 
Q 56.78125 9.90625 50.3125 4.234375 
Q 43.84375 -1.421875 31.78125 -1.421875 
Q 19.734375 -1.421875 13.25 4.234375 
Q 6.78125 9.90625 6.78125 20.515625 
Q 6.78125 27.484375 10.78125 32.3125 
Q 14.796875 37.15625 21.921875 38.8125 
z
M 18.3125 54.390625 
Q 18.3125 48.734375 21.84375 45.5625 
Q 25.390625 42.390625 31.78125 42.390625 
Q 38.140625 42.390625 41.71875 45.5625 
Q 45.3125 48.734375 45.3125 54.390625 
Q 45.3125 60.0625 41.71875 63.234375 
Q 38.140625 66.40625 31.78125 66.40625 
Q 25.390625 66.40625 21.84375 63.234375 
Q 18.3125 60.0625 18.3125 54.390625 
z
" id="DejaVuSans-56"/>
       </defs>
       <use xlink:href="#DejaVuSans-56"/>
      </g>
     </g>
    </g>
    <g id="ytick_5">
     <g id="line2d_41">
      <path clip-path="url(#pcb4cf8a232)" d="M 42.6325 84.101726 
L 706.4525 84.101726 
" style="fill:none;stroke:#b0b0b0;stroke-linecap:square;stroke-opacity:0.3;stroke-width:0.8;"/>
     </g>
     <g id="line2d_42">
      <g>
       <use style="stroke:#000000;stroke-width:0.8;" x="42.6325" xlink:href="#m4ef6ee9195" y="84.101726"/>
      </g>
     </g>
     <g id="text_10">
      <!-- 10 -->
      <g transform="translate(22.9075 87.900944)scale(0.1 -0.1)">
       <defs>
        <path d="M 31.78125 66.40625 
Q 24.171875 66.40625 20.328125 58.90625 
Q 16.5 51.421875 16.5 36.375 
Q 16.5 21.390625 20.328125 13.890625 
Q 24.171875 6.390625 31.78125 6.390625 
Q 39.453125 6.390625 43.28125 13.890625 
Q 47.125 21.390625 47.125 36.375 
Q 47.125 51.421875 43.28125 58.90625 
Q 39.453125 66.40625 31.78125 66.40625 
z
M 31.78125 74.21875 
Q 44.046875 74.21875 50.515625 64.515625 
Q 56.984375 54.828125 56.984375 36.375 
Q 56.984375 17.96875 50.515625 8.265625 
Q 44.046875 -1.421875 31.78125 -1.421875 
Q 19.53125 -1.421875 13.0625 8.265625 
Q 6.59375 17.96875 6.59375 36.375 
Q 6.59375 54.828125 13.0625 64.515625 
Q 19.53125 74.21875 31.78125 74.21875 
z
" id="DejaVuSans-48"/>
       </defs>
       <use xlink:href="#DejaVuSans-49"/>
       <use x="63.623047" xlink:href="#DejaVuSans-48"/>
      </g>
     </g>
    </g>
    <g id="text_11">
     <!-- Mean KL Divergence -->
     <g transform="translate(16.318125 273.948125)rotate(-90)scale(0.12 -0.12)">
      <defs>
       <path d="M 9.1875 72.90625 
L 33.109375 72.90625 
L 49.703125 33.890625 
L 66.40625 72.90625 
L 90.28125 72.90625 
L 90.28125 0 
L 72.515625 0 
L 72.515625 53.328125 
L 55.71875 14.015625 
L 43.796875 14.015625 
L 27 53.328125 
L 27 0 
L 9.1875 0 
z
" id="DejaVuSans-Bold-77"/>
       <path d="M 62.984375 27.484375 
L 62.984375 22.515625 
L 22.125 22.515625 
Q 22.75 16.359375 26.5625 13.28125 
Q 30.375 10.203125 37.203125 10.203125 
Q 42.71875 10.203125 48.5 11.84375 
Q 54.296875 13.484375 60.40625 16.796875 
L 60.40625 3.328125 
Q 54.203125 0.984375 48 -0.21875 
Q 41.796875 -1.421875 35.59375 -1.421875 
Q 20.75 -1.421875 12.515625 6.125 
Q 4.296875 13.671875 4.296875 27.296875 
Q 4.296875 40.671875 12.375 48.328125 
Q 20.453125 56 34.625 56 
Q 47.515625 56 55.25 48.234375 
Q 62.984375 40.484375 62.984375 27.484375 
z
M 45.015625 33.296875 
Q 45.015625 38.28125 42.109375 41.328125 
Q 39.203125 44.390625 34.515625 44.390625 
Q 29.4375 44.390625 26.265625 41.53125 
Q 23.09375 38.671875 22.3125 33.296875 
z
" id="DejaVuSans-Bold-101"/>
       <path d="M 63.375 33.296875 
L 63.375 0 
L 45.796875 0 
L 45.796875 5.421875 
L 45.796875 25.484375 
Q 45.796875 32.5625 45.484375 35.25 
Q 45.171875 37.9375 44.390625 39.203125 
Q 43.359375 40.921875 41.59375 41.875 
Q 39.84375 42.828125 37.59375 42.828125 
Q 32.125 42.828125 29 38.59375 
Q 25.875 34.375 25.875 26.90625 
L 25.875 0 
L 8.40625 0 
L 8.40625 54.6875 
L 25.875 54.6875 
L 25.875 46.6875 
Q 29.828125 51.46875 34.265625 53.734375 
Q 38.71875 56 44.09375 56 
Q 53.5625 56 58.46875 50.1875 
Q 63.375 44.390625 63.375 33.296875 
z
" id="DejaVuSans-Bold-110"/>
       <path id="DejaVuSans-Bold-32"/>
       <path d="M 9.1875 72.90625 
L 27.984375 72.90625 
L 27.984375 46.296875 
L 55.078125 72.90625 
L 76.90625 72.90625 
L 41.796875 38.375 
L 80.515625 0 
L 56.984375 0 
L 27.984375 28.71875 
L 27.984375 0 
L 9.1875 0 
z
" id="DejaVuSans-Bold-75"/>
       <path d="M 9.1875 72.90625 
L 27.984375 72.90625 
L 27.984375 14.203125 
L 60.984375 14.203125 
L 60.984375 0 
L 9.1875 0 
z
" id="DejaVuSans-Bold-76"/>
       <path d="M 8.40625 54.6875 
L 25.875 54.6875 
L 25.875 0 
L 8.40625 0 
z
M 8.40625 75.984375 
L 25.875 75.984375 
L 25.875 61.71875 
L 8.40625 61.71875 
z
" id="DejaVuSans-Bold-105"/>
       <path d="M 1.515625 54.6875 
L 19 54.6875 
L 32.625 16.890625 
L 46.1875 54.6875 
L 63.71875 54.6875 
L 42.1875 0 
L 23 0 
z
" id="DejaVuSans-Bold-118"/>
       <path d="M 49.03125 39.796875 
Q 46.734375 40.875 44.453125 41.375 
Q 42.1875 41.890625 39.890625 41.890625 
Q 33.15625 41.890625 29.515625 37.5625 
Q 25.875 33.25 25.875 25.203125 
L 25.875 0 
L 8.40625 0 
L 8.40625 54.6875 
L 25.875 54.6875 
L 25.875 45.703125 
Q 29.25 51.078125 33.609375 53.53125 
Q 37.984375 56 44.09375 56 
Q 44.96875 56 45.984375 55.921875 
Q 47.015625 55.859375 48.96875 55.609375 
z
" id="DejaVuSans-Bold-114"/>
       <path d="M 45.609375 9.28125 
Q 42 4.5 37.640625 2.25 
Q 33.296875 0 27.59375 0 
Q 17.578125 0 11.03125 7.875 
Q 4.5 15.765625 4.5 27.984375 
Q 4.5 40.234375 11.03125 48.0625 
Q 17.578125 55.90625 27.59375 55.90625 
Q 33.296875 55.90625 37.640625 53.65625 
Q 42 51.421875 45.609375 46.578125 
L 45.609375 54.6875 
L 63.1875 54.6875 
L 63.1875 5.515625 
Q 63.1875 -7.671875 54.859375 -14.625 
Q 46.53125 -21.578125 30.71875 -21.578125 
Q 25.59375 -21.578125 20.796875 -20.796875 
Q 16.015625 -20.015625 11.1875 -18.40625 
L 11.1875 -4.78125 
Q 15.765625 -7.421875 20.15625 -8.71875 
Q 24.5625 -10.015625 29 -10.015625 
Q 37.59375 -10.015625 41.59375 -6.25 
Q 45.609375 -2.484375 45.609375 5.515625 
z
M 34.078125 43.3125 
Q 28.65625 43.3125 25.625 39.296875 
Q 22.609375 35.296875 22.609375 27.984375 
Q 22.609375 20.453125 25.53125 16.578125 
Q 28.46875 12.703125 34.078125 12.703125 
Q 39.546875 12.703125 42.578125 16.703125 
Q 45.609375 20.703125 45.609375 27.984375 
Q 45.609375 35.296875 42.578125 39.296875 
Q 39.546875 43.3125 34.078125 43.3125 
z
" id="DejaVuSans-Bold-103"/>
       <path d="M 52.59375 52.984375 
L 52.59375 38.71875 
Q 49.03125 41.15625 45.4375 42.328125 
Q 41.84375 43.5 37.984375 43.5 
Q 30.671875 43.5 26.59375 39.234375 
Q 22.515625 34.96875 22.515625 27.296875 
Q 22.515625 19.625 26.59375 15.34375 
Q 30.671875 11.078125 37.984375 11.078125 
Q 42.09375 11.078125 45.78125 12.296875 
Q 49.46875 13.53125 52.59375 15.921875 
L 52.59375 1.609375 
Q 48.484375 0.09375 44.265625 -0.65625 
Q 40.046875 -1.421875 35.796875 -1.421875 
Q 21 -1.421875 12.640625 6.171875 
Q 4.296875 13.765625 4.296875 27.296875 
Q 4.296875 40.828125 12.640625 48.40625 
Q 21 56 35.796875 56 
Q 40.09375 56 44.265625 55.25 
Q 48.4375 54.5 52.59375 52.984375 
z
" id="DejaVuSans-Bold-99"/>
      </defs>
      <use xlink:href="#DejaVuSans-Bold-77"/>
      <use x="99.511719" xlink:href="#DejaVuSans-Bold-101"/>
      <use x="167.333984" xlink:href="#DejaVuSans-Bold-97"/>
      <use x="234.814453" xlink:href="#DejaVuSans-Bold-110"/>
      <use x="306.005859" xlink:href="#DejaVuSans-Bold-32"/>
      <use x="340.820312" xlink:href="#DejaVuSans-Bold-75"/>
      <use x="418.310547" xlink:href="#DejaVuSans-Bold-76"/>
      <use x="482.03125" xlink:href="#DejaVuSans-Bold-32"/>
      <use x="516.845703" xlink:href="#DejaVuSans-Bold-68"/>
      <use x="599.853516" xlink:href="#DejaVuSans-Bold-105"/>
      <use x="634.130859" xlink:href="#DejaVuSans-Bold-118"/>
      <use x="699.316406" xlink:href="#DejaVuSans-Bold-101"/>
      <use x="767.138672" xlink:href="#DejaVuSans-Bold-114"/>
      <use x="816.455078" xlink:href="#DejaVuSans-Bold-103"/>
      <use x="888.037109" xlink:href="#DejaVuSans-Bold-101"/>
      <use x="955.859375" xlink:href="#DejaVuSans-Bold-110"/>
      <use x="1027.050781" xlink:href="#DejaVuSans-Bold-99"/>
      <use x="1086.328125" xlink:href="#DejaVuSans-Bold-101"/>
     </g>
    </g>
   </g>
   <g id="PolyCollection_1">
    <defs>
     <path d="M 72.806136 -89.61186 
L 72.806136 -78.479557 
L 273.963712 -97.670612 
L 475.121288 -96.889822 
L 676.278864 -104.006387 
L 676.278864 -122.8891 
L 676.278864 -122.8891 
L 475.121288 -140.930057 
L 273.963712 -115.297402 
L 72.806136 -89.61186 
z
" id="m0c9d84cc49" style="stroke:#1f4788;stroke-opacity:0.2;"/>
    </defs>
    <g clip-path="url(#pcb4cf8a232)">
     <use style="fill:#1f4788;fill-opacity:0.2;stroke:#1f4788;stroke-opacity:0.2;" x="0" xlink:href="#m0c9d84cc49" y="425.049687"/>
    </g>
   </g>
   <g id="PolyCollection_2">
    <defs>
     <path d="M 72.806136 -178.793085 
L 72.806136 -113.144872 
L 273.963712 -115.472787 
L 475.121288 -128.978184 
L 676.278864 -121.11707 
L 676.278864 -155.062096 
L 676.278864 -155.062096 
L 475.121288 -158.048643 
L 273.963712 -150.420382 
L 72.806136 -178.793085 
z
" id="m09cc79fde0" style="stroke:#9e778a;stroke-opacity:0.2;"/>
    </defs>
    <g clip-path="url(#pcb4cf8a232)">
     <use style="fill:#9e778a;fill-opacity:0.2;stroke:#9e778a;stroke-opacity:0.2;" x="0" xlink:href="#m09cc79fde0" y="425.049687"/>
    </g>
   </g>
   <g id="patch_3">
    <path d="M 42.6325 385.557812 
L 42.6325 23.837812 
" style="fill:none;stroke:#000000;stroke-linecap:square;stroke-linejoin:miter;stroke-width:0.8;"/>
   </g>
   <g id="patch_4">
    <path d="M 706.4525 385.557812 
L 706.4525 23.837812 
" style="fill:none;stroke:#000000;stroke-linecap:square;stroke-linejoin:miter;stroke-width:0.8;"/>
   </g>
   <g id="patch_5">
    <path d="M 42.6325 385.557812 
L 706.4525 385.557812 
" style="fill:none;stroke:#000000;stroke-linecap:square;stroke-linejoin:miter;stroke-width:0.8;"/>
   </g>
   <g id="patch_6">
    <path d="M 42.6325 23.837812 
L 706.4525 23.837812 
" style="fill:none;stroke:#000000;stroke-linecap:square;stroke-linejoin:miter;stroke-width:0.8;"/>
   </g>
   <g id="line2d_43">
    <path clip-path="url(#pcb4cf8a232)" d="M 72.806136 341.003979 
L 273.963712 318.565681 
L 475.121288 306.139748 
L 676.278864 311.601944 
" style="fill:none;stroke:#1f4788;stroke-linecap:square;stroke-width:4;"/>
    <defs>
     <path d="M 0 5 
C 1.326016 5 2.597899 4.473168 3.535534 3.535534 
C 4.473168 2.597899 5 1.326016 5 0 
C 5 -1.326016 4.473168 -2.597899 3.535534 -3.535534 
C 2.597899 -4.473168 1.326016 -5 0 -5 
C -1.326016 -5 -2.597899 -4.473168 -3.535534 -3.535534 
C -4.473168 -2.597899 -5 -1.326016 -5 0 
C -5 1.326016 -4.473168 2.597899 -3.535534 3.535534 
C -2.597899 4.473168 -1.326016 5 0 5 
z
" id="m7f2069ffff" style="stroke:#1f4788;"/>
    </defs>
    <g clip-path="url(#pcb4cf8a232)">
     <use style="fill:#1f4788;stroke:#1f4788;" x="72.806136" xlink:href="#m7f2069ffff" y="341.003979"/>
     <use style="fill:#1f4788;stroke:#1f4788;" x="273.963712" xlink:href="#m7f2069ffff" y="318.565681"/>
     <use style="fill:#1f4788;stroke:#1f4788;" x="475.121288" xlink:href="#m7f2069ffff" y="306.139748"/>
     <use style="fill:#1f4788;stroke:#1f4788;" x="676.278864" xlink:href="#m7f2069ffff" y="311.601944"/>
    </g>
   </g>
   <g id="line2d_44">
    <path clip-path="url(#pcb4cf8a232)" d="M 72.806136 279.080709 
L 273.963712 292.103103 
L 475.121288 281.536274 
L 676.278864 286.960104 
" style="fill:none;stroke:#9e778a;stroke-linecap:square;stroke-width:4;"/>
    <defs>
     <path d="M 0 5 
C 1.326016 5 2.597899 4.473168 3.535534 3.535534 
C 4.473168 2.597899 5 1.326016 5 0 
C 5 -1.326016 4.473168 -2.597899 3.535534 -3.535534 
C 2.597899 -4.473168 1.326016 -5 0 -5 
C -1.326016 -5 -2.597899 -4.473168 -3.535534 -3.535534 
C -4.473168 -2.597899 -5 -1.326016 -5 0 
C -5 1.326016 -4.473168 2.597899 -3.535534 3.535534 
C -2.597899 4.473168 -1.326016 5 0 5 
z
" id="md80e21308e" style="stroke:#9e778a;"/>
    </defs>
    <g clip-path="url(#pcb4cf8a232)">
     <use style="fill:#9e778a;stroke:#9e778a;" x="72.806136" xlink:href="#md80e21308e" y="279.080709"/>
     <use style="fill:#9e778a;stroke:#9e778a;" x="273.963712" xlink:href="#md80e21308e" y="292.103103"/>
     <use style="fill:#9e778a;stroke:#9e778a;" x="475.121288" xlink:href="#md80e21308e" y="281.536274"/>
     <use style="fill:#9e778a;stroke:#9e778a;" x="676.278864" xlink:href="#md80e21308e" y="286.960104"/>
    </g>
   </g>
   <g id="text_12">
    <!-- KL Divergence Over Days - TC vs TP -->
    <g transform="translate(233.774687 17.837812)scale(0.14 -0.14)">
     <defs>
      <path d="M 42.484375 60.59375 
Q 33.890625 60.59375 29.15625 54.25 
Q 24.421875 47.90625 24.421875 36.375 
Q 24.421875 24.90625 29.15625 18.546875 
Q 33.890625 12.203125 42.484375 12.203125 
Q 51.125 12.203125 55.859375 18.546875 
Q 60.59375 24.90625 60.59375 36.375 
Q 60.59375 47.90625 55.859375 54.25 
Q 51.125 60.59375 42.484375 60.59375 
z
M 42.484375 74.21875 
Q 60.0625 74.21875 70.015625 64.15625 
Q 79.984375 54.109375 79.984375 36.375 
Q 79.984375 18.703125 70.015625 8.640625 
Q 60.0625 -1.421875 42.484375 -1.421875 
Q 24.953125 -1.421875 14.96875 8.640625 
Q 4.984375 18.703125 4.984375 36.375 
Q 4.984375 54.109375 14.96875 64.15625 
Q 24.953125 74.21875 42.484375 74.21875 
z
" id="DejaVuSans-Bold-79"/>
      <path d="M 51.125 52.984375 
L 51.125 39.703125 
Q 45.515625 42.046875 40.28125 43.21875 
Q 35.0625 44.390625 30.421875 44.390625 
Q 25.4375 44.390625 23.015625 43.140625 
Q 20.609375 41.890625 20.609375 39.3125 
Q 20.609375 37.203125 22.4375 36.078125 
Q 24.265625 34.96875 29 34.421875 
L 32.078125 33.984375 
Q 45.515625 32.28125 50.140625 28.375 
Q 54.78125 24.46875 54.78125 16.109375 
Q 54.78125 7.375 48.328125 2.96875 
Q 41.890625 -1.421875 29.109375 -1.421875 
Q 23.6875 -1.421875 17.890625 -0.5625 
Q 12.109375 0.296875 6 2 
L 6 15.28125 
Q 11.234375 12.75 16.71875 11.46875 
Q 22.21875 10.203125 27.875 10.203125 
Q 33.015625 10.203125 35.59375 11.609375 
Q 38.1875 13.03125 38.1875 15.828125 
Q 38.1875 18.171875 36.40625 19.3125 
Q 34.625 20.453125 29.296875 21.09375 
L 26.21875 21.484375 
Q 14.546875 22.953125 9.859375 26.90625 
Q 5.171875 30.859375 5.171875 38.921875 
Q 5.171875 47.609375 11.125 51.796875 
Q 17.09375 56 29.390625 56 
Q 34.234375 56 39.546875 55.265625 
Q 44.875 54.546875 51.125 52.984375 
z
" id="DejaVuSans-Bold-115"/>
      <path d="M 5.421875 35.890625 
L 36.078125 35.890625 
L 36.078125 21.6875 
L 5.421875 21.6875 
z
" id="DejaVuSans-Bold-45"/>
      <path d="M 0.484375 72.90625 
L 67.671875 72.90625 
L 67.671875 58.6875 
L 43.5 58.6875 
L 43.5 0 
L 24.703125 0 
L 24.703125 58.6875 
L 0.484375 58.6875 
z
" id="DejaVuSans-Bold-84"/>
      <path d="M 67 4 
Q 61.8125 1.3125 56.203125 -0.046875 
Q 50.59375 -1.421875 44.484375 -1.421875 
Q 26.265625 -1.421875 15.625 8.765625 
Q 4.984375 18.953125 4.984375 36.375 
Q 4.984375 53.859375 15.625 64.03125 
Q 26.265625 74.21875 44.484375 74.21875 
Q 50.59375 74.21875 56.203125 72.84375 
Q 61.8125 71.484375 67 68.796875 
L 67 53.71875 
Q 61.765625 57.28125 56.6875 58.9375 
Q 51.609375 60.59375 46 60.59375 
Q 35.9375 60.59375 30.171875 54.140625 
Q 24.421875 47.703125 24.421875 36.375 
Q 24.421875 25.09375 30.171875 18.640625 
Q 35.9375 12.203125 46 12.203125 
Q 51.609375 12.203125 56.6875 13.859375 
Q 61.765625 15.53125 67 19.09375 
z
" id="DejaVuSans-Bold-67"/>
      <path d="M 9.1875 72.90625 
L 40.375 72.90625 
Q 54.296875 72.90625 61.734375 66.71875 
Q 69.1875 60.546875 69.1875 49.125 
Q 69.1875 37.640625 61.734375 31.46875 
Q 54.296875 25.296875 40.375 25.296875 
L 27.984375 25.296875 
L 27.984375 0 
L 9.1875 0 
z
M 27.984375 59.28125 
L 27.984375 38.921875 
L 38.375 38.921875 
Q 43.84375 38.921875 46.828125 41.578125 
Q 49.8125 44.234375 49.8125 49.125 
Q 49.8125 54 46.828125 56.640625 
Q 43.84375 59.28125 38.375 59.28125 
z
" id="DejaVuSans-Bold-80"/>
     </defs>
     <use xlink:href="#DejaVuSans-Bold-75"/>
     <use x="77.490234" xlink:href="#DejaVuSans-Bold-76"/>
     <use x="141.210938" xlink:href="#DejaVuSans-Bold-32"/>
     <use x="176.025391" xlink:href="#DejaVuSans-Bold-68"/>
     <use x="259.033203" xlink:href="#DejaVuSans-Bold-105"/>
     <use x="293.310547" xlink:href="#DejaVuSans-Bold-118"/>
     <use x="358.496094" xlink:href="#DejaVuSans-Bold-101"/>
     <use x="426.318359" xlink:href="#DejaVuSans-Bold-114"/>
     <use x="475.634766" xlink:href="#DejaVuSans-Bold-103"/>
     <use x="547.216797" xlink:href="#DejaVuSans-Bold-101"/>
     <use x="615.039062" xlink:href="#DejaVuSans-Bold-110"/>
     <use x="686.230469" xlink:href="#DejaVuSans-Bold-99"/>
     <use x="745.507812" xlink:href="#DejaVuSans-Bold-101"/>
     <use x="813.330078" xlink:href="#DejaVuSans-Bold-32"/>
     <use x="848.144531" xlink:href="#DejaVuSans-Bold-79"/>
     <use x="933.154297" xlink:href="#DejaVuSans-Bold-118"/>
     <use x="998.339844" xlink:href="#DejaVuSans-Bold-101"/>
     <use x="1066.162109" xlink:href="#DejaVuSans-Bold-114"/>
     <use x="1115.478516" xlink:href="#DejaVuSans-Bold-32"/>
     <use x="1150.292969" xlink:href="#DejaVuSans-Bold-68"/>
     <use x="1233.300781" xlink:href="#DejaVuSans-Bold-97"/>
     <use x="1297.65625" xlink:href="#DejaVuSans-Bold-121"/>
     <use x="1362.841797" xlink:href="#DejaVuSans-Bold-115"/>
     <use x="1422.363281" xlink:href="#DejaVuSans-Bold-32"/>
     <use x="1457.177734" xlink:href="#DejaVuSans-Bold-45"/>
     <use x="1498.681641" xlink:href="#DejaVuSans-Bold-32"/>
     <use x="1533.496094" xlink:href="#DejaVuSans-Bold-84"/>
     <use x="1601.708984" xlink:href="#DejaVuSans-Bold-67"/>
     <use x="1675.097656" xlink:href="#DejaVuSans-Bold-32"/>
     <use x="1709.912109" xlink:href="#DejaVuSans-Bold-118"/>
     <use x="1775.097656" xlink:href="#DejaVuSans-Bold-115"/>
     <use x="1834.619141" xlink:href="#DejaVuSans-Bold-32"/>
     <use x="1869.433594" xlink:href="#DejaVuSans-Bold-84"/>
     <use x="1937.646484" xlink:href="#DejaVuSans-Bold-80"/>
    </g>
   </g>
   <g id="legend_1">
    <g id="patch_7">
     <path d="M 603.748594 64.929687 
L 698.7525 64.929687 
Q 700.9525 64.929687 700.9525 62.729687 
L 700.9525 31.537812 
Q 700.9525 29.337812 698.7525 29.337812 
L 603.748594 29.337812 
Q 601.548594 29.337812 601.548594 31.537812 
L 601.548594 62.729687 
Q 601.548594 64.929687 603.748594 64.929687 
z
" style="fill:#ffffff;opacity:0.9;stroke:#cccccc;stroke-linejoin:miter;"/>
    </g>
    <g id="line2d_45">
     <path d="M 605.948594 38.246094 
L 627.948594 38.246094 
" style="fill:none;stroke:#1f4788;stroke-linecap:square;stroke-width:4;"/>
    </g>
    <g id="line2d_46">
     <g>
      <use style="fill:#1f4788;stroke:#1f4788;" x="616.948594" xlink:href="#m7f2069ffff" y="38.246094"/>
     </g>
    </g>
    <g id="text_13">
     <!-- TC Troupes -->
     <g transform="translate(636.748594 42.096094)scale(0.11 -0.11)">
      <defs>
       <path d="M -0.296875 72.90625 
L 61.375 72.90625 
L 61.375 64.59375 
L 35.5 64.59375 
L 35.5 0 
L 25.59375 0 
L 25.59375 64.59375 
L -0.296875 64.59375 
z
" id="DejaVuSans-84"/>
       <path d="M 64.40625 67.28125 
L 64.40625 56.890625 
Q 59.421875 61.53125 53.78125 63.8125 
Q 48.140625 66.109375 41.796875 66.109375 
Q 29.296875 66.109375 22.65625 58.46875 
Q 16.015625 50.828125 16.015625 36.375 
Q 16.015625 21.96875 22.65625 14.328125 
Q 29.296875 6.6875 41.796875 6.6875 
Q 48.140625 6.6875 53.78125 8.984375 
Q 59.421875 11.28125 64.40625 15.921875 
L 64.40625 5.609375 
Q 59.234375 2.09375 53.4375 0.328125 
Q 47.65625 -1.421875 41.21875 -1.421875 
Q 24.65625 -1.421875 15.125 8.703125 
Q 5.609375 18.84375 5.609375 36.375 
Q 5.609375 53.953125 15.125 64.078125 
Q 24.65625 74.21875 41.21875 74.21875 
Q 47.75 74.21875 53.53125 72.484375 
Q 59.328125 70.75 64.40625 67.28125 
z
" id="DejaVuSans-67"/>
       <path id="DejaVuSans-32"/>
       <path d="M 41.109375 46.296875 
Q 39.59375 47.171875 37.8125 47.578125 
Q 36.03125 48 33.890625 48 
Q 26.265625 48 22.1875 43.046875 
Q 18.109375 38.09375 18.109375 28.8125 
L 18.109375 0 
L 9.078125 0 
L 9.078125 54.6875 
L 18.109375 54.6875 
L 18.109375 46.1875 
Q 20.953125 51.171875 25.484375 53.578125 
Q 30.03125 56 36.53125 56 
Q 37.453125 56 38.578125 55.875 
Q 39.703125 55.765625 41.0625 55.515625 
z
" id="DejaVuSans-114"/>
       <path d="M 30.609375 48.390625 
Q 23.390625 48.390625 19.1875 42.75 
Q 14.984375 37.109375 14.984375 27.296875 
Q 14.984375 17.484375 19.15625 11.84375 
Q 23.34375 6.203125 30.609375 6.203125 
Q 37.796875 6.203125 41.984375 11.859375 
Q 46.1875 17.53125 46.1875 27.296875 
Q 46.1875 37.015625 41.984375 42.703125 
Q 37.796875 48.390625 30.609375 48.390625 
z
M 30.609375 56 
Q 42.328125 56 49.015625 48.375 
Q 55.71875 40.765625 55.71875 27.296875 
Q 55.71875 13.875 49.015625 6.21875 
Q 42.328125 -1.421875 30.609375 -1.421875 
Q 18.84375 -1.421875 12.171875 6.21875 
Q 5.515625 13.875 5.515625 27.296875 
Q 5.515625 40.765625 12.171875 48.375 
Q 18.84375 56 30.609375 56 
z
" id="DejaVuSans-111"/>
       <path d="M 8.5 21.578125 
L 8.5 54.6875 
L 17.484375 54.6875 
L 17.484375 21.921875 
Q 17.484375 14.15625 20.5 10.265625 
Q 23.53125 6.390625 29.59375 6.390625 
Q 36.859375 6.390625 41.078125 11.03125 
Q 45.3125 15.671875 45.3125 23.6875 
L 45.3125 54.6875 
L 54.296875 54.6875 
L 54.296875 0 
L 45.3125 0 
L 45.3125 8.40625 
Q 42.046875 3.421875 37.71875 1 
Q 33.40625 -1.421875 27.6875 -1.421875 
Q 18.265625 -1.421875 13.375 4.4375 
Q 8.5 10.296875 8.5 21.578125 
z
M 31.109375 56 
z
" id="DejaVuSans-117"/>
       <path d="M 18.109375 8.203125 
L 18.109375 -20.796875 
L 9.078125 -20.796875 
L 9.078125 54.6875 
L 18.109375 54.6875 
L 18.109375 46.390625 
Q 20.953125 51.265625 25.265625 53.625 
Q 29.59375 56 35.59375 56 
Q 45.5625 56 51.78125 48.09375 
Q 58.015625 40.1875 58.015625 27.296875 
Q 58.015625 14.40625 51.78125 6.484375 
Q 45.5625 -1.421875 35.59375 -1.421875 
Q 29.59375 -1.421875 25.265625 0.953125 
Q 20.953125 3.328125 18.109375 8.203125 
z
M 48.6875 27.296875 
Q 48.6875 37.203125 44.609375 42.84375 
Q 40.53125 48.484375 33.40625 48.484375 
Q 26.265625 48.484375 22.1875 42.84375 
Q 18.109375 37.203125 18.109375 27.296875 
Q 18.109375 17.390625 22.1875 11.75 
Q 26.265625 6.109375 33.40625 6.109375 
Q 40.53125 6.109375 44.609375 11.75 
Q 48.6875 17.390625 48.6875 27.296875 
z
" id="DejaVuSans-112"/>
       <path d="M 56.203125 29.59375 
L 56.203125 25.203125 
L 14.890625 25.203125 
Q 15.484375 15.921875 20.484375 11.0625 
Q 25.484375 6.203125 34.421875 6.203125 
Q 39.59375 6.203125 44.453125 7.46875 
Q 49.3125 8.734375 54.109375 11.28125 
L 54.109375 2.78125 
Q 49.265625 0.734375 44.1875 -0.34375 
Q 39.109375 -1.421875 33.890625 -1.421875 
Q 20.796875 -1.421875 13.15625 6.1875 
Q 5.515625 13.8125 5.515625 26.8125 
Q 5.515625 40.234375 12.765625 48.109375 
Q 20.015625 56 32.328125 56 
Q 43.359375 56 49.78125 48.890625 
Q 56.203125 41.796875 56.203125 29.59375 
z
M 47.21875 32.234375 
Q 47.125 39.59375 43.09375 43.984375 
Q 39.0625 48.390625 32.421875 48.390625 
Q 24.90625 48.390625 20.390625 44.140625 
Q 15.875 39.890625 15.1875 32.171875 
z
" id="DejaVuSans-101"/>
       <path d="M 44.28125 53.078125 
L 44.28125 44.578125 
Q 40.484375 46.53125 36.375 47.5 
Q 32.28125 48.484375 27.875 48.484375 
Q 21.1875 48.484375 17.84375 46.4375 
Q 14.5 44.390625 14.5 40.28125 
Q 14.5 37.15625 16.890625 35.375 
Q 19.28125 33.59375 26.515625 31.984375 
L 29.59375 31.296875 
Q 39.15625 29.25 43.1875 25.515625 
Q 47.21875 21.78125 47.21875 15.09375 
Q 47.21875 7.46875 41.1875 3.015625 
Q 35.15625 -1.421875 24.609375 -1.421875 
Q 20.21875 -1.421875 15.453125 -0.5625 
Q 10.6875 0.296875 5.421875 2 
L 5.421875 11.28125 
Q 10.40625 8.6875 15.234375 7.390625 
Q 20.0625 6.109375 24.8125 6.109375 
Q 31.15625 6.109375 34.5625 8.28125 
Q 37.984375 10.453125 37.984375 14.40625 
Q 37.984375 18.0625 35.515625 20.015625 
Q 33.0625 21.96875 24.703125 23.78125 
L 21.578125 24.515625 
Q 13.234375 26.265625 9.515625 29.90625 
Q 5.8125 33.546875 5.8125 39.890625 
Q 5.8125 47.609375 11.28125 51.796875 
Q 16.75 56 26.8125 56 
Q 31.78125 56 36.171875 55.265625 
Q 40.578125 54.546875 44.28125 53.078125 
z
" id="DejaVuSans-115"/>
      </defs>
      <use xlink:href="#DejaVuSans-84"/>
      <use x="55.208984" xlink:href="#DejaVuSans-67"/>
      <use x="125.033203" xlink:href="#DejaVuSans-32"/>
      <use x="156.820312" xlink:href="#DejaVuSans-84"/>
      <use x="203.154297" xlink:href="#DejaVuSans-114"/>
      <use x="242.017578" xlink:href="#DejaVuSans-111"/>
      <use x="303.199219" xlink:href="#DejaVuSans-117"/>
      <use x="366.578125" xlink:href="#DejaVuSans-112"/>
      <use x="430.054688" xlink:href="#DejaVuSans-101"/>
      <use x="491.578125" xlink:href="#DejaVuSans-115"/>
     </g>
    </g>
    <g id="line2d_47">
     <path d="M 605.948594 54.392031 
L 627.948594 54.392031 
" style="fill:none;stroke:#9e778a;stroke-linecap:square;stroke-width:4;"/>
    </g>
    <g id="line2d_48">
     <g>
      <use style="fill:#9e778a;stroke:#9e778a;" x="616.948594" xlink:href="#md80e21308e" y="54.392031"/>
     </g>
    </g>
    <g id="text_14">
     <!-- TP Troupes -->
     <g transform="translate(636.748594 58.242031)scale(0.11 -0.11)">
      <defs>
       <path d="M 19.671875 64.796875 
L 19.671875 37.40625 
L 32.078125 37.40625 
Q 38.96875 37.40625 42.71875 40.96875 
Q 46.484375 44.53125 46.484375 51.125 
Q 46.484375 57.671875 42.71875 61.234375 
Q 38.96875 64.796875 32.078125 64.796875 
z
M 9.8125 72.90625 
L 32.078125 72.90625 
Q 44.34375 72.90625 50.609375 67.359375 
Q 56.890625 61.8125 56.890625 51.125 
Q 56.890625 40.328125 50.609375 34.8125 
Q 44.34375 29.296875 32.078125 29.296875 
L 19.671875 29.296875 
L 19.671875 0 
L 9.8125 0 
z
" id="DejaVuSans-80"/>
      </defs>
      <use xlink:href="#DejaVuSans-84"/>
      <use x="61.083984" xlink:href="#DejaVuSans-80"/>
      <use x="121.386719" xlink:href="#DejaVuSans-32"/>
      <use x="153.173828" xlink:href="#DejaVuSans-84"/>
      <use x="199.507812" xlink:href="#DejaVuSans-114"/>
      <use x="238.371094" xlink:href="#DejaVuSans-111"/>
      <use x="299.552734" xlink:href="#DejaVuSans-117"/>
      <use x="362.931641" xlink:href="#DejaVuSans-112"/>
      <use x="426.408203" xlink:href="#DejaVuSans-101"/>
      <use x="487.931641" xlink:href="#DejaVuSans-115"/>
     </g>
    </g>
   </g>
  </g>
 </g>
 <defs>
  <clipPath id="pcb4cf8a232">
   <rect height="361.72" width="663.82" x="42.6325" y="23.837812"/>
  </clipPath>
 </defs>
</svg>
