<?xml version="1.0" encoding="utf-8" standalone="no"?>
<!DOCTYPE svg PUBLIC "-//W3C//DTD SVG 1.1//EN"
  "http://www.w3.org/Graphics/SVG/1.1/DTD/svg11.dtd">
<svg xmlns:xlink="http://www.w3.org/1999/xlink" width="708.789062pt" height="420.886406pt" viewBox="0 0 708.789062 420.886406" xmlns="http://www.w3.org/2000/svg" version="1.1">
 <metadata>
  <rdf:RDF xmlns:dc="http://purl.org/dc/elements/1.1/" xmlns:cc="http://creativecommons.org/ns#" xmlns:rdf="http://www.w3.org/1999/02/22-rdf-syntax-ns#">
   <cc:Work>
    <dc:type rdf:resource="http://purl.org/dc/dcmitype/StillImage"/>
    <dc:date>2026-04-03T15:03:04.145868</dc:date>
    <dc:format>image/svg+xml</dc:format>
    <dc:creator>
     <cc:Agent>
      <dc:title>Matplotlib v3.7.2, https://matplotlib.org/</dc:title>
     </cc:Agent>
    </dc:creator>
   </cc:Work>
  </rdf:RDF>
 </metadata>
 <defs>
  <style type="text/css">*{stroke-linejoin: round; stroke-linecap: butt}</style>
 </defs>
 <g id="figure_1">
  <g id="patch_1">
   <path d="M 0 420.886406 
L 708.789062 420.886406 
L 708.789062 0 
L 0 0 
z
" style="fill: #ffffff"/>
  </g>
  <g id="axes_1">
   <g id="patch_2">
    <path d="M 44.049063 379.011562 
L 701.589062 379.011562 
L 701.589062 23.391562 
L 44.049063 23.391562 
z
" style="fill: #ffffff"/>
   </g>
   <g id="matplotlib.axis_1">
    <g id="xtick_1">
     <g id="line2d_1">
      <path d="M 73.937244 379.011562 
L 73.937244 23.391562 
" clip-path="url(#pd9a926128a)" style="fill: none; stroke: #cccccc; stroke-opacity: 0.3; stroke-linecap: round"/>
     </g>
     <g id="text_1">
      <!-- 1 -->
      <g style="fill: #262626" transform="translate(70.878729 396.385156) scale(0.11 -0.11)">
       <defs>
        <path id="ArialMT-31" d="M 2384 0 
L 1822 0 
L 1822 3584 
Q 1619 3391 1289 3197 
Q 959 3003 697 2906 
L 697 3450 
Q 1169 3672 1522 3987 
Q 1875 4303 2022 4600 
L 2384 4600 
L 2384 0 
z
" transform="scale(0.015625)"/>
       </defs>
       <use xlink:href="#ArialMT-31"/>
      </g>
     </g>
    </g>
    <g id="xtick_2">
     <g id="line2d_2">
      <path d="M 273.19179 379.011562 
L 273.19179 23.391562 
" clip-path="url(#pd9a926128a)" style="fill: none; stroke: #cccccc; stroke-opacity: 0.3; stroke-linecap: round"/>
     </g>
     <g id="text_2">
      <!-- 2 -->
      <g style="fill: #262626" transform="translate(270.133274 396.385156) scale(0.11 -0.11)">
       <defs>
        <path id="ArialMT-32" d="M 3222 541 
L 3222 0 
L 194 0 
Q 188 203 259 391 
Q 375 700 629 1000 
Q 884 1300 1366 1694 
Q 2113 2306 2375 2664 
Q 2638 3022 2638 3341 
Q 2638 3675 2398 3904 
Q 2159 4134 1775 4134 
Q 1369 4134 1125 3890 
Q 881 3647 878 3216 
L 300 3275 
Q 359 3922 746 4261 
Q 1134 4600 1788 4600 
Q 2447 4600 2831 4234 
Q 3216 3869 3216 3328 
Q 3216 3053 3103 2787 
Q 2991 2522 2730 2228 
Q 2469 1934 1863 1422 
Q 1356 997 1212 845 
Q 1069 694 975 541 
L 3222 541 
z
" transform="scale(0.015625)"/>
       </defs>
       <use xlink:href="#ArialMT-32"/>
      </g>
     </g>
    </g>
    <g id="xtick_3">
     <g id="line2d_3">
      <path d="M 472.446335 379.011562 
L 472.446335 23.391562 
" clip-path="url(#pd9a926128a)" style="fill: none; stroke: #cccccc; stroke-opacity: 0.3; stroke-linecap: round"/>
     </g>
     <g id="text_3">
      <!-- 3 -->
      <g style="fill: #262626" transform="translate(469.38782 396.385156) scale(0.11 -0.11)">
       <defs>
        <path id="ArialMT-33" d="M 269 1209 
L 831 1284 
Q 928 806 1161 595 
Q 1394 384 1728 384 
Q 2125 384 2398 659 
Q 2672 934 2672 1341 
Q 2672 1728 2419 1979 
Q 2166 2231 1775 2231 
Q 1616 2231 1378 2169 
L 1441 2663 
Q 1497 2656 1531 2656 
Q 1891 2656 2178 2843 
Q 2466 3031 2466 3422 
Q 2466 3731 2256 3934 
Q 2047 4138 1716 4138 
Q 1388 4138 1169 3931 
Q 950 3725 888 3313 
L 325 3413 
Q 428 3978 793 4289 
Q 1159 4600 1703 4600 
Q 2078 4600 2393 4439 
Q 2709 4278 2876 4000 
Q 3044 3722 3044 3409 
Q 3044 3113 2884 2869 
Q 2725 2625 2413 2481 
Q 2819 2388 3044 2092 
Q 3269 1797 3269 1353 
Q 3269 753 2831 336 
Q 2394 -81 1725 -81 
Q 1122 -81 723 278 
Q 325 638 269 1209 
z
" transform="scale(0.015625)"/>
       </defs>
       <use xlink:href="#ArialMT-33"/>
      </g>
     </g>
    </g>
    <g id="xtick_4">
     <g id="line2d_4">
      <path d="M 671.700881 379.011562 
L 671.700881 23.391562 
" clip-path="url(#pd9a926128a)" style="fill: none; stroke: #cccccc; stroke-opacity: 0.3; stroke-linecap: round"/>
     </g>
     <g id="text_4">
      <!-- 4 -->
      <g style="fill: #262626" transform="translate(668.642365 396.385156) scale(0.11 -0.11)">
       <defs>
        <path id="ArialMT-34" d="M 2069 0 
L 2069 1097 
L 81 1097 
L 81 1613 
L 2172 4581 
L 2631 4581 
L 2631 1613 
L 3250 1613 
L 3250 1097 
L 2631 1097 
L 2631 0 
L 2069 0 
z
M 2069 1613 
L 2069 3678 
L 634 1613 
L 2069 1613 
z
" transform="scale(0.015625)"/>
       </defs>
       <use xlink:href="#ArialMT-34"/>
      </g>
     </g>
    </g>
    <g id="text_5">
     <!-- Day -->
     <g style="fill: #262626" transform="translate(361.812812 411.160781) scale(0.12 -0.12)">
      <defs>
       <path id="Arial-BoldMT-44" d="M 463 4581 
L 2153 4581 
Q 2725 4581 3025 4494 
Q 3428 4375 3715 4072 
Q 4003 3769 4153 3330 
Q 4303 2891 4303 2247 
Q 4303 1681 4163 1272 
Q 3991 772 3672 463 
Q 3431 228 3022 97 
Q 2716 0 2203 0 
L 463 0 
L 463 4581 
z
M 1388 3806 
L 1388 772 
L 2078 772 
Q 2466 772 2638 816 
Q 2863 872 3011 1006 
Q 3159 1141 3253 1448 
Q 3347 1756 3347 2288 
Q 3347 2819 3253 3103 
Q 3159 3388 2990 3547 
Q 2822 3706 2563 3763 
Q 2369 3806 1803 3806 
L 1388 3806 
z
" transform="scale(0.015625)"/>
       <path id="Arial-BoldMT-61" d="M 1116 2306 
L 319 2450 
Q 453 2931 781 3162 
Q 1109 3394 1756 3394 
Q 2344 3394 2631 3255 
Q 2919 3116 3036 2902 
Q 3153 2688 3153 2116 
L 3144 1091 
Q 3144 653 3186 445 
Q 3228 238 3344 0 
L 2475 0 
Q 2441 88 2391 259 
Q 2369 338 2359 363 
Q 2134 144 1878 34 
Q 1622 -75 1331 -75 
Q 819 -75 523 203 
Q 228 481 228 906 
Q 228 1188 362 1408 
Q 497 1628 739 1745 
Q 981 1863 1438 1950 
Q 2053 2066 2291 2166 
L 2291 2253 
Q 2291 2506 2166 2614 
Q 2041 2722 1694 2722 
Q 1459 2722 1328 2630 
Q 1197 2538 1116 2306 
z
M 2291 1594 
Q 2122 1538 1756 1459 
Q 1391 1381 1278 1306 
Q 1106 1184 1106 997 
Q 1106 813 1243 678 
Q 1381 544 1594 544 
Q 1831 544 2047 700 
Q 2206 819 2256 991 
Q 2291 1103 2291 1419 
L 2291 1594 
z
" transform="scale(0.015625)"/>
       <path id="Arial-BoldMT-79" d="M 44 3319 
L 978 3319 
L 1772 963 
L 2547 3319 
L 3456 3319 
L 2284 125 
L 2075 -453 
Q 1959 -744 1854 -897 
Q 1750 -1050 1614 -1145 
Q 1478 -1241 1279 -1294 
Q 1081 -1347 831 -1347 
Q 578 -1347 334 -1294 
L 256 -606 
Q 463 -647 628 -647 
Q 934 -647 1081 -467 
Q 1228 -288 1306 -9 
L 44 3319 
z
" transform="scale(0.015625)"/>
      </defs>
      <use xlink:href="#Arial-BoldMT-44"/>
      <use xlink:href="#Arial-BoldMT-61" x="72.216797"/>
      <use xlink:href="#Arial-BoldMT-79" x="127.832031"/>
     </g>
    </g>
   </g>
   <g id="matplotlib.axis_2">
    <g id="ytick_1">
     <g id="line2d_5">
      <path d="M 44.049063 325.411534 
L 701.589062 325.411534 
" clip-path="url(#pd9a926128a)" style="fill: none; stroke: #cccccc; stroke-opacity: 0.3; stroke-linecap: round"/>
     </g>
     <g id="text_6">
      <!-- 2 -->
      <g style="fill: #262626" transform="translate(28.432031 329.348331) scale(0.11 -0.11)">
       <use xlink:href="#ArialMT-32"/>
      </g>
     </g>
    </g>
    <g id="ytick_2">
     <g id="line2d_6">
      <path d="M 44.049063 264.718448 
L 701.589062 264.718448 
" clip-path="url(#pd9a926128a)" style="fill: none; stroke: #cccccc; stroke-opacity: 0.3; stroke-linecap: round"/>
     </g>
     <g id="text_7">
      <!-- 4 -->
      <g style="fill: #262626" transform="translate(28.432031 268.655245) scale(0.11 -0.11)">
       <use xlink:href="#ArialMT-34"/>
      </g>
     </g>
    </g>
    <g id="ytick_3">
     <g id="line2d_7">
      <path d="M 44.049063 204.025363 
L 701.589062 204.025363 
" clip-path="url(#pd9a926128a)" style="fill: none; stroke: #cccccc; stroke-opacity: 0.3; stroke-linecap: round"/>
     </g>
     <g id="text_8">
      <!-- 6 -->
      <g style="fill: #262626" transform="translate(28.432031 207.96216) scale(0.11 -0.11)">
       <defs>
        <path id="ArialMT-36" d="M 3184 3459 
L 2625 3416 
Q 2550 3747 2413 3897 
Q 2184 4138 1850 4138 
Q 1581 4138 1378 3988 
Q 1113 3794 959 3422 
Q 806 3050 800 2363 
Q 1003 2672 1297 2822 
Q 1591 2972 1913 2972 
Q 2475 2972 2870 2558 
Q 3266 2144 3266 1488 
Q 3266 1056 3080 686 
Q 2894 316 2569 119 
Q 2244 -78 1831 -78 
Q 1128 -78 684 439 
Q 241 956 241 2144 
Q 241 3472 731 4075 
Q 1159 4600 1884 4600 
Q 2425 4600 2770 4297 
Q 3116 3994 3184 3459 
z
M 888 1484 
Q 888 1194 1011 928 
Q 1134 663 1356 523 
Q 1578 384 1822 384 
Q 2178 384 2434 671 
Q 2691 959 2691 1453 
Q 2691 1928 2437 2201 
Q 2184 2475 1800 2475 
Q 1419 2475 1153 2201 
Q 888 1928 888 1484 
z
" transform="scale(0.015625)"/>
       </defs>
       <use xlink:href="#ArialMT-36"/>
      </g>
     </g>
    </g>
    <g id="ytick_4">
     <g id="line2d_8">
      <path d="M 44.049063 143.332278 
L 701.589062 143.332278 
" clip-path="url(#pd9a926128a)" style="fill: none; stroke: #cccccc; stroke-opacity: 0.3; stroke-linecap: round"/>
     </g>
     <g id="text_9">
      <!-- 8 -->
      <g style="fill: #262626" transform="translate(28.432031 147.269075) scale(0.11 -0.11)">
       <defs>
        <path id="ArialMT-38" d="M 1131 2484 
Q 781 2613 612 2850 
Q 444 3088 444 3419 
Q 444 3919 803 4259 
Q 1163 4600 1759 4600 
Q 2359 4600 2725 4251 
Q 3091 3903 3091 3403 
Q 3091 3084 2923 2848 
Q 2756 2613 2416 2484 
Q 2838 2347 3058 2040 
Q 3278 1734 3278 1309 
Q 3278 722 2862 322 
Q 2447 -78 1769 -78 
Q 1091 -78 675 323 
Q 259 725 259 1325 
Q 259 1772 486 2073 
Q 713 2375 1131 2484 
z
M 1019 3438 
Q 1019 3113 1228 2906 
Q 1438 2700 1772 2700 
Q 2097 2700 2305 2904 
Q 2513 3109 2513 3406 
Q 2513 3716 2298 3927 
Q 2084 4138 1766 4138 
Q 1444 4138 1231 3931 
Q 1019 3725 1019 3438 
z
M 838 1322 
Q 838 1081 952 856 
Q 1066 631 1291 507 
Q 1516 384 1775 384 
Q 2178 384 2440 643 
Q 2703 903 2703 1303 
Q 2703 1709 2433 1975 
Q 2163 2241 1756 2241 
Q 1359 2241 1098 1978 
Q 838 1716 838 1322 
z
" transform="scale(0.015625)"/>
       </defs>
       <use xlink:href="#ArialMT-38"/>
      </g>
     </g>
    </g>
    <g id="ytick_5">
     <g id="line2d_9">
      <path d="M 44.049063 82.639193 
L 701.589062 82.639193 
" clip-path="url(#pd9a926128a)" style="fill: none; stroke: #cccccc; stroke-opacity: 0.3; stroke-linecap: round"/>
     </g>
     <g id="text_10">
      <!-- 10 -->
      <g style="fill: #262626" transform="translate(22.315 86.575989) scale(0.11 -0.11)">
       <defs>
        <path id="ArialMT-30" d="M 266 2259 
Q 266 3072 433 3567 
Q 600 4063 929 4331 
Q 1259 4600 1759 4600 
Q 2128 4600 2406 4451 
Q 2684 4303 2865 4023 
Q 3047 3744 3150 3342 
Q 3253 2941 3253 2259 
Q 3253 1453 3087 958 
Q 2922 463 2592 192 
Q 2263 -78 1759 -78 
Q 1097 -78 719 397 
Q 266 969 266 2259 
z
M 844 2259 
Q 844 1131 1108 757 
Q 1372 384 1759 384 
Q 2147 384 2411 759 
Q 2675 1134 2675 2259 
Q 2675 3391 2411 3762 
Q 2147 4134 1753 4134 
Q 1366 4134 1134 3806 
Q 844 3388 844 2259 
z
" transform="scale(0.015625)"/>
       </defs>
       <use xlink:href="#ArialMT-31"/>
       <use xlink:href="#ArialMT-30" x="55.615234"/>
      </g>
     </g>
    </g>
    <g id="text_11">
     <!-- Mean KL Divergence -->
     <g style="fill: #262626" transform="translate(15.789375 260.11125) rotate(-90) scale(0.12 -0.12)">
      <defs>
       <path id="Arial-BoldMT-4d" d="M 453 0 
L 453 4581 
L 1838 4581 
L 2669 1456 
L 3491 4581 
L 4878 4581 
L 4878 0 
L 4019 0 
L 4019 3606 
L 3109 0 
L 2219 0 
L 1313 3606 
L 1313 0 
L 453 0 
z
" transform="scale(0.015625)"/>
       <path id="Arial-BoldMT-65" d="M 2381 1056 
L 3256 909 
Q 3088 428 2723 176 
Q 2359 -75 1813 -75 
Q 947 -75 531 491 
Q 203 944 203 1634 
Q 203 2459 634 2926 
Q 1066 3394 1725 3394 
Q 2466 3394 2894 2905 
Q 3322 2416 3303 1406 
L 1103 1406 
Q 1113 1016 1316 798 
Q 1519 581 1822 581 
Q 2028 581 2168 693 
Q 2309 806 2381 1056 
z
M 2431 1944 
Q 2422 2325 2234 2523 
Q 2047 2722 1778 2722 
Q 1491 2722 1303 2513 
Q 1116 2303 1119 1944 
L 2431 1944 
z
" transform="scale(0.015625)"/>
       <path id="Arial-BoldMT-6e" d="M 3478 0 
L 2600 0 
L 2600 1694 
Q 2600 2231 2544 2389 
Q 2488 2547 2361 2634 
Q 2234 2722 2056 2722 
Q 1828 2722 1647 2597 
Q 1466 2472 1398 2265 
Q 1331 2059 1331 1503 
L 1331 0 
L 453 0 
L 453 3319 
L 1269 3319 
L 1269 2831 
Q 1703 3394 2363 3394 
Q 2653 3394 2893 3289 
Q 3134 3184 3257 3021 
Q 3381 2859 3429 2653 
Q 3478 2447 3478 2063 
L 3478 0 
z
" transform="scale(0.015625)"/>
       <path id="Arial-BoldMT-20" transform="scale(0.015625)"/>
       <path id="Arial-BoldMT-4b" d="M 478 0 
L 478 4581 
L 1403 4581 
L 1403 2547 
L 3272 4581 
L 4516 4581 
L 2791 2797 
L 4609 0 
L 3413 0 
L 2153 2150 
L 1403 1384 
L 1403 0 
L 478 0 
z
" transform="scale(0.015625)"/>
       <path id="Arial-BoldMT-4c" d="M 491 0 
L 491 4544 
L 1416 4544 
L 1416 772 
L 3716 772 
L 3716 0 
L 491 0 
z
" transform="scale(0.015625)"/>
       <path id="Arial-BoldMT-69" d="M 459 3769 
L 459 4581 
L 1338 4581 
L 1338 3769 
L 459 3769 
z
M 459 0 
L 459 3319 
L 1338 3319 
L 1338 0 
L 459 0 
z
" transform="scale(0.015625)"/>
       <path id="Arial-BoldMT-76" d="M 1372 0 
L 34 3319 
L 956 3319 
L 1581 1625 
L 1763 1059 
Q 1834 1275 1853 1344 
Q 1897 1484 1947 1625 
L 2578 3319 
L 3481 3319 
L 2163 0 
L 1372 0 
z
" transform="scale(0.015625)"/>
       <path id="Arial-BoldMT-72" d="M 1300 0 
L 422 0 
L 422 3319 
L 1238 3319 
L 1238 2847 
Q 1447 3181 1614 3287 
Q 1781 3394 1994 3394 
Q 2294 3394 2572 3228 
L 2300 2463 
Q 2078 2606 1888 2606 
Q 1703 2606 1575 2504 
Q 1447 2403 1373 2137 
Q 1300 1872 1300 1025 
L 1300 0 
z
" transform="scale(0.015625)"/>
       <path id="Arial-BoldMT-67" d="M 378 -219 
L 1381 -341 
Q 1406 -516 1497 -581 
Q 1622 -675 1891 -675 
Q 2234 -675 2406 -572 
Q 2522 -503 2581 -350 
Q 2622 -241 2622 53 
L 2622 538 
Q 2228 0 1628 0 
Q 959 0 569 566 
Q 263 1013 263 1678 
Q 263 2513 664 2953 
Q 1066 3394 1663 3394 
Q 2278 3394 2678 2853 
L 2678 3319 
L 3500 3319 
L 3500 341 
Q 3500 -247 3403 -537 
Q 3306 -828 3131 -993 
Q 2956 -1159 2664 -1253 
Q 2372 -1347 1925 -1347 
Q 1081 -1347 728 -1058 
Q 375 -769 375 -325 
Q 375 -281 378 -219 
z
M 1163 1728 
Q 1163 1200 1367 954 
Q 1572 709 1872 709 
Q 2194 709 2416 961 
Q 2638 1213 2638 1706 
Q 2638 2222 2425 2472 
Q 2213 2722 1888 2722 
Q 1572 2722 1367 2476 
Q 1163 2231 1163 1728 
z
" transform="scale(0.015625)"/>
       <path id="Arial-BoldMT-63" d="M 3353 2338 
L 2488 2181 
Q 2444 2441 2289 2572 
Q 2134 2703 1888 2703 
Q 1559 2703 1364 2476 
Q 1169 2250 1169 1719 
Q 1169 1128 1367 884 
Q 1566 641 1900 641 
Q 2150 641 2309 783 
Q 2469 925 2534 1272 
L 3397 1125 
Q 3263 531 2881 228 
Q 2500 -75 1859 -75 
Q 1131 -75 698 384 
Q 266 844 266 1656 
Q 266 2478 700 2936 
Q 1134 3394 1875 3394 
Q 2481 3394 2839 3133 
Q 3197 2872 3353 2338 
z
" transform="scale(0.015625)"/>
      </defs>
      <use xlink:href="#Arial-BoldMT-4d"/>
      <use xlink:href="#Arial-BoldMT-65" x="83.300781"/>
      <use xlink:href="#Arial-BoldMT-61" x="138.916016"/>
      <use xlink:href="#Arial-BoldMT-6e" x="194.53125"/>
      <use xlink:href="#Arial-BoldMT-20" x="255.615234"/>
      <use xlink:href="#Arial-BoldMT-4b" x="283.398438"/>
      <use xlink:href="#Arial-BoldMT-4c" x="355.615234"/>
      <use xlink:href="#Arial-BoldMT-20" x="414.949219"/>
      <use xlink:href="#Arial-BoldMT-44" x="442.732422"/>
      <use xlink:href="#Arial-BoldMT-69" x="514.949219"/>
      <use xlink:href="#Arial-BoldMT-76" x="542.732422"/>
      <use xlink:href="#Arial-BoldMT-65" x="598.347656"/>
      <use xlink:href="#Arial-BoldMT-72" x="653.962891"/>
      <use xlink:href="#Arial-BoldMT-67" x="692.878906"/>
      <use xlink:href="#Arial-BoldMT-65" x="753.962891"/>
      <use xlink:href="#Arial-BoldMT-6e" x="809.578125"/>
      <use xlink:href="#Arial-BoldMT-63" x="870.662109"/>
      <use xlink:href="#Arial-BoldMT-65" x="926.277344"/>
     </g>
    </g>
   </g>
   <g id="line2d_10">
    <path d="M 73.937244 348.713793 
L 273.19179 355.041879 
L 472.446335 315.468502 
L 671.700881 282.025475 
" clip-path="url(#pd9a926128a)" style="fill: none; stroke: #1f4788; stroke-opacity: 0.35; stroke-width: 2; stroke-linecap: round"/>
    <defs>
     <path id="mb7f996b099" d="M 0 2 
C 0.530406 2 1.03916 1.789267 1.414214 1.414214 
C 1.789267 1.03916 2 0.530406 2 0 
C 2 -0.530406 1.789267 -1.03916 1.414214 -1.414214 
C 1.03916 -1.789267 0.530406 -2 0 -2 
C -0.530406 -2 -1.03916 -1.789267 -1.414214 -1.414214 
C -1.789267 -1.03916 -2 -0.530406 -2 0 
C -2 0.530406 -1.789267 1.03916 -1.414214 1.414214 
C -1.03916 1.789267 -0.530406 2 0 2 
z
" style="stroke: #1f4788; stroke-opacity: 0.35"/>
    </defs>
    <g clip-path="url(#pd9a926128a)">
     <use xlink:href="#mb7f996b099" x="73.937244" y="348.713793" style="fill: #1f4788; fill-opacity: 0.35; stroke: #1f4788; stroke-opacity: 0.35"/>
     <use xlink:href="#mb7f996b099" x="273.19179" y="355.041879" style="fill: #1f4788; fill-opacity: 0.35; stroke: #1f4788; stroke-opacity: 0.35"/>
     <use xlink:href="#mb7f996b099" x="472.446335" y="315.468502" style="fill: #1f4788; fill-opacity: 0.35; stroke: #1f4788; stroke-opacity: 0.35"/>
     <use xlink:href="#mb7f996b099" x="671.700881" y="282.025475" style="fill: #1f4788; fill-opacity: 0.35; stroke: #1f4788; stroke-opacity: 0.35"/>
    </g>
   </g>
   <g id="line2d_11">
    <path d="M 73.937244 334.482828 
L 273.19179 292.160414 
L 472.446335 323.611554 
L 671.700881 290.70187 
" clip-path="url(#pd9a926128a)" style="fill: none; stroke: #1f4788; stroke-opacity: 0.35; stroke-width: 2; stroke-linecap: round"/>
    <g clip-path="url(#pd9a926128a)">
     <use xlink:href="#mb7f996b099" x="73.937244" y="334.482828" style="fill: #1f4788; fill-opacity: 0.35; stroke: #1f4788; stroke-opacity: 0.35"/>
     <use xlink:href="#mb7f996b099" x="273.19179" y="292.160414" style="fill: #1f4788; fill-opacity: 0.35; stroke: #1f4788; stroke-opacity: 0.35"/>
     <use xlink:href="#mb7f996b099" x="472.446335" y="323.611554" style="fill: #1f4788; fill-opacity: 0.35; stroke: #1f4788; stroke-opacity: 0.35"/>
     <use xlink:href="#mb7f996b099" x="671.700881" y="290.70187" style="fill: #1f4788; fill-opacity: 0.35; stroke: #1f4788; stroke-opacity: 0.35"/>
    </g>
   </g>
   <g id="line2d_12">
    <path d="M 73.937244 354.928446 
L 273.19179 291.39087 
L 472.446335 307.094076 
L 671.700881 324.278803 
" clip-path="url(#pd9a926128a)" style="fill: none; stroke: #1f4788; stroke-opacity: 0.35; stroke-width: 2; stroke-linecap: round"/>
    <g clip-path="url(#pd9a926128a)">
     <use xlink:href="#mb7f996b099" x="73.937244" y="354.928446" style="fill: #1f4788; fill-opacity: 0.35; stroke: #1f4788; stroke-opacity: 0.35"/>
     <use xlink:href="#mb7f996b099" x="273.19179" y="291.39087" style="fill: #1f4788; fill-opacity: 0.35; stroke: #1f4788; stroke-opacity: 0.35"/>
     <use xlink:href="#mb7f996b099" x="472.446335" y="307.094076" style="fill: #1f4788; fill-opacity: 0.35; stroke: #1f4788; stroke-opacity: 0.35"/>
     <use xlink:href="#mb7f996b099" x="671.700881" y="324.278803" style="fill: #1f4788; fill-opacity: 0.35; stroke: #1f4788; stroke-opacity: 0.35"/>
    </g>
   </g>
   <g id="line2d_13">
    <path d="M 73.937244 288.532905 
L 273.19179 273.689193 
L 472.446335 332.529856 
L 671.700881 334.319412 
" clip-path="url(#pd9a926128a)" style="fill: none; stroke: #1f4788; stroke-opacity: 0.35; stroke-width: 2; stroke-linecap: round"/>
    <g clip-path="url(#pd9a926128a)">
     <use xlink:href="#mb7f996b099" x="73.937244" y="288.532905" style="fill: #1f4788; fill-opacity: 0.35; stroke: #1f4788; stroke-opacity: 0.35"/>
     <use xlink:href="#mb7f996b099" x="273.19179" y="273.689193" style="fill: #1f4788; fill-opacity: 0.35; stroke: #1f4788; stroke-opacity: 0.35"/>
     <use xlink:href="#mb7f996b099" x="472.446335" y="332.529856" style="fill: #1f4788; fill-opacity: 0.35; stroke: #1f4788; stroke-opacity: 0.35"/>
     <use xlink:href="#mb7f996b099" x="671.700881" y="334.319412" style="fill: #1f4788; fill-opacity: 0.35; stroke: #1f4788; stroke-opacity: 0.35"/>
    </g>
   </g>
   <g id="line2d_14">
    <path d="M 73.937244 356.643886 
L 273.19179 270.34546 
L 472.446335 273.10641 
L 671.700881 280.899618 
" clip-path="url(#pd9a926128a)" style="fill: none; stroke: #1f4788; stroke-opacity: 0.35; stroke-width: 2; stroke-linecap: round"/>
    <g clip-path="url(#pd9a926128a)">
     <use xlink:href="#mb7f996b099" x="73.937244" y="356.643886" style="fill: #1f4788; fill-opacity: 0.35; stroke: #1f4788; stroke-opacity: 0.35"/>
     <use xlink:href="#mb7f996b099" x="273.19179" y="270.34546" style="fill: #1f4788; fill-opacity: 0.35; stroke: #1f4788; stroke-opacity: 0.35"/>
     <use xlink:href="#mb7f996b099" x="472.446335" y="273.10641" style="fill: #1f4788; fill-opacity: 0.35; stroke: #1f4788; stroke-opacity: 0.35"/>
     <use xlink:href="#mb7f996b099" x="671.700881" y="280.899618" style="fill: #1f4788; fill-opacity: 0.35; stroke: #1f4788; stroke-opacity: 0.35"/>
    </g>
   </g>
   <g id="line2d_15">
    <path d="M 73.937244 320.540643 
L 273.19179 336.79708 
L 472.446335 208.168944 
L 671.700881 272.167216 
" clip-path="url(#pd9a926128a)" style="fill: none; stroke: #1f4788; stroke-opacity: 0.35; stroke-width: 2; stroke-linecap: round"/>
    <g clip-path="url(#pd9a926128a)">
     <use xlink:href="#mb7f996b099" x="73.937244" y="320.540643" style="fill: #1f4788; fill-opacity: 0.35; stroke: #1f4788; stroke-opacity: 0.35"/>
     <use xlink:href="#mb7f996b099" x="273.19179" y="336.79708" style="fill: #1f4788; fill-opacity: 0.35; stroke: #1f4788; stroke-opacity: 0.35"/>
     <use xlink:href="#mb7f996b099" x="472.446335" y="208.168944" style="fill: #1f4788; fill-opacity: 0.35; stroke: #1f4788; stroke-opacity: 0.35"/>
     <use xlink:href="#mb7f996b099" x="671.700881" y="272.167216" style="fill: #1f4788; fill-opacity: 0.35; stroke: #1f4788; stroke-opacity: 0.35"/>
    </g>
   </g>
   <g id="line2d_16">
    <path d="M 73.937244 330.761455 
L 273.19179 315.127215 
L 472.446335 325.422654 
L 671.700881 351.839365 
" clip-path="url(#pd9a926128a)" style="fill: none; stroke: #1f4788; stroke-opacity: 0.35; stroke-width: 2; stroke-linecap: round"/>
    <g clip-path="url(#pd9a926128a)">
     <use xlink:href="#mb7f996b099" x="73.937244" y="330.761455" style="fill: #1f4788; fill-opacity: 0.35; stroke: #1f4788; stroke-opacity: 0.35"/>
     <use xlink:href="#mb7f996b099" x="273.19179" y="315.127215" style="fill: #1f4788; fill-opacity: 0.35; stroke: #1f4788; stroke-opacity: 0.35"/>
     <use xlink:href="#mb7f996b099" x="472.446335" y="325.422654" style="fill: #1f4788; fill-opacity: 0.35; stroke: #1f4788; stroke-opacity: 0.35"/>
     <use xlink:href="#mb7f996b099" x="671.700881" y="351.839365" style="fill: #1f4788; fill-opacity: 0.35; stroke: #1f4788; stroke-opacity: 0.35"/>
    </g>
   </g>
   <g id="line2d_17">
    <path d="M 73.937244 319.940604 
L 273.19179 300.431821 
L 472.446335 325.38371 
L 671.700881 257.114508 
" clip-path="url(#pd9a926128a)" style="fill: none; stroke: #1f4788; stroke-opacity: 0.35; stroke-width: 2; stroke-linecap: round"/>
    <g clip-path="url(#pd9a926128a)">
     <use xlink:href="#mb7f996b099" x="73.937244" y="319.940604" style="fill: #1f4788; fill-opacity: 0.35; stroke: #1f4788; stroke-opacity: 0.35"/>
     <use xlink:href="#mb7f996b099" x="273.19179" y="300.431821" style="fill: #1f4788; fill-opacity: 0.35; stroke: #1f4788; stroke-opacity: 0.35"/>
     <use xlink:href="#mb7f996b099" x="472.446335" y="325.38371" style="fill: #1f4788; fill-opacity: 0.35; stroke: #1f4788; stroke-opacity: 0.35"/>
     <use xlink:href="#mb7f996b099" x="671.700881" y="257.114508" style="fill: #1f4788; fill-opacity: 0.35; stroke: #1f4788; stroke-opacity: 0.35"/>
    </g>
   </g>
   <g id="line2d_18">
    <path d="M 73.937244 342.082957 
L 273.19179 355.123249 
L 472.446335 303.692967 
L 671.700881 334.61535 
" clip-path="url(#pd9a926128a)" style="fill: none; stroke: #1f4788; stroke-opacity: 0.35; stroke-width: 2; stroke-linecap: round"/>
    <g clip-path="url(#pd9a926128a)">
     <use xlink:href="#mb7f996b099" x="73.937244" y="342.082957" style="fill: #1f4788; fill-opacity: 0.35; stroke: #1f4788; stroke-opacity: 0.35"/>
     <use xlink:href="#mb7f996b099" x="273.19179" y="355.123249" style="fill: #1f4788; fill-opacity: 0.35; stroke: #1f4788; stroke-opacity: 0.35"/>
     <use xlink:href="#mb7f996b099" x="472.446335" y="303.692967" style="fill: #1f4788; fill-opacity: 0.35; stroke: #1f4788; stroke-opacity: 0.35"/>
     <use xlink:href="#mb7f996b099" x="671.700881" y="334.61535" style="fill: #1f4788; fill-opacity: 0.35; stroke: #1f4788; stroke-opacity: 0.35"/>
    </g>
   </g>
   <g id="line2d_19">
    <path d="M 73.937244 339.478672 
L 273.19179 348.644663 
L 472.446335 341.598417 
L 671.700881 345.665857 
" clip-path="url(#pd9a926128a)" style="fill: none; stroke: #1f4788; stroke-opacity: 0.35; stroke-width: 2; stroke-linecap: round"/>
    <g clip-path="url(#pd9a926128a)">
     <use xlink:href="#mb7f996b099" x="73.937244" y="339.478672" style="fill: #1f4788; fill-opacity: 0.35; stroke: #1f4788; stroke-opacity: 0.35"/>
     <use xlink:href="#mb7f996b099" x="273.19179" y="348.644663" style="fill: #1f4788; fill-opacity: 0.35; stroke: #1f4788; stroke-opacity: 0.35"/>
     <use xlink:href="#mb7f996b099" x="472.446335" y="341.598417" style="fill: #1f4788; fill-opacity: 0.35; stroke: #1f4788; stroke-opacity: 0.35"/>
     <use xlink:href="#mb7f996b099" x="671.700881" y="345.665857" style="fill: #1f4788; fill-opacity: 0.35; stroke: #1f4788; stroke-opacity: 0.35"/>
    </g>
   </g>
   <g id="line2d_20">
    <path d="M 73.937244 336.996907 
L 273.19179 294.883029 
L 472.446335 215.082487 
L 671.700881 328.918319 
" clip-path="url(#pd9a926128a)" style="fill: none; stroke: #1f4788; stroke-opacity: 0.35; stroke-width: 2; stroke-linecap: round"/>
    <g clip-path="url(#pd9a926128a)">
     <use xlink:href="#mb7f996b099" x="73.937244" y="336.996907" style="fill: #1f4788; fill-opacity: 0.35; stroke: #1f4788; stroke-opacity: 0.35"/>
     <use xlink:href="#mb7f996b099" x="273.19179" y="294.883029" style="fill: #1f4788; fill-opacity: 0.35; stroke: #1f4788; stroke-opacity: 0.35"/>
     <use xlink:href="#mb7f996b099" x="472.446335" y="215.082487" style="fill: #1f4788; fill-opacity: 0.35; stroke: #1f4788; stroke-opacity: 0.35"/>
     <use xlink:href="#mb7f996b099" x="671.700881" y="328.918319" style="fill: #1f4788; fill-opacity: 0.35; stroke: #1f4788; stroke-opacity: 0.35"/>
    </g>
   </g>
   <g id="line2d_21">
    <path d="M 73.937244 349.405853 
L 273.19179 324.155255 
L 472.446335 340.033954 
L 671.700881 273.088726 
" clip-path="url(#pd9a926128a)" style="fill: none; stroke: #1f4788; stroke-opacity: 0.35; stroke-width: 2; stroke-linecap: round"/>
    <g clip-path="url(#pd9a926128a)">
     <use xlink:href="#mb7f996b099" x="73.937244" y="349.405853" style="fill: #1f4788; fill-opacity: 0.35; stroke: #1f4788; stroke-opacity: 0.35"/>
     <use xlink:href="#mb7f996b099" x="273.19179" y="324.155255" style="fill: #1f4788; fill-opacity: 0.35; stroke: #1f4788; stroke-opacity: 0.35"/>
     <use xlink:href="#mb7f996b099" x="472.446335" y="340.033954" style="fill: #1f4788; fill-opacity: 0.35; stroke: #1f4788; stroke-opacity: 0.35"/>
     <use xlink:href="#mb7f996b099" x="671.700881" y="273.088726" style="fill: #1f4788; fill-opacity: 0.35; stroke: #1f4788; stroke-opacity: 0.35"/>
    </g>
   </g>
   <g id="line2d_22">
    <path d="M 73.937244 312.02343 
L 273.19179 196.559799 
L 472.446335 232.836702 
L 671.700881 239.136005 
" clip-path="url(#pd9a926128a)" style="fill: none; stroke: #9e778a; stroke-opacity: 0.35; stroke-width: 2; stroke-linecap: round"/>
    <defs>
     <path id="m5bd5f994ac" d="M 0 2 
C 0.530406 2 1.03916 1.789267 1.414214 1.414214 
C 1.789267 1.03916 2 0.530406 2 0 
C 2 -0.530406 1.789267 -1.03916 1.414214 -1.414214 
C 1.03916 -1.789267 0.530406 -2 0 -2 
C -0.530406 -2 -1.03916 -1.789267 -1.414214 -1.414214 
C -1.789267 -1.03916 -2 -0.530406 -2 0 
C -2 0.530406 -1.789267 1.03916 -1.414214 1.414214 
C -1.03916 1.789267 -0.530406 2 0 2 
z
" style="stroke: #9e778a; stroke-opacity: 0.35"/>
    </defs>
    <g clip-path="url(#pd9a926128a)">
     <use xlink:href="#m5bd5f994ac" x="73.937244" y="312.02343" style="fill: #9e778a; fill-opacity: 0.35; stroke: #9e778a; stroke-opacity: 0.35"/>
     <use xlink:href="#m5bd5f994ac" x="273.19179" y="196.559799" style="fill: #9e778a; fill-opacity: 0.35; stroke: #9e778a; stroke-opacity: 0.35"/>
     <use xlink:href="#m5bd5f994ac" x="472.446335" y="232.836702" style="fill: #9e778a; fill-opacity: 0.35; stroke: #9e778a; stroke-opacity: 0.35"/>
     <use xlink:href="#m5bd5f994ac" x="671.700881" y="239.136005" style="fill: #9e778a; fill-opacity: 0.35; stroke: #9e778a; stroke-opacity: 0.35"/>
    </g>
   </g>
   <g id="line2d_23">
    <path d="M 73.937244 185.805191 
L 273.19179 262.859464 
L 472.446335 275.134837 
L 671.700881 345.127709 
" clip-path="url(#pd9a926128a)" style="fill: none; stroke: #9e778a; stroke-opacity: 0.35; stroke-width: 2; stroke-linecap: round"/>
    <g clip-path="url(#pd9a926128a)">
     <use xlink:href="#m5bd5f994ac" x="73.937244" y="185.805191" style="fill: #9e778a; fill-opacity: 0.35; stroke: #9e778a; stroke-opacity: 0.35"/>
     <use xlink:href="#m5bd5f994ac" x="273.19179" y="262.859464" style="fill: #9e778a; fill-opacity: 0.35; stroke: #9e778a; stroke-opacity: 0.35"/>
     <use xlink:href="#m5bd5f994ac" x="472.446335" y="275.134837" style="fill: #9e778a; fill-opacity: 0.35; stroke: #9e778a; stroke-opacity: 0.35"/>
     <use xlink:href="#m5bd5f994ac" x="671.700881" y="345.127709" style="fill: #9e778a; fill-opacity: 0.35; stroke: #9e778a; stroke-opacity: 0.35"/>
    </g>
   </g>
   <g id="line2d_24">
    <path d="M 73.937244 343.357397 
L 273.19179 310.78516 
L 472.446335 283.515628 
L 671.700881 253.816453 
" clip-path="url(#pd9a926128a)" style="fill: none; stroke: #9e778a; stroke-opacity: 0.35; stroke-width: 2; stroke-linecap: round"/>
    <g clip-path="url(#pd9a926128a)">
     <use xlink:href="#m5bd5f994ac" x="73.937244" y="343.357397" style="fill: #9e778a; fill-opacity: 0.35; stroke: #9e778a; stroke-opacity: 0.35"/>
     <use xlink:href="#m5bd5f994ac" x="273.19179" y="310.78516" style="fill: #9e778a; fill-opacity: 0.35; stroke: #9e778a; stroke-opacity: 0.35"/>
     <use xlink:href="#m5bd5f994ac" x="472.446335" y="283.515628" style="fill: #9e778a; fill-opacity: 0.35; stroke: #9e778a; stroke-opacity: 0.35"/>
     <use xlink:href="#m5bd5f994ac" x="671.700881" y="253.816453" style="fill: #9e778a; fill-opacity: 0.35; stroke: #9e778a; stroke-opacity: 0.35"/>
    </g>
   </g>
   <g id="line2d_25">
    <path d="M 73.937244 280.690195 
L 273.19179 204.424592 
L 472.446335 329.909997 
L 671.700881 310.395944 
" clip-path="url(#pd9a926128a)" style="fill: none; stroke: #9e778a; stroke-opacity: 0.35; stroke-width: 2; stroke-linecap: round"/>
    <g clip-path="url(#pd9a926128a)">
     <use xlink:href="#m5bd5f994ac" x="73.937244" y="280.690195" style="fill: #9e778a; fill-opacity: 0.35; stroke: #9e778a; stroke-opacity: 0.35"/>
     <use xlink:href="#m5bd5f994ac" x="273.19179" y="204.424592" style="fill: #9e778a; fill-opacity: 0.35; stroke: #9e778a; stroke-opacity: 0.35"/>
     <use xlink:href="#m5bd5f994ac" x="472.446335" y="329.909997" style="fill: #9e778a; fill-opacity: 0.35; stroke: #9e778a; stroke-opacity: 0.35"/>
     <use xlink:href="#m5bd5f994ac" x="671.700881" y="310.395944" style="fill: #9e778a; fill-opacity: 0.35; stroke: #9e778a; stroke-opacity: 0.35"/>
    </g>
   </g>
   <g id="line2d_26">
    <path d="M 73.937244 304.056582 
L 273.19179 352.228974 
L 472.446335 285.166698 
L 671.700881 277.148492 
" clip-path="url(#pd9a926128a)" style="fill: none; stroke: #9e778a; stroke-opacity: 0.35; stroke-width: 2; stroke-linecap: round"/>
    <g clip-path="url(#pd9a926128a)">
     <use xlink:href="#m5bd5f994ac" x="73.937244" y="304.056582" style="fill: #9e778a; fill-opacity: 0.35; stroke: #9e778a; stroke-opacity: 0.35"/>
     <use xlink:href="#m5bd5f994ac" x="273.19179" y="352.228974" style="fill: #9e778a; fill-opacity: 0.35; stroke: #9e778a; stroke-opacity: 0.35"/>
     <use xlink:href="#m5bd5f994ac" x="472.446335" y="285.166698" style="fill: #9e778a; fill-opacity: 0.35; stroke: #9e778a; stroke-opacity: 0.35"/>
     <use xlink:href="#m5bd5f994ac" x="671.700881" y="277.148492" style="fill: #9e778a; fill-opacity: 0.35; stroke: #9e778a; stroke-opacity: 0.35"/>
    </g>
   </g>
   <g id="line2d_27">
    <path d="M 73.937244 39.556108 
L 273.19179 290.184467 
L 472.446335 362.007233 
L 671.700881 269.354725 
" clip-path="url(#pd9a926128a)" style="fill: none; stroke: #9e778a; stroke-opacity: 0.35; stroke-width: 2; stroke-linecap: round"/>
    <g clip-path="url(#pd9a926128a)">
     <use xlink:href="#m5bd5f994ac" x="73.937244" y="39.556108" style="fill: #9e778a; fill-opacity: 0.35; stroke: #9e778a; stroke-opacity: 0.35"/>
     <use xlink:href="#m5bd5f994ac" x="273.19179" y="290.184467" style="fill: #9e778a; fill-opacity: 0.35; stroke: #9e778a; stroke-opacity: 0.35"/>
     <use xlink:href="#m5bd5f994ac" x="472.446335" y="362.007233" style="fill: #9e778a; fill-opacity: 0.35; stroke: #9e778a; stroke-opacity: 0.35"/>
     <use xlink:href="#m5bd5f994ac" x="671.700881" y="269.354725" style="fill: #9e778a; fill-opacity: 0.35; stroke: #9e778a; stroke-opacity: 0.35"/>
    </g>
   </g>
   <g id="line2d_28">
    <path d="M 73.937244 297.155347 
L 273.19179 297.576887 
L 472.446335 264.707897 
L 671.700881 277.325956 
" clip-path="url(#pd9a926128a)" style="fill: none; stroke: #9e778a; stroke-opacity: 0.35; stroke-width: 2; stroke-linecap: round"/>
    <g clip-path="url(#pd9a926128a)">
     <use xlink:href="#m5bd5f994ac" x="73.937244" y="297.155347" style="fill: #9e778a; fill-opacity: 0.35; stroke: #9e778a; stroke-opacity: 0.35"/>
     <use xlink:href="#m5bd5f994ac" x="273.19179" y="297.576887" style="fill: #9e778a; fill-opacity: 0.35; stroke: #9e778a; stroke-opacity: 0.35"/>
     <use xlink:href="#m5bd5f994ac" x="472.446335" y="264.707897" style="fill: #9e778a; fill-opacity: 0.35; stroke: #9e778a; stroke-opacity: 0.35"/>
     <use xlink:href="#m5bd5f994ac" x="671.700881" y="277.325956" style="fill: #9e778a; fill-opacity: 0.35; stroke: #9e778a; stroke-opacity: 0.35"/>
    </g>
   </g>
   <g id="line2d_29">
    <path d="M 73.937244 314.700155 
L 273.19179 302.467131 
L 472.446335 276.964163 
L 671.700881 235.730347 
" clip-path="url(#pd9a926128a)" style="fill: none; stroke: #9e778a; stroke-opacity: 0.35; stroke-width: 2; stroke-linecap: round"/>
    <g clip-path="url(#pd9a926128a)">
     <use xlink:href="#m5bd5f994ac" x="73.937244" y="314.700155" style="fill: #9e778a; fill-opacity: 0.35; stroke: #9e778a; stroke-opacity: 0.35"/>
     <use xlink:href="#m5bd5f994ac" x="273.19179" y="302.467131" style="fill: #9e778a; fill-opacity: 0.35; stroke: #9e778a; stroke-opacity: 0.35"/>
     <use xlink:href="#m5bd5f994ac" x="472.446335" y="276.964163" style="fill: #9e778a; fill-opacity: 0.35; stroke: #9e778a; stroke-opacity: 0.35"/>
     <use xlink:href="#m5bd5f994ac" x="671.700881" y="235.730347" style="fill: #9e778a; fill-opacity: 0.35; stroke: #9e778a; stroke-opacity: 0.35"/>
    </g>
   </g>
   <g id="line2d_30">
    <path d="M 73.937244 271.162411 
L 273.19179 313.293304 
L 472.446335 245.284437 
L 671.700881 304.140056 
" clip-path="url(#pd9a926128a)" style="fill: none; stroke: #9e778a; stroke-opacity: 0.35; stroke-width: 2; stroke-linecap: round"/>
    <g clip-path="url(#pd9a926128a)">
     <use xlink:href="#m5bd5f994ac" x="73.937244" y="271.162411" style="fill: #9e778a; fill-opacity: 0.35; stroke: #9e778a; stroke-opacity: 0.35"/>
     <use xlink:href="#m5bd5f994ac" x="273.19179" y="313.293304" style="fill: #9e778a; fill-opacity: 0.35; stroke: #9e778a; stroke-opacity: 0.35"/>
     <use xlink:href="#m5bd5f994ac" x="472.446335" y="245.284437" style="fill: #9e778a; fill-opacity: 0.35; stroke: #9e778a; stroke-opacity: 0.35"/>
     <use xlink:href="#m5bd5f994ac" x="671.700881" y="304.140056" style="fill: #9e778a; fill-opacity: 0.35; stroke: #9e778a; stroke-opacity: 0.35"/>
    </g>
   </g>
   <g id="line2d_31">
    <path d="M 73.937244 329.647675 
L 273.19179 301.151061 
L 472.446335 311.779135 
L 671.700881 286.475418 
" clip-path="url(#pd9a926128a)" style="fill: none; stroke: #9e778a; stroke-opacity: 0.35; stroke-width: 2; stroke-linecap: round"/>
    <g clip-path="url(#pd9a926128a)">
     <use xlink:href="#m5bd5f994ac" x="73.937244" y="329.647675" style="fill: #9e778a; fill-opacity: 0.35; stroke: #9e778a; stroke-opacity: 0.35"/>
     <use xlink:href="#m5bd5f994ac" x="273.19179" y="301.151061" style="fill: #9e778a; fill-opacity: 0.35; stroke: #9e778a; stroke-opacity: 0.35"/>
     <use xlink:href="#m5bd5f994ac" x="472.446335" y="311.779135" style="fill: #9e778a; fill-opacity: 0.35; stroke: #9e778a; stroke-opacity: 0.35"/>
     <use xlink:href="#m5bd5f994ac" x="671.700881" y="286.475418" style="fill: #9e778a; fill-opacity: 0.35; stroke: #9e778a; stroke-opacity: 0.35"/>
    </g>
   </g>
   <g id="line2d_32">
    <path d="M 73.937244 322.629741 
L 273.19179 251.21648 
L 472.446335 186.249772 
L 671.700881 318.294172 
" clip-path="url(#pd9a926128a)" style="fill: none; stroke: #9e778a; stroke-opacity: 0.35; stroke-width: 2; stroke-linecap: round"/>
    <g clip-path="url(#pd9a926128a)">
     <use xlink:href="#m5bd5f994ac" x="73.937244" y="322.629741" style="fill: #9e778a; fill-opacity: 0.35; stroke: #9e778a; stroke-opacity: 0.35"/>
     <use xlink:href="#m5bd5f994ac" x="273.19179" y="251.21648" style="fill: #9e778a; fill-opacity: 0.35; stroke: #9e778a; stroke-opacity: 0.35"/>
     <use xlink:href="#m5bd5f994ac" x="472.446335" y="186.249772" style="fill: #9e778a; fill-opacity: 0.35; stroke: #9e778a; stroke-opacity: 0.35"/>
     <use xlink:href="#m5bd5f994ac" x="671.700881" y="318.294172" style="fill: #9e778a; fill-opacity: 0.35; stroke: #9e778a; stroke-opacity: 0.35"/>
    </g>
   </g>
   <g id="line2d_33">
    <path d="M 73.937244 291.176674 
L 273.19179 362.847017 
L 472.446335 267.374262 
L 671.700881 267.973846 
" clip-path="url(#pd9a926128a)" style="fill: none; stroke: #9e778a; stroke-opacity: 0.35; stroke-width: 2; stroke-linecap: round"/>
    <g clip-path="url(#pd9a926128a)">
     <use xlink:href="#m5bd5f994ac" x="73.937244" y="291.176674" style="fill: #9e778a; fill-opacity: 0.35; stroke: #9e778a; stroke-opacity: 0.35"/>
     <use xlink:href="#m5bd5f994ac" x="273.19179" y="362.847017" style="fill: #9e778a; fill-opacity: 0.35; stroke: #9e778a; stroke-opacity: 0.35"/>
     <use xlink:href="#m5bd5f994ac" x="472.446335" y="267.374262" style="fill: #9e778a; fill-opacity: 0.35; stroke: #9e778a; stroke-opacity: 0.35"/>
     <use xlink:href="#m5bd5f994ac" x="671.700881" y="267.973846" style="fill: #9e778a; fill-opacity: 0.35; stroke: #9e778a; stroke-opacity: 0.35"/>
    </g>
   </g>
   <g id="PolyCollection_1">
    <defs>
     <path id="m242efa5cd6" d="M 73.937244 -91.149612 
L 73.937244 -80.205043 
L 273.19179 -99.072462 
L 472.446335 -98.304839 
L 671.700881 -105.301391 
L 671.700881 -123.865668 
L 671.700881 -123.865668 
L 472.446335 -141.602385 
L 273.19179 -116.401996 
L 73.937244 -91.149612 
z
" style="stroke: #1f4788; stroke-opacity: 0.2"/>
    </defs>
    <g clip-path="url(#pd9a926128a)">
     <use xlink:href="#m242efa5cd6" x="0" y="420.886406" style="fill: #1f4788; fill-opacity: 0.2; stroke: #1f4788; stroke-opacity: 0.2"/>
    </g>
   </g>
   <g id="PolyCollection_2">
    <defs>
     <path id="m0cb549cb66" d="M 73.937244 -178.826896 
L 73.937244 -114.285766 
L 273.19179 -116.574423 
L 472.446335 -129.852067 
L 671.700881 -122.123522 
L 671.700881 -155.496103 
L 671.700881 -155.496103 
L 472.446335 -158.432285 
L 273.19179 -150.932666 
L 73.937244 -178.826896 
z
" style="stroke: #9e778a; stroke-opacity: 0.2"/>
    </defs>
    <g clip-path="url(#pd9a926128a)">
     <use xlink:href="#m0cb549cb66" x="0" y="420.886406" style="fill: #9e778a; fill-opacity: 0.2; stroke: #9e778a; stroke-opacity: 0.2"/>
    </g>
   </g>
   <g id="patch_3">
    <path d="M 44.049063 379.011562 
L 44.049063 23.391562 
" style="fill: none; stroke: #cccccc; stroke-width: 1.25; stroke-linejoin: miter; stroke-linecap: square"/>
   </g>
   <g id="patch_4">
    <path d="M 701.589062 379.011562 
L 701.589062 23.391562 
" style="fill: none; stroke: #cccccc; stroke-width: 1.25; stroke-linejoin: miter; stroke-linecap: square"/>
   </g>
   <g id="patch_5">
    <path d="M 44.049063 379.011562 
L 701.589062 379.011562 
" style="fill: none; stroke: #cccccc; stroke-width: 1.25; stroke-linejoin: miter; stroke-linecap: square"/>
   </g>
   <g id="patch_6">
    <path d="M 44.049063 23.391562 
L 701.589062 23.391562 
" style="fill: none; stroke: #cccccc; stroke-width: 1.25; stroke-linejoin: miter; stroke-linecap: square"/>
   </g>
   <g id="line2d_34">
    <path d="M 73.937244 335.209079 
L 273.19179 313.149177 
L 472.446335 300.932794 
L 671.700881 306.302876 
" clip-path="url(#pd9a926128a)" style="fill: none; stroke: #1f4788; stroke-width: 4; stroke-linecap: round"/>
    <defs>
     <path id="mdfaeca2fb6" d="M 0 5 
C 1.326016 5 2.597899 4.473168 3.535534 3.535534 
C 4.473168 2.597899 5 1.326016 5 0 
C 5 -1.326016 4.473168 -2.597899 3.535534 -3.535534 
C 2.597899 -4.473168 1.326016 -5 0 -5 
C -1.326016 -5 -2.597899 -4.473168 -3.535534 -3.535534 
C -4.473168 -2.597899 -5 -1.326016 -5 0 
C -5 1.326016 -4.473168 2.597899 -3.535534 3.535534 
C -2.597899 4.473168 -1.326016 5 0 5 
z
" style="stroke: #1f4788"/>
    </defs>
    <g clip-path="url(#pd9a926128a)">
     <use xlink:href="#mdfaeca2fb6" x="73.937244" y="335.209079" style="fill: #1f4788; stroke: #1f4788"/>
     <use xlink:href="#mdfaeca2fb6" x="273.19179" y="313.149177" style="fill: #1f4788; stroke: #1f4788"/>
     <use xlink:href="#mdfaeca2fb6" x="472.446335" y="300.932794" style="fill: #1f4788; stroke: #1f4788"/>
     <use xlink:href="#mdfaeca2fb6" x="671.700881" y="306.302876" style="fill: #1f4788; stroke: #1f4788"/>
    </g>
   </g>
   <g id="line2d_35">
    <path d="M 73.937244 274.330075 
L 273.19179 287.132861 
L 472.446335 276.74423 
L 671.700881 282.076594 
" clip-path="url(#pd9a926128a)" style="fill: none; stroke: #9e778a; stroke-width: 4; stroke-linecap: round"/>
    <defs>
     <path id="m81548f7a97" d="M 0 5 
C 1.326016 5 2.597899 4.473168 3.535534 3.535534 
C 4.473168 2.597899 5 1.326016 5 0 
C 5 -1.326016 4.473168 -2.597899 3.535534 -3.535534 
C 2.597899 -4.473168 1.326016 -5 0 -5 
C -1.326016 -5 -2.597899 -4.473168 -3.535534 -3.535534 
C -4.473168 -2.597899 -5 -1.326016 -5 0 
C -5 1.326016 -4.473168 2.597899 -3.535534 3.535534 
C -2.597899 4.473168 -1.326016 5 0 5 
z
" style="stroke: #9e778a"/>
    </defs>
    <g clip-path="url(#pd9a926128a)">
     <use xlink:href="#m81548f7a97" x="73.937244" y="274.330075" style="fill: #9e778a; stroke: #9e778a"/>
     <use xlink:href="#m81548f7a97" x="273.19179" y="287.132861" style="fill: #9e778a; stroke: #9e778a"/>
     <use xlink:href="#m81548f7a97" x="472.446335" y="276.74423" style="fill: #9e778a; stroke: #9e778a"/>
     <use xlink:href="#m81548f7a97" x="671.700881" y="282.076594" style="fill: #9e778a; stroke: #9e778a"/>
    </g>
   </g>
   <g id="text_12">
    <!-- KL Divergence Over Days - TC vs TP -->
    <g style="fill: #262626" transform="translate(251.179844 17.391562) scale(0.14 -0.14)">
     <defs>
      <path id="Arial-BoldMT-4f" d="M 278 2263 
Q 278 2963 488 3438 
Q 644 3788 914 4066 
Q 1184 4344 1506 4478 
Q 1934 4659 2494 4659 
Q 3506 4659 4114 4031 
Q 4722 3403 4722 2284 
Q 4722 1175 4119 548 
Q 3516 -78 2506 -78 
Q 1484 -78 881 545 
Q 278 1169 278 2263 
z
M 1231 2294 
Q 1231 1516 1590 1114 
Q 1950 713 2503 713 
Q 3056 713 3411 1111 
Q 3766 1509 3766 2306 
Q 3766 3094 3420 3481 
Q 3075 3869 2503 3869 
Q 1931 3869 1581 3476 
Q 1231 3084 1231 2294 
z
" transform="scale(0.015625)"/>
      <path id="Arial-BoldMT-73" d="M 150 947 
L 1031 1081 
Q 1088 825 1259 692 
Q 1431 559 1741 559 
Q 2081 559 2253 684 
Q 2369 772 2369 919 
Q 2369 1019 2306 1084 
Q 2241 1147 2013 1200 
Q 950 1434 666 1628 
Q 272 1897 272 2375 
Q 272 2806 612 3100 
Q 953 3394 1669 3394 
Q 2350 3394 2681 3172 
Q 3013 2950 3138 2516 
L 2309 2363 
Q 2256 2556 2107 2659 
Q 1959 2763 1684 2763 
Q 1338 2763 1188 2666 
Q 1088 2597 1088 2488 
Q 1088 2394 1175 2328 
Q 1294 2241 1995 2081 
Q 2697 1922 2975 1691 
Q 3250 1456 3250 1038 
Q 3250 581 2869 253 
Q 2488 -75 1741 -75 
Q 1063 -75 667 200 
Q 272 475 150 947 
z
" transform="scale(0.015625)"/>
      <path id="Arial-BoldMT-2d" d="M 359 1222 
L 359 2100 
L 2084 2100 
L 2084 1222 
L 359 1222 
z
" transform="scale(0.015625)"/>
      <path id="Arial-BoldMT-54" d="M 1497 0 
L 1497 3806 
L 138 3806 
L 138 4581 
L 3778 4581 
L 3778 3806 
L 2422 3806 
L 2422 0 
L 1497 0 
z
" transform="scale(0.015625)"/>
      <path id="Arial-BoldMT-43" d="M 3397 1684 
L 4294 1400 
Q 4088 650 3608 286 
Q 3128 -78 2391 -78 
Q 1478 -78 890 545 
Q 303 1169 303 2250 
Q 303 3394 893 4026 
Q 1484 4659 2447 4659 
Q 3288 4659 3813 4163 
Q 4125 3869 4281 3319 
L 3366 3100 
Q 3284 3456 3026 3662 
Q 2769 3869 2400 3869 
Q 1891 3869 1573 3503 
Q 1256 3138 1256 2319 
Q 1256 1450 1568 1081 
Q 1881 713 2381 713 
Q 2750 713 3015 947 
Q 3281 1181 3397 1684 
z
" transform="scale(0.015625)"/>
      <path id="Arial-BoldMT-50" d="M 466 0 
L 466 4581 
L 1950 4581 
Q 2794 4581 3050 4513 
Q 3444 4409 3709 4064 
Q 3975 3719 3975 3172 
Q 3975 2750 3822 2462 
Q 3669 2175 3433 2011 
Q 3197 1847 2953 1794 
Q 2622 1728 1994 1728 
L 1391 1728 
L 1391 0 
L 466 0 
z
M 1391 3806 
L 1391 2506 
L 1897 2506 
Q 2444 2506 2628 2578 
Q 2813 2650 2917 2803 
Q 3022 2956 3022 3159 
Q 3022 3409 2875 3571 
Q 2728 3734 2503 3775 
Q 2338 3806 1838 3806 
L 1391 3806 
z
" transform="scale(0.015625)"/>
     </defs>
     <use xlink:href="#Arial-BoldMT-4b"/>
     <use xlink:href="#Arial-BoldMT-4c" x="72.216797"/>
     <use xlink:href="#Arial-BoldMT-20" x="131.550781"/>
     <use xlink:href="#Arial-BoldMT-44" x="159.333984"/>
     <use xlink:href="#Arial-BoldMT-69" x="231.550781"/>
     <use xlink:href="#Arial-BoldMT-76" x="259.333984"/>
     <use xlink:href="#Arial-BoldMT-65" x="314.949219"/>
     <use xlink:href="#Arial-BoldMT-72" x="370.564453"/>
     <use xlink:href="#Arial-BoldMT-67" x="409.480469"/>
     <use xlink:href="#Arial-BoldMT-65" x="470.564453"/>
     <use xlink:href="#Arial-BoldMT-6e" x="526.179688"/>
     <use xlink:href="#Arial-BoldMT-63" x="587.263672"/>
     <use xlink:href="#Arial-BoldMT-65" x="642.878906"/>
     <use xlink:href="#Arial-BoldMT-20" x="698.494141"/>
     <use xlink:href="#Arial-BoldMT-4f" x="726.277344"/>
     <use xlink:href="#Arial-BoldMT-76" x="804.060547"/>
     <use xlink:href="#Arial-BoldMT-65" x="859.675781"/>
     <use xlink:href="#Arial-BoldMT-72" x="915.291016"/>
     <use xlink:href="#Arial-BoldMT-20" x="954.207031"/>
     <use xlink:href="#Arial-BoldMT-44" x="981.990234"/>
     <use xlink:href="#Arial-BoldMT-61" x="1054.207031"/>
     <use xlink:href="#Arial-BoldMT-79" x="1109.822266"/>
     <use xlink:href="#Arial-BoldMT-73" x="1165.4375"/>
     <use xlink:href="#Arial-BoldMT-20" x="1221.052734"/>
     <use xlink:href="#Arial-BoldMT-2d" x="1248.835938"/>
     <use xlink:href="#Arial-BoldMT-20" x="1282.136719"/>
     <use xlink:href="#Arial-BoldMT-54" x="1309.919922"/>
     <use xlink:href="#Arial-BoldMT-43" x="1371.003906"/>
     <use xlink:href="#Arial-BoldMT-20" x="1443.220703"/>
     <use xlink:href="#Arial-BoldMT-76" x="1471.003906"/>
     <use xlink:href="#Arial-BoldMT-73" x="1526.619141"/>
     <use xlink:href="#Arial-BoldMT-20" x="1582.234375"/>
     <use xlink:href="#Arial-BoldMT-54" x="1610.017578"/>
     <use xlink:href="#Arial-BoldMT-50" x="1671.101562"/>
    </g>
   </g>
   <g id="legend_1">
    <g id="patch_7">
     <path d="M 601.226094 63.445312 
L 693.889062 63.445312 
Q 696.089062 63.445312 696.089062 61.245312 
L 696.089062 31.091562 
Q 696.089062 28.891562 693.889062 28.891562 
L 601.226094 28.891562 
Q 599.026094 28.891562 599.026094 31.091562 
L 599.026094 61.245312 
Q 599.026094 63.445312 601.226094 63.445312 
z
" style="fill: #ffffff; opacity: 0.9; stroke: #cccccc; stroke-linejoin: miter"/>
    </g>
    <g id="line2d_36">
     <path d="M 603.426094 37.449219 
L 614.426094 37.449219 
L 625.426094 37.449219 
" style="fill: none; stroke: #1f4788; stroke-width: 4; stroke-linecap: round"/>
     <g>
      <use xlink:href="#mdfaeca2fb6" x="614.426094" y="37.449219" style="fill: #1f4788; stroke: #1f4788"/>
     </g>
    </g>
    <g id="text_13">
     <!-- TC Troupes -->
     <g style="fill: #262626" transform="translate(634.226094 41.299219) scale(0.11 -0.11)">
      <defs>
       <path id="ArialMT-54" d="M 1659 0 
L 1659 4041 
L 150 4041 
L 150 4581 
L 3781 4581 
L 3781 4041 
L 2266 4041 
L 2266 0 
L 1659 0 
z
" transform="scale(0.015625)"/>
       <path id="ArialMT-43" d="M 3763 1606 
L 4369 1453 
Q 4178 706 3683 314 
Q 3188 -78 2472 -78 
Q 1731 -78 1267 223 
Q 803 525 561 1097 
Q 319 1669 319 2325 
Q 319 3041 592 3573 
Q 866 4106 1370 4382 
Q 1875 4659 2481 4659 
Q 3169 4659 3637 4309 
Q 4106 3959 4291 3325 
L 3694 3184 
Q 3534 3684 3231 3912 
Q 2928 4141 2469 4141 
Q 1941 4141 1586 3887 
Q 1231 3634 1087 3207 
Q 944 2781 944 2328 
Q 944 1744 1114 1308 
Q 1284 872 1643 656 
Q 2003 441 2422 441 
Q 2931 441 3284 734 
Q 3638 1028 3763 1606 
z
" transform="scale(0.015625)"/>
       <path id="ArialMT-20" transform="scale(0.015625)"/>
       <path id="ArialMT-72" d="M 416 0 
L 416 3319 
L 922 3319 
L 922 2816 
Q 1116 3169 1280 3281 
Q 1444 3394 1641 3394 
Q 1925 3394 2219 3213 
L 2025 2691 
Q 1819 2813 1613 2813 
Q 1428 2813 1281 2702 
Q 1134 2591 1072 2394 
Q 978 2094 978 1738 
L 978 0 
L 416 0 
z
" transform="scale(0.015625)"/>
       <path id="ArialMT-6f" d="M 213 1659 
Q 213 2581 725 3025 
Q 1153 3394 1769 3394 
Q 2453 3394 2887 2945 
Q 3322 2497 3322 1706 
Q 3322 1066 3130 698 
Q 2938 331 2570 128 
Q 2203 -75 1769 -75 
Q 1072 -75 642 372 
Q 213 819 213 1659 
z
M 791 1659 
Q 791 1022 1069 705 
Q 1347 388 1769 388 
Q 2188 388 2466 706 
Q 2744 1025 2744 1678 
Q 2744 2294 2464 2611 
Q 2184 2928 1769 2928 
Q 1347 2928 1069 2612 
Q 791 2297 791 1659 
z
" transform="scale(0.015625)"/>
       <path id="ArialMT-75" d="M 2597 0 
L 2597 488 
Q 2209 -75 1544 -75 
Q 1250 -75 995 37 
Q 741 150 617 320 
Q 494 491 444 738 
Q 409 903 409 1263 
L 409 3319 
L 972 3319 
L 972 1478 
Q 972 1038 1006 884 
Q 1059 663 1231 536 
Q 1403 409 1656 409 
Q 1909 409 2131 539 
Q 2353 669 2445 892 
Q 2538 1116 2538 1541 
L 2538 3319 
L 3100 3319 
L 3100 0 
L 2597 0 
z
" transform="scale(0.015625)"/>
       <path id="ArialMT-70" d="M 422 -1272 
L 422 3319 
L 934 3319 
L 934 2888 
Q 1116 3141 1344 3267 
Q 1572 3394 1897 3394 
Q 2322 3394 2647 3175 
Q 2972 2956 3137 2557 
Q 3303 2159 3303 1684 
Q 3303 1175 3120 767 
Q 2938 359 2589 142 
Q 2241 -75 1856 -75 
Q 1575 -75 1351 44 
Q 1128 163 984 344 
L 984 -1272 
L 422 -1272 
z
M 931 1641 
Q 931 1000 1190 694 
Q 1450 388 1819 388 
Q 2194 388 2461 705 
Q 2728 1022 2728 1688 
Q 2728 2322 2467 2637 
Q 2206 2953 1844 2953 
Q 1484 2953 1207 2617 
Q 931 2281 931 1641 
z
" transform="scale(0.015625)"/>
       <path id="ArialMT-65" d="M 2694 1069 
L 3275 997 
Q 3138 488 2766 206 
Q 2394 -75 1816 -75 
Q 1088 -75 661 373 
Q 234 822 234 1631 
Q 234 2469 665 2931 
Q 1097 3394 1784 3394 
Q 2450 3394 2872 2941 
Q 3294 2488 3294 1666 
Q 3294 1616 3291 1516 
L 816 1516 
Q 847 969 1125 678 
Q 1403 388 1819 388 
Q 2128 388 2347 550 
Q 2566 713 2694 1069 
z
M 847 1978 
L 2700 1978 
Q 2663 2397 2488 2606 
Q 2219 2931 1791 2931 
Q 1403 2931 1139 2672 
Q 875 2413 847 1978 
z
" transform="scale(0.015625)"/>
       <path id="ArialMT-73" d="M 197 991 
L 753 1078 
Q 800 744 1014 566 
Q 1228 388 1613 388 
Q 2000 388 2187 545 
Q 2375 703 2375 916 
Q 2375 1106 2209 1216 
Q 2094 1291 1634 1406 
Q 1016 1563 777 1677 
Q 538 1791 414 1992 
Q 291 2194 291 2438 
Q 291 2659 392 2848 
Q 494 3038 669 3163 
Q 800 3259 1026 3326 
Q 1253 3394 1513 3394 
Q 1903 3394 2198 3281 
Q 2494 3169 2634 2976 
Q 2775 2784 2828 2463 
L 2278 2388 
Q 2241 2644 2061 2787 
Q 1881 2931 1553 2931 
Q 1166 2931 1000 2803 
Q 834 2675 834 2503 
Q 834 2394 903 2306 
Q 972 2216 1119 2156 
Q 1203 2125 1616 2013 
Q 2213 1853 2448 1751 
Q 2684 1650 2818 1456 
Q 2953 1263 2953 975 
Q 2953 694 2789 445 
Q 2625 197 2315 61 
Q 2006 -75 1616 -75 
Q 969 -75 630 194 
Q 291 463 197 991 
z
" transform="scale(0.015625)"/>
      </defs>
      <use xlink:href="#ArialMT-54"/>
      <use xlink:href="#ArialMT-43" x="61.083984"/>
      <use xlink:href="#ArialMT-20" x="133.300781"/>
      <use xlink:href="#ArialMT-54" x="159.333984"/>
      <use xlink:href="#ArialMT-72" x="216.667969"/>
      <use xlink:href="#ArialMT-6f" x="249.96875"/>
      <use xlink:href="#ArialMT-75" x="305.583984"/>
      <use xlink:href="#ArialMT-70" x="361.199219"/>
      <use xlink:href="#ArialMT-65" x="416.814453"/>
      <use xlink:href="#ArialMT-73" x="472.429688"/>
     </g>
    </g>
    <g id="line2d_37">
     <path d="M 603.426094 53.009062 
L 614.426094 53.009062 
L 625.426094 53.009062 
" style="fill: none; stroke: #9e778a; stroke-width: 4; stroke-linecap: round"/>
     <g>
      <use xlink:href="#m81548f7a97" x="614.426094" y="53.009062" style="fill: #9e778a; stroke: #9e778a"/>
     </g>
    </g>
    <g id="text_14">
     <!-- TP Troupes -->
     <g style="fill: #262626" transform="translate(634.226094 56.859062) scale(0.11 -0.11)">
      <defs>
       <path id="ArialMT-50" d="M 494 0 
L 494 4581 
L 2222 4581 
Q 2678 4581 2919 4538 
Q 3256 4481 3484 4323 
Q 3713 4166 3852 3881 
Q 3991 3597 3991 3256 
Q 3991 2672 3619 2267 
Q 3247 1863 2275 1863 
L 1100 1863 
L 1100 0 
L 494 0 
z
M 1100 2403 
L 2284 2403 
Q 2872 2403 3119 2622 
Q 3366 2841 3366 3238 
Q 3366 3525 3220 3729 
Q 3075 3934 2838 4000 
Q 2684 4041 2272 4041 
L 1100 4041 
L 1100 2403 
z
" transform="scale(0.015625)"/>
      </defs>
      <use xlink:href="#ArialMT-54"/>
      <use xlink:href="#ArialMT-50" x="61.083984"/>
      <use xlink:href="#ArialMT-20" x="126.033203"/>
      <use xlink:href="#ArialMT-54" x="152.066406"/>
      <use xlink:href="#ArialMT-72" x="209.400391"/>
      <use xlink:href="#ArialMT-6f" x="242.701172"/>
      <use xlink:href="#ArialMT-75" x="298.316406"/>
      <use xlink:href="#ArialMT-70" x="353.931641"/>
      <use xlink:href="#ArialMT-65" x="409.546875"/>
      <use xlink:href="#ArialMT-73" x="465.162109"/>
     </g>
    </g>
   </g>
  </g>
 </g>
 <defs>
  <clipPath id="pd9a926128a">
   <rect x="44.049063" y="23.391562" width="657.54" height="355.62"/>
  </clipPath>
 </defs>
</svg>
