<?xml version="1.0" encoding="utf-8" standalone="no"?>
<!DOCTYPE svg PUBLIC "-//W3C//DTD SVG 1.1//EN"
  "http://www.w3.org/Graphics/SVG/1.1/DTD/svg11.dtd">
<!-- Created with matplotlib (https://matplotlib.org/) -->
<svg height="413.283281pt" version="1.1" viewBox="0 0 568.618437 413.283281" width="568.618437pt" xmlns="http://www.w3.org/2000/svg" xmlns:xlink="http://www.w3.org/1999/xlink">
 <metadata>
  <rdf:RDF xmlns:cc="http://creativecommons.org/ns#" xmlns:dc="http://purl.org/dc/elements/1.1/" xmlns:rdf="http://www.w3.org/1999/02/22-rdf-syntax-ns#">
   <cc:Work>
    <dc:type rdf:resource="http://purl.org/dc/dcmitype/StillImage"/>
    <dc:date>2026-04-17T17:39:25.147275</dc:date>
    <dc:format>image/svg+xml</dc:format>
    <dc:creator>
     <cc:Agent>
      <dc:title>Matplotlib v3.3.2, https://matplotlib.org/</dc:title>
     </cc:Agent>
    </dc:creator>
   </cc:Work>
  </rdf:RDF>
 </metadata>
 <defs>
  <style type="text/css">*{stroke-linecap:butt;stroke-linejoin:round;}</style>
 </defs>
 <g id="figure_1">
  <g id="patch_1">
   <path d="M 0 413.283281 
L 568.618437 413.283281 
L 568.618437 0 
L 0 0 
z
" style="fill:#ffffff;"/>
  </g>
  <g id="axes_1">
   <g id="patch_2">
    <path d="M 35.208438 374.759219 
L 561.418437 374.759219 
L 561.418437 10.999219 
L 35.208438 10.999219 
z
" style="fill:#ffffff;"/>
   </g>
   <g id="matplotlib.axis_1">
    <g id="xtick_1">
     <g id="line2d_1">
      <defs>
       <path d="M 0 0 
L 0 3.5 
" id="m0a07a8ffdd" style="stroke:#000000;stroke-width:0.8;"/>
      </defs>
      <g>
       <use style="stroke:#000000;stroke-width:0.8;" x="81.550795" xlink:href="#m0a07a8ffdd" y="374.759219"/>
      </g>
     </g>
     <g id="text_1">
      <!-- Day 1 -->
      <g transform="translate(66.907045 389.357656)scale(0.1 -0.1)">
       <defs>
        <path d="M 19.671875 64.796875 
L 19.671875 8.109375 
L 31.59375 8.109375 
Q 46.6875 8.109375 53.6875 14.9375 
Q 60.6875 21.78125 60.6875 36.53125 
Q 60.6875 51.171875 53.6875 57.984375 
Q 46.6875 64.796875 31.59375 64.796875 
z
M 9.8125 72.90625 
L 30.078125 72.90625 
Q 51.265625 72.90625 61.171875 64.09375 
Q 71.09375 55.28125 71.09375 36.53125 
Q 71.09375 17.671875 61.125 8.828125 
Q 51.171875 0 30.078125 0 
L 9.8125 0 
z
" id="DejaVuSans-68"/>
        <path d="M 34.28125 27.484375 
Q 23.390625 27.484375 19.1875 25 
Q 14.984375 22.515625 14.984375 16.5 
Q 14.984375 11.71875 18.140625 8.90625 
Q 21.296875 6.109375 26.703125 6.109375 
Q 34.1875 6.109375 38.703125 11.40625 
Q 43.21875 16.703125 43.21875 25.484375 
L 43.21875 27.484375 
z
M 52.203125 31.203125 
L 52.203125 0 
L 43.21875 0 
L 43.21875 8.296875 
Q 40.140625 3.328125 35.546875 0.953125 
Q 30.953125 -1.421875 24.3125 -1.421875 
Q 15.921875 -1.421875 10.953125 3.296875 
Q 6 8.015625 6 15.921875 
Q 6 25.140625 12.171875 29.828125 
Q 18.359375 34.515625 30.609375 34.515625 
L 43.21875 34.515625 
L 43.21875 35.40625 
Q 43.21875 41.609375 39.140625 45 
Q 35.0625 48.390625 27.6875 48.390625 
Q 23 48.390625 18.546875 47.265625 
Q 14.109375 46.140625 10.015625 43.890625 
L 10.015625 52.203125 
Q 14.9375 54.109375 19.578125 55.046875 
Q 24.21875 56 28.609375 56 
Q 40.484375 56 46.34375 49.84375 
Q 52.203125 43.703125 52.203125 31.203125 
z
" id="DejaVuSans-97"/>
        <path d="M 32.171875 -5.078125 
Q 28.375 -14.84375 24.75 -17.8125 
Q 21.140625 -20.796875 15.09375 -20.796875 
L 7.90625 -20.796875 
L 7.90625 -13.28125 
L 13.1875 -13.28125 
Q 16.890625 -13.28125 18.9375 -11.515625 
Q 21 -9.765625 23.484375 -3.21875 
L 25.09375 0.875 
L 2.984375 54.6875 
L 12.5 54.6875 
L 29.59375 11.921875 
L 46.6875 54.6875 
L 56.203125 54.6875 
z
" id="DejaVuSans-121"/>
        <path id="DejaVuSans-32"/>
        <path d="M 12.40625 8.296875 
L 28.515625 8.296875 
L 28.515625 63.921875 
L 10.984375 60.40625 
L 10.984375 69.390625 
L 28.421875 72.90625 
L 38.28125 72.90625 
L 38.28125 8.296875 
L 54.390625 8.296875 
L 54.390625 0 
L 12.40625 0 
z
" id="DejaVuSans-49"/>
       </defs>
       <use xlink:href="#DejaVuSans-68"/>
       <use x="77.001953" xlink:href="#DejaVuSans-97"/>
       <use x="138.28125" xlink:href="#DejaVuSans-121"/>
       <use x="197.460938" xlink:href="#DejaVuSans-32"/>
       <use x="229.248047" xlink:href="#DejaVuSans-49"/>
      </g>
     </g>
    </g>
    <g id="xtick_2">
     <g id="line2d_2">
      <g>
       <use style="stroke:#000000;stroke-width:0.8;" x="231.042273" xlink:href="#m0a07a8ffdd" y="374.759219"/>
      </g>
     </g>
     <g id="text_2">
      <!-- Day 2 -->
      <g transform="translate(216.398523 389.357656)scale(0.1 -0.1)">
       <defs>
        <path d="M 19.1875 8.296875 
L 53.609375 8.296875 
L 53.609375 0 
L 7.328125 0 
L 7.328125 8.296875 
Q 12.9375 14.109375 22.625 23.890625 
Q 32.328125 33.6875 34.8125 36.53125 
Q 39.546875 41.84375 41.421875 45.53125 
Q 43.3125 49.21875 43.3125 52.78125 
Q 43.3125 58.59375 39.234375 62.25 
Q 35.15625 65.921875 28.609375 65.921875 
Q 23.96875 65.921875 18.8125 64.3125 
Q 13.671875 62.703125 7.8125 59.421875 
L 7.8125 69.390625 
Q 13.765625 71.78125 18.9375 73 
Q 24.125 74.21875 28.421875 74.21875 
Q 39.75 74.21875 46.484375 68.546875 
Q 53.21875 62.890625 53.21875 53.421875 
Q 53.21875 48.921875 51.53125 44.890625 
Q 49.859375 40.875 45.40625 35.40625 
Q 44.1875 33.984375 37.640625 27.21875 
Q 31.109375 20.453125 19.1875 8.296875 
z
" id="DejaVuSans-50"/>
       </defs>
       <use xlink:href="#DejaVuSans-68"/>
       <use x="77.001953" xlink:href="#DejaVuSans-97"/>
       <use x="138.28125" xlink:href="#DejaVuSans-121"/>
       <use x="197.460938" xlink:href="#DejaVuSans-32"/>
       <use x="229.248047" xlink:href="#DejaVuSans-50"/>
      </g>
     </g>
    </g>
    <g id="xtick_3">
     <g id="line2d_3">
      <g>
       <use style="stroke:#000000;stroke-width:0.8;" x="380.53375" xlink:href="#m0a07a8ffdd" y="374.759219"/>
      </g>
     </g>
     <g id="text_3">
      <!-- Day 3 -->
      <g transform="translate(365.89 389.357656)scale(0.1 -0.1)">
       <defs>
        <path d="M 40.578125 39.3125 
Q 47.65625 37.796875 51.625 33 
Q 55.609375 28.21875 55.609375 21.1875 
Q 55.609375 10.40625 48.1875 4.484375 
Q 40.765625 -1.421875 27.09375 -1.421875 
Q 22.515625 -1.421875 17.65625 -0.515625 
Q 12.796875 0.390625 7.625 2.203125 
L 7.625 11.71875 
Q 11.71875 9.328125 16.59375 8.109375 
Q 21.484375 6.890625 26.8125 6.890625 
Q 36.078125 6.890625 40.9375 10.546875 
Q 45.796875 14.203125 45.796875 21.1875 
Q 45.796875 27.640625 41.28125 31.265625 
Q 36.765625 34.90625 28.71875 34.90625 
L 20.21875 34.90625 
L 20.21875 43.015625 
L 29.109375 43.015625 
Q 36.375 43.015625 40.234375 45.921875 
Q 44.09375 48.828125 44.09375 54.296875 
Q 44.09375 59.90625 40.109375 62.90625 
Q 36.140625 65.921875 28.71875 65.921875 
Q 24.65625 65.921875 20.015625 65.03125 
Q 15.375 64.15625 9.8125 62.3125 
L 9.8125 71.09375 
Q 15.4375 72.65625 20.34375 73.4375 
Q 25.25 74.21875 29.59375 74.21875 
Q 40.828125 74.21875 47.359375 69.109375 
Q 53.90625 64.015625 53.90625 55.328125 
Q 53.90625 49.265625 50.4375 45.09375 
Q 46.96875 40.921875 40.578125 39.3125 
z
" id="DejaVuSans-51"/>
       </defs>
       <use xlink:href="#DejaVuSans-68"/>
       <use x="77.001953" xlink:href="#DejaVuSans-97"/>
       <use x="138.28125" xlink:href="#DejaVuSans-121"/>
       <use x="197.460938" xlink:href="#DejaVuSans-32"/>
       <use x="229.248047" xlink:href="#DejaVuSans-51"/>
      </g>
     </g>
    </g>
    <g id="xtick_4">
     <g id="line2d_4">
      <g>
       <use style="stroke:#000000;stroke-width:0.8;" x="530.025227" xlink:href="#m0a07a8ffdd" y="374.759219"/>
      </g>
     </g>
     <g id="text_4">
      <!-- Day 4 -->
      <g transform="translate(515.381477 389.357656)scale(0.1 -0.1)">
       <defs>
        <path d="M 37.796875 64.3125 
L 12.890625 25.390625 
L 37.796875 25.390625 
z
M 35.203125 72.90625 
L 47.609375 72.90625 
L 47.609375 25.390625 
L 58.015625 25.390625 
L 58.015625 17.1875 
L 47.609375 17.1875 
L 47.609375 0 
L 37.796875 0 
L 37.796875 17.1875 
L 4.890625 17.1875 
L 4.890625 26.703125 
z
" id="DejaVuSans-52"/>
       </defs>
       <use xlink:href="#DejaVuSans-68"/>
       <use x="77.001953" xlink:href="#DejaVuSans-97"/>
       <use x="138.28125" xlink:href="#DejaVuSans-121"/>
       <use x="197.460938" xlink:href="#DejaVuSans-32"/>
       <use x="229.248047" xlink:href="#DejaVuSans-52"/>
      </g>
     </g>
    </g>
    <g id="text_5">
     <!-- Day -->
     <g transform="translate(286.6225 403.709687)scale(0.11 -0.11)">
      <defs>
       <path d="M 27.984375 58.6875 
L 27.984375 14.203125 
L 34.71875 14.203125 
Q 46.234375 14.203125 52.3125 19.921875 
Q 58.40625 25.640625 58.40625 36.53125 
Q 58.40625 47.359375 52.34375 53.015625 
Q 46.296875 58.6875 34.71875 58.6875 
z
M 9.1875 72.90625 
L 29 72.90625 
Q 45.609375 72.90625 53.734375 70.53125 
Q 61.859375 68.171875 67.671875 62.5 
Q 72.796875 57.5625 75.28125 51.109375 
Q 77.78125 44.671875 77.78125 36.53125 
Q 77.78125 28.265625 75.28125 21.796875 
Q 72.796875 15.328125 67.671875 10.40625 
Q 61.8125 4.734375 53.609375 2.359375 
Q 45.40625 0 29 0 
L 9.1875 0 
z
" id="DejaVuSans-Bold-68"/>
       <path d="M 32.90625 24.609375 
Q 27.4375 24.609375 24.671875 22.75 
Q 21.921875 20.90625 21.921875 17.28125 
Q 21.921875 13.96875 24.140625 12.078125 
Q 26.375 10.203125 30.328125 10.203125 
Q 35.25 10.203125 38.625 13.734375 
Q 42 17.28125 42 22.609375 
L 42 24.609375 
z
M 59.625 31.203125 
L 59.625 0 
L 42 0 
L 42 8.109375 
Q 38.484375 3.125 34.078125 0.84375 
Q 29.6875 -1.421875 23.390625 -1.421875 
Q 14.890625 -1.421875 9.59375 3.53125 
Q 4.296875 8.5 4.296875 16.40625 
Q 4.296875 26.03125 10.90625 30.515625 
Q 17.53125 35.015625 31.6875 35.015625 
L 42 35.015625 
L 42 36.375 
Q 42 40.53125 38.71875 42.453125 
Q 35.453125 44.390625 28.515625 44.390625 
Q 22.90625 44.390625 18.0625 43.265625 
Q 13.234375 42.140625 9.078125 39.890625 
L 9.078125 53.21875 
Q 14.703125 54.59375 20.359375 55.296875 
Q 26.03125 56 31.6875 56 
Q 46.484375 56 53.046875 50.171875 
Q 59.625 44.34375 59.625 31.203125 
z
" id="DejaVuSans-Bold-97"/>
       <path d="M 1.21875 54.6875 
L 18.703125 54.6875 
L 33.40625 17.578125 
L 45.90625 54.6875 
L 63.375 54.6875 
L 40.375 -5.171875 
Q 36.921875 -14.3125 32.296875 -17.9375 
Q 27.6875 -21.578125 20.125 -21.578125 
L 10.015625 -21.578125 
L 10.015625 -10.109375 
L 15.484375 -10.109375 
Q 19.921875 -10.109375 21.9375 -8.6875 
Q 23.96875 -7.28125 25.09375 -3.609375 
L 25.59375 -2.09375 
z
" id="DejaVuSans-Bold-121"/>
      </defs>
      <use xlink:href="#DejaVuSans-Bold-68"/>
      <use x="83.007812" xlink:href="#DejaVuSans-Bold-97"/>
      <use x="147.363281" xlink:href="#DejaVuSans-Bold-121"/>
     </g>
    </g>
   </g>
   <g id="matplotlib.axis_2">
    <g id="ytick_1">
     <g id="line2d_5">
      <path clip-path="url(#p0c03c184b3)" d="M 35.208438 374.759219 
L 561.418437 374.759219 
" style="fill:none;stroke:#b0b0b0;stroke-dasharray:2.96,1.28;stroke-dashoffset:0;stroke-opacity:0.3;stroke-width:0.8;"/>
     </g>
     <g id="line2d_6">
      <defs>
       <path d="M 0 0 
L -3.5 0 
" id="me9d990c412" style="stroke:#000000;stroke-width:0.8;"/>
      </defs>
      <g>
       <use style="stroke:#000000;stroke-width:0.8;" x="35.208438" xlink:href="#me9d990c412" y="374.759219"/>
      </g>
     </g>
     <g id="text_6">
      <!-- 0 -->
      <g transform="translate(21.845938 378.558437)scale(0.1 -0.1)">
       <defs>
        <path d="M 31.78125 66.40625 
Q 24.171875 66.40625 20.328125 58.90625 
Q 16.5 51.421875 16.5 36.375 
Q 16.5 21.390625 20.328125 13.890625 
Q 24.171875 6.390625 31.78125 6.390625 
Q 39.453125 6.390625 43.28125 13.890625 
Q 47.125 21.390625 47.125 36.375 
Q 47.125 51.421875 43.28125 58.90625 
Q 39.453125 66.40625 31.78125 66.40625 
z
M 31.78125 74.21875 
Q 44.046875 74.21875 50.515625 64.515625 
Q 56.984375 54.828125 56.984375 36.375 
Q 56.984375 17.96875 50.515625 8.265625 
Q 44.046875 -1.421875 31.78125 -1.421875 
Q 19.53125 -1.421875 13.0625 8.265625 
Q 6.59375 17.96875 6.59375 36.375 
Q 6.59375 54.828125 13.0625 64.515625 
Q 19.53125 74.21875 31.78125 74.21875 
z
" id="DejaVuSans-48"/>
       </defs>
       <use xlink:href="#DejaVuSans-48"/>
      </g>
     </g>
    </g>
    <g id="ytick_2">
     <g id="line2d_7">
      <path clip-path="url(#p0c03c184b3)" d="M 35.208438 314.132552 
L 561.418437 314.132552 
" style="fill:none;stroke:#b0b0b0;stroke-dasharray:2.96,1.28;stroke-dashoffset:0;stroke-opacity:0.3;stroke-width:0.8;"/>
     </g>
     <g id="line2d_8">
      <g>
       <use style="stroke:#000000;stroke-width:0.8;" x="35.208438" xlink:href="#me9d990c412" y="314.132552"/>
      </g>
     </g>
     <g id="text_7">
      <!-- 1 -->
      <g transform="translate(21.845938 317.931771)scale(0.1 -0.1)">
       <use xlink:href="#DejaVuSans-49"/>
      </g>
     </g>
    </g>
    <g id="ytick_3">
     <g id="line2d_9">
      <path clip-path="url(#p0c03c184b3)" d="M 35.208438 253.505885 
L 561.418437 253.505885 
" style="fill:none;stroke:#b0b0b0;stroke-dasharray:2.96,1.28;stroke-dashoffset:0;stroke-opacity:0.3;stroke-width:0.8;"/>
     </g>
     <g id="line2d_10">
      <g>
       <use style="stroke:#000000;stroke-width:0.8;" x="35.208438" xlink:href="#me9d990c412" y="253.505885"/>
      </g>
     </g>
     <g id="text_8">
      <!-- 2 -->
      <g transform="translate(21.845938 257.305104)scale(0.1 -0.1)">
       <use xlink:href="#DejaVuSans-50"/>
      </g>
     </g>
    </g>
    <g id="ytick_4">
     <g id="line2d_11">
      <path clip-path="url(#p0c03c184b3)" d="M 35.208438 192.879219 
L 561.418437 192.879219 
" style="fill:none;stroke:#b0b0b0;stroke-dasharray:2.96,1.28;stroke-dashoffset:0;stroke-opacity:0.3;stroke-width:0.8;"/>
     </g>
     <g id="line2d_12">
      <g>
       <use style="stroke:#000000;stroke-width:0.8;" x="35.208438" xlink:href="#me9d990c412" y="192.879219"/>
      </g>
     </g>
     <g id="text_9">
      <!-- 3 -->
      <g transform="translate(21.845938 196.678437)scale(0.1 -0.1)">
       <use xlink:href="#DejaVuSans-51"/>
      </g>
     </g>
    </g>
    <g id="ytick_5">
     <g id="line2d_13">
      <path clip-path="url(#p0c03c184b3)" d="M 35.208438 132.252552 
L 561.418437 132.252552 
" style="fill:none;stroke:#b0b0b0;stroke-dasharray:2.96,1.28;stroke-dashoffset:0;stroke-opacity:0.3;stroke-width:0.8;"/>
     </g>
     <g id="line2d_14">
      <g>
       <use style="stroke:#000000;stroke-width:0.8;" x="35.208438" xlink:href="#me9d990c412" y="132.252552"/>
      </g>
     </g>
     <g id="text_10">
      <!-- 4 -->
      <g transform="translate(21.845938 136.051771)scale(0.1 -0.1)">
       <use xlink:href="#DejaVuSans-52"/>
      </g>
     </g>
    </g>
    <g id="ytick_6">
     <g id="line2d_15">
      <path clip-path="url(#p0c03c184b3)" d="M 35.208438 71.625885 
L 561.418437 71.625885 
" style="fill:none;stroke:#b0b0b0;stroke-dasharray:2.96,1.28;stroke-dashoffset:0;stroke-opacity:0.3;stroke-width:0.8;"/>
     </g>
     <g id="line2d_16">
      <g>
       <use style="stroke:#000000;stroke-width:0.8;" x="35.208438" xlink:href="#me9d990c412" y="71.625885"/>
      </g>
     </g>
     <g id="text_11">
      <!-- 5 -->
      <g transform="translate(21.845938 75.425104)scale(0.1 -0.1)">
       <defs>
        <path d="M 10.796875 72.90625 
L 49.515625 72.90625 
L 49.515625 64.59375 
L 19.828125 64.59375 
L 19.828125 46.734375 
Q 21.96875 47.46875 24.109375 47.828125 
Q 26.265625 48.1875 28.421875 48.1875 
Q 40.625 48.1875 47.75 41.5 
Q 54.890625 34.8125 54.890625 23.390625 
Q 54.890625 11.625 47.5625 5.09375 
Q 40.234375 -1.421875 26.90625 -1.421875 
Q 22.3125 -1.421875 17.546875 -0.640625 
Q 12.796875 0.140625 7.71875 1.703125 
L 7.71875 11.625 
Q 12.109375 9.234375 16.796875 8.0625 
Q 21.484375 6.890625 26.703125 6.890625 
Q 35.15625 6.890625 40.078125 11.328125 
Q 45.015625 15.765625 45.015625 23.390625 
Q 45.015625 31 40.078125 35.4375 
Q 35.15625 39.890625 26.703125 39.890625 
Q 22.75 39.890625 18.8125 39.015625 
Q 14.890625 38.140625 10.796875 36.28125 
z
" id="DejaVuSans-53"/>
       </defs>
       <use xlink:href="#DejaVuSans-53"/>
      </g>
     </g>
    </g>
    <g id="ytick_7">
     <g id="line2d_17">
      <path clip-path="url(#p0c03c184b3)" d="M 35.208438 10.999219 
L 561.418437 10.999219 
" style="fill:none;stroke:#b0b0b0;stroke-dasharray:2.96,1.28;stroke-dashoffset:0;stroke-opacity:0.3;stroke-width:0.8;"/>
     </g>
     <g id="line2d_18">
      <g>
       <use style="stroke:#000000;stroke-width:0.8;" x="35.208438" xlink:href="#me9d990c412" y="10.999219"/>
      </g>
     </g>
     <g id="text_12">
      <!-- 6 -->
      <g transform="translate(21.845938 14.798437)scale(0.1 -0.1)">
       <defs>
        <path d="M 33.015625 40.375 
Q 26.375 40.375 22.484375 35.828125 
Q 18.609375 31.296875 18.609375 23.390625 
Q 18.609375 15.53125 22.484375 10.953125 
Q 26.375 6.390625 33.015625 6.390625 
Q 39.65625 6.390625 43.53125 10.953125 
Q 47.40625 15.53125 47.40625 23.390625 
Q 47.40625 31.296875 43.53125 35.828125 
Q 39.65625 40.375 33.015625 40.375 
z
M 52.59375 71.296875 
L 52.59375 62.3125 
Q 48.875 64.0625 45.09375 64.984375 
Q 41.3125 65.921875 37.59375 65.921875 
Q 27.828125 65.921875 22.671875 59.328125 
Q 17.53125 52.734375 16.796875 39.40625 
Q 19.671875 43.65625 24.015625 45.921875 
Q 28.375 48.1875 33.59375 48.1875 
Q 44.578125 48.1875 50.953125 41.515625 
Q 57.328125 34.859375 57.328125 23.390625 
Q 57.328125 12.15625 50.6875 5.359375 
Q 44.046875 -1.421875 33.015625 -1.421875 
Q 20.359375 -1.421875 13.671875 8.265625 
Q 6.984375 17.96875 6.984375 36.375 
Q 6.984375 53.65625 15.1875 63.9375 
Q 23.390625 74.21875 37.203125 74.21875 
Q 40.921875 74.21875 44.703125 73.484375 
Q 48.484375 72.75 52.59375 71.296875 
z
" id="DejaVuSans-54"/>
       </defs>
       <use xlink:href="#DejaVuSans-54"/>
      </g>
     </g>
    </g>
    <g id="text_13">
     <!-- Behavior Score -->
     <g transform="translate(15.558281 239.747812)rotate(-90)scale(0.11 -0.11)">
      <defs>
       <path d="M 38.375 44.671875 
Q 42.828125 44.671875 45.109375 46.625 
Q 47.40625 48.578125 47.40625 52.390625 
Q 47.40625 56.15625 45.109375 58.125 
Q 42.828125 60.109375 38.375 60.109375 
L 27.984375 60.109375 
L 27.984375 44.671875 
z
M 39.015625 12.796875 
Q 44.671875 12.796875 47.53125 15.1875 
Q 50.390625 17.578125 50.390625 22.40625 
Q 50.390625 27.15625 47.5625 29.515625 
Q 44.734375 31.890625 39.015625 31.890625 
L 27.984375 31.890625 
L 27.984375 12.796875 
z
M 56.5 39.015625 
Q 62.546875 37.25 65.859375 32.515625 
Q 69.1875 27.78125 69.1875 20.90625 
Q 69.1875 10.359375 62.0625 5.171875 
Q 54.9375 0 40.375 0 
L 9.1875 0 
L 9.1875 72.90625 
L 37.40625 72.90625 
Q 52.59375 72.90625 59.40625 68.3125 
Q 66.21875 63.71875 66.21875 53.609375 
Q 66.21875 48.296875 63.71875 44.5625 
Q 61.234375 40.828125 56.5 39.015625 
z
" id="DejaVuSans-Bold-66"/>
       <path d="M 62.984375 27.484375 
L 62.984375 22.515625 
L 22.125 22.515625 
Q 22.75 16.359375 26.5625 13.28125 
Q 30.375 10.203125 37.203125 10.203125 
Q 42.71875 10.203125 48.5 11.84375 
Q 54.296875 13.484375 60.40625 16.796875 
L 60.40625 3.328125 
Q 54.203125 0.984375 48 -0.21875 
Q 41.796875 -1.421875 35.59375 -1.421875 
Q 20.75 -1.421875 12.515625 6.125 
Q 4.296875 13.671875 4.296875 27.296875 
Q 4.296875 40.671875 12.375 48.328125 
Q 20.453125 56 34.625 56 
Q 47.515625 56 55.25 48.234375 
Q 62.984375 40.484375 62.984375 27.484375 
z
M 45.015625 33.296875 
Q 45.015625 38.28125 42.109375 41.328125 
Q 39.203125 44.390625 34.515625 44.390625 
Q 29.4375 44.390625 26.265625 41.53125 
Q 23.09375 38.671875 22.3125 33.296875 
z
" id="DejaVuSans-Bold-101"/>
       <path d="M 63.375 33.296875 
L 63.375 0 
L 45.796875 0 
L 45.796875 5.421875 
L 45.796875 25.390625 
Q 45.796875 32.5625 45.484375 35.25 
Q 45.171875 37.9375 44.390625 39.203125 
Q 43.359375 40.921875 41.59375 41.875 
Q 39.84375 42.828125 37.59375 42.828125 
Q 32.125 42.828125 29 38.59375 
Q 25.875 34.375 25.875 26.90625 
L 25.875 0 
L 8.40625 0 
L 8.40625 75.984375 
L 25.875 75.984375 
L 25.875 46.6875 
Q 29.828125 51.46875 34.265625 53.734375 
Q 38.71875 56 44.09375 56 
Q 53.5625 56 58.46875 50.1875 
Q 63.375 44.390625 63.375 33.296875 
z
" id="DejaVuSans-Bold-104"/>
       <path d="M 1.515625 54.6875 
L 19 54.6875 
L 32.625 16.890625 
L 46.1875 54.6875 
L 63.71875 54.6875 
L 42.1875 0 
L 23 0 
z
" id="DejaVuSans-Bold-118"/>
       <path d="M 8.40625 54.6875 
L 25.875 54.6875 
L 25.875 0 
L 8.40625 0 
z
M 8.40625 75.984375 
L 25.875 75.984375 
L 25.875 61.71875 
L 8.40625 61.71875 
z
" id="DejaVuSans-Bold-105"/>
       <path d="M 34.421875 43.5 
Q 28.609375 43.5 25.5625 39.328125 
Q 22.515625 35.15625 22.515625 27.296875 
Q 22.515625 19.4375 25.5625 15.25 
Q 28.609375 11.078125 34.421875 11.078125 
Q 40.140625 11.078125 43.15625 15.25 
Q 46.1875 19.4375 46.1875 27.296875 
Q 46.1875 35.15625 43.15625 39.328125 
Q 40.140625 43.5 34.421875 43.5 
z
M 34.421875 56 
Q 48.53125 56 56.46875 48.375 
Q 64.40625 40.765625 64.40625 27.296875 
Q 64.40625 13.8125 56.46875 6.1875 
Q 48.53125 -1.421875 34.421875 -1.421875 
Q 20.265625 -1.421875 12.28125 6.1875 
Q 4.296875 13.8125 4.296875 27.296875 
Q 4.296875 40.765625 12.28125 48.375 
Q 20.265625 56 34.421875 56 
z
" id="DejaVuSans-Bold-111"/>
       <path d="M 49.03125 39.796875 
Q 46.734375 40.875 44.453125 41.375 
Q 42.1875 41.890625 39.890625 41.890625 
Q 33.15625 41.890625 29.515625 37.5625 
Q 25.875 33.25 25.875 25.203125 
L 25.875 0 
L 8.40625 0 
L 8.40625 54.6875 
L 25.875 54.6875 
L 25.875 45.703125 
Q 29.25 51.078125 33.609375 53.53125 
Q 37.984375 56 44.09375 56 
Q 44.96875 56 45.984375 55.921875 
Q 47.015625 55.859375 48.96875 55.609375 
z
" id="DejaVuSans-Bold-114"/>
       <path id="DejaVuSans-Bold-32"/>
       <path d="M 59.90625 70.609375 
L 59.90625 55.171875 
Q 53.90625 57.859375 48.1875 59.21875 
Q 42.484375 60.59375 37.40625 60.59375 
Q 30.671875 60.59375 27.4375 58.734375 
Q 24.21875 56.890625 24.21875 52.984375 
Q 24.21875 50.046875 26.390625 48.40625 
Q 28.5625 46.78125 34.28125 45.609375 
L 42.28125 44 
Q 54.4375 41.546875 59.5625 36.5625 
Q 64.703125 31.59375 64.703125 22.40625 
Q 64.703125 10.359375 57.546875 4.46875 
Q 50.390625 -1.421875 35.6875 -1.421875 
Q 28.765625 -1.421875 21.78125 -0.09375 
Q 14.796875 1.21875 7.8125 3.8125 
L 7.8125 19.671875 
Q 14.796875 15.96875 21.3125 14.078125 
Q 27.828125 12.203125 33.890625 12.203125 
Q 40.046875 12.203125 43.3125 14.25 
Q 46.578125 16.3125 46.578125 20.125 
Q 46.578125 23.53125 44.359375 25.390625 
Q 42.140625 27.25 35.5 28.71875 
L 28.21875 30.328125 
Q 17.28125 32.671875 12.21875 37.796875 
Q 7.171875 42.921875 7.171875 51.609375 
Q 7.171875 62.5 14.203125 68.359375 
Q 21.234375 74.21875 34.421875 74.21875 
Q 40.4375 74.21875 46.78125 73.3125 
Q 53.125 72.40625 59.90625 70.609375 
z
" id="DejaVuSans-Bold-83"/>
       <path d="M 52.59375 52.984375 
L 52.59375 38.71875 
Q 49.03125 41.15625 45.4375 42.328125 
Q 41.84375 43.5 37.984375 43.5 
Q 30.671875 43.5 26.59375 39.234375 
Q 22.515625 34.96875 22.515625 27.296875 
Q 22.515625 19.625 26.59375 15.34375 
Q 30.671875 11.078125 37.984375 11.078125 
Q 42.09375 11.078125 45.78125 12.296875 
Q 49.46875 13.53125 52.59375 15.921875 
L 52.59375 1.609375 
Q 48.484375 0.09375 44.265625 -0.65625 
Q 40.046875 -1.421875 35.796875 -1.421875 
Q 21 -1.421875 12.640625 6.171875 
Q 4.296875 13.765625 4.296875 27.296875 
Q 4.296875 40.828125 12.640625 48.40625 
Q 21 56 35.796875 56 
Q 40.09375 56 44.265625 55.25 
Q 48.4375 54.5 52.59375 52.984375 
z
" id="DejaVuSans-Bold-99"/>
      </defs>
      <use xlink:href="#DejaVuSans-Bold-66"/>
      <use x="76.220703" xlink:href="#DejaVuSans-Bold-101"/>
      <use x="144.042969" xlink:href="#DejaVuSans-Bold-104"/>
      <use x="215.234375" xlink:href="#DejaVuSans-Bold-97"/>
      <use x="282.714844" xlink:href="#DejaVuSans-Bold-118"/>
      <use x="347.900391" xlink:href="#DejaVuSans-Bold-105"/>
      <use x="382.177734" xlink:href="#DejaVuSans-Bold-111"/>
      <use x="450.878906" xlink:href="#DejaVuSans-Bold-114"/>
      <use x="500.195312" xlink:href="#DejaVuSans-Bold-32"/>
      <use x="535.009766" xlink:href="#DejaVuSans-Bold-83"/>
      <use x="607.03125" xlink:href="#DejaVuSans-Bold-99"/>
      <use x="666.308594" xlink:href="#DejaVuSans-Bold-111"/>
      <use x="735.009766" xlink:href="#DejaVuSans-Bold-114"/>
      <use x="784.326172" xlink:href="#DejaVuSans-Bold-101"/>
     </g>
    </g>
   </g>
   <g id="LineCollection_1">
    <path clip-path="url(#p0c03c184b3)" d="M 66.601648 290.318425 
L 66.601648 260.479272 
" style="fill:none;stroke:#b09724;stroke-width:3;"/>
    <path clip-path="url(#p0c03c184b3)" d="M 216.093125 283.429271 
L 216.093125 253.895833 
" style="fill:none;stroke:#b09724;stroke-width:3;"/>
    <path clip-path="url(#p0c03c184b3)" d="M 365.584602 287.512816 
L 365.584602 263.284881 
" style="fill:none;stroke:#b09724;stroke-width:3;"/>
    <path clip-path="url(#p0c03c184b3)" d="M 515.07608 319.712313 
L 515.07608 298.448347 
" style="fill:none;stroke:#b09724;stroke-width:3;"/>
   </g>
   <g id="LineCollection_2">
    <path clip-path="url(#p0c03c184b3)" d="M 66.601648 347.749673 
L 66.601648 327.669505 
" style="fill:none;stroke:#b09724;stroke-width:3;"/>
    <path clip-path="url(#p0c03c184b3)" d="M 216.093125 350.201205 
L 216.093125 335.322418 
" style="fill:none;stroke:#b09724;stroke-width:3;"/>
    <path clip-path="url(#p0c03c184b3)" d="M 365.584602 358.925784 
L 365.584602 343.43858 
" style="fill:none;stroke:#b09724;stroke-width:3;"/>
    <path clip-path="url(#p0c03c184b3)" d="M 515.07608 363.105239 
L 515.07608 352.731717 
" style="fill:none;stroke:#b09724;stroke-width:3;"/>
   </g>
   <g id="LineCollection_3">
    <path clip-path="url(#p0c03c184b3)" d="M 59.127074 293.333333 
L 59.127074 267.568808 
" style="fill:none;stroke:#197678;stroke-width:3;"/>
    <path clip-path="url(#p0c03c184b3)" d="M 208.618551 297.934191 
L 208.618551 273.072394 
" style="fill:none;stroke:#197678;stroke-width:3;"/>
    <path clip-path="url(#p0c03c184b3)" d="M 358.110028 303.439273 
L 358.110028 274.303609 
" style="fill:none;stroke:#197678;stroke-width:3;"/>
    <path clip-path="url(#p0c03c184b3)" d="M 507.601506 319.983235 
L 507.601506 298.177425 
" style="fill:none;stroke:#197678;stroke-width:3;"/>
   </g>
   <g id="LineCollection_4">
    <path clip-path="url(#p0c03c184b3)" d="M 59.127074 363.407622 
L 59.127074 349.061186 
" style="fill:none;stroke:#197678;stroke-width:3;"/>
    <path clip-path="url(#p0c03c184b3)" d="M 208.618551 344.507668 
L 208.618551 297.230028 
" style="fill:none;stroke:#197678;stroke-width:3;"/>
    <path clip-path="url(#p0c03c184b3)" d="M 358.110028 365.547034 
L 358.110028 357.026218 
" style="fill:none;stroke:#197678;stroke-width:3;"/>
    <path clip-path="url(#p0c03c184b3)" d="M 507.601506 339.417702 
L 507.601506 309.056291 
" style="fill:none;stroke:#197678;stroke-width:3;"/>
   </g>
   <g id="LineCollection_5">
    <path clip-path="url(#p0c03c184b3)" d="M 81.550795 240.527974 
L 81.550795 219.329723 
" style="fill:none;stroke:#1f4788;stroke-width:3;"/>
    <path clip-path="url(#p0c03c184b3)" d="M 231.042273 234.217601 
L 231.042273 215.535651 
" style="fill:none;stroke:#1f4788;stroke-width:3;"/>
    <path clip-path="url(#p0c03c184b3)" d="M 380.53375 234.050026 
L 380.53375 214.028561 
" style="fill:none;stroke:#1f4788;stroke-width:3;"/>
    <path clip-path="url(#p0c03c184b3)" d="M 530.025227 260.952811 
L 530.025227 242.690811 
" style="fill:none;stroke:#1f4788;stroke-width:3;"/>
   </g>
   <g id="LineCollection_6">
    <path clip-path="url(#p0c03c184b3)" d="M 74.076222 224.807565 
L 74.076222 174.423465 
" style="fill:none;stroke:#9e778a;stroke-width:3;"/>
    <path clip-path="url(#p0c03c184b3)" d="M 223.567699 280.968744 
L 223.567699 242.883768 
" style="fill:none;stroke:#9e778a;stroke-width:3;"/>
    <path clip-path="url(#p0c03c184b3)" d="M 373.059176 260.554493 
L 373.059176 222.880241 
" style="fill:none;stroke:#9e778a;stroke-width:3;"/>
    <path clip-path="url(#p0c03c184b3)" d="M 522.550653 257.301652 
L 522.550653 222.764933 
" style="fill:none;stroke:#9e778a;stroke-width:3;"/>
   </g>
   <g id="LineCollection_7">
    <path clip-path="url(#p0c03c184b3)" d="M 81.550795 345.16274 
L 81.550795 333.624586 
" style="fill:none;stroke:#1f4788;stroke-width:3;"/>
    <path clip-path="url(#p0c03c184b3)" d="M 231.042273 343.921965 
L 231.042273 334.865361 
" style="fill:none;stroke:#1f4788;stroke-width:3;"/>
    <path clip-path="url(#p0c03c184b3)" d="M 380.53375 349.172153 
L 380.53375 342.090493 
" style="fill:none;stroke:#1f4788;stroke-width:3;"/>
    <path clip-path="url(#p0c03c184b3)" d="M 530.025227 348.099257 
L 530.025227 340.792514 
" style="fill:none;stroke:#1f4788;stroke-width:3;"/>
   </g>
   <g id="LineCollection_8">
    <path clip-path="url(#p0c03c184b3)" d="M 89.025369 348.500774 
L 89.025369 333.6547 
" style="fill:none;stroke:#9e778a;stroke-width:3;"/>
    <path clip-path="url(#p0c03c184b3)" d="M 238.516847 346.8688 
L 238.516847 325.18223 
" style="fill:none;stroke:#9e778a;stroke-width:3;"/>
    <path clip-path="url(#p0c03c184b3)" d="M 388.008324 352.281524 
L 388.008324 339.978395 
" style="fill:none;stroke:#9e778a;stroke-width:3;"/>
    <path clip-path="url(#p0c03c184b3)" d="M 537.499801 346.066658 
L 537.499801 319.248076 
" style="fill:none;stroke:#9e778a;stroke-width:3;"/>
   </g>
   <g id="line2d_19">
    <defs>
     <path d="M 5 0 
L -5 -0 
" id="m089b9da57e" style="stroke:#b09724;"/>
    </defs>
    <g clip-path="url(#p0c03c184b3)">
     <use style="fill:#b09724;stroke:#b09724;" x="66.601648" xlink:href="#m089b9da57e" y="290.318425"/>
     <use style="fill:#b09724;stroke:#b09724;" x="216.093125" xlink:href="#m089b9da57e" y="283.429271"/>
     <use style="fill:#b09724;stroke:#b09724;" x="365.584602" xlink:href="#m089b9da57e" y="287.512816"/>
     <use style="fill:#b09724;stroke:#b09724;" x="515.07608" xlink:href="#m089b9da57e" y="319.712313"/>
    </g>
   </g>
   <g id="line2d_20">
    <g clip-path="url(#p0c03c184b3)">
     <use style="fill:#b09724;stroke:#b09724;" x="66.601648" xlink:href="#m089b9da57e" y="260.479272"/>
     <use style="fill:#b09724;stroke:#b09724;" x="216.093125" xlink:href="#m089b9da57e" y="253.895833"/>
     <use style="fill:#b09724;stroke:#b09724;" x="365.584602" xlink:href="#m089b9da57e" y="263.284881"/>
     <use style="fill:#b09724;stroke:#b09724;" x="515.07608" xlink:href="#m089b9da57e" y="298.448347"/>
    </g>
   </g>
   <g id="line2d_21">
    <g clip-path="url(#p0c03c184b3)">
     <use style="fill:#b09724;stroke:#b09724;" x="66.601648" xlink:href="#m089b9da57e" y="347.749673"/>
     <use style="fill:#b09724;stroke:#b09724;" x="216.093125" xlink:href="#m089b9da57e" y="350.201205"/>
     <use style="fill:#b09724;stroke:#b09724;" x="365.584602" xlink:href="#m089b9da57e" y="358.925784"/>
     <use style="fill:#b09724;stroke:#b09724;" x="515.07608" xlink:href="#m089b9da57e" y="363.105239"/>
    </g>
   </g>
   <g id="line2d_22">
    <g clip-path="url(#p0c03c184b3)">
     <use style="fill:#b09724;stroke:#b09724;" x="66.601648" xlink:href="#m089b9da57e" y="327.669505"/>
     <use style="fill:#b09724;stroke:#b09724;" x="216.093125" xlink:href="#m089b9da57e" y="335.322418"/>
     <use style="fill:#b09724;stroke:#b09724;" x="365.584602" xlink:href="#m089b9da57e" y="343.43858"/>
     <use style="fill:#b09724;stroke:#b09724;" x="515.07608" xlink:href="#m089b9da57e" y="352.731717"/>
    </g>
   </g>
   <g id="line2d_23">
    <defs>
     <path d="M 5 0 
L -5 -0 
" id="mb5cee46b6d" style="stroke:#197678;"/>
    </defs>
    <g clip-path="url(#p0c03c184b3)">
     <use style="fill:#197678;stroke:#197678;" x="59.127074" xlink:href="#mb5cee46b6d" y="293.333333"/>
     <use style="fill:#197678;stroke:#197678;" x="208.618551" xlink:href="#mb5cee46b6d" y="297.934191"/>
     <use style="fill:#197678;stroke:#197678;" x="358.110028" xlink:href="#mb5cee46b6d" y="303.439273"/>
     <use style="fill:#197678;stroke:#197678;" x="507.601506" xlink:href="#mb5cee46b6d" y="319.983235"/>
    </g>
   </g>
   <g id="line2d_24">
    <g clip-path="url(#p0c03c184b3)">
     <use style="fill:#197678;stroke:#197678;" x="59.127074" xlink:href="#mb5cee46b6d" y="267.568808"/>
     <use style="fill:#197678;stroke:#197678;" x="208.618551" xlink:href="#mb5cee46b6d" y="273.072394"/>
     <use style="fill:#197678;stroke:#197678;" x="358.110028" xlink:href="#mb5cee46b6d" y="274.303609"/>
     <use style="fill:#197678;stroke:#197678;" x="507.601506" xlink:href="#mb5cee46b6d" y="298.177425"/>
    </g>
   </g>
   <g id="line2d_25">
    <g clip-path="url(#p0c03c184b3)">
     <use style="fill:#197678;stroke:#197678;" x="59.127074" xlink:href="#mb5cee46b6d" y="363.407622"/>
     <use style="fill:#197678;stroke:#197678;" x="208.618551" xlink:href="#mb5cee46b6d" y="344.507668"/>
     <use style="fill:#197678;stroke:#197678;" x="358.110028" xlink:href="#mb5cee46b6d" y="365.547034"/>
     <use style="fill:#197678;stroke:#197678;" x="507.601506" xlink:href="#mb5cee46b6d" y="339.417702"/>
    </g>
   </g>
   <g id="line2d_26">
    <g clip-path="url(#p0c03c184b3)">
     <use style="fill:#197678;stroke:#197678;" x="59.127074" xlink:href="#mb5cee46b6d" y="349.061186"/>
     <use style="fill:#197678;stroke:#197678;" x="208.618551" xlink:href="#mb5cee46b6d" y="297.230028"/>
     <use style="fill:#197678;stroke:#197678;" x="358.110028" xlink:href="#mb5cee46b6d" y="357.026218"/>
     <use style="fill:#197678;stroke:#197678;" x="507.601506" xlink:href="#mb5cee46b6d" y="309.056291"/>
    </g>
   </g>
   <g id="line2d_27">
    <defs>
     <path d="M 5 0 
L -5 -0 
" id="m4b0476f327" style="stroke:#1f4788;"/>
    </defs>
    <g clip-path="url(#p0c03c184b3)">
     <use style="fill:#1f4788;stroke:#1f4788;" x="81.550795" xlink:href="#m4b0476f327" y="240.527974"/>
     <use style="fill:#1f4788;stroke:#1f4788;" x="231.042273" xlink:href="#m4b0476f327" y="234.217601"/>
     <use style="fill:#1f4788;stroke:#1f4788;" x="380.53375" xlink:href="#m4b0476f327" y="234.050026"/>
     <use style="fill:#1f4788;stroke:#1f4788;" x="530.025227" xlink:href="#m4b0476f327" y="260.952811"/>
    </g>
   </g>
   <g id="line2d_28">
    <g clip-path="url(#p0c03c184b3)">
     <use style="fill:#1f4788;stroke:#1f4788;" x="81.550795" xlink:href="#m4b0476f327" y="219.329723"/>
     <use style="fill:#1f4788;stroke:#1f4788;" x="231.042273" xlink:href="#m4b0476f327" y="215.535651"/>
     <use style="fill:#1f4788;stroke:#1f4788;" x="380.53375" xlink:href="#m4b0476f327" y="214.028561"/>
     <use style="fill:#1f4788;stroke:#1f4788;" x="530.025227" xlink:href="#m4b0476f327" y="242.690811"/>
    </g>
   </g>
   <g id="line2d_29">
    <defs>
     <path d="M 5 0 
L -5 -0 
" id="m8533d8c730" style="stroke:#9e778a;"/>
    </defs>
    <g clip-path="url(#p0c03c184b3)">
     <use style="fill:#9e778a;stroke:#9e778a;" x="74.076222" xlink:href="#m8533d8c730" y="224.807565"/>
     <use style="fill:#9e778a;stroke:#9e778a;" x="223.567699" xlink:href="#m8533d8c730" y="280.968744"/>
     <use style="fill:#9e778a;stroke:#9e778a;" x="373.059176" xlink:href="#m8533d8c730" y="260.554493"/>
     <use style="fill:#9e778a;stroke:#9e778a;" x="522.550653" xlink:href="#m8533d8c730" y="257.301652"/>
    </g>
   </g>
   <g id="line2d_30">
    <g clip-path="url(#p0c03c184b3)">
     <use style="fill:#9e778a;stroke:#9e778a;" x="74.076222" xlink:href="#m8533d8c730" y="174.423465"/>
     <use style="fill:#9e778a;stroke:#9e778a;" x="223.567699" xlink:href="#m8533d8c730" y="242.883768"/>
     <use style="fill:#9e778a;stroke:#9e778a;" x="373.059176" xlink:href="#m8533d8c730" y="222.880241"/>
     <use style="fill:#9e778a;stroke:#9e778a;" x="522.550653" xlink:href="#m8533d8c730" y="222.764933"/>
    </g>
   </g>
   <g id="line2d_31">
    <g clip-path="url(#p0c03c184b3)">
     <use style="fill:#1f4788;stroke:#1f4788;" x="81.550795" xlink:href="#m4b0476f327" y="345.16274"/>
     <use style="fill:#1f4788;stroke:#1f4788;" x="231.042273" xlink:href="#m4b0476f327" y="343.921965"/>
     <use style="fill:#1f4788;stroke:#1f4788;" x="380.53375" xlink:href="#m4b0476f327" y="349.172153"/>
     <use style="fill:#1f4788;stroke:#1f4788;" x="530.025227" xlink:href="#m4b0476f327" y="348.099257"/>
    </g>
   </g>
   <g id="line2d_32">
    <g clip-path="url(#p0c03c184b3)">
     <use style="fill:#1f4788;stroke:#1f4788;" x="81.550795" xlink:href="#m4b0476f327" y="333.624586"/>
     <use style="fill:#1f4788;stroke:#1f4788;" x="231.042273" xlink:href="#m4b0476f327" y="334.865361"/>
     <use style="fill:#1f4788;stroke:#1f4788;" x="380.53375" xlink:href="#m4b0476f327" y="342.090493"/>
     <use style="fill:#1f4788;stroke:#1f4788;" x="530.025227" xlink:href="#m4b0476f327" y="340.792514"/>
    </g>
   </g>
   <g id="line2d_33">
    <g clip-path="url(#p0c03c184b3)">
     <use style="fill:#9e778a;stroke:#9e778a;" x="89.025369" xlink:href="#m8533d8c730" y="348.500774"/>
     <use style="fill:#9e778a;stroke:#9e778a;" x="238.516847" xlink:href="#m8533d8c730" y="346.8688"/>
     <use style="fill:#9e778a;stroke:#9e778a;" x="388.008324" xlink:href="#m8533d8c730" y="352.281524"/>
     <use style="fill:#9e778a;stroke:#9e778a;" x="537.499801" xlink:href="#m8533d8c730" y="346.066658"/>
    </g>
   </g>
   <g id="line2d_34">
    <g clip-path="url(#p0c03c184b3)">
     <use style="fill:#9e778a;stroke:#9e778a;" x="89.025369" xlink:href="#m8533d8c730" y="333.6547"/>
     <use style="fill:#9e778a;stroke:#9e778a;" x="238.516847" xlink:href="#m8533d8c730" y="325.18223"/>
     <use style="fill:#9e778a;stroke:#9e778a;" x="388.008324" xlink:href="#m8533d8c730" y="339.978395"/>
     <use style="fill:#9e778a;stroke:#9e778a;" x="537.499801" xlink:href="#m8533d8c730" y="319.248076"/>
    </g>
   </g>
   <g id="line2d_35">
    <path clip-path="url(#p0c03c184b3)" d="M 66.601648 275.398848 
L 216.093125 268.662552 
L 365.584602 275.398848 
L 515.07608 309.08033 
" style="fill:none;stroke:#b09724;stroke-linecap:square;stroke-width:3;"/>
    <defs>
     <path d="M 0 4 
C 1.060812 4 2.078319 3.578535 2.828427 2.828427 
C 3.578535 2.078319 4 1.060812 4 0 
C 4 -1.060812 3.578535 -2.078319 2.828427 -2.828427 
C 2.078319 -3.578535 1.060812 -4 0 -4 
C -1.060812 -4 -2.078319 -3.578535 -2.828427 -2.828427 
C -3.578535 -2.078319 -4 -1.060812 -4 0 
C -4 1.060812 -3.578535 2.078319 -2.828427 2.828427 
C -2.078319 3.578535 -1.060812 4 0 4 
z
" id="m20ce652f37" style="stroke:#b09724;"/>
    </defs>
    <g clip-path="url(#p0c03c184b3)">
     <use style="fill:#b09724;stroke:#b09724;" x="66.601648" xlink:href="#m20ce652f37" y="275.398848"/>
     <use style="fill:#b09724;stroke:#b09724;" x="216.093125" xlink:href="#m20ce652f37" y="268.662552"/>
     <use style="fill:#b09724;stroke:#b09724;" x="365.584602" xlink:href="#m20ce652f37" y="275.398848"/>
     <use style="fill:#b09724;stroke:#b09724;" x="515.07608" xlink:href="#m20ce652f37" y="309.08033"/>
    </g>
   </g>
   <g id="line2d_36">
    <path clip-path="url(#p0c03c184b3)" d="M 66.601648 337.709589 
L 216.093125 342.761811 
L 365.584602 351.182182 
L 515.07608 357.918478 
" style="fill:none;stroke:#b09724;stroke-dasharray:11.1,4.8;stroke-dashoffset:0;stroke-width:3;"/>
    <defs>
     <path d="M 0 -4 
L -4 4 
L 4 4 
z
" id="m1ebb753478" style="stroke:#b09724;stroke-linejoin:miter;"/>
    </defs>
    <g clip-path="url(#p0c03c184b3)">
     <use style="fill:#b09724;stroke:#b09724;stroke-linejoin:miter;" x="66.601648" xlink:href="#m1ebb753478" y="337.709589"/>
     <use style="fill:#b09724;stroke:#b09724;stroke-linejoin:miter;" x="216.093125" xlink:href="#m1ebb753478" y="342.761811"/>
     <use style="fill:#b09724;stroke:#b09724;stroke-linejoin:miter;" x="365.584602" xlink:href="#m1ebb753478" y="351.182182"/>
     <use style="fill:#b09724;stroke:#b09724;stroke-linejoin:miter;" x="515.07608" xlink:href="#m1ebb753478" y="357.918478"/>
    </g>
   </g>
   <g id="line2d_37">
    <path clip-path="url(#p0c03c184b3)" d="M 59.127074 280.451071 
L 208.618551 285.503293 
L 358.110028 288.871441 
L 507.601506 309.08033 
" style="fill:none;stroke:#197678;stroke-linecap:square;stroke-width:3;"/>
    <defs>
     <path d="M 0 4 
C 1.060812 4 2.078319 3.578535 2.828427 2.828427 
C 3.578535 2.078319 4 1.060812 4 0 
C 4 -1.060812 3.578535 -2.078319 2.828427 -2.828427 
C 2.078319 -3.578535 1.060812 -4 0 -4 
C -1.060812 -4 -2.078319 -3.578535 -2.828427 -2.828427 
C -3.578535 -2.078319 -4 -1.060812 -4 0 
C -4 1.060812 -3.578535 2.078319 -2.828427 2.828427 
C -2.078319 3.578535 -1.060812 4 0 4 
z
" id="m19a624e42b" style="stroke:#197678;"/>
    </defs>
    <g clip-path="url(#p0c03c184b3)">
     <use style="fill:#197678;stroke:#197678;" x="59.127074" xlink:href="#m19a624e42b" y="280.451071"/>
     <use style="fill:#197678;stroke:#197678;" x="208.618551" xlink:href="#m19a624e42b" y="285.503293"/>
     <use style="fill:#197678;stroke:#197678;" x="358.110028" xlink:href="#m19a624e42b" y="288.871441"/>
     <use style="fill:#197678;stroke:#197678;" x="507.601506" xlink:href="#m19a624e42b" y="309.08033"/>
    </g>
   </g>
   <g id="line2d_38">
    <path clip-path="url(#p0c03c184b3)" d="M 59.127074 356.234404 
L 208.618551 320.868848 
L 358.110028 361.286626 
L 507.601506 324.236997 
" style="fill:none;stroke:#197678;stroke-dasharray:11.1,4.8;stroke-dashoffset:0;stroke-width:3;"/>
    <defs>
     <path d="M 0 -4 
L -4 4 
L 4 4 
z
" id="m2e1a0f20a7" style="stroke:#197678;stroke-linejoin:miter;"/>
    </defs>
    <g clip-path="url(#p0c03c184b3)">
     <use style="fill:#197678;stroke:#197678;stroke-linejoin:miter;" x="59.127074" xlink:href="#m2e1a0f20a7" y="356.234404"/>
     <use style="fill:#197678;stroke:#197678;stroke-linejoin:miter;" x="208.618551" xlink:href="#m2e1a0f20a7" y="320.868848"/>
     <use style="fill:#197678;stroke:#197678;stroke-linejoin:miter;" x="358.110028" xlink:href="#m2e1a0f20a7" y="361.286626"/>
     <use style="fill:#197678;stroke:#197678;stroke-linejoin:miter;" x="507.601506" xlink:href="#m2e1a0f20a7" y="324.236997"/>
    </g>
   </g>
   <g id="line2d_39">
    <path clip-path="url(#p0c03c184b3)" d="M 81.550795 229.928848 
L 231.042273 224.876626 
L 380.53375 224.039293 
L 530.025227 251.821811 
" style="fill:none;stroke:#1f4788;stroke-linecap:square;stroke-width:3;"/>
    <defs>
     <path d="M 0 4 
C 1.060812 4 2.078319 3.578535 2.828427 2.828427 
C 3.578535 2.078319 4 1.060812 4 0 
C 4 -1.060812 3.578535 -2.078319 2.828427 -2.828427 
C 2.078319 -3.578535 1.060812 -4 0 -4 
C -1.060812 -4 -2.078319 -3.578535 -2.828427 -2.828427 
C -3.578535 -2.078319 -4 -1.060812 -4 0 
C -4 1.060812 -3.578535 2.078319 -2.828427 2.828427 
C -2.078319 3.578535 -1.060812 4 0 4 
z
" id="m30219076b9" style="stroke:#1f4788;"/>
    </defs>
    <g clip-path="url(#p0c03c184b3)">
     <use style="fill:#1f4788;stroke:#1f4788;" x="81.550795" xlink:href="#m30219076b9" y="229.928848"/>
     <use style="fill:#1f4788;stroke:#1f4788;" x="231.042273" xlink:href="#m30219076b9" y="224.876626"/>
     <use style="fill:#1f4788;stroke:#1f4788;" x="380.53375" xlink:href="#m30219076b9" y="224.039293"/>
     <use style="fill:#1f4788;stroke:#1f4788;" x="530.025227" xlink:href="#m30219076b9" y="251.821811"/>
    </g>
   </g>
   <g id="line2d_40">
    <path clip-path="url(#p0c03c184b3)" d="M 74.076222 199.615515 
L 223.567699 261.926256 
L 373.059176 241.717367 
L 522.550653 240.033293 
" style="fill:none;stroke:#9e778a;stroke-linecap:square;stroke-width:3;"/>
    <defs>
     <path d="M 0 4 
C 1.060812 4 2.078319 3.578535 2.828427 2.828427 
C 3.578535 2.078319 4 1.060812 4 0 
C 4 -1.060812 3.578535 -2.078319 2.828427 -2.828427 
C 2.078319 -3.578535 1.060812 -4 0 -4 
C -1.060812 -4 -2.078319 -3.578535 -2.828427 -2.828427 
C -3.578535 -2.078319 -4 -1.060812 -4 0 
C -4 1.060812 -3.578535 2.078319 -2.828427 2.828427 
C -2.078319 3.578535 -1.060812 4 0 4 
z
" id="m3a05891660" style="stroke:#9e778a;"/>
    </defs>
    <g clip-path="url(#p0c03c184b3)">
     <use style="fill:#9e778a;stroke:#9e778a;" x="74.076222" xlink:href="#m3a05891660" y="199.615515"/>
     <use style="fill:#9e778a;stroke:#9e778a;" x="223.567699" xlink:href="#m3a05891660" y="261.926256"/>
     <use style="fill:#9e778a;stroke:#9e778a;" x="373.059176" xlink:href="#m3a05891660" y="241.717367"/>
     <use style="fill:#9e778a;stroke:#9e778a;" x="522.550653" xlink:href="#m3a05891660" y="240.033293"/>
    </g>
   </g>
   <g id="line2d_41">
    <path clip-path="url(#p0c03c184b3)" d="M 81.550795 339.393663 
L 231.042273 339.393663 
L 380.53375 345.631323 
L 530.025227 344.445885 
" style="fill:none;stroke:#1f4788;stroke-dasharray:11.1,4.8;stroke-dashoffset:0;stroke-width:3;"/>
    <defs>
     <path d="M 0 -4 
L -4 4 
L 4 4 
z
" id="m4b1181dcb4" style="stroke:#1f4788;stroke-linejoin:miter;"/>
    </defs>
    <g clip-path="url(#p0c03c184b3)">
     <use style="fill:#1f4788;stroke:#1f4788;stroke-linejoin:miter;" x="81.550795" xlink:href="#m4b1181dcb4" y="339.393663"/>
     <use style="fill:#1f4788;stroke:#1f4788;stroke-linejoin:miter;" x="231.042273" xlink:href="#m4b1181dcb4" y="339.393663"/>
     <use style="fill:#1f4788;stroke:#1f4788;stroke-linejoin:miter;" x="380.53375" xlink:href="#m4b1181dcb4" y="345.631323"/>
     <use style="fill:#1f4788;stroke:#1f4788;stroke-linejoin:miter;" x="530.025227" xlink:href="#m4b1181dcb4" y="344.445885"/>
    </g>
   </g>
   <g id="line2d_42">
    <path clip-path="url(#p0c03c184b3)" d="M 89.025369 341.077737 
L 238.516847 336.025515 
L 388.008324 346.129959 
L 537.499801 332.657367 
" style="fill:none;stroke:#9e778a;stroke-dasharray:11.1,4.8;stroke-dashoffset:0;stroke-width:3;"/>
    <defs>
     <path d="M 0 -4 
L -4 4 
L 4 4 
z
" id="m04520fd186" style="stroke:#9e778a;stroke-linejoin:miter;"/>
    </defs>
    <g clip-path="url(#p0c03c184b3)">
     <use style="fill:#9e778a;stroke:#9e778a;stroke-linejoin:miter;" x="89.025369" xlink:href="#m04520fd186" y="341.077737"/>
     <use style="fill:#9e778a;stroke:#9e778a;stroke-linejoin:miter;" x="238.516847" xlink:href="#m04520fd186" y="336.025515"/>
     <use style="fill:#9e778a;stroke:#9e778a;stroke-linejoin:miter;" x="388.008324" xlink:href="#m04520fd186" y="346.129959"/>
     <use style="fill:#9e778a;stroke:#9e778a;stroke-linejoin:miter;" x="537.499801" xlink:href="#m04520fd186" y="332.657367"/>
    </g>
   </g>
   <g id="patch_3">
    <path d="M 35.208438 374.759219 
L 35.208438 10.999219 
" style="fill:none;stroke:#000000;stroke-linecap:square;stroke-linejoin:miter;stroke-width:0.8;"/>
   </g>
   <g id="patch_4">
    <path d="M 561.418437 374.759219 
L 561.418437 10.999219 
" style="fill:none;stroke:#000000;stroke-linecap:square;stroke-linejoin:miter;stroke-width:0.8;"/>
   </g>
   <g id="patch_5">
    <path d="M 35.208438 374.759219 
L 561.418438 374.759219 
" style="fill:none;stroke:#000000;stroke-linecap:square;stroke-linejoin:miter;stroke-width:0.8;"/>
   </g>
   <g id="patch_6">
    <path d="M 35.208438 10.999219 
L 561.418438 10.999219 
" style="fill:none;stroke:#000000;stroke-linecap:square;stroke-linejoin:miter;stroke-width:0.8;"/>
   </g>
   <g id="legend_1">
    <g id="patch_7">
     <path d="M 431.001406 71.040469 
L 555.118438 71.040469 
Q 556.918438 71.040469 556.918438 69.240469 
L 556.918438 17.299219 
Q 556.918438 15.499219 555.118438 15.499219 
L 431.001406 15.499219 
Q 429.201406 15.499219 429.201406 17.299219 
L 429.201406 69.240469 
Q 429.201406 71.040469 431.001406 71.040469 
z
" style="fill:#ffffff;opacity:0.9;stroke:#cccccc;stroke-linejoin:miter;"/>
    </g>
    <g id="LineCollection_9">
     <path d="M 441.801406 27.287812 
L 441.801406 18.287812 
" style="fill:none;stroke:#b09724;stroke-width:3;"/>
    </g>
    <g id="line2d_43">
     <g>
      <use style="fill:#b09724;stroke:#b09724;" x="441.801406" xlink:href="#m089b9da57e" y="27.287812"/>
     </g>
    </g>
    <g id="line2d_44">
     <g>
      <use style="fill:#b09724;stroke:#b09724;" x="441.801406" xlink:href="#m089b9da57e" y="18.287812"/>
     </g>
    </g>
    <g id="line2d_45">
     <path d="M 432.801406 22.787812 
L 450.801406 22.787812 
" style="fill:none;stroke:#b09724;stroke-linecap:square;stroke-width:3;"/>
    </g>
    <g id="line2d_46">
     <g>
      <use style="fill:#b09724;stroke:#b09724;" x="441.801406" xlink:href="#m20ce652f37" y="22.787812"/>
     </g>
    </g>
    <g id="text_14">
     <!-- S. mediterranea CC -->
     <g transform="translate(458.001406 25.937812)scale(0.09 -0.09)">
      <defs>
       <path d="M 53.515625 70.515625 
L 53.515625 60.890625 
Q 47.90625 63.578125 42.921875 64.890625 
Q 37.9375 66.21875 33.296875 66.21875 
Q 25.25 66.21875 20.875 63.09375 
Q 16.5 59.96875 16.5 54.203125 
Q 16.5 49.359375 19.40625 46.890625 
Q 22.3125 44.4375 30.421875 42.921875 
L 36.375 41.703125 
Q 47.40625 39.59375 52.65625 34.296875 
Q 57.90625 29 57.90625 20.125 
Q 57.90625 9.515625 50.796875 4.046875 
Q 43.703125 -1.421875 29.984375 -1.421875 
Q 24.8125 -1.421875 18.96875 -0.25 
Q 13.140625 0.921875 6.890625 3.21875 
L 6.890625 13.375 
Q 12.890625 10.015625 18.65625 8.296875 
Q 24.421875 6.59375 29.984375 6.59375 
Q 38.421875 6.59375 43.015625 9.90625 
Q 47.609375 13.234375 47.609375 19.390625 
Q 47.609375 24.75 44.3125 27.78125 
Q 41.015625 30.8125 33.5 32.328125 
L 27.484375 33.5 
Q 16.453125 35.6875 11.515625 40.375 
Q 6.59375 45.0625 6.59375 53.421875 
Q 6.59375 63.09375 13.40625 68.65625 
Q 20.21875 74.21875 32.171875 74.21875 
Q 37.3125 74.21875 42.625 73.28125 
Q 47.953125 72.359375 53.515625 70.515625 
z
" id="DejaVuSans-83"/>
       <path d="M 10.6875 12.40625 
L 21 12.40625 
L 21 0 
L 10.6875 0 
z
" id="DejaVuSans-46"/>
       <path d="M 52 44.1875 
Q 55.375 50.25 60.0625 53.125 
Q 64.75 56 71.09375 56 
Q 79.640625 56 84.28125 50.015625 
Q 88.921875 44.046875 88.921875 33.015625 
L 88.921875 0 
L 79.890625 0 
L 79.890625 32.71875 
Q 79.890625 40.578125 77.09375 44.375 
Q 74.3125 48.1875 68.609375 48.1875 
Q 61.625 48.1875 57.5625 43.546875 
Q 53.515625 38.921875 53.515625 30.90625 
L 53.515625 0 
L 44.484375 0 
L 44.484375 32.71875 
Q 44.484375 40.625 41.703125 44.40625 
Q 38.921875 48.1875 33.109375 48.1875 
Q 26.21875 48.1875 22.15625 43.53125 
Q 18.109375 38.875 18.109375 30.90625 
L 18.109375 0 
L 9.078125 0 
L 9.078125 54.6875 
L 18.109375 54.6875 
L 18.109375 46.1875 
Q 21.1875 51.21875 25.484375 53.609375 
Q 29.78125 56 35.6875 56 
Q 41.65625 56 45.828125 52.96875 
Q 50 49.953125 52 44.1875 
z
" id="DejaVuSans-109"/>
       <path d="M 56.203125 29.59375 
L 56.203125 25.203125 
L 14.890625 25.203125 
Q 15.484375 15.921875 20.484375 11.0625 
Q 25.484375 6.203125 34.421875 6.203125 
Q 39.59375 6.203125 44.453125 7.46875 
Q 49.3125 8.734375 54.109375 11.28125 
L 54.109375 2.78125 
Q 49.265625 0.734375 44.1875 -0.34375 
Q 39.109375 -1.421875 33.890625 -1.421875 
Q 20.796875 -1.421875 13.15625 6.1875 
Q 5.515625 13.8125 5.515625 26.8125 
Q 5.515625 40.234375 12.765625 48.109375 
Q 20.015625 56 32.328125 56 
Q 43.359375 56 49.78125 48.890625 
Q 56.203125 41.796875 56.203125 29.59375 
z
M 47.21875 32.234375 
Q 47.125 39.59375 43.09375 43.984375 
Q 39.0625 48.390625 32.421875 48.390625 
Q 24.90625 48.390625 20.390625 44.140625 
Q 15.875 39.890625 15.1875 32.171875 
z
" id="DejaVuSans-101"/>
       <path d="M 45.40625 46.390625 
L 45.40625 75.984375 
L 54.390625 75.984375 
L 54.390625 0 
L 45.40625 0 
L 45.40625 8.203125 
Q 42.578125 3.328125 38.25 0.953125 
Q 33.9375 -1.421875 27.875 -1.421875 
Q 17.96875 -1.421875 11.734375 6.484375 
Q 5.515625 14.40625 5.515625 27.296875 
Q 5.515625 40.1875 11.734375 48.09375 
Q 17.96875 56 27.875 56 
Q 33.9375 56 38.25 53.625 
Q 42.578125 51.265625 45.40625 46.390625 
z
M 14.796875 27.296875 
Q 14.796875 17.390625 18.875 11.75 
Q 22.953125 6.109375 30.078125 6.109375 
Q 37.203125 6.109375 41.296875 11.75 
Q 45.40625 17.390625 45.40625 27.296875 
Q 45.40625 37.203125 41.296875 42.84375 
Q 37.203125 48.484375 30.078125 48.484375 
Q 22.953125 48.484375 18.875 42.84375 
Q 14.796875 37.203125 14.796875 27.296875 
z
" id="DejaVuSans-100"/>
       <path d="M 9.421875 54.6875 
L 18.40625 54.6875 
L 18.40625 0 
L 9.421875 0 
z
M 9.421875 75.984375 
L 18.40625 75.984375 
L 18.40625 64.59375 
L 9.421875 64.59375 
z
" id="DejaVuSans-105"/>
       <path d="M 18.3125 70.21875 
L 18.3125 54.6875 
L 36.8125 54.6875 
L 36.8125 47.703125 
L 18.3125 47.703125 
L 18.3125 18.015625 
Q 18.3125 11.328125 20.140625 9.421875 
Q 21.96875 7.515625 27.59375 7.515625 
L 36.8125 7.515625 
L 36.8125 0 
L 27.59375 0 
Q 17.1875 0 13.234375 3.875 
Q 9.28125 7.765625 9.28125 18.015625 
L 9.28125 47.703125 
L 2.6875 47.703125 
L 2.6875 54.6875 
L 9.28125 54.6875 
L 9.28125 70.21875 
z
" id="DejaVuSans-116"/>
       <path d="M 41.109375 46.296875 
Q 39.59375 47.171875 37.8125 47.578125 
Q 36.03125 48 33.890625 48 
Q 26.265625 48 22.1875 43.046875 
Q 18.109375 38.09375 18.109375 28.8125 
L 18.109375 0 
L 9.078125 0 
L 9.078125 54.6875 
L 18.109375 54.6875 
L 18.109375 46.1875 
Q 20.953125 51.171875 25.484375 53.578125 
Q 30.03125 56 36.53125 56 
Q 37.453125 56 38.578125 55.875 
Q 39.703125 55.765625 41.0625 55.515625 
z
" id="DejaVuSans-114"/>
       <path d="M 54.890625 33.015625 
L 54.890625 0 
L 45.90625 0 
L 45.90625 32.71875 
Q 45.90625 40.484375 42.875 44.328125 
Q 39.84375 48.1875 33.796875 48.1875 
Q 26.515625 48.1875 22.3125 43.546875 
Q 18.109375 38.921875 18.109375 30.90625 
L 18.109375 0 
L 9.078125 0 
L 9.078125 54.6875 
L 18.109375 54.6875 
L 18.109375 46.1875 
Q 21.34375 51.125 25.703125 53.5625 
Q 30.078125 56 35.796875 56 
Q 45.21875 56 50.046875 50.171875 
Q 54.890625 44.34375 54.890625 33.015625 
z
" id="DejaVuSans-110"/>
       <path d="M 64.40625 67.28125 
L 64.40625 56.890625 
Q 59.421875 61.53125 53.78125 63.8125 
Q 48.140625 66.109375 41.796875 66.109375 
Q 29.296875 66.109375 22.65625 58.46875 
Q 16.015625 50.828125 16.015625 36.375 
Q 16.015625 21.96875 22.65625 14.328125 
Q 29.296875 6.6875 41.796875 6.6875 
Q 48.140625 6.6875 53.78125 8.984375 
Q 59.421875 11.28125 64.40625 15.921875 
L 64.40625 5.609375 
Q 59.234375 2.09375 53.4375 0.328125 
Q 47.65625 -1.421875 41.21875 -1.421875 
Q 24.65625 -1.421875 15.125 8.703125 
Q 5.609375 18.84375 5.609375 36.375 
Q 5.609375 53.953125 15.125 64.078125 
Q 24.65625 74.21875 41.21875 74.21875 
Q 47.75 74.21875 53.53125 72.484375 
Q 59.328125 70.75 64.40625 67.28125 
z
" id="DejaVuSans-67"/>
      </defs>
      <use xlink:href="#DejaVuSans-83"/>
      <use x="63.476562" xlink:href="#DejaVuSans-46"/>
      <use x="95.263672" xlink:href="#DejaVuSans-32"/>
      <use x="127.050781" xlink:href="#DejaVuSans-109"/>
      <use x="224.462891" xlink:href="#DejaVuSans-101"/>
      <use x="285.986328" xlink:href="#DejaVuSans-100"/>
      <use x="349.462891" xlink:href="#DejaVuSans-105"/>
      <use x="377.246094" xlink:href="#DejaVuSans-116"/>
      <use x="416.455078" xlink:href="#DejaVuSans-101"/>
      <use x="477.978516" xlink:href="#DejaVuSans-114"/>
      <use x="517.341797" xlink:href="#DejaVuSans-114"/>
      <use x="558.455078" xlink:href="#DejaVuSans-97"/>
      <use x="619.734375" xlink:href="#DejaVuSans-110"/>
      <use x="683.113281" xlink:href="#DejaVuSans-101"/>
      <use x="744.636719" xlink:href="#DejaVuSans-97"/>
      <use x="805.916016" xlink:href="#DejaVuSans-32"/>
      <use x="837.703125" xlink:href="#DejaVuSans-67"/>
      <use x="907.527344" xlink:href="#DejaVuSans-67"/>
     </g>
    </g>
    <g id="LineCollection_10">
     <path d="M 441.801406 40.498125 
L 441.801406 31.498125 
" style="fill:none;stroke:#197678;stroke-width:3;"/>
    </g>
    <g id="line2d_47">
     <g>
      <use style="fill:#197678;stroke:#197678;" x="441.801406" xlink:href="#mb5cee46b6d" y="40.498125"/>
     </g>
    </g>
    <g id="line2d_48">
     <g>
      <use style="fill:#197678;stroke:#197678;" x="441.801406" xlink:href="#mb5cee46b6d" y="31.498125"/>
     </g>
    </g>
    <g id="line2d_49">
     <path d="M 432.801406 35.998125 
L 450.801406 35.998125 
" style="fill:none;stroke:#197678;stroke-linecap:square;stroke-width:3;"/>
    </g>
    <g id="line2d_50">
     <g>
      <use style="fill:#197678;stroke:#197678;" x="441.801406" xlink:href="#m19a624e42b" y="35.998125"/>
     </g>
    </g>
    <g id="text_15">
     <!-- G. dor. (Michigan) CC -->
     <g transform="translate(458.001406 39.148125)scale(0.09 -0.09)">
      <defs>
       <path d="M 59.515625 10.40625 
L 59.515625 29.984375 
L 43.40625 29.984375 
L 43.40625 38.09375 
L 69.28125 38.09375 
L 69.28125 6.78125 
Q 63.578125 2.734375 56.6875 0.65625 
Q 49.8125 -1.421875 42 -1.421875 
Q 24.90625 -1.421875 15.25 8.5625 
Q 5.609375 18.5625 5.609375 36.375 
Q 5.609375 54.25 15.25 64.234375 
Q 24.90625 74.21875 42 74.21875 
Q 49.125 74.21875 55.546875 72.453125 
Q 61.96875 70.703125 67.390625 67.28125 
L 67.390625 56.78125 
Q 61.921875 61.421875 55.765625 63.765625 
Q 49.609375 66.109375 42.828125 66.109375 
Q 29.4375 66.109375 22.71875 58.640625 
Q 16.015625 51.171875 16.015625 36.375 
Q 16.015625 21.625 22.71875 14.15625 
Q 29.4375 6.6875 42.828125 6.6875 
Q 48.046875 6.6875 52.140625 7.59375 
Q 56.25 8.5 59.515625 10.40625 
z
" id="DejaVuSans-71"/>
       <path d="M 30.609375 48.390625 
Q 23.390625 48.390625 19.1875 42.75 
Q 14.984375 37.109375 14.984375 27.296875 
Q 14.984375 17.484375 19.15625 11.84375 
Q 23.34375 6.203125 30.609375 6.203125 
Q 37.796875 6.203125 41.984375 11.859375 
Q 46.1875 17.53125 46.1875 27.296875 
Q 46.1875 37.015625 41.984375 42.703125 
Q 37.796875 48.390625 30.609375 48.390625 
z
M 30.609375 56 
Q 42.328125 56 49.015625 48.375 
Q 55.71875 40.765625 55.71875 27.296875 
Q 55.71875 13.875 49.015625 6.21875 
Q 42.328125 -1.421875 30.609375 -1.421875 
Q 18.84375 -1.421875 12.171875 6.21875 
Q 5.515625 13.875 5.515625 27.296875 
Q 5.515625 40.765625 12.171875 48.375 
Q 18.84375 56 30.609375 56 
z
" id="DejaVuSans-111"/>
       <path d="M 31 75.875 
Q 24.46875 64.65625 21.28125 53.65625 
Q 18.109375 42.671875 18.109375 31.390625 
Q 18.109375 20.125 21.3125 9.0625 
Q 24.515625 -2 31 -13.1875 
L 23.1875 -13.1875 
Q 15.875 -1.703125 12.234375 9.375 
Q 8.59375 20.453125 8.59375 31.390625 
Q 8.59375 42.28125 12.203125 53.3125 
Q 15.828125 64.359375 23.1875 75.875 
z
" id="DejaVuSans-40"/>
       <path d="M 9.8125 72.90625 
L 24.515625 72.90625 
L 43.109375 23.296875 
L 61.8125 72.90625 
L 76.515625 72.90625 
L 76.515625 0 
L 66.890625 0 
L 66.890625 64.015625 
L 48.09375 14.015625 
L 38.1875 14.015625 
L 19.390625 64.015625 
L 19.390625 0 
L 9.8125 0 
z
" id="DejaVuSans-77"/>
       <path d="M 48.78125 52.59375 
L 48.78125 44.1875 
Q 44.96875 46.296875 41.140625 47.34375 
Q 37.3125 48.390625 33.40625 48.390625 
Q 24.65625 48.390625 19.8125 42.84375 
Q 14.984375 37.3125 14.984375 27.296875 
Q 14.984375 17.28125 19.8125 11.734375 
Q 24.65625 6.203125 33.40625 6.203125 
Q 37.3125 6.203125 41.140625 7.25 
Q 44.96875 8.296875 48.78125 10.40625 
L 48.78125 2.09375 
Q 45.015625 0.34375 40.984375 -0.53125 
Q 36.96875 -1.421875 32.421875 -1.421875 
Q 20.0625 -1.421875 12.78125 6.34375 
Q 5.515625 14.109375 5.515625 27.296875 
Q 5.515625 40.671875 12.859375 48.328125 
Q 20.21875 56 33.015625 56 
Q 37.15625 56 41.109375 55.140625 
Q 45.0625 54.296875 48.78125 52.59375 
z
" id="DejaVuSans-99"/>
       <path d="M 54.890625 33.015625 
L 54.890625 0 
L 45.90625 0 
L 45.90625 32.71875 
Q 45.90625 40.484375 42.875 44.328125 
Q 39.84375 48.1875 33.796875 48.1875 
Q 26.515625 48.1875 22.3125 43.546875 
Q 18.109375 38.921875 18.109375 30.90625 
L 18.109375 0 
L 9.078125 0 
L 9.078125 75.984375 
L 18.109375 75.984375 
L 18.109375 46.1875 
Q 21.34375 51.125 25.703125 53.5625 
Q 30.078125 56 35.796875 56 
Q 45.21875 56 50.046875 50.171875 
Q 54.890625 44.34375 54.890625 33.015625 
z
" id="DejaVuSans-104"/>
       <path d="M 45.40625 27.984375 
Q 45.40625 37.75 41.375 43.109375 
Q 37.359375 48.484375 30.078125 48.484375 
Q 22.859375 48.484375 18.828125 43.109375 
Q 14.796875 37.75 14.796875 27.984375 
Q 14.796875 18.265625 18.828125 12.890625 
Q 22.859375 7.515625 30.078125 7.515625 
Q 37.359375 7.515625 41.375 12.890625 
Q 45.40625 18.265625 45.40625 27.984375 
z
M 54.390625 6.78125 
Q 54.390625 -7.171875 48.1875 -13.984375 
Q 42 -20.796875 29.203125 -20.796875 
Q 24.46875 -20.796875 20.265625 -20.09375 
Q 16.0625 -19.390625 12.109375 -17.921875 
L 12.109375 -9.1875 
Q 16.0625 -11.328125 19.921875 -12.34375 
Q 23.78125 -13.375 27.78125 -13.375 
Q 36.625 -13.375 41.015625 -8.765625 
Q 45.40625 -4.15625 45.40625 5.171875 
L 45.40625 9.625 
Q 42.625 4.78125 38.28125 2.390625 
Q 33.9375 0 27.875 0 
Q 17.828125 0 11.671875 7.65625 
Q 5.515625 15.328125 5.515625 27.984375 
Q 5.515625 40.671875 11.671875 48.328125 
Q 17.828125 56 27.875 56 
Q 33.9375 56 38.28125 53.609375 
Q 42.625 51.21875 45.40625 46.390625 
L 45.40625 54.6875 
L 54.390625 54.6875 
z
" id="DejaVuSans-103"/>
       <path d="M 8.015625 75.875 
L 15.828125 75.875 
Q 23.140625 64.359375 26.78125 53.3125 
Q 30.421875 42.28125 30.421875 31.390625 
Q 30.421875 20.453125 26.78125 9.375 
Q 23.140625 -1.703125 15.828125 -13.1875 
L 8.015625 -13.1875 
Q 14.5 -2 17.703125 9.0625 
Q 20.90625 20.125 20.90625 31.390625 
Q 20.90625 42.671875 17.703125 53.65625 
Q 14.5 64.65625 8.015625 75.875 
z
" id="DejaVuSans-41"/>
      </defs>
      <use xlink:href="#DejaVuSans-71"/>
      <use x="77.490234" xlink:href="#DejaVuSans-46"/>
      <use x="109.277344" xlink:href="#DejaVuSans-32"/>
      <use x="141.064453" xlink:href="#DejaVuSans-100"/>
      <use x="204.541016" xlink:href="#DejaVuSans-111"/>
      <use x="265.722656" xlink:href="#DejaVuSans-114"/>
      <use x="297.710938" xlink:href="#DejaVuSans-46"/>
      <use x="329.498047" xlink:href="#DejaVuSans-32"/>
      <use x="361.285156" xlink:href="#DejaVuSans-40"/>
      <use x="400.298828" xlink:href="#DejaVuSans-77"/>
      <use x="486.578125" xlink:href="#DejaVuSans-105"/>
      <use x="514.361328" xlink:href="#DejaVuSans-99"/>
      <use x="569.341797" xlink:href="#DejaVuSans-104"/>
      <use x="632.720703" xlink:href="#DejaVuSans-105"/>
      <use x="660.503906" xlink:href="#DejaVuSans-103"/>
      <use x="723.980469" xlink:href="#DejaVuSans-97"/>
      <use x="785.259766" xlink:href="#DejaVuSans-110"/>
      <use x="848.638672" xlink:href="#DejaVuSans-41"/>
      <use x="887.652344" xlink:href="#DejaVuSans-32"/>
      <use x="919.439453" xlink:href="#DejaVuSans-67"/>
      <use x="989.263672" xlink:href="#DejaVuSans-67"/>
     </g>
    </g>
    <g id="LineCollection_11">
     <path d="M 441.801406 53.708437 
L 441.801406 44.708437 
" style="fill:none;stroke:#1f4788;stroke-width:3;"/>
    </g>
    <g id="line2d_51">
     <g>
      <use style="fill:#1f4788;stroke:#1f4788;" x="441.801406" xlink:href="#m4b0476f327" y="53.708437"/>
     </g>
    </g>
    <g id="line2d_52">
     <g>
      <use style="fill:#1f4788;stroke:#1f4788;" x="441.801406" xlink:href="#m4b0476f327" y="44.708437"/>
     </g>
    </g>
    <g id="line2d_53">
     <path d="M 432.801406 49.208437 
L 450.801406 49.208437 
" style="fill:none;stroke:#1f4788;stroke-linecap:square;stroke-width:3;"/>
    </g>
    <g id="line2d_54">
     <g>
      <use style="fill:#1f4788;stroke:#1f4788;" x="441.801406" xlink:href="#m30219076b9" y="49.208437"/>
     </g>
    </g>
    <g id="text_16">
     <!-- G. dor (Carolina) CC -->
     <g transform="translate(458.001406 52.358437)scale(0.09 -0.09)">
      <defs>
       <path d="M 9.421875 75.984375 
L 18.40625 75.984375 
L 18.40625 0 
L 9.421875 0 
z
" id="DejaVuSans-108"/>
      </defs>
      <use xlink:href="#DejaVuSans-71"/>
      <use x="77.490234" xlink:href="#DejaVuSans-46"/>
      <use x="109.277344" xlink:href="#DejaVuSans-32"/>
      <use x="141.064453" xlink:href="#DejaVuSans-100"/>
      <use x="204.541016" xlink:href="#DejaVuSans-111"/>
      <use x="265.722656" xlink:href="#DejaVuSans-114"/>
      <use x="306.835938" xlink:href="#DejaVuSans-32"/>
      <use x="338.623047" xlink:href="#DejaVuSans-40"/>
      <use x="377.636719" xlink:href="#DejaVuSans-67"/>
      <use x="447.460938" xlink:href="#DejaVuSans-97"/>
      <use x="508.740234" xlink:href="#DejaVuSans-114"/>
      <use x="547.603516" xlink:href="#DejaVuSans-111"/>
      <use x="608.785156" xlink:href="#DejaVuSans-108"/>
      <use x="636.568359" xlink:href="#DejaVuSans-105"/>
      <use x="664.351562" xlink:href="#DejaVuSans-110"/>
      <use x="727.730469" xlink:href="#DejaVuSans-97"/>
      <use x="789.009766" xlink:href="#DejaVuSans-41"/>
      <use x="828.023438" xlink:href="#DejaVuSans-32"/>
      <use x="859.810547" xlink:href="#DejaVuSans-67"/>
      <use x="929.634766" xlink:href="#DejaVuSans-67"/>
     </g>
    </g>
    <g id="LineCollection_12">
     <path d="M 441.801406 66.91875 
L 441.801406 57.91875 
" style="fill:none;stroke:#9e778a;stroke-width:3;"/>
    </g>
    <g id="line2d_55">
     <g>
      <use style="fill:#9e778a;stroke:#9e778a;" x="441.801406" xlink:href="#m8533d8c730" y="66.91875"/>
     </g>
    </g>
    <g id="line2d_56">
     <g>
      <use style="fill:#9e778a;stroke:#9e778a;" x="441.801406" xlink:href="#m8533d8c730" y="57.91875"/>
     </g>
    </g>
    <g id="line2d_57">
     <path d="M 432.801406 62.41875 
L 450.801406 62.41875 
" style="fill:none;stroke:#9e778a;stroke-linecap:square;stroke-width:3;"/>
    </g>
    <g id="line2d_58">
     <g>
      <use style="fill:#9e778a;stroke:#9e778a;" x="441.801406" xlink:href="#m3a05891660" y="62.41875"/>
     </g>
    </g>
    <g id="text_17">
     <!-- G. dor (Carolina) PC -->
     <g transform="translate(458.001406 65.56875)scale(0.09 -0.09)">
      <defs>
       <path d="M 19.671875 64.796875 
L 19.671875 37.40625 
L 32.078125 37.40625 
Q 38.96875 37.40625 42.71875 40.96875 
Q 46.484375 44.53125 46.484375 51.125 
Q 46.484375 57.671875 42.71875 61.234375 
Q 38.96875 64.796875 32.078125 64.796875 
z
M 9.8125 72.90625 
L 32.078125 72.90625 
Q 44.34375 72.90625 50.609375 67.359375 
Q 56.890625 61.8125 56.890625 51.125 
Q 56.890625 40.328125 50.609375 34.8125 
Q 44.34375 29.296875 32.078125 29.296875 
L 19.671875 29.296875 
L 19.671875 0 
L 9.8125 0 
z
" id="DejaVuSans-80"/>
      </defs>
      <use xlink:href="#DejaVuSans-71"/>
      <use x="77.490234" xlink:href="#DejaVuSans-46"/>
      <use x="109.277344" xlink:href="#DejaVuSans-32"/>
      <use x="141.064453" xlink:href="#DejaVuSans-100"/>
      <use x="204.541016" xlink:href="#DejaVuSans-111"/>
      <use x="265.722656" xlink:href="#DejaVuSans-114"/>
      <use x="306.835938" xlink:href="#DejaVuSans-32"/>
      <use x="338.623047" xlink:href="#DejaVuSans-40"/>
      <use x="377.636719" xlink:href="#DejaVuSans-67"/>
      <use x="447.460938" xlink:href="#DejaVuSans-97"/>
      <use x="508.740234" xlink:href="#DejaVuSans-114"/>
      <use x="547.603516" xlink:href="#DejaVuSans-111"/>
      <use x="608.785156" xlink:href="#DejaVuSans-108"/>
      <use x="636.568359" xlink:href="#DejaVuSans-105"/>
      <use x="664.351562" xlink:href="#DejaVuSans-110"/>
      <use x="727.730469" xlink:href="#DejaVuSans-97"/>
      <use x="789.009766" xlink:href="#DejaVuSans-41"/>
      <use x="828.023438" xlink:href="#DejaVuSans-32"/>
      <use x="859.810547" xlink:href="#DejaVuSans-80"/>
      <use x="920.113281" xlink:href="#DejaVuSans-67"/>
     </g>
    </g>
   </g>
  </g>
 </g>
 <defs>
  <clipPath id="p0c03c184b3">
   <rect height="363.76" width="526.21" x="35.208438" y="10.999219"/>
  </clipPath>
 </defs>
</svg>
